%TF.GenerationSoftware,KiCad,Pcbnew,(5.1.2-1)-1*%
%TF.CreationDate,2020-12-17T20:50:41+01:00*%
%TF.ProjectId,snes_rgb_bypass_amp,736e6573-5f72-4676-925f-627970617373,3.2*%
%TF.SameCoordinates,Original*%
%TF.FileFunction,Legend,Top*%
%TF.FilePolarity,Positive*%
%FSLAX46Y46*%
G04 Gerber Fmt 4.6, Leading zero omitted, Abs format (unit mm)*
G04 Created by KiCad (PCBNEW (5.1.2-1)-1) date 2020-12-17 20:50:41*
%MOMM*%
%LPD*%
G04 APERTURE LIST*
%ADD10C,0.152400*%
%ADD11C,0.152500*%
%ADD12C,0.203200*%
%ADD13C,0.150000*%
%ADD14C,0.160000*%
G04 APERTURE END LIST*
D10*
X145192857Y-100070214D02*
X145192857Y-100614500D01*
X145162619Y-100723357D01*
X145102142Y-100795928D01*
X145011428Y-100832214D01*
X144950952Y-100832214D01*
X145495238Y-100759642D02*
X145525476Y-100795928D01*
X145495238Y-100832214D01*
X145465000Y-100795928D01*
X145495238Y-100759642D01*
X145495238Y-100832214D01*
X145495238Y-100360500D02*
X145525476Y-100396785D01*
X145495238Y-100433071D01*
X145465000Y-100396785D01*
X145495238Y-100360500D01*
X145495238Y-100433071D01*
X146100000Y-100832214D02*
X145797619Y-100832214D01*
X145797619Y-100070214D01*
X146311666Y-100832214D02*
X146311666Y-100070214D01*
X146553571Y-100070214D01*
X146614047Y-100106500D01*
X146644285Y-100142785D01*
X146674523Y-100215357D01*
X146674523Y-100324214D01*
X146644285Y-100396785D01*
X146614047Y-100433071D01*
X146553571Y-100469357D01*
X146311666Y-100469357D01*
X147158333Y-100433071D02*
X146946666Y-100433071D01*
X146946666Y-100832214D02*
X146946666Y-100070214D01*
X147249047Y-100070214D01*
D11*
X141941000Y-104307500D02*
X143141000Y-104307500D01*
X141942000Y-104458840D02*
X143140880Y-104458840D01*
D12*
X150629476Y-112504619D02*
X150290809Y-112020809D01*
X150048904Y-112504619D02*
X150048904Y-111488619D01*
X150435952Y-111488619D01*
X150532714Y-111537000D01*
X150581095Y-111585380D01*
X150629476Y-111682142D01*
X150629476Y-111827285D01*
X150581095Y-111924047D01*
X150532714Y-111972428D01*
X150435952Y-112020809D01*
X150048904Y-112020809D01*
D13*
X141106428Y-103787857D02*
X141563571Y-103787857D01*
X141335000Y-104016428D02*
X141335000Y-103559285D01*
D12*
X155344576Y-112373075D02*
X155362285Y-112439165D01*
X155331613Y-112589053D01*
X155283232Y-112672851D01*
X155168761Y-112774358D01*
X155036582Y-112809775D01*
X154928593Y-112803293D01*
X154736806Y-112748430D01*
X154611109Y-112675859D01*
X154467703Y-112537198D01*
X154408095Y-112446918D01*
X154372678Y-112314739D01*
X154403350Y-112164851D01*
X154451731Y-112081053D01*
X154566201Y-111979546D01*
X154632291Y-111961837D01*
X155579999Y-112062072D02*
X155694470Y-111960566D01*
X155815422Y-111751070D01*
X155821904Y-111643081D01*
X155804195Y-111576991D01*
X155744588Y-111486711D01*
X155660789Y-111438330D01*
X155552801Y-111431849D01*
X155486711Y-111449557D01*
X155396431Y-111509165D01*
X155257770Y-111652571D01*
X155167490Y-111712179D01*
X155101400Y-111729888D01*
X154993411Y-111723406D01*
X154909613Y-111675025D01*
X154850005Y-111584745D01*
X154832297Y-111518655D01*
X154838779Y-111410666D01*
X154959731Y-111201171D01*
X155074201Y-111099664D01*
X152181095Y-111537000D02*
X152084333Y-111488619D01*
X151939190Y-111488619D01*
X151794047Y-111537000D01*
X151697285Y-111633761D01*
X151648904Y-111730523D01*
X151600523Y-111924047D01*
X151600523Y-112069190D01*
X151648904Y-112262714D01*
X151697285Y-112359476D01*
X151794047Y-112456238D01*
X151939190Y-112504619D01*
X152035952Y-112504619D01*
X152181095Y-112456238D01*
X152229476Y-112407857D01*
X152229476Y-112069190D01*
X152035952Y-112069190D01*
X153587571Y-111972428D02*
X153732714Y-112020809D01*
X153781095Y-112069190D01*
X153829476Y-112165952D01*
X153829476Y-112311095D01*
X153781095Y-112407857D01*
X153732714Y-112456238D01*
X153635952Y-112504619D01*
X153248904Y-112504619D01*
X153248904Y-111488619D01*
X153587571Y-111488619D01*
X153684333Y-111537000D01*
X153732714Y-111585380D01*
X153781095Y-111682142D01*
X153781095Y-111778904D01*
X153732714Y-111875666D01*
X153684333Y-111924047D01*
X153587571Y-111972428D01*
X153248904Y-111972428D01*
D10*
X144295000Y-107815000D02*
X144295000Y-111915000D01*
X149475000Y-107815000D02*
X149475000Y-111915000D01*
X149475000Y-107815000D02*
X144295000Y-107815000D01*
X149475000Y-111915000D02*
X144295000Y-111915000D01*
X149173540Y-108424820D02*
G75*
G03X149173540Y-108424820I-305857J0D01*
G01*
D13*
G36*
X154355000Y-100715000D02*
G01*
X154225000Y-100775000D01*
X154135000Y-100825000D01*
X154065000Y-100925000D01*
X153935000Y-101065000D01*
X153875000Y-101165000D01*
X153835000Y-101245000D01*
X153775000Y-101255000D01*
X153775000Y-101115000D01*
X153755000Y-100985000D01*
X153785000Y-100825000D01*
X153825000Y-100715000D01*
X153895000Y-100665000D01*
X154315000Y-100685000D01*
X154355000Y-100715000D01*
G37*
X154355000Y-100715000D02*
X154225000Y-100775000D01*
X154135000Y-100825000D01*
X154065000Y-100925000D01*
X153935000Y-101065000D01*
X153875000Y-101165000D01*
X153835000Y-101245000D01*
X153775000Y-101255000D01*
X153775000Y-101115000D01*
X153755000Y-100985000D01*
X153785000Y-100825000D01*
X153825000Y-100715000D01*
X153895000Y-100665000D01*
X154315000Y-100685000D01*
X154355000Y-100715000D01*
G36*
X153785000Y-102255000D02*
G01*
X153775000Y-102395000D01*
X153775000Y-102585000D01*
X153795000Y-102705000D01*
X153835000Y-102755000D01*
X153895000Y-102795000D01*
X153985000Y-102815000D01*
X154335000Y-102805000D01*
X153785000Y-102255000D01*
G37*
X153785000Y-102255000D02*
X153775000Y-102395000D01*
X153775000Y-102585000D01*
X153795000Y-102705000D01*
X153835000Y-102755000D01*
X153895000Y-102795000D01*
X153985000Y-102815000D01*
X154335000Y-102805000D01*
X153785000Y-102255000D01*
G36*
X155905000Y-102195000D02*
G01*
X155895000Y-102635000D01*
X155805000Y-102805000D01*
X155645000Y-102845000D01*
X155305000Y-102815000D01*
X155905000Y-102195000D01*
G37*
X155905000Y-102195000D02*
X155895000Y-102635000D01*
X155805000Y-102805000D01*
X155645000Y-102845000D01*
X155305000Y-102815000D01*
X155905000Y-102195000D01*
G36*
X155165000Y-100665000D02*
G01*
X155285000Y-100645000D01*
X155805000Y-101405000D01*
X155915000Y-101285000D01*
X155915000Y-100695000D01*
X155885000Y-100695000D01*
X155165000Y-100665000D01*
G37*
X155165000Y-100665000D02*
X155285000Y-100645000D01*
X155805000Y-101405000D01*
X155915000Y-101285000D01*
X155915000Y-100695000D01*
X155885000Y-100695000D01*
X155165000Y-100665000D01*
D14*
X155921002Y-101755000D02*
G75*
G03X155921002Y-101755000I-1086002J0D01*
G01*
X155765000Y-101755000D02*
G75*
G03X155765000Y-101755000I-930000J0D01*
G01*
D13*
X153996800Y-100639000D02*
X155698600Y-100639000D01*
X153719000Y-102593200D02*
X153719000Y-100916800D01*
D10*
X142135000Y-102871000D02*
X155673200Y-102871000D01*
X141019000Y-99215000D02*
X141019000Y-99723000D01*
X142135000Y-102871000D02*
G75*
G02X141019000Y-101755000I0J1116000D01*
G01*
X142135000Y-98099000D02*
X154835000Y-98099000D01*
X141019000Y-99215000D02*
G75*
G02X142135000Y-98099000I1116000J0D01*
G01*
D13*
X155951000Y-99215000D02*
X155951000Y-102593200D01*
D10*
X154835000Y-98099000D02*
G75*
G02X155951000Y-99215000I0J-1116000D01*
G01*
D13*
X153719000Y-100916800D02*
G75*
G02X153996800Y-100639000I277800J0D01*
G01*
D10*
X155951000Y-102593200D02*
G75*
G02X155673200Y-102871000I-277800J0D01*
G01*
D13*
X155673200Y-100639000D02*
G75*
G02X155951000Y-100916800I0J-277800D01*
G01*
X153996800Y-102871000D02*
G75*
G02X153719000Y-102593200I0J277800D01*
G01*
D10*
X141019000Y-101247000D02*
X141019000Y-101755000D01*
X148986600Y-101020900D02*
X148986600Y-99954100D01*
X147513400Y-101020900D02*
X147513400Y-99954100D01*
X148986600Y-99954100D02*
X147513400Y-99954100D01*
X148986600Y-101020900D02*
X147513400Y-101020900D01*
X142740000Y-100202500D02*
X142740000Y-100742500D01*
X143540000Y-100202500D02*
X143540000Y-100742500D01*
X141941000Y-104307500D02*
X141941000Y-105057500D01*
X143141000Y-104307500D02*
X143141000Y-105057500D01*
X154610200Y-110032300D02*
X154070200Y-110032300D01*
X154610200Y-110832300D02*
X154070200Y-110832300D01*
X151610200Y-110032300D02*
X151070200Y-110032300D01*
X151610200Y-110832300D02*
X151070200Y-110832300D01*
X142197700Y-108382300D02*
X142737700Y-108382300D01*
X142197700Y-107582300D02*
X142737700Y-107582300D01*
X155692300Y-104739800D02*
X155692300Y-104199800D01*
X154892300Y-104739800D02*
X154892300Y-104199800D01*
X153602300Y-104739800D02*
X153602300Y-104199800D01*
X152802300Y-104739800D02*
X152802300Y-104199800D01*
X151512300Y-104739800D02*
X151512300Y-104199800D01*
X150712300Y-104739800D02*
X150712300Y-104199800D01*
X149422300Y-104739800D02*
X149422300Y-104199800D01*
X148622300Y-104739800D02*
X148622300Y-104199800D01*
X147332300Y-104739800D02*
X147332300Y-104199800D01*
X146532300Y-104739800D02*
X146532300Y-104199800D01*
X145242300Y-104739800D02*
X145242300Y-104199800D01*
X144442300Y-104739800D02*
X144442300Y-104199800D01*
X155692300Y-96747300D02*
X155692300Y-96207300D01*
X154892300Y-96747300D02*
X154892300Y-96207300D01*
X153602300Y-96747300D02*
X153602300Y-96207300D01*
X152802300Y-96747300D02*
X152802300Y-96207300D01*
X151512300Y-96747300D02*
X151512300Y-96207300D01*
X150712300Y-96747300D02*
X150712300Y-96207300D01*
X147132300Y-114742700D02*
X147672300Y-114742700D01*
X147132300Y-113942700D02*
X147672300Y-113942700D01*
X155692300Y-107732300D02*
X155692300Y-107192300D01*
X154892300Y-107732300D02*
X154892300Y-107192300D01*
X153602300Y-107732300D02*
X153602300Y-107192300D01*
X152802300Y-107732300D02*
X152802300Y-107192300D01*
X151512300Y-107732300D02*
X151512300Y-107192300D01*
X150712300Y-107732300D02*
X150712300Y-107192300D01*
X149422300Y-96747300D02*
X149422300Y-96207300D01*
X148622300Y-96747300D02*
X148622300Y-96207300D01*
X147332300Y-96747300D02*
X147332300Y-96207300D01*
X146532300Y-96747300D02*
X146532300Y-96207300D01*
X145242300Y-96747300D02*
X145242300Y-96207300D01*
X144442300Y-96747300D02*
X144442300Y-96207300D01*
X143152300Y-96747300D02*
X143152300Y-96207300D01*
X142352300Y-96747300D02*
X142352300Y-96207300D01*
X143384428Y-106452714D02*
X143384428Y-107069571D01*
X143420714Y-107142142D01*
X143457000Y-107178428D01*
X143529571Y-107214714D01*
X143674714Y-107214714D01*
X143747285Y-107178428D01*
X143783571Y-107142142D01*
X143819857Y-107069571D01*
X143819857Y-106452714D01*
X144581857Y-107214714D02*
X144146428Y-107214714D01*
X144364142Y-107214714D02*
X144364142Y-106452714D01*
X144291571Y-106561571D01*
X144219000Y-106634142D01*
X144146428Y-106670428D01*
X141230833Y-100467071D02*
X141019166Y-100467071D01*
X141019166Y-100866214D02*
X141019166Y-100104214D01*
X141321547Y-100104214D01*
X141775119Y-100467071D02*
X141865833Y-100503357D01*
X141896071Y-100539642D01*
X141926309Y-100612214D01*
X141926309Y-100721071D01*
X141896071Y-100793642D01*
X141865833Y-100829928D01*
X141805357Y-100866214D01*
X141563452Y-100866214D01*
X141563452Y-100104214D01*
X141775119Y-100104214D01*
X141835595Y-100140500D01*
X141865833Y-100176785D01*
X141896071Y-100249357D01*
X141896071Y-100321928D01*
X141865833Y-100394500D01*
X141835595Y-100430785D01*
X141775119Y-100467071D01*
X141563452Y-100467071D01*
X142531071Y-100866214D02*
X142168214Y-100866214D01*
X142349642Y-100866214D02*
X142349642Y-100104214D01*
X142289166Y-100213071D01*
X142228690Y-100285642D01*
X142168214Y-100321928D01*
X141607142Y-105209500D02*
X141643428Y-105245785D01*
X141679714Y-105354642D01*
X141679714Y-105427214D01*
X141643428Y-105536071D01*
X141570857Y-105608642D01*
X141498285Y-105644928D01*
X141353142Y-105681214D01*
X141244285Y-105681214D01*
X141099142Y-105644928D01*
X141026571Y-105608642D01*
X140954000Y-105536071D01*
X140917714Y-105427214D01*
X140917714Y-105354642D01*
X140954000Y-105245785D01*
X140990285Y-105209500D01*
X141679714Y-104483785D02*
X141679714Y-104919214D01*
X141679714Y-104701500D02*
X140917714Y-104701500D01*
X141026571Y-104774071D01*
X141099142Y-104846642D01*
X141135428Y-104919214D01*
X153837642Y-109739714D02*
X153583642Y-109376857D01*
X153402214Y-109739714D02*
X153402214Y-108977714D01*
X153692500Y-108977714D01*
X153765071Y-109014000D01*
X153801357Y-109050285D01*
X153837642Y-109122857D01*
X153837642Y-109231714D01*
X153801357Y-109304285D01*
X153765071Y-109340571D01*
X153692500Y-109376857D01*
X153402214Y-109376857D01*
X154527071Y-108977714D02*
X154164214Y-108977714D01*
X154127928Y-109340571D01*
X154164214Y-109304285D01*
X154236785Y-109268000D01*
X154418214Y-109268000D01*
X154490785Y-109304285D01*
X154527071Y-109340571D01*
X154563357Y-109413142D01*
X154563357Y-109594571D01*
X154527071Y-109667142D01*
X154490785Y-109703428D01*
X154418214Y-109739714D01*
X154236785Y-109739714D01*
X154164214Y-109703428D01*
X154127928Y-109667142D01*
X155289071Y-109739714D02*
X154853642Y-109739714D01*
X155071357Y-109739714D02*
X155071357Y-108977714D01*
X154998785Y-109086571D01*
X154926214Y-109159142D01*
X154853642Y-109195428D01*
X150837642Y-109739714D02*
X150583642Y-109376857D01*
X150402214Y-109739714D02*
X150402214Y-108977714D01*
X150692500Y-108977714D01*
X150765071Y-109014000D01*
X150801357Y-109050285D01*
X150837642Y-109122857D01*
X150837642Y-109231714D01*
X150801357Y-109304285D01*
X150765071Y-109340571D01*
X150692500Y-109376857D01*
X150402214Y-109376857D01*
X151527071Y-108977714D02*
X151164214Y-108977714D01*
X151127928Y-109340571D01*
X151164214Y-109304285D01*
X151236785Y-109268000D01*
X151418214Y-109268000D01*
X151490785Y-109304285D01*
X151527071Y-109340571D01*
X151563357Y-109413142D01*
X151563357Y-109594571D01*
X151527071Y-109667142D01*
X151490785Y-109703428D01*
X151418214Y-109739714D01*
X151236785Y-109739714D01*
X151164214Y-109703428D01*
X151127928Y-109667142D01*
X151853642Y-109050285D02*
X151889928Y-109014000D01*
X151962500Y-108977714D01*
X152143928Y-108977714D01*
X152216500Y-109014000D01*
X152252785Y-109050285D01*
X152289071Y-109122857D01*
X152289071Y-109195428D01*
X152252785Y-109304285D01*
X151817357Y-109739714D01*
X152289071Y-109739714D01*
X141738000Y-107339714D02*
X141484000Y-106976857D01*
X141302571Y-107339714D02*
X141302571Y-106577714D01*
X141592857Y-106577714D01*
X141665428Y-106614000D01*
X141701714Y-106650285D01*
X141738000Y-106722857D01*
X141738000Y-106831714D01*
X141701714Y-106904285D01*
X141665428Y-106940571D01*
X141592857Y-106976857D01*
X141302571Y-106976857D01*
X142463714Y-107339714D02*
X142028285Y-107339714D01*
X142246000Y-107339714D02*
X142246000Y-106577714D01*
X142173428Y-106686571D01*
X142100857Y-106759142D01*
X142028285Y-106795428D01*
X154637014Y-104959657D02*
X154274157Y-105213657D01*
X154637014Y-105395085D02*
X153875014Y-105395085D01*
X153875014Y-105104800D01*
X153911300Y-105032228D01*
X153947585Y-104995942D01*
X154020157Y-104959657D01*
X154129014Y-104959657D01*
X154201585Y-104995942D01*
X154237871Y-105032228D01*
X154274157Y-105104800D01*
X154274157Y-105395085D01*
X154129014Y-104306514D02*
X154637014Y-104306514D01*
X153838728Y-104487942D02*
X154383014Y-104669371D01*
X154383014Y-104197657D01*
X154637014Y-103508228D02*
X154637014Y-103943657D01*
X154637014Y-103725942D02*
X153875014Y-103725942D01*
X153983871Y-103798514D01*
X154056442Y-103871085D01*
X154092728Y-103943657D01*
X152547014Y-104959657D02*
X152184157Y-105213657D01*
X152547014Y-105395085D02*
X151785014Y-105395085D01*
X151785014Y-105104800D01*
X151821300Y-105032228D01*
X151857585Y-104995942D01*
X151930157Y-104959657D01*
X152039014Y-104959657D01*
X152111585Y-104995942D01*
X152147871Y-105032228D01*
X152184157Y-105104800D01*
X152184157Y-105395085D01*
X151785014Y-104705657D02*
X151785014Y-104233942D01*
X152075300Y-104487942D01*
X152075300Y-104379085D01*
X152111585Y-104306514D01*
X152147871Y-104270228D01*
X152220442Y-104233942D01*
X152401871Y-104233942D01*
X152474442Y-104270228D01*
X152510728Y-104306514D01*
X152547014Y-104379085D01*
X152547014Y-104596800D01*
X152510728Y-104669371D01*
X152474442Y-104705657D01*
X152547014Y-103508228D02*
X152547014Y-103943657D01*
X152547014Y-103725942D02*
X151785014Y-103725942D01*
X151893871Y-103798514D01*
X151966442Y-103871085D01*
X152002728Y-103943657D01*
X150457014Y-104959657D02*
X150094157Y-105213657D01*
X150457014Y-105395085D02*
X149695014Y-105395085D01*
X149695014Y-105104800D01*
X149731300Y-105032228D01*
X149767585Y-104995942D01*
X149840157Y-104959657D01*
X149949014Y-104959657D01*
X150021585Y-104995942D01*
X150057871Y-105032228D01*
X150094157Y-105104800D01*
X150094157Y-105395085D01*
X149767585Y-104669371D02*
X149731300Y-104633085D01*
X149695014Y-104560514D01*
X149695014Y-104379085D01*
X149731300Y-104306514D01*
X149767585Y-104270228D01*
X149840157Y-104233942D01*
X149912728Y-104233942D01*
X150021585Y-104270228D01*
X150457014Y-104705657D01*
X150457014Y-104233942D01*
X150457014Y-103508228D02*
X150457014Y-103943657D01*
X150457014Y-103725942D02*
X149695014Y-103725942D01*
X149803871Y-103798514D01*
X149876442Y-103871085D01*
X149912728Y-103943657D01*
X148367014Y-104959657D02*
X148004157Y-105213657D01*
X148367014Y-105395085D02*
X147605014Y-105395085D01*
X147605014Y-105104800D01*
X147641300Y-105032228D01*
X147677585Y-104995942D01*
X147750157Y-104959657D01*
X147859014Y-104959657D01*
X147931585Y-104995942D01*
X147967871Y-105032228D01*
X148004157Y-105104800D01*
X148004157Y-105395085D01*
X147859014Y-104306514D02*
X148367014Y-104306514D01*
X147568728Y-104487942D02*
X148113014Y-104669371D01*
X148113014Y-104197657D01*
X147677585Y-103943657D02*
X147641300Y-103907371D01*
X147605014Y-103834800D01*
X147605014Y-103653371D01*
X147641300Y-103580800D01*
X147677585Y-103544514D01*
X147750157Y-103508228D01*
X147822728Y-103508228D01*
X147931585Y-103544514D01*
X148367014Y-103979942D01*
X148367014Y-103508228D01*
X146277014Y-104959657D02*
X145914157Y-105213657D01*
X146277014Y-105395085D02*
X145515014Y-105395085D01*
X145515014Y-105104800D01*
X145551300Y-105032228D01*
X145587585Y-104995942D01*
X145660157Y-104959657D01*
X145769014Y-104959657D01*
X145841585Y-104995942D01*
X145877871Y-105032228D01*
X145914157Y-105104800D01*
X145914157Y-105395085D01*
X145515014Y-104705657D02*
X145515014Y-104233942D01*
X145805300Y-104487942D01*
X145805300Y-104379085D01*
X145841585Y-104306514D01*
X145877871Y-104270228D01*
X145950442Y-104233942D01*
X146131871Y-104233942D01*
X146204442Y-104270228D01*
X146240728Y-104306514D01*
X146277014Y-104379085D01*
X146277014Y-104596800D01*
X146240728Y-104669371D01*
X146204442Y-104705657D01*
X145587585Y-103943657D02*
X145551300Y-103907371D01*
X145515014Y-103834800D01*
X145515014Y-103653371D01*
X145551300Y-103580800D01*
X145587585Y-103544514D01*
X145660157Y-103508228D01*
X145732728Y-103508228D01*
X145841585Y-103544514D01*
X146277014Y-103979942D01*
X146277014Y-103508228D01*
X144187014Y-104959657D02*
X143824157Y-105213657D01*
X144187014Y-105395085D02*
X143425014Y-105395085D01*
X143425014Y-105104800D01*
X143461300Y-105032228D01*
X143497585Y-104995942D01*
X143570157Y-104959657D01*
X143679014Y-104959657D01*
X143751585Y-104995942D01*
X143787871Y-105032228D01*
X143824157Y-105104800D01*
X143824157Y-105395085D01*
X143497585Y-104669371D02*
X143461300Y-104633085D01*
X143425014Y-104560514D01*
X143425014Y-104379085D01*
X143461300Y-104306514D01*
X143497585Y-104270228D01*
X143570157Y-104233942D01*
X143642728Y-104233942D01*
X143751585Y-104270228D01*
X144187014Y-104705657D01*
X144187014Y-104233942D01*
X143497585Y-103943657D02*
X143461300Y-103907371D01*
X143425014Y-103834800D01*
X143425014Y-103653371D01*
X143461300Y-103580800D01*
X143497585Y-103544514D01*
X143570157Y-103508228D01*
X143642728Y-103508228D01*
X143751585Y-103544514D01*
X144187014Y-103979942D01*
X144187014Y-103508228D01*
X154637014Y-96967157D02*
X154274157Y-97221157D01*
X154637014Y-97402585D02*
X153875014Y-97402585D01*
X153875014Y-97112300D01*
X153911300Y-97039728D01*
X153947585Y-97003442D01*
X154020157Y-96967157D01*
X154129014Y-96967157D01*
X154201585Y-97003442D01*
X154237871Y-97039728D01*
X154274157Y-97112300D01*
X154274157Y-97402585D01*
X153947585Y-96676871D02*
X153911300Y-96640585D01*
X153875014Y-96568014D01*
X153875014Y-96386585D01*
X153911300Y-96314014D01*
X153947585Y-96277728D01*
X154020157Y-96241442D01*
X154092728Y-96241442D01*
X154201585Y-96277728D01*
X154637014Y-96713157D01*
X154637014Y-96241442D01*
X153875014Y-95987442D02*
X153875014Y-95515728D01*
X154165300Y-95769728D01*
X154165300Y-95660871D01*
X154201585Y-95588300D01*
X154237871Y-95552014D01*
X154310442Y-95515728D01*
X154491871Y-95515728D01*
X154564442Y-95552014D01*
X154600728Y-95588300D01*
X154637014Y-95660871D01*
X154637014Y-95878585D01*
X154600728Y-95951157D01*
X154564442Y-95987442D01*
X152547014Y-96967157D02*
X152184157Y-97221157D01*
X152547014Y-97402585D02*
X151785014Y-97402585D01*
X151785014Y-97112300D01*
X151821300Y-97039728D01*
X151857585Y-97003442D01*
X151930157Y-96967157D01*
X152039014Y-96967157D01*
X152111585Y-97003442D01*
X152147871Y-97039728D01*
X152184157Y-97112300D01*
X152184157Y-97402585D01*
X151785014Y-96713157D02*
X151785014Y-96241442D01*
X152075300Y-96495442D01*
X152075300Y-96386585D01*
X152111585Y-96314014D01*
X152147871Y-96277728D01*
X152220442Y-96241442D01*
X152401871Y-96241442D01*
X152474442Y-96277728D01*
X152510728Y-96314014D01*
X152547014Y-96386585D01*
X152547014Y-96604300D01*
X152510728Y-96676871D01*
X152474442Y-96713157D01*
X151785014Y-95987442D02*
X151785014Y-95515728D01*
X152075300Y-95769728D01*
X152075300Y-95660871D01*
X152111585Y-95588300D01*
X152147871Y-95552014D01*
X152220442Y-95515728D01*
X152401871Y-95515728D01*
X152474442Y-95552014D01*
X152510728Y-95588300D01*
X152547014Y-95660871D01*
X152547014Y-95878585D01*
X152510728Y-95951157D01*
X152474442Y-95987442D01*
X150457014Y-96967157D02*
X150094157Y-97221157D01*
X150457014Y-97402585D02*
X149695014Y-97402585D01*
X149695014Y-97112300D01*
X149731300Y-97039728D01*
X149767585Y-97003442D01*
X149840157Y-96967157D01*
X149949014Y-96967157D01*
X150021585Y-97003442D01*
X150057871Y-97039728D01*
X150094157Y-97112300D01*
X150094157Y-97402585D01*
X149949014Y-96314014D02*
X150457014Y-96314014D01*
X149658728Y-96495442D02*
X150203014Y-96676871D01*
X150203014Y-96205157D01*
X149695014Y-95987442D02*
X149695014Y-95515728D01*
X149985300Y-95769728D01*
X149985300Y-95660871D01*
X150021585Y-95588300D01*
X150057871Y-95552014D01*
X150130442Y-95515728D01*
X150311871Y-95515728D01*
X150384442Y-95552014D01*
X150420728Y-95588300D01*
X150457014Y-95660871D01*
X150457014Y-95878585D01*
X150420728Y-95951157D01*
X150384442Y-95987442D01*
X144682800Y-114602142D02*
X144648933Y-114638428D01*
X144547333Y-114674714D01*
X144479600Y-114674714D01*
X144378000Y-114638428D01*
X144310266Y-114565857D01*
X144276400Y-114493285D01*
X144242533Y-114348142D01*
X144242533Y-114239285D01*
X144276400Y-114094142D01*
X144310266Y-114021571D01*
X144378000Y-113949000D01*
X144479600Y-113912714D01*
X144547333Y-113912714D01*
X144648933Y-113949000D01*
X144682800Y-113985285D01*
X145360133Y-114674714D02*
X144953733Y-114674714D01*
X145156933Y-114674714D02*
X145156933Y-113912714D01*
X145089200Y-114021571D01*
X145021466Y-114094142D01*
X144953733Y-114130428D01*
X146037466Y-114674714D02*
X145631066Y-114674714D01*
X145834266Y-114674714D02*
X145834266Y-113912714D01*
X145766533Y-114021571D01*
X145698800Y-114094142D01*
X145631066Y-114130428D01*
X154564442Y-107952157D02*
X154600728Y-107988442D01*
X154637014Y-108097300D01*
X154637014Y-108169871D01*
X154600728Y-108278728D01*
X154528157Y-108351300D01*
X154455585Y-108387585D01*
X154310442Y-108423871D01*
X154201585Y-108423871D01*
X154056442Y-108387585D01*
X153983871Y-108351300D01*
X153911300Y-108278728D01*
X153875014Y-108169871D01*
X153875014Y-108097300D01*
X153911300Y-107988442D01*
X153947585Y-107952157D01*
X154129014Y-107299014D02*
X154637014Y-107299014D01*
X153838728Y-107480442D02*
X154383014Y-107661871D01*
X154383014Y-107190157D01*
X154637014Y-106500728D02*
X154637014Y-106936157D01*
X154637014Y-106718442D02*
X153875014Y-106718442D01*
X153983871Y-106791014D01*
X154056442Y-106863585D01*
X154092728Y-106936157D01*
X152474442Y-107952157D02*
X152510728Y-107988442D01*
X152547014Y-108097300D01*
X152547014Y-108169871D01*
X152510728Y-108278728D01*
X152438157Y-108351300D01*
X152365585Y-108387585D01*
X152220442Y-108423871D01*
X152111585Y-108423871D01*
X151966442Y-108387585D01*
X151893871Y-108351300D01*
X151821300Y-108278728D01*
X151785014Y-108169871D01*
X151785014Y-108097300D01*
X151821300Y-107988442D01*
X151857585Y-107952157D01*
X151785014Y-107698157D02*
X151785014Y-107226442D01*
X152075300Y-107480442D01*
X152075300Y-107371585D01*
X152111585Y-107299014D01*
X152147871Y-107262728D01*
X152220442Y-107226442D01*
X152401871Y-107226442D01*
X152474442Y-107262728D01*
X152510728Y-107299014D01*
X152547014Y-107371585D01*
X152547014Y-107589300D01*
X152510728Y-107661871D01*
X152474442Y-107698157D01*
X152547014Y-106500728D02*
X152547014Y-106936157D01*
X152547014Y-106718442D02*
X151785014Y-106718442D01*
X151893871Y-106791014D01*
X151966442Y-106863585D01*
X152002728Y-106936157D01*
X150384442Y-107952157D02*
X150420728Y-107988442D01*
X150457014Y-108097300D01*
X150457014Y-108169871D01*
X150420728Y-108278728D01*
X150348157Y-108351300D01*
X150275585Y-108387585D01*
X150130442Y-108423871D01*
X150021585Y-108423871D01*
X149876442Y-108387585D01*
X149803871Y-108351300D01*
X149731300Y-108278728D01*
X149695014Y-108169871D01*
X149695014Y-108097300D01*
X149731300Y-107988442D01*
X149767585Y-107952157D01*
X149767585Y-107661871D02*
X149731300Y-107625585D01*
X149695014Y-107553014D01*
X149695014Y-107371585D01*
X149731300Y-107299014D01*
X149767585Y-107262728D01*
X149840157Y-107226442D01*
X149912728Y-107226442D01*
X150021585Y-107262728D01*
X150457014Y-107698157D01*
X150457014Y-107226442D01*
X150457014Y-106500728D02*
X150457014Y-106936157D01*
X150457014Y-106718442D02*
X149695014Y-106718442D01*
X149803871Y-106791014D01*
X149876442Y-106863585D01*
X149912728Y-106936157D01*
X148294442Y-96967157D02*
X148330728Y-97003442D01*
X148367014Y-97112300D01*
X148367014Y-97184871D01*
X148330728Y-97293728D01*
X148258157Y-97366300D01*
X148185585Y-97402585D01*
X148040442Y-97438871D01*
X147931585Y-97438871D01*
X147786442Y-97402585D01*
X147713871Y-97366300D01*
X147641300Y-97293728D01*
X147605014Y-97184871D01*
X147605014Y-97112300D01*
X147641300Y-97003442D01*
X147677585Y-96967157D01*
X147605014Y-96277728D02*
X147605014Y-96640585D01*
X147967871Y-96676871D01*
X147931585Y-96640585D01*
X147895300Y-96568014D01*
X147895300Y-96386585D01*
X147931585Y-96314014D01*
X147967871Y-96277728D01*
X148040442Y-96241442D01*
X148221871Y-96241442D01*
X148294442Y-96277728D01*
X148330728Y-96314014D01*
X148367014Y-96386585D01*
X148367014Y-96568014D01*
X148330728Y-96640585D01*
X148294442Y-96676871D01*
X148367014Y-95515728D02*
X148367014Y-95951157D01*
X148367014Y-95733442D02*
X147605014Y-95733442D01*
X147713871Y-95806014D01*
X147786442Y-95878585D01*
X147822728Y-95951157D01*
X146204442Y-96967157D02*
X146240728Y-97003442D01*
X146277014Y-97112300D01*
X146277014Y-97184871D01*
X146240728Y-97293728D01*
X146168157Y-97366300D01*
X146095585Y-97402585D01*
X145950442Y-97438871D01*
X145841585Y-97438871D01*
X145696442Y-97402585D01*
X145623871Y-97366300D01*
X145551300Y-97293728D01*
X145515014Y-97184871D01*
X145515014Y-97112300D01*
X145551300Y-97003442D01*
X145587585Y-96967157D01*
X145587585Y-96676871D02*
X145551300Y-96640585D01*
X145515014Y-96568014D01*
X145515014Y-96386585D01*
X145551300Y-96314014D01*
X145587585Y-96277728D01*
X145660157Y-96241442D01*
X145732728Y-96241442D01*
X145841585Y-96277728D01*
X146277014Y-96713157D01*
X146277014Y-96241442D01*
X145587585Y-95951157D02*
X145551300Y-95914871D01*
X145515014Y-95842300D01*
X145515014Y-95660871D01*
X145551300Y-95588300D01*
X145587585Y-95552014D01*
X145660157Y-95515728D01*
X145732728Y-95515728D01*
X145841585Y-95552014D01*
X146277014Y-95987442D01*
X146277014Y-95515728D01*
X144114442Y-96967157D02*
X144150728Y-97003442D01*
X144187014Y-97112300D01*
X144187014Y-97184871D01*
X144150728Y-97293728D01*
X144078157Y-97366300D01*
X144005585Y-97402585D01*
X143860442Y-97438871D01*
X143751585Y-97438871D01*
X143606442Y-97402585D01*
X143533871Y-97366300D01*
X143461300Y-97293728D01*
X143425014Y-97184871D01*
X143425014Y-97112300D01*
X143461300Y-97003442D01*
X143497585Y-96967157D01*
X143425014Y-96713157D02*
X143425014Y-96241442D01*
X143715300Y-96495442D01*
X143715300Y-96386585D01*
X143751585Y-96314014D01*
X143787871Y-96277728D01*
X143860442Y-96241442D01*
X144041871Y-96241442D01*
X144114442Y-96277728D01*
X144150728Y-96314014D01*
X144187014Y-96386585D01*
X144187014Y-96604300D01*
X144150728Y-96676871D01*
X144114442Y-96713157D01*
X143497585Y-95951157D02*
X143461300Y-95914871D01*
X143425014Y-95842300D01*
X143425014Y-95660871D01*
X143461300Y-95588300D01*
X143497585Y-95552014D01*
X143570157Y-95515728D01*
X143642728Y-95515728D01*
X143751585Y-95552014D01*
X144187014Y-95987442D01*
X144187014Y-95515728D01*
X142024442Y-96967157D02*
X142060728Y-97003442D01*
X142097014Y-97112300D01*
X142097014Y-97184871D01*
X142060728Y-97293728D01*
X141988157Y-97366300D01*
X141915585Y-97402585D01*
X141770442Y-97438871D01*
X141661585Y-97438871D01*
X141516442Y-97402585D01*
X141443871Y-97366300D01*
X141371300Y-97293728D01*
X141335014Y-97184871D01*
X141335014Y-97112300D01*
X141371300Y-97003442D01*
X141407585Y-96967157D01*
X141589014Y-96314014D02*
X142097014Y-96314014D01*
X141298728Y-96495442D02*
X141843014Y-96676871D01*
X141843014Y-96205157D01*
X141407585Y-95951157D02*
X141371300Y-95914871D01*
X141335014Y-95842300D01*
X141335014Y-95660871D01*
X141371300Y-95588300D01*
X141407585Y-95552014D01*
X141480157Y-95515728D01*
X141552728Y-95515728D01*
X141661585Y-95552014D01*
X142097014Y-95987442D01*
X142097014Y-95515728D01*
M02*
