%TF.GenerationSoftware,KiCad,Pcbnew,(5.1.2-1)-1*%
%TF.CreationDate,2020-09-09T12:48:07+02:00*%
%TF.ProjectId,RGB BYPASS AMP v3.1,52474220-4259-4504-9153-5320414d5020,2.21*%
%TF.SameCoordinates,Original*%
%TF.FileFunction,Legend,Bot*%
%TF.FilePolarity,Positive*%
%FSLAX46Y46*%
G04 Gerber Fmt 4.6, Leading zero omitted, Abs format (unit mm)*
G04 Created by KiCad (PCBNEW (5.1.2-1)-1) date 2020-09-09 12:48:07*
%MOMM*%
%LPD*%
G04 APERTURE LIST*
%ADD10C,0.400000*%
%ADD11C,0.152400*%
%ADD12C,0.175000*%
%ADD13C,0.010000*%
G04 APERTURE END LIST*
D10*
X74150714Y-138995714D02*
X74150714Y-136595714D01*
X73443571Y-138881428D02*
X73207857Y-138995714D01*
X72815000Y-138995714D01*
X72657857Y-138881428D01*
X72579285Y-138767142D01*
X72500714Y-138538571D01*
X72500714Y-138310000D01*
X72579285Y-138081428D01*
X72657857Y-137967142D01*
X72815000Y-137852857D01*
X73129285Y-137738571D01*
X73286428Y-137624285D01*
X73365000Y-137510000D01*
X73443571Y-137281428D01*
X73443571Y-137052857D01*
X73365000Y-136824285D01*
X73286428Y-136710000D01*
X73129285Y-136595714D01*
X72736428Y-136595714D01*
X72500714Y-136710000D01*
X71479285Y-136595714D02*
X71165000Y-136595714D01*
X71007857Y-136710000D01*
X70850714Y-136938571D01*
X70772142Y-137395714D01*
X70772142Y-138195714D01*
X70850714Y-138652857D01*
X71007857Y-138881428D01*
X71165000Y-138995714D01*
X71479285Y-138995714D01*
X71636428Y-138881428D01*
X71793571Y-138652857D01*
X71872142Y-138195714D01*
X71872142Y-137395714D01*
X71793571Y-136938571D01*
X71636428Y-136710000D01*
X71479285Y-136595714D01*
X69279285Y-138995714D02*
X70065000Y-138995714D01*
X70065000Y-136595714D01*
X68807857Y-138310000D02*
X68022142Y-138310000D01*
X68965000Y-138995714D02*
X68415000Y-136595714D01*
X67865000Y-138995714D01*
X67550714Y-136595714D02*
X66607857Y-136595714D01*
X67079285Y-138995714D02*
X67079285Y-136595714D01*
X66057857Y-137738571D02*
X65507857Y-137738571D01*
X65272142Y-138995714D02*
X66057857Y-138995714D01*
X66057857Y-136595714D01*
X65272142Y-136595714D01*
X63307857Y-138995714D02*
X63307857Y-136595714D01*
X62757857Y-138310000D01*
X62207857Y-136595714D01*
X62207857Y-138995714D01*
X61422142Y-137738571D02*
X60872142Y-137738571D01*
X60636428Y-138995714D02*
X61422142Y-138995714D01*
X61422142Y-136595714D01*
X60636428Y-136595714D01*
X59929285Y-138767142D02*
X59850714Y-138881428D01*
X59929285Y-138995714D01*
X60007857Y-138881428D01*
X59929285Y-138767142D01*
X59929285Y-138995714D01*
X59929285Y-138081428D02*
X60007857Y-136710000D01*
X59929285Y-136595714D01*
X59850714Y-136710000D01*
X59929285Y-138081428D01*
X59929285Y-136595714D01*
D11*
X72743809Y-130632857D02*
X72990476Y-130632857D01*
X72990476Y-131051904D02*
X72990476Y-130251904D01*
X72638095Y-130251904D01*
X72215238Y-130251904D02*
X72074285Y-130251904D01*
X72003809Y-130290000D01*
X71933333Y-130366190D01*
X71898095Y-130518571D01*
X71898095Y-130785238D01*
X71933333Y-130937619D01*
X72003809Y-131013809D01*
X72074285Y-131051904D01*
X72215238Y-131051904D01*
X72285714Y-131013809D01*
X72356190Y-130937619D01*
X72391428Y-130785238D01*
X72391428Y-130518571D01*
X72356190Y-130366190D01*
X72285714Y-130290000D01*
X72215238Y-130251904D01*
X71158095Y-131051904D02*
X71404761Y-130670952D01*
X71580952Y-131051904D02*
X71580952Y-130251904D01*
X71299047Y-130251904D01*
X71228571Y-130290000D01*
X71193333Y-130328095D01*
X71158095Y-130404285D01*
X71158095Y-130518571D01*
X71193333Y-130594761D01*
X71228571Y-130632857D01*
X71299047Y-130670952D01*
X71580952Y-130670952D01*
X69889523Y-131051904D02*
X70312380Y-131051904D01*
X70100952Y-131051904D02*
X70100952Y-130251904D01*
X70171428Y-130366190D01*
X70241904Y-130442380D01*
X70312380Y-130480476D01*
X69149523Y-130975714D02*
X69184761Y-131013809D01*
X69290476Y-131051904D01*
X69360952Y-131051904D01*
X69466666Y-131013809D01*
X69537142Y-130937619D01*
X69572380Y-130861428D01*
X69607619Y-130709047D01*
X69607619Y-130594761D01*
X69572380Y-130442380D01*
X69537142Y-130366190D01*
X69466666Y-130290000D01*
X69360952Y-130251904D01*
X69290476Y-130251904D01*
X69184761Y-130290000D01*
X69149523Y-130328095D01*
X68832380Y-131051904D02*
X68832380Y-130251904D01*
X68832380Y-130632857D02*
X68409523Y-130632857D01*
X68409523Y-131051904D02*
X68409523Y-130251904D01*
X68057142Y-131051904D02*
X68057142Y-130251904D01*
X67704761Y-131051904D02*
X67704761Y-130251904D01*
X67422857Y-130251904D01*
X67352380Y-130290000D01*
X67317142Y-130328095D01*
X67281904Y-130404285D01*
X67281904Y-130518571D01*
X67317142Y-130594761D01*
X67352380Y-130632857D01*
X67422857Y-130670952D01*
X67704761Y-130670952D01*
X65978095Y-130975714D02*
X66013333Y-131013809D01*
X66119047Y-131051904D01*
X66189523Y-131051904D01*
X66295238Y-131013809D01*
X66365714Y-130937619D01*
X66400952Y-130861428D01*
X66436190Y-130709047D01*
X66436190Y-130594761D01*
X66400952Y-130442380D01*
X66365714Y-130366190D01*
X66295238Y-130290000D01*
X66189523Y-130251904D01*
X66119047Y-130251904D01*
X66013333Y-130290000D01*
X65978095Y-130328095D01*
X65520000Y-130251904D02*
X65379047Y-130251904D01*
X65308571Y-130290000D01*
X65238095Y-130366190D01*
X65202857Y-130518571D01*
X65202857Y-130785238D01*
X65238095Y-130937619D01*
X65308571Y-131013809D01*
X65379047Y-131051904D01*
X65520000Y-131051904D01*
X65590476Y-131013809D01*
X65660952Y-130937619D01*
X65696190Y-130785238D01*
X65696190Y-130518571D01*
X65660952Y-130366190D01*
X65590476Y-130290000D01*
X65520000Y-130251904D01*
X64885714Y-131051904D02*
X64885714Y-130251904D01*
X64462857Y-131051904D01*
X64462857Y-130251904D01*
X64145714Y-131013809D02*
X64040000Y-131051904D01*
X63863809Y-131051904D01*
X63793333Y-131013809D01*
X63758095Y-130975714D01*
X63722857Y-130899523D01*
X63722857Y-130823333D01*
X63758095Y-130747142D01*
X63793333Y-130709047D01*
X63863809Y-130670952D01*
X64004761Y-130632857D01*
X64075238Y-130594761D01*
X64110476Y-130556666D01*
X64145714Y-130480476D01*
X64145714Y-130404285D01*
X64110476Y-130328095D01*
X64075238Y-130290000D01*
X64004761Y-130251904D01*
X63828571Y-130251904D01*
X63722857Y-130290000D01*
X63264761Y-130251904D02*
X63123809Y-130251904D01*
X63053333Y-130290000D01*
X62982857Y-130366190D01*
X62947619Y-130518571D01*
X62947619Y-130785238D01*
X62982857Y-130937619D01*
X63053333Y-131013809D01*
X63123809Y-131051904D01*
X63264761Y-131051904D01*
X63335238Y-131013809D01*
X63405714Y-130937619D01*
X63440952Y-130785238D01*
X63440952Y-130518571D01*
X63405714Y-130366190D01*
X63335238Y-130290000D01*
X63264761Y-130251904D01*
X62278095Y-131051904D02*
X62630476Y-131051904D01*
X62630476Y-130251904D01*
X62031428Y-130632857D02*
X61784761Y-130632857D01*
X61679047Y-131051904D02*
X62031428Y-131051904D01*
X62031428Y-130251904D01*
X61679047Y-130251904D01*
X61397142Y-131013809D02*
X61291428Y-131051904D01*
X61115238Y-131051904D01*
X61044761Y-131013809D01*
X61009523Y-130975714D01*
X60974285Y-130899523D01*
X60974285Y-130823333D01*
X61009523Y-130747142D01*
X61044761Y-130709047D01*
X61115238Y-130670952D01*
X61256190Y-130632857D01*
X61326666Y-130594761D01*
X61361904Y-130556666D01*
X61397142Y-130480476D01*
X61397142Y-130404285D01*
X61361904Y-130328095D01*
X61326666Y-130290000D01*
X61256190Y-130251904D01*
X61080000Y-130251904D01*
X60974285Y-130290000D01*
D12*
X73862380Y-129674285D02*
X73748095Y-129717142D01*
X73557619Y-129717142D01*
X73481428Y-129674285D01*
X73443333Y-129631428D01*
X73405238Y-129545714D01*
X73405238Y-129460000D01*
X73443333Y-129374285D01*
X73481428Y-129331428D01*
X73557619Y-129288571D01*
X73710000Y-129245714D01*
X73786190Y-129202857D01*
X73824285Y-129160000D01*
X73862380Y-129074285D01*
X73862380Y-128988571D01*
X73824285Y-128902857D01*
X73786190Y-128860000D01*
X73710000Y-128817142D01*
X73519523Y-128817142D01*
X73405238Y-128860000D01*
X73062380Y-129717142D02*
X73062380Y-128817142D01*
X72605238Y-129717142D01*
X72605238Y-128817142D01*
X72224285Y-129245714D02*
X71957619Y-129245714D01*
X71843333Y-129717142D02*
X72224285Y-129717142D01*
X72224285Y-128817142D01*
X71843333Y-128817142D01*
X71538571Y-129674285D02*
X71424285Y-129717142D01*
X71233809Y-129717142D01*
X71157619Y-129674285D01*
X71119523Y-129631428D01*
X71081428Y-129545714D01*
X71081428Y-129460000D01*
X71119523Y-129374285D01*
X71157619Y-129331428D01*
X71233809Y-129288571D01*
X71386190Y-129245714D01*
X71462380Y-129202857D01*
X71500476Y-129160000D01*
X71538571Y-129074285D01*
X71538571Y-128988571D01*
X71500476Y-128902857D01*
X71462380Y-128860000D01*
X71386190Y-128817142D01*
X71195714Y-128817142D01*
X71081428Y-128860000D01*
X69671904Y-129717142D02*
X69938571Y-129288571D01*
X70129047Y-129717142D02*
X70129047Y-128817142D01*
X69824285Y-128817142D01*
X69748095Y-128860000D01*
X69710000Y-128902857D01*
X69671904Y-128988571D01*
X69671904Y-129117142D01*
X69710000Y-129202857D01*
X69748095Y-129245714D01*
X69824285Y-129288571D01*
X70129047Y-129288571D01*
X68910000Y-128860000D02*
X68986190Y-128817142D01*
X69100476Y-128817142D01*
X69214761Y-128860000D01*
X69290952Y-128945714D01*
X69329047Y-129031428D01*
X69367142Y-129202857D01*
X69367142Y-129331428D01*
X69329047Y-129502857D01*
X69290952Y-129588571D01*
X69214761Y-129674285D01*
X69100476Y-129717142D01*
X69024285Y-129717142D01*
X68910000Y-129674285D01*
X68871904Y-129631428D01*
X68871904Y-129331428D01*
X69024285Y-129331428D01*
X68262380Y-129245714D02*
X68148095Y-129288571D01*
X68110000Y-129331428D01*
X68071904Y-129417142D01*
X68071904Y-129545714D01*
X68110000Y-129631428D01*
X68148095Y-129674285D01*
X68224285Y-129717142D01*
X68529047Y-129717142D01*
X68529047Y-128817142D01*
X68262380Y-128817142D01*
X68186190Y-128860000D01*
X68148095Y-128902857D01*
X68110000Y-128988571D01*
X68110000Y-129074285D01*
X68148095Y-129160000D01*
X68186190Y-129202857D01*
X68262380Y-129245714D01*
X68529047Y-129245714D01*
X66852857Y-129245714D02*
X66738571Y-129288571D01*
X66700476Y-129331428D01*
X66662380Y-129417142D01*
X66662380Y-129545714D01*
X66700476Y-129631428D01*
X66738571Y-129674285D01*
X66814761Y-129717142D01*
X67119523Y-129717142D01*
X67119523Y-128817142D01*
X66852857Y-128817142D01*
X66776666Y-128860000D01*
X66738571Y-128902857D01*
X66700476Y-128988571D01*
X66700476Y-129074285D01*
X66738571Y-129160000D01*
X66776666Y-129202857D01*
X66852857Y-129245714D01*
X67119523Y-129245714D01*
X66167142Y-129288571D02*
X66167142Y-129717142D01*
X66433809Y-128817142D02*
X66167142Y-129288571D01*
X65900476Y-128817142D01*
X65633809Y-129717142D02*
X65633809Y-128817142D01*
X65329047Y-128817142D01*
X65252857Y-128860000D01*
X65214761Y-128902857D01*
X65176666Y-128988571D01*
X65176666Y-129117142D01*
X65214761Y-129202857D01*
X65252857Y-129245714D01*
X65329047Y-129288571D01*
X65633809Y-129288571D01*
X64871904Y-129460000D02*
X64490952Y-129460000D01*
X64948095Y-129717142D02*
X64681428Y-128817142D01*
X64414761Y-129717142D01*
X64186190Y-129674285D02*
X64071904Y-129717142D01*
X63881428Y-129717142D01*
X63805238Y-129674285D01*
X63767142Y-129631428D01*
X63729047Y-129545714D01*
X63729047Y-129460000D01*
X63767142Y-129374285D01*
X63805238Y-129331428D01*
X63881428Y-129288571D01*
X64033809Y-129245714D01*
X64110000Y-129202857D01*
X64148095Y-129160000D01*
X64186190Y-129074285D01*
X64186190Y-128988571D01*
X64148095Y-128902857D01*
X64110000Y-128860000D01*
X64033809Y-128817142D01*
X63843333Y-128817142D01*
X63729047Y-128860000D01*
X63424285Y-129674285D02*
X63310000Y-129717142D01*
X63119523Y-129717142D01*
X63043333Y-129674285D01*
X63005238Y-129631428D01*
X62967142Y-129545714D01*
X62967142Y-129460000D01*
X63005238Y-129374285D01*
X63043333Y-129331428D01*
X63119523Y-129288571D01*
X63271904Y-129245714D01*
X63348095Y-129202857D01*
X63386190Y-129160000D01*
X63424285Y-129074285D01*
X63424285Y-128988571D01*
X63386190Y-128902857D01*
X63348095Y-128860000D01*
X63271904Y-128817142D01*
X63081428Y-128817142D01*
X62967142Y-128860000D01*
X62052857Y-129460000D02*
X61671904Y-129460000D01*
X62129047Y-129717142D02*
X61862380Y-128817142D01*
X61595714Y-129717142D01*
X61329047Y-129717142D02*
X61329047Y-128817142D01*
X61062380Y-129460000D01*
X60795714Y-128817142D01*
X60795714Y-129717142D01*
X60414761Y-129717142D02*
X60414761Y-128817142D01*
X60110000Y-128817142D01*
X60033809Y-128860000D01*
X59995714Y-128902857D01*
X59957619Y-128988571D01*
X59957619Y-129117142D01*
X59995714Y-129202857D01*
X60033809Y-129245714D01*
X60110000Y-129288571D01*
X60414761Y-129288571D01*
D13*
G36*
X68781646Y-140991776D02*
G01*
X68693192Y-140993172D01*
X68617260Y-140995930D01*
X68558943Y-141000117D01*
X68529304Y-141004343D01*
X68469850Y-141022497D01*
X68409133Y-141050199D01*
X68355530Y-141082754D01*
X68317419Y-141115471D01*
X68307917Y-141128356D01*
X68285776Y-141164869D01*
X68269721Y-141179903D01*
X68252014Y-141176586D01*
X68228310Y-141160522D01*
X68183458Y-141137710D01*
X68114380Y-141117486D01*
X68020007Y-141099635D01*
X67899274Y-141083942D01*
X67799778Y-141074238D01*
X67702787Y-141067100D01*
X67597066Y-141061598D01*
X67487227Y-141057750D01*
X67377885Y-141055579D01*
X67273653Y-141055105D01*
X67179144Y-141056349D01*
X67098973Y-141059334D01*
X67037752Y-141064079D01*
X67000163Y-141070584D01*
X66949368Y-141095550D01*
X66885275Y-141143147D01*
X66837036Y-141185893D01*
X66732692Y-141283339D01*
X66689155Y-141255774D01*
X66652263Y-141235963D01*
X66608758Y-141220171D01*
X66555510Y-141208086D01*
X66489389Y-141199394D01*
X66407265Y-141193781D01*
X66306007Y-141190934D01*
X66182485Y-141190539D01*
X66052256Y-141191980D01*
X65901259Y-141195063D01*
X65775100Y-141199664D01*
X65670407Y-141206542D01*
X65583805Y-141216455D01*
X65511922Y-141230162D01*
X65451383Y-141248420D01*
X65398816Y-141271988D01*
X65350847Y-141301622D01*
X65304103Y-141338083D01*
X65270833Y-141367586D01*
X65232500Y-141402820D01*
X65179111Y-141367735D01*
X65120417Y-141335945D01*
X65054569Y-141314403D01*
X64978320Y-141303051D01*
X64888421Y-141301833D01*
X64781622Y-141310692D01*
X64654675Y-141329571D01*
X64515384Y-141356133D01*
X64428887Y-141377472D01*
X64366845Y-141401316D01*
X64335913Y-141420253D01*
X64284488Y-141470300D01*
X64235915Y-141536019D01*
X64198482Y-141605389D01*
X64186940Y-141636334D01*
X64172989Y-141678482D01*
X64159750Y-141713154D01*
X64158522Y-141715944D01*
X64150253Y-141737623D01*
X64134674Y-141781436D01*
X64113361Y-141842731D01*
X64087889Y-141916855D01*
X64059835Y-141999156D01*
X64030775Y-142084982D01*
X64002285Y-142169679D01*
X63975941Y-142248597D01*
X63953320Y-142317082D01*
X63935996Y-142370482D01*
X63926675Y-142400333D01*
X63913332Y-142444063D01*
X63894868Y-142503561D01*
X63874739Y-142567709D01*
X63869658Y-142583778D01*
X63841984Y-142673757D01*
X63809281Y-142784315D01*
X63773302Y-142909153D01*
X63735799Y-143041973D01*
X63698526Y-143176477D01*
X63663234Y-143306367D01*
X63631676Y-143425345D01*
X63605604Y-143527113D01*
X63594153Y-143573825D01*
X63578550Y-143643792D01*
X63570448Y-143695984D01*
X63569035Y-143739597D01*
X63573501Y-143783826D01*
X63574864Y-143792547D01*
X63581313Y-143845189D01*
X63579138Y-143882608D01*
X63567324Y-143916761D01*
X63563675Y-143924333D01*
X63553468Y-143952129D01*
X63537963Y-144003935D01*
X63518039Y-144076224D01*
X63494571Y-144165466D01*
X63468436Y-144268133D01*
X63440511Y-144380698D01*
X63411673Y-144499631D01*
X63382798Y-144621405D01*
X63354763Y-144742491D01*
X63328444Y-144859361D01*
X63307716Y-144954444D01*
X63267496Y-145149775D01*
X63228156Y-145354895D01*
X63190933Y-145562615D01*
X63157065Y-145765743D01*
X63127788Y-145957088D01*
X63104341Y-146129460D01*
X63101324Y-146153889D01*
X63092395Y-146224885D01*
X63082863Y-146296809D01*
X63074388Y-146357240D01*
X63072095Y-146372611D01*
X63050828Y-146527186D01*
X63035672Y-146670782D01*
X63026765Y-146800217D01*
X63024246Y-146912314D01*
X63028254Y-147003891D01*
X63038927Y-147071770D01*
X63041247Y-147080167D01*
X63073315Y-147144748D01*
X63125971Y-147204707D01*
X63191698Y-147252837D01*
X63247001Y-147277466D01*
X63316940Y-147292336D01*
X63412998Y-147301030D01*
X63533747Y-147303502D01*
X63677757Y-147299705D01*
X63771056Y-147294632D01*
X63910367Y-147284294D01*
X64024812Y-147272084D01*
X64117729Y-147257181D01*
X64192453Y-147238761D01*
X64252322Y-147216001D01*
X64300673Y-147188078D01*
X64340843Y-147154170D01*
X64340896Y-147154118D01*
X64373996Y-147116064D01*
X64400058Y-147072970D01*
X64420617Y-147020039D01*
X64437210Y-146952474D01*
X64451373Y-146865480D01*
X64462418Y-146774778D01*
X64479452Y-146622305D01*
X64494590Y-146490840D01*
X64507675Y-146381650D01*
X64518547Y-146295998D01*
X64527049Y-146235152D01*
X64533022Y-146200376D01*
X64535302Y-146192588D01*
X64548394Y-146195347D01*
X64575802Y-146213482D01*
X64608158Y-146240114D01*
X64652638Y-146275912D01*
X64697722Y-146306418D01*
X64723556Y-146320292D01*
X64775748Y-146334426D01*
X64843770Y-146341361D01*
X64916108Y-146340888D01*
X64981248Y-146332795D01*
X65008436Y-146325512D01*
X65061353Y-146297290D01*
X65116461Y-146252168D01*
X65164265Y-146198933D01*
X65190631Y-146156900D01*
X65212830Y-146111063D01*
X65230626Y-146171282D01*
X65248687Y-146222836D01*
X65270445Y-146272883D01*
X65274520Y-146280889D01*
X65289158Y-146311536D01*
X65311665Y-146362223D01*
X65339378Y-146426804D01*
X65369637Y-146499133D01*
X65381438Y-146527833D01*
X65412574Y-146601873D01*
X65443085Y-146670765D01*
X65470090Y-146728254D01*
X65490709Y-146768080D01*
X65496191Y-146777161D01*
X65556912Y-146844470D01*
X65637811Y-146892491D01*
X65719031Y-146917147D01*
X65769025Y-146925509D01*
X65811375Y-146926756D01*
X65858266Y-146920353D01*
X65909531Y-146908806D01*
X65963048Y-146895124D01*
X66007404Y-146882636D01*
X66034042Y-146873771D01*
X66035889Y-146872948D01*
X66082385Y-146852256D01*
X66135697Y-146832467D01*
X66204678Y-146810387D01*
X66232495Y-146802023D01*
X66337378Y-146770833D01*
X66366550Y-146805648D01*
X66433691Y-146864043D01*
X66521287Y-146904334D01*
X66627888Y-146926212D01*
X66752048Y-146929371D01*
X66882556Y-146915149D01*
X66930957Y-146908185D01*
X66996838Y-146900045D01*
X67069563Y-146892002D01*
X67108333Y-146888110D01*
X67210741Y-146876753D01*
X67297838Y-146864061D01*
X67366105Y-146850688D01*
X67412022Y-146837286D01*
X67428417Y-146828707D01*
X67454655Y-146824998D01*
X67477806Y-146835745D01*
X67512615Y-146853751D01*
X67554653Y-146867316D01*
X67607544Y-146876780D01*
X67674911Y-146882481D01*
X67760380Y-146884760D01*
X67867574Y-146883955D01*
X67966148Y-146881479D01*
X68099183Y-146876532D01*
X68207311Y-146870089D01*
X68293835Y-146861440D01*
X68362061Y-146849875D01*
X68415292Y-146834681D01*
X68456831Y-146815148D01*
X68489984Y-146790564D01*
X68515630Y-146763229D01*
X68526320Y-146754392D01*
X68543227Y-146751200D01*
X68571703Y-146754169D01*
X68617098Y-146763817D01*
X68677908Y-146778909D01*
X68748428Y-146797214D01*
X68818225Y-146815873D01*
X68876835Y-146832065D01*
X68900445Y-146838878D01*
X68989497Y-146864789D01*
X69057177Y-146882848D01*
X69108972Y-146893873D01*
X69150369Y-146898679D01*
X69186854Y-146898083D01*
X69223915Y-146892901D01*
X69241034Y-146889540D01*
X69334919Y-146860778D01*
X69408462Y-146816091D01*
X69464004Y-146752914D01*
X69503882Y-146668682D01*
X69527884Y-146575066D01*
X69540228Y-146509962D01*
X69552612Y-146445891D01*
X69562641Y-146395221D01*
X69563869Y-146389173D01*
X69572335Y-146339144D01*
X69577265Y-146293410D01*
X69577778Y-146279812D01*
X69580262Y-146252962D01*
X69593193Y-146241304D01*
X69624791Y-146238580D01*
X69631962Y-146238556D01*
X69686147Y-146238556D01*
X69702790Y-146333806D01*
X69713591Y-146399833D01*
X69724943Y-146475760D01*
X69733034Y-146534889D01*
X69751565Y-146648295D01*
X69774846Y-146738775D01*
X69802285Y-146804264D01*
X69816486Y-146825871D01*
X69869039Y-146879684D01*
X69932002Y-146918653D01*
X70008258Y-146943315D01*
X70100689Y-146954207D01*
X70212178Y-146951866D01*
X70345607Y-146936830D01*
X70382111Y-146931249D01*
X70404863Y-146928074D01*
X70427693Y-146926461D01*
X70453597Y-146926922D01*
X70485572Y-146929974D01*
X70526612Y-146936131D01*
X70579713Y-146945908D01*
X70647871Y-146959819D01*
X70734080Y-146978380D01*
X70841338Y-147002106D01*
X70972639Y-147031511D01*
X70995945Y-147036747D01*
X71087951Y-147055907D01*
X71160368Y-147066749D01*
X71220477Y-147069579D01*
X71275561Y-147064705D01*
X71332901Y-147052434D01*
X71337655Y-147051182D01*
X71412086Y-147023116D01*
X71473011Y-146980378D01*
X71523292Y-146919555D01*
X71565790Y-146837234D01*
X71601370Y-146736631D01*
X71622389Y-146667862D01*
X71647995Y-146584867D01*
X71676095Y-146494347D01*
X71704596Y-146403005D01*
X71731408Y-146317542D01*
X71754438Y-146244660D01*
X71771595Y-146191060D01*
X71773517Y-146185146D01*
X71785652Y-146143108D01*
X71792592Y-146109767D01*
X71793222Y-146102196D01*
X71800201Y-146102911D01*
X71818912Y-146123536D01*
X71846022Y-146160120D01*
X71862125Y-146183828D01*
X71914593Y-146255581D01*
X71965061Y-146305738D01*
X72020444Y-146339481D01*
X72087658Y-146361991D01*
X72105387Y-146366096D01*
X72196829Y-146373854D01*
X72286702Y-146359496D01*
X72368715Y-146325377D01*
X72436579Y-146273850D01*
X72472227Y-146228796D01*
X72491948Y-146199885D01*
X72505208Y-146185930D01*
X72507204Y-146185833D01*
X72513446Y-146203045D01*
X72523370Y-146243300D01*
X72536042Y-146301799D01*
X72550529Y-146373744D01*
X72565900Y-146454335D01*
X72581220Y-146538773D01*
X72595556Y-146622259D01*
X72607977Y-146699994D01*
X72610727Y-146718333D01*
X72622849Y-146797971D01*
X72635063Y-146873911D01*
X72646134Y-146938744D01*
X72654827Y-146985060D01*
X72656621Y-146993500D01*
X72687941Y-147082479D01*
X72738968Y-147152783D01*
X72811228Y-147205885D01*
X72906246Y-147243260D01*
X72918407Y-147246540D01*
X72946792Y-147253364D01*
X72973942Y-147257980D01*
X73004070Y-147260238D01*
X73041392Y-147259991D01*
X73090121Y-147257091D01*
X73154472Y-147251390D01*
X73238659Y-147242739D01*
X73340342Y-147231709D01*
X73441984Y-147220614D01*
X73540788Y-147209918D01*
X73631140Y-147200221D01*
X73707424Y-147192124D01*
X73764026Y-147186230D01*
X73782889Y-147184326D01*
X73861741Y-147175129D01*
X73920144Y-147164235D01*
X73965866Y-147149488D01*
X74006678Y-147128731D01*
X74025177Y-147117076D01*
X74085906Y-147061580D01*
X74134036Y-146986735D01*
X74165938Y-146899950D01*
X74175967Y-146823915D01*
X73832278Y-146823915D01*
X73479500Y-146861267D01*
X73380914Y-146871763D01*
X73290100Y-146881543D01*
X73211322Y-146890137D01*
X73148844Y-146897079D01*
X73106928Y-146901900D01*
X73091445Y-146903858D01*
X73054958Y-146909386D01*
X73027975Y-146911136D01*
X73008355Y-146905558D01*
X72993955Y-146889100D01*
X72982633Y-146858211D01*
X72972246Y-146809340D01*
X72960651Y-146738935D01*
X72949730Y-146668944D01*
X72932975Y-146566836D01*
X72913054Y-146452686D01*
X72892148Y-146338608D01*
X72872442Y-146236715D01*
X72867090Y-146210333D01*
X72851636Y-146138308D01*
X72832288Y-146052924D01*
X72810083Y-145958308D01*
X72786059Y-145858590D01*
X72761254Y-145757899D01*
X72736707Y-145660363D01*
X72713454Y-145570112D01*
X72692534Y-145491275D01*
X72674986Y-145427979D01*
X72661846Y-145384355D01*
X72654678Y-145365379D01*
X72646002Y-145366622D01*
X72627367Y-145385485D01*
X72597853Y-145423217D01*
X72556541Y-145481067D01*
X72502514Y-145560284D01*
X72434853Y-145662116D01*
X72421539Y-145682359D01*
X72364158Y-145769553D01*
X72311570Y-145849151D01*
X72265829Y-145918067D01*
X72228991Y-145973215D01*
X72203112Y-146011509D01*
X72190248Y-146029862D01*
X72189446Y-146030839D01*
X72177887Y-146024536D01*
X72154904Y-145998824D01*
X72124171Y-145958138D01*
X72099245Y-145921969D01*
X72060269Y-145864465D01*
X72009121Y-145790541D01*
X71950294Y-145706554D01*
X71888278Y-145618861D01*
X71827565Y-145533822D01*
X71772647Y-145457793D01*
X71737236Y-145409528D01*
X71713459Y-145380639D01*
X71695771Y-145364736D01*
X71692720Y-145363667D01*
X71685925Y-145376611D01*
X71671701Y-145413362D01*
X71651068Y-145470799D01*
X71625045Y-145545801D01*
X71594651Y-145635245D01*
X71560903Y-145736012D01*
X71524822Y-145844979D01*
X71487426Y-145959025D01*
X71449733Y-146075029D01*
X71412764Y-146189869D01*
X71377535Y-146300425D01*
X71345067Y-146403574D01*
X71316377Y-146496196D01*
X71292486Y-146575169D01*
X71274411Y-146637371D01*
X71263176Y-146679661D01*
X71252260Y-146710772D01*
X71241209Y-146726427D01*
X71221997Y-146727357D01*
X71183675Y-146722318D01*
X71134462Y-146712400D01*
X71133411Y-146712156D01*
X71089678Y-146702200D01*
X71024468Y-146687615D01*
X70943886Y-146669754D01*
X70854038Y-146649971D01*
X70761026Y-146629617D01*
X70754548Y-146628205D01*
X70470818Y-146566351D01*
X70345326Y-146585937D01*
X70279282Y-146596079D01*
X70215124Y-146605652D01*
X70164261Y-146612960D01*
X70154048Y-146614358D01*
X70088263Y-146623192D01*
X70078205Y-146540235D01*
X70072851Y-146500211D01*
X70063943Y-146438253D01*
X70052364Y-146360296D01*
X70038996Y-146272277D01*
X70024721Y-146180134D01*
X70023926Y-146175056D01*
X69979705Y-145892833D01*
X69642125Y-145889044D01*
X69547066Y-145888462D01*
X69461367Y-145888861D01*
X69389075Y-145890147D01*
X69334235Y-145892226D01*
X69300891Y-145895004D01*
X69292622Y-145897179D01*
X69286411Y-145915152D01*
X69278337Y-145955245D01*
X69269449Y-146011505D01*
X69260869Y-146077357D01*
X69251405Y-146153593D01*
X69240478Y-146235100D01*
X69228864Y-146316789D01*
X69217338Y-146393568D01*
X69206676Y-146460348D01*
X69197655Y-146512039D01*
X69191049Y-146543550D01*
X69188778Y-146550354D01*
X69174257Y-146549419D01*
X69136712Y-146541916D01*
X69080314Y-146528821D01*
X69009235Y-146511112D01*
X68927646Y-146489764D01*
X68911539Y-146485441D01*
X68817249Y-146460514D01*
X68722094Y-146436200D01*
X68633251Y-146414274D01*
X68557898Y-146396511D01*
X68507123Y-146385463D01*
X68449397Y-146372280D01*
X68402965Y-146358763D01*
X68374263Y-146346936D01*
X68368321Y-146341773D01*
X68370554Y-146321440D01*
X68382634Y-146276304D01*
X68404062Y-146207817D01*
X68434338Y-146117432D01*
X68472962Y-146006604D01*
X68519436Y-145876784D01*
X68573260Y-145729428D01*
X68633935Y-145565987D01*
X68646284Y-145533000D01*
X68685597Y-145427655D01*
X68731818Y-145303021D01*
X68782276Y-145166354D01*
X68834297Y-145024911D01*
X68885208Y-144885948D01*
X68932334Y-144756720D01*
X68937403Y-144742778D01*
X69002226Y-144564342D01*
X69058088Y-144410587D01*
X69105714Y-144279684D01*
X69145828Y-144169807D01*
X69179157Y-144079127D01*
X69206426Y-144005817D01*
X69228359Y-143948049D01*
X69229443Y-143945292D01*
X68861903Y-143945292D01*
X68853707Y-143976055D01*
X68837311Y-144029477D01*
X68836597Y-144025160D01*
X68488191Y-144025160D01*
X68487031Y-144058080D01*
X68484296Y-144102842D01*
X68479873Y-144161252D01*
X68473653Y-144235121D01*
X68465525Y-144326256D01*
X68455378Y-144436466D01*
X68443104Y-144567560D01*
X68428590Y-144721346D01*
X68411726Y-144899633D01*
X68392556Y-145102611D01*
X68377045Y-145267269D01*
X68361681Y-145430689D01*
X68346779Y-145589487D01*
X68332657Y-145740279D01*
X68319631Y-145879680D01*
X68308016Y-146004306D01*
X68298130Y-146110772D01*
X68290288Y-146195694D01*
X68285080Y-146252667D01*
X68277167Y-146335636D01*
X68269439Y-146408730D01*
X68262441Y-146467372D01*
X68256719Y-146506985D01*
X68252857Y-146522952D01*
X68236786Y-146526185D01*
X68196814Y-146529924D01*
X68137251Y-146533893D01*
X68062407Y-146537814D01*
X67976593Y-146541411D01*
X67951702Y-146542305D01*
X67659127Y-146552428D01*
X67655369Y-146167400D01*
X67651611Y-145782373D01*
X67482278Y-145742914D01*
X67414550Y-145727581D01*
X67355011Y-145714931D01*
X67310057Y-145706268D01*
X67286086Y-145702896D01*
X67285983Y-145702894D01*
X67278218Y-145703697D01*
X67272202Y-145708481D01*
X67267803Y-145720263D01*
X67264886Y-145742063D01*
X67263319Y-145776901D01*
X67262967Y-145827794D01*
X67263697Y-145897762D01*
X67265375Y-145989823D01*
X67267868Y-146106997D01*
X67267947Y-146110590D01*
X67276871Y-146518846D01*
X67203186Y-146528031D01*
X67161405Y-146533285D01*
X67099428Y-146541137D01*
X67025052Y-146550598D01*
X66946075Y-146560676D01*
X66931945Y-146562483D01*
X66855850Y-146571897D01*
X66785719Y-146579995D01*
X66728337Y-146586033D01*
X66690491Y-146589266D01*
X66685000Y-146589545D01*
X66635611Y-146591339D01*
X66636763Y-146325409D01*
X66543889Y-146325409D01*
X66530246Y-146339134D01*
X66490094Y-146357897D01*
X66424596Y-146381196D01*
X66385139Y-146393647D01*
X66312623Y-146416286D01*
X66223327Y-146444851D01*
X66127174Y-146476132D01*
X66034086Y-146506919D01*
X66007667Y-146515771D01*
X65933877Y-146539858D01*
X65869615Y-146559453D01*
X65819522Y-146573249D01*
X65788242Y-146579943D01*
X65780066Y-146579749D01*
X65770472Y-146562147D01*
X65751522Y-146520893D01*
X65724291Y-146458561D01*
X65689854Y-146377723D01*
X65649285Y-146280954D01*
X65603659Y-146170824D01*
X65554050Y-146049908D01*
X65501532Y-145920777D01*
X65447181Y-145786006D01*
X65414907Y-145705433D01*
X65365512Y-145582796D01*
X65325189Y-145485014D01*
X65293205Y-145410476D01*
X65268827Y-145357571D01*
X65251324Y-145324691D01*
X65239963Y-145310223D01*
X65235160Y-145310321D01*
X65225157Y-145327340D01*
X65204402Y-145366153D01*
X65174694Y-145423275D01*
X65137829Y-145495220D01*
X65095606Y-145578504D01*
X65049821Y-145669642D01*
X65049350Y-145670583D01*
X65004122Y-145760625D01*
X64962971Y-145841797D01*
X64927576Y-145910848D01*
X64899617Y-145964525D01*
X64880772Y-145999577D01*
X64872722Y-146012751D01*
X64872639Y-146012778D01*
X64861916Y-146002897D01*
X64834520Y-145975041D01*
X64793011Y-145931888D01*
X64739952Y-145876116D01*
X64677901Y-145810404D01*
X64609589Y-145737611D01*
X64540907Y-145664591D01*
X64478391Y-145598853D01*
X64424652Y-145543085D01*
X64382299Y-145499970D01*
X64353941Y-145472195D01*
X64342208Y-145462444D01*
X64336020Y-145475486D01*
X64325533Y-145511425D01*
X64311978Y-145565485D01*
X64296589Y-145632891D01*
X64288491Y-145670583D01*
X64263495Y-145790135D01*
X64242477Y-145893255D01*
X64224683Y-145984837D01*
X64209361Y-146069774D01*
X64195757Y-146152960D01*
X64183116Y-146239287D01*
X64170686Y-146333649D01*
X64157713Y-146440940D01*
X64143443Y-146566052D01*
X64127123Y-146713879D01*
X64125430Y-146729358D01*
X64117389Y-146796586D01*
X64109294Y-146853377D01*
X64102059Y-146893952D01*
X64096599Y-146912534D01*
X64096370Y-146912803D01*
X64077767Y-146918682D01*
X64036425Y-146924679D01*
X63976819Y-146930594D01*
X63903422Y-146936231D01*
X63820709Y-146941390D01*
X63733153Y-146945875D01*
X63645229Y-146949486D01*
X63561412Y-146952026D01*
X63486174Y-146953298D01*
X63423992Y-146953102D01*
X63379338Y-146951242D01*
X63356686Y-146947519D01*
X63354778Y-146945618D01*
X63356411Y-146920816D01*
X63360976Y-146872458D01*
X63367974Y-146804999D01*
X63376903Y-146722896D01*
X63387263Y-146630606D01*
X63398553Y-146532584D01*
X63410274Y-146433286D01*
X63421924Y-146337170D01*
X63433003Y-146248690D01*
X63433396Y-146245611D01*
X63451093Y-146114937D01*
X63472765Y-145967149D01*
X63497386Y-145808407D01*
X63523928Y-145644872D01*
X63551364Y-145482701D01*
X63578665Y-145328056D01*
X63604804Y-145187096D01*
X63628753Y-145065981D01*
X63635865Y-145032056D01*
X63660218Y-144920506D01*
X63686649Y-144804020D01*
X63714318Y-144685899D01*
X63742385Y-144569440D01*
X63770010Y-144457944D01*
X63796354Y-144354711D01*
X63820577Y-144263039D01*
X63841837Y-144186228D01*
X63859297Y-144127579D01*
X63872115Y-144090390D01*
X63878687Y-144078145D01*
X63901032Y-144072515D01*
X63943706Y-144068189D01*
X63998825Y-144065869D01*
X64019360Y-144065660D01*
X64095471Y-144064418D01*
X64181921Y-144061351D01*
X64260937Y-144057101D01*
X64266305Y-144056736D01*
X64391945Y-144048029D01*
X64465328Y-144208431D01*
X64521886Y-144331266D01*
X64573258Y-144441272D01*
X64618424Y-144536356D01*
X64656362Y-144614423D01*
X64686053Y-144673379D01*
X64706477Y-144711131D01*
X64716613Y-144725583D01*
X64717273Y-144725542D01*
X64722832Y-144710886D01*
X64735278Y-144672823D01*
X64753474Y-144615004D01*
X64776283Y-144541079D01*
X64802568Y-144454698D01*
X64827980Y-144370242D01*
X64856340Y-144275936D01*
X64882153Y-144190914D01*
X64904296Y-144118805D01*
X64921647Y-144063243D01*
X64933084Y-144027857D01*
X64937384Y-144016270D01*
X64953417Y-144012812D01*
X64992368Y-144008361D01*
X65049121Y-144003248D01*
X65118560Y-143997804D01*
X65195568Y-143992357D01*
X65275028Y-143987239D01*
X65351825Y-143982778D01*
X65420841Y-143979305D01*
X65476960Y-143977150D01*
X65515065Y-143976643D01*
X65529993Y-143978054D01*
X65537469Y-143993212D01*
X65554009Y-144031135D01*
X65578181Y-144088390D01*
X65608550Y-144161545D01*
X65643683Y-144247168D01*
X65682145Y-144341827D01*
X65687357Y-144354722D01*
X65815241Y-144666422D01*
X65948929Y-144983138D01*
X66083868Y-145294238D01*
X66215509Y-145589085D01*
X66217894Y-145594341D01*
X66253055Y-145672108D01*
X66283835Y-145740786D01*
X66308457Y-145796361D01*
X66325145Y-145834819D01*
X66332121Y-145852147D01*
X66332222Y-145852642D01*
X66337973Y-145866871D01*
X66353924Y-145902343D01*
X66378129Y-145954826D01*
X66408638Y-146020089D01*
X66438056Y-146082419D01*
X66472565Y-146156316D01*
X66502364Y-146222190D01*
X66525472Y-146275492D01*
X66539910Y-146311677D01*
X66543889Y-146325409D01*
X66636763Y-146325409D01*
X66638104Y-146016308D01*
X66639101Y-145873684D01*
X66640824Y-145724590D01*
X66643159Y-145574902D01*
X66645992Y-145430497D01*
X66649209Y-145297251D01*
X66652695Y-145181040D01*
X66655984Y-145095556D01*
X66663541Y-144931483D01*
X66671362Y-144772345D01*
X66679292Y-144620571D01*
X66687179Y-144478592D01*
X66694871Y-144348839D01*
X66702215Y-144233744D01*
X66709060Y-144135736D01*
X66715251Y-144057246D01*
X66718061Y-144027744D01*
X66372682Y-144027744D01*
X66369475Y-144064465D01*
X66369261Y-144066179D01*
X66366362Y-144098233D01*
X66362561Y-144153546D01*
X66358145Y-144227184D01*
X66353404Y-144314208D01*
X66348624Y-144409682D01*
X66346241Y-144460556D01*
X66341527Y-144559589D01*
X66336696Y-144653770D01*
X66332042Y-144737894D01*
X66327860Y-144806759D01*
X66324442Y-144855162D01*
X66323144Y-144869754D01*
X66315205Y-144947342D01*
X66281997Y-144883865D01*
X66259888Y-144838705D01*
X66232945Y-144779568D01*
X66206739Y-144718712D01*
X66205015Y-144714556D01*
X66176985Y-144646863D01*
X66144867Y-144569413D01*
X66115419Y-144498501D01*
X66114309Y-144495833D01*
X66074559Y-144398700D01*
X66026126Y-144277716D01*
X65970065Y-144135521D01*
X65955750Y-144098934D01*
X65965388Y-144089272D01*
X66002621Y-144081042D01*
X66067736Y-144074182D01*
X66073852Y-144073713D01*
X66166905Y-144064609D01*
X66247162Y-144052578D01*
X66309970Y-144038525D01*
X66350678Y-144023352D01*
X66358200Y-144018470D01*
X66369279Y-144013946D01*
X66372682Y-144027744D01*
X66718061Y-144027744D01*
X66720638Y-144000706D01*
X66725066Y-143968547D01*
X66727103Y-143962057D01*
X66745204Y-143955898D01*
X66787225Y-143947961D01*
X66848961Y-143938791D01*
X66926208Y-143928932D01*
X67014759Y-143918928D01*
X67110410Y-143909325D01*
X67187725Y-143902422D01*
X67302395Y-143892772D01*
X67308224Y-144373597D01*
X67309836Y-144487341D01*
X67311765Y-144591967D01*
X67313916Y-144684165D01*
X67316194Y-144760623D01*
X67318502Y-144818030D01*
X67320745Y-144853075D01*
X67322367Y-144862737D01*
X67338760Y-144868136D01*
X67376763Y-144876560D01*
X67430218Y-144886963D01*
X67492968Y-144898295D01*
X67558858Y-144909511D01*
X67621730Y-144919561D01*
X67675428Y-144927399D01*
X67713795Y-144931976D01*
X67730674Y-144932245D01*
X67730715Y-144932222D01*
X67733556Y-144917263D01*
X67736890Y-144878087D01*
X67740492Y-144818690D01*
X67744137Y-144743067D01*
X67747600Y-144655214D01*
X67749489Y-144598564D01*
X67753830Y-144467474D01*
X67758519Y-144340746D01*
X67763402Y-144221441D01*
X67768327Y-144112623D01*
X67773141Y-144017355D01*
X67777690Y-143938699D01*
X67781823Y-143879717D01*
X67785387Y-143843473D01*
X67787689Y-143832940D01*
X67801983Y-143834587D01*
X67839477Y-143841396D01*
X67895811Y-143852454D01*
X67966625Y-143866846D01*
X68047560Y-143883657D01*
X68134256Y-143901971D01*
X68222352Y-143920875D01*
X68307489Y-143939452D01*
X68385307Y-143956789D01*
X68451446Y-143971970D01*
X68461438Y-143974323D01*
X68468222Y-143975002D01*
X68474204Y-143974861D01*
X68479271Y-143975709D01*
X68483314Y-143979354D01*
X68486221Y-143987605D01*
X68487884Y-144002271D01*
X68488191Y-144025160D01*
X68836597Y-144025160D01*
X68828032Y-143973377D01*
X68823307Y-143936904D01*
X68822859Y-143914484D01*
X68823713Y-143912007D01*
X68839178Y-143911596D01*
X68849387Y-143914685D01*
X68861627Y-143924489D01*
X68861903Y-143945292D01*
X69229443Y-143945292D01*
X69245682Y-143903997D01*
X69259121Y-143871831D01*
X69269399Y-143849726D01*
X69277244Y-143835852D01*
X69283379Y-143828383D01*
X69288530Y-143825492D01*
X69293423Y-143825349D01*
X69298782Y-143826129D01*
X69301089Y-143826287D01*
X69328817Y-143828352D01*
X69376513Y-143833313D01*
X69438951Y-143840497D01*
X69510902Y-143849231D01*
X69587139Y-143858843D01*
X69662436Y-143868662D01*
X69731565Y-143878014D01*
X69789299Y-143886228D01*
X69830410Y-143892630D01*
X69849672Y-143896549D01*
X69850420Y-143896944D01*
X69854869Y-143904964D01*
X69865162Y-143925846D01*
X69882033Y-143961158D01*
X69906215Y-144012469D01*
X69938443Y-144081347D01*
X69979450Y-144169360D01*
X70029969Y-144278077D01*
X70090735Y-144409068D01*
X70162480Y-144563899D01*
X70173437Y-144587556D01*
X70229203Y-144709255D01*
X70288051Y-144840000D01*
X70348231Y-144975720D01*
X70407993Y-145112343D01*
X70465584Y-145245797D01*
X70519256Y-145372010D01*
X70567255Y-145486910D01*
X70607833Y-145586427D01*
X70639238Y-145666487D01*
X70651263Y-145698806D01*
X70672000Y-145754117D01*
X70689760Y-145797807D01*
X70702147Y-145824178D01*
X70706137Y-145829333D01*
X70713416Y-145816012D01*
X70726204Y-145777841D01*
X70743840Y-145717511D01*
X70765665Y-145637713D01*
X70791019Y-145541138D01*
X70819242Y-145430475D01*
X70849674Y-145308416D01*
X70881656Y-145177652D01*
X70914528Y-145040872D01*
X70947629Y-144900767D01*
X70980301Y-144760028D01*
X71011882Y-144621346D01*
X71041715Y-144487411D01*
X71069138Y-144360913D01*
X71086780Y-144277111D01*
X71106884Y-144180332D01*
X71125437Y-144091267D01*
X71141560Y-144014110D01*
X71150300Y-143972471D01*
X70805445Y-143972471D01*
X70802404Y-143993890D01*
X70794189Y-144036054D01*
X70782164Y-144092253D01*
X70771765Y-144138277D01*
X70756470Y-144206796D01*
X70742737Y-144272369D01*
X70732499Y-144325576D01*
X70728834Y-144347667D01*
X70720913Y-144393005D01*
X70708996Y-144450296D01*
X70694400Y-144514368D01*
X70678444Y-144580046D01*
X70662446Y-144642158D01*
X70647724Y-144695532D01*
X70635596Y-144734993D01*
X70627380Y-144755368D01*
X70624787Y-144756015D01*
X70616728Y-144734903D01*
X70600001Y-144694748D01*
X70577442Y-144642278D01*
X70562744Y-144608722D01*
X70529232Y-144534112D01*
X70490430Y-144449786D01*
X70453529Y-144371338D01*
X70445565Y-144354722D01*
X70411052Y-144282501D01*
X70371492Y-144198856D01*
X70333603Y-144118013D01*
X70320647Y-144090139D01*
X70256901Y-143952556D01*
X70531173Y-143952556D01*
X70627817Y-143952868D01*
X70699603Y-143953968D01*
X70749889Y-143956099D01*
X70782033Y-143959505D01*
X70799394Y-143964431D01*
X70805330Y-143971119D01*
X70805445Y-143972471D01*
X71150300Y-143972471D01*
X71154375Y-143953059D01*
X71163005Y-143912308D01*
X71166197Y-143897607D01*
X71171394Y-143880709D01*
X71181560Y-143871261D01*
X71202963Y-143867898D01*
X71241870Y-143869250D01*
X71282473Y-143872240D01*
X71342964Y-143877296D01*
X71420151Y-143884271D01*
X71502664Y-143892119D01*
X71557898Y-143897611D01*
X71724739Y-143914566D01*
X71916467Y-144296922D01*
X72108196Y-144679278D01*
X72127129Y-144608722D01*
X72136463Y-144573580D01*
X72151512Y-144516501D01*
X72170863Y-144442855D01*
X72193107Y-144358014D01*
X72216833Y-144267348D01*
X72221658Y-144248889D01*
X72297253Y-143959611D01*
X72387432Y-143963841D01*
X72452214Y-143967729D01*
X72527626Y-143973604D01*
X72608589Y-143980915D01*
X72690022Y-143989106D01*
X72766847Y-143997626D01*
X72833983Y-144005921D01*
X72886352Y-144013438D01*
X72918872Y-144019623D01*
X72926888Y-144022592D01*
X72936832Y-144039758D01*
X72955999Y-144079547D01*
X72982899Y-144138472D01*
X73016039Y-144213048D01*
X73053929Y-144299788D01*
X73095077Y-144395206D01*
X73137992Y-144495815D01*
X73181182Y-144598129D01*
X73223156Y-144698662D01*
X73262422Y-144793928D01*
X73297491Y-144880441D01*
X73326869Y-144954713D01*
X73337933Y-144983472D01*
X73464546Y-145335498D01*
X73575020Y-145684796D01*
X73673340Y-146044262D01*
X73704241Y-146169152D01*
X73725212Y-146258771D01*
X73746850Y-146356029D01*
X73768052Y-146455469D01*
X73787711Y-146551632D01*
X73804724Y-146639063D01*
X73817985Y-146712305D01*
X73826390Y-146765902D01*
X73828252Y-146781708D01*
X73832278Y-146823915D01*
X74175967Y-146823915D01*
X74177983Y-146808635D01*
X74178000Y-146805136D01*
X74174607Y-146765261D01*
X74164980Y-146701867D01*
X74149952Y-146618761D01*
X74130354Y-146519749D01*
X74107017Y-146408638D01*
X74080773Y-146289232D01*
X74052452Y-146165337D01*
X74022886Y-146040761D01*
X73992907Y-145919308D01*
X73963345Y-145804785D01*
X73943284Y-145730556D01*
X73920410Y-145650633D01*
X73892286Y-145556901D01*
X73860261Y-145453452D01*
X73825685Y-145344384D01*
X73789910Y-145233792D01*
X73754284Y-145125770D01*
X73720159Y-145024415D01*
X73688884Y-144933821D01*
X73661810Y-144858085D01*
X73640286Y-144801301D01*
X73626036Y-144768296D01*
X73609491Y-144732742D01*
X73586361Y-144679400D01*
X73560289Y-144616788D01*
X73544543Y-144577796D01*
X73486751Y-144434721D01*
X73435216Y-144311071D01*
X73391076Y-144209540D01*
X73365866Y-144154513D01*
X73347117Y-144113390D01*
X73334576Y-144083252D01*
X73331334Y-144072785D01*
X73325757Y-144056740D01*
X73311037Y-144022252D01*
X73290190Y-143976345D01*
X73287047Y-143969606D01*
X73257387Y-143895327D01*
X73242198Y-143824958D01*
X73238167Y-143776167D01*
X73233712Y-143714445D01*
X73226766Y-143653654D01*
X73220156Y-143613889D01*
X73210985Y-143567018D01*
X73199946Y-143505696D01*
X73189653Y-143444556D01*
X73179938Y-143389175D01*
X73165956Y-143315642D01*
X73149544Y-143233360D01*
X73132537Y-143151731D01*
X73131787Y-143148222D01*
X73107271Y-143034339D01*
X73088255Y-142945233D01*
X73074818Y-142877985D01*
X73067039Y-142829674D01*
X73064997Y-142797382D01*
X73068770Y-142778189D01*
X73078438Y-142769174D01*
X73094079Y-142767419D01*
X73115773Y-142770004D01*
X73141908Y-142773801D01*
X73248547Y-142775412D01*
X73342911Y-142753213D01*
X73422756Y-142708654D01*
X73485837Y-142643183D01*
X73529913Y-142558249D01*
X73542708Y-142515079D01*
X73551226Y-142468863D01*
X73554532Y-142419558D01*
X73553866Y-142403701D01*
X73216504Y-142403701D01*
X73216437Y-142418149D01*
X73214509Y-142423084D01*
X73198943Y-142424270D01*
X73159541Y-142423529D01*
X73100607Y-142421052D01*
X73026448Y-142417025D01*
X72941370Y-142411638D01*
X72920162Y-142410188D01*
X72832994Y-142404396D01*
X72755603Y-142399728D01*
X72692330Y-142396407D01*
X72647514Y-142394656D01*
X72625497Y-142394698D01*
X72624107Y-142394988D01*
X72623898Y-142409670D01*
X72629722Y-142446233D01*
X72640561Y-142499230D01*
X72655397Y-142563214D01*
X72656035Y-142565824D01*
X72677035Y-142654688D01*
X72701431Y-142762943D01*
X72728013Y-142884768D01*
X72755573Y-143014344D01*
X72782902Y-143145850D01*
X72808791Y-143273466D01*
X72832033Y-143391372D01*
X72851417Y-143493748D01*
X72865735Y-143574775D01*
X72866370Y-143578611D01*
X72877869Y-143647429D01*
X72888346Y-143708468D01*
X72896621Y-143754958D01*
X72901415Y-143779694D01*
X72902954Y-143804083D01*
X72897686Y-143811309D01*
X72880305Y-143809807D01*
X72840481Y-143805798D01*
X72783824Y-143799862D01*
X72715945Y-143792577D01*
X72703389Y-143791214D01*
X72624781Y-143783316D01*
X72527700Y-143774561D01*
X72421848Y-143765768D01*
X72316923Y-143757757D01*
X72260643Y-143753814D01*
X72001341Y-143736373D01*
X72010694Y-143650436D01*
X72014474Y-143604340D01*
X72018591Y-143534419D01*
X72018682Y-143532527D01*
X71412389Y-143532527D01*
X71412222Y-143599331D01*
X71020639Y-143603315D01*
X70891376Y-143604613D01*
X70746920Y-143606036D01*
X70597015Y-143607489D01*
X70451401Y-143608878D01*
X70319823Y-143610110D01*
X70267116Y-143610594D01*
X69905175Y-143613889D01*
X69896471Y-143441028D01*
X69888968Y-143286442D01*
X69882694Y-143145616D01*
X69877711Y-143020644D01*
X69874085Y-142913621D01*
X69871879Y-142826640D01*
X69871227Y-142768005D01*
X69840609Y-142768005D01*
X69620999Y-143025656D01*
X69533901Y-143127380D01*
X69449044Y-143225621D01*
X69368420Y-143318140D01*
X69294025Y-143402695D01*
X69227852Y-143477048D01*
X69171894Y-143538960D01*
X69128146Y-143586191D01*
X69098600Y-143616502D01*
X69085250Y-143627652D01*
X69085061Y-143627668D01*
X69070192Y-143623340D01*
X69031634Y-143611188D01*
X68972504Y-143592219D01*
X68895918Y-143567442D01*
X68804991Y-143537864D01*
X68702841Y-143504492D01*
X68611167Y-143474437D01*
X68145500Y-143321539D01*
X68121209Y-143118464D01*
X68109183Y-143012455D01*
X68095838Y-142885385D01*
X68081860Y-142744340D01*
X68067936Y-142596410D01*
X68054751Y-142448683D01*
X68044001Y-142320741D01*
X68035827Y-142219981D01*
X68184453Y-141982074D01*
X68241239Y-141890821D01*
X68303200Y-141790659D01*
X68364850Y-141690492D01*
X68420702Y-141599229D01*
X68452685Y-141546611D01*
X68515403Y-141443019D01*
X68043082Y-141443019D01*
X68034450Y-141501871D01*
X68029335Y-141541320D01*
X68022597Y-141599570D01*
X68015287Y-141667328D01*
X68011043Y-141708889D01*
X68004702Y-141770224D01*
X67995893Y-141852287D01*
X67985418Y-141947773D01*
X67974079Y-142049378D01*
X67962676Y-142149797D01*
X67962264Y-142153389D01*
X67935855Y-142386322D01*
X67912945Y-142594533D01*
X67893200Y-142781260D01*
X67876287Y-142949739D01*
X67861872Y-143103210D01*
X67849620Y-143244910D01*
X67849448Y-143247000D01*
X67842020Y-143335631D01*
X67834721Y-143419767D01*
X67828102Y-143493265D01*
X67822716Y-143549986D01*
X67819521Y-143580393D01*
X67811074Y-143652730D01*
X67543486Y-143662999D01*
X67459531Y-143665851D01*
X67385613Y-143667657D01*
X67326218Y-143668365D01*
X67285833Y-143667924D01*
X67268944Y-143666282D01*
X67268803Y-143666174D01*
X67269000Y-143650758D01*
X67273669Y-143611866D01*
X67282176Y-143553778D01*
X67293886Y-143480773D01*
X67308167Y-143397133D01*
X67311293Y-143379404D01*
X67329443Y-143274862D01*
X67342175Y-143195852D01*
X67349684Y-143140246D01*
X67352165Y-143105919D01*
X67349813Y-143090743D01*
X67342823Y-143092592D01*
X67336872Y-143100398D01*
X67325109Y-143114356D01*
X67296828Y-143146303D01*
X67254573Y-143193416D01*
X67200886Y-143252872D01*
X67138310Y-143321846D01*
X67069388Y-143397515D01*
X67062497Y-143405065D01*
X66797939Y-143694874D01*
X66555319Y-143569361D01*
X66479897Y-143530199D01*
X66413403Y-143495399D01*
X66359783Y-143467049D01*
X66322987Y-143447238D01*
X66306961Y-143438054D01*
X66306662Y-143437810D01*
X66313867Y-143426001D01*
X66337332Y-143396048D01*
X66374584Y-143350916D01*
X66423148Y-143293571D01*
X66480553Y-143226976D01*
X66524562Y-143176568D01*
X66587153Y-143104554D01*
X66643000Y-143038989D01*
X66689530Y-142983001D01*
X66724172Y-142939718D01*
X66744351Y-142912268D01*
X66748500Y-142904265D01*
X66741361Y-142886550D01*
X66721804Y-142849993D01*
X66692615Y-142799529D01*
X66656583Y-142740090D01*
X66647134Y-142724889D01*
X66545767Y-142562611D01*
X66581153Y-142329778D01*
X66594741Y-142239995D01*
X66608451Y-142148766D01*
X66621011Y-142064584D01*
X66631153Y-141995940D01*
X66634625Y-141972137D01*
X66652711Y-141847329D01*
X66884050Y-141614424D01*
X66955085Y-141542907D01*
X66509286Y-141542907D01*
X66508138Y-141557355D01*
X66502576Y-141594177D01*
X66493472Y-141648024D01*
X66481698Y-141713548D01*
X66479950Y-141723000D01*
X66454502Y-141865307D01*
X66426616Y-142030262D01*
X66397100Y-142212478D01*
X66366762Y-142406566D01*
X66336408Y-142607140D01*
X66306845Y-142808811D01*
X66278881Y-143006194D01*
X66253324Y-143193899D01*
X66230979Y-143366541D01*
X66218846Y-143465722D01*
X66209024Y-143546915D01*
X66200143Y-143617764D01*
X66192793Y-143673778D01*
X66187561Y-143710465D01*
X66185103Y-143723312D01*
X66169831Y-143725965D01*
X66131796Y-143729446D01*
X66076361Y-143733471D01*
X66008887Y-143737751D01*
X65934738Y-143742001D01*
X65859276Y-143745934D01*
X65787862Y-143749265D01*
X65725860Y-143751705D01*
X65678632Y-143752970D01*
X65651540Y-143752772D01*
X65647228Y-143752043D01*
X65647809Y-143736708D01*
X65653537Y-143698027D01*
X65663661Y-143640250D01*
X65677426Y-143567630D01*
X65694081Y-143484418D01*
X65697810Y-143466310D01*
X65715077Y-143381677D01*
X65729840Y-143307007D01*
X65741309Y-143246493D01*
X65748696Y-143204323D01*
X65751210Y-143184689D01*
X65751042Y-143183819D01*
X65740788Y-143192835D01*
X65713925Y-143220200D01*
X65672834Y-143263386D01*
X65619896Y-143319862D01*
X65557490Y-143387101D01*
X65487998Y-143462574D01*
X65464389Y-143488339D01*
X65393091Y-143566120D01*
X65328164Y-143636720D01*
X65271987Y-143697570D01*
X65226938Y-143746103D01*
X65195398Y-143779750D01*
X65179746Y-143795941D01*
X65178482Y-143797016D01*
X65165331Y-143791105D01*
X65130914Y-143774463D01*
X65079183Y-143749031D01*
X65014089Y-143716753D01*
X64939581Y-143679571D01*
X64935066Y-143677310D01*
X64860257Y-143639264D01*
X64794982Y-143604932D01*
X64743142Y-143576460D01*
X64708637Y-143555994D01*
X64695370Y-143545679D01*
X64695333Y-143545455D01*
X64704484Y-143532029D01*
X64730084Y-143501123D01*
X64769356Y-143455914D01*
X64819523Y-143399583D01*
X64877807Y-143335308D01*
X64901771Y-143309173D01*
X64964350Y-143241115D01*
X65021889Y-143178502D01*
X65071133Y-143124881D01*
X65108825Y-143083797D01*
X65131710Y-143058797D01*
X65135383Y-143054762D01*
X65146015Y-143041894D01*
X65150652Y-143029017D01*
X65147518Y-143011600D01*
X65134837Y-142985113D01*
X65110832Y-142945023D01*
X65073727Y-142886800D01*
X65063000Y-142870131D01*
X65025613Y-142810383D01*
X64994631Y-142757707D01*
X64972987Y-142717322D01*
X64963611Y-142694450D01*
X64963445Y-142692880D01*
X64966029Y-142673082D01*
X64973282Y-142629758D01*
X64984452Y-142567080D01*
X64998785Y-142489219D01*
X65015531Y-142400345D01*
X65026545Y-142342842D01*
X65051063Y-142219650D01*
X65071975Y-142123438D01*
X65089525Y-142053226D01*
X65103955Y-142008035D01*
X65114581Y-141987829D01*
X65132249Y-141970157D01*
X65167173Y-141936731D01*
X65215819Y-141890880D01*
X65274651Y-141835931D01*
X65340132Y-141775214D01*
X65356070Y-141760499D01*
X65428882Y-141693569D01*
X65484616Y-141643352D01*
X65485470Y-141642622D01*
X64972437Y-141642622D01*
X64971487Y-141657460D01*
X64965729Y-141695810D01*
X64955881Y-141753507D01*
X64942661Y-141826388D01*
X64926788Y-141910288D01*
X64921808Y-141935998D01*
X64877396Y-142172995D01*
X64834190Y-142420625D01*
X64793123Y-142672698D01*
X64755132Y-142923023D01*
X64721151Y-143165408D01*
X64692115Y-143393663D01*
X64668959Y-143601597D01*
X64666312Y-143628000D01*
X64659474Y-143692979D01*
X64652963Y-143747366D01*
X64647548Y-143785167D01*
X64644193Y-143800150D01*
X64627828Y-143804586D01*
X64593162Y-143804678D01*
X64571468Y-143802926D01*
X64536995Y-143799887D01*
X64479839Y-143795562D01*
X64405488Y-143790335D01*
X64319431Y-143784590D01*
X64227157Y-143778711D01*
X64212035Y-143777775D01*
X64123973Y-143771970D01*
X64045678Y-143766097D01*
X63981453Y-143760537D01*
X63935600Y-143755671D01*
X63912423Y-143751880D01*
X63910584Y-143751065D01*
X63910020Y-143733495D01*
X63916900Y-143691684D01*
X63930512Y-143628412D01*
X63950144Y-143546454D01*
X63975083Y-143448589D01*
X64004616Y-143337594D01*
X64038030Y-143216248D01*
X64074613Y-143087327D01*
X64113652Y-142953609D01*
X64125015Y-142915389D01*
X64146563Y-142844810D01*
X64174381Y-142756159D01*
X64207124Y-142653515D01*
X64243446Y-142540959D01*
X64282002Y-142422572D01*
X64321448Y-142302432D01*
X64360438Y-142184622D01*
X64397627Y-142073221D01*
X64431670Y-141972309D01*
X64461222Y-141885966D01*
X64484937Y-141818274D01*
X64501472Y-141773311D01*
X64501728Y-141772652D01*
X64520870Y-141726428D01*
X64537170Y-141700020D01*
X64557072Y-141686593D01*
X64587018Y-141679311D01*
X64590245Y-141678755D01*
X64632802Y-141672509D01*
X64689185Y-141665612D01*
X64753222Y-141658646D01*
X64818744Y-141652195D01*
X64879581Y-141646842D01*
X64929561Y-141643171D01*
X64962515Y-141641764D01*
X64972437Y-141642622D01*
X65485470Y-141642622D01*
X65526812Y-141607288D01*
X65559010Y-141582820D01*
X65584753Y-141567390D01*
X65607579Y-141558439D01*
X65631031Y-141553409D01*
X65645506Y-141551384D01*
X65673737Y-141549369D01*
X65723768Y-141547432D01*
X65791391Y-141545615D01*
X65872396Y-141543959D01*
X65962577Y-141542506D01*
X66057724Y-141541297D01*
X66153628Y-141540372D01*
X66246082Y-141539774D01*
X66330877Y-141539544D01*
X66403804Y-141539723D01*
X66460655Y-141540352D01*
X66497221Y-141541472D01*
X66509286Y-141542907D01*
X66955085Y-141542907D01*
X67115389Y-141381518D01*
X67320000Y-141390118D01*
X67416741Y-141394707D01*
X67523019Y-141400632D01*
X67632596Y-141407465D01*
X67739234Y-141414777D01*
X67836694Y-141422139D01*
X67918739Y-141429123D01*
X67979131Y-141435300D01*
X67981402Y-141435571D01*
X68043082Y-141443019D01*
X68515403Y-141443019D01*
X68572292Y-141349056D01*
X68704618Y-141340052D01*
X68774772Y-141336210D01*
X68860915Y-141332866D01*
X68950815Y-141330441D01*
X69014061Y-141329468D01*
X69191177Y-141327889D01*
X69317450Y-141444558D01*
X69382953Y-141504260D01*
X69459005Y-141572318D01*
X69534569Y-141638905D01*
X69580308Y-141678560D01*
X69716893Y-141795891D01*
X69726312Y-141889973D01*
X69730705Y-141929099D01*
X69738287Y-141991430D01*
X69748451Y-142072206D01*
X69760592Y-142166668D01*
X69774104Y-142270056D01*
X69788171Y-142376030D01*
X69840609Y-142768005D01*
X69871227Y-142768005D01*
X69871157Y-142761796D01*
X69871984Y-142721183D01*
X69874050Y-142707140D01*
X69891203Y-142704725D01*
X69927610Y-142708779D01*
X69973704Y-142718054D01*
X70103667Y-142748819D01*
X70208262Y-142773282D01*
X70289523Y-142791891D01*
X70349486Y-142805094D01*
X70390184Y-142813340D01*
X70413652Y-142817078D01*
X70421841Y-142816863D01*
X70417224Y-142802297D01*
X70396631Y-142767899D01*
X70361607Y-142715964D01*
X70313699Y-142648784D01*
X70255212Y-142569667D01*
X70220479Y-142522226D01*
X70174471Y-142457757D01*
X70121679Y-142382637D01*
X70066593Y-142303244D01*
X70026715Y-142245088D01*
X69877590Y-142026343D01*
X69860480Y-141732468D01*
X69855607Y-141644532D01*
X69851759Y-141566613D01*
X69849107Y-141502935D01*
X69847821Y-141457721D01*
X69848069Y-141435196D01*
X69848464Y-141433499D01*
X69863727Y-141431476D01*
X69903747Y-141428953D01*
X69965093Y-141426028D01*
X70044336Y-141422798D01*
X70138044Y-141419363D01*
X70242787Y-141415818D01*
X70355135Y-141412263D01*
X70471657Y-141408794D01*
X70588923Y-141405510D01*
X70703502Y-141402508D01*
X70811963Y-141399886D01*
X70910877Y-141397743D01*
X70996812Y-141396174D01*
X71066338Y-141395280D01*
X71116025Y-141395156D01*
X71142442Y-141395901D01*
X71145807Y-141396527D01*
X71150983Y-141412430D01*
X71160577Y-141451925D01*
X71173684Y-141510890D01*
X71189399Y-141585202D01*
X71206817Y-141670737D01*
X71214396Y-141708889D01*
X71233563Y-141805891D01*
X71252403Y-141900926D01*
X71269703Y-141987892D01*
X71284249Y-142060691D01*
X71294826Y-142113222D01*
X71296479Y-142121351D01*
X71306194Y-142173270D01*
X71312079Y-142213498D01*
X71313150Y-142234971D01*
X71312556Y-142236575D01*
X71296762Y-142237191D01*
X71260219Y-142233401D01*
X71209918Y-142225990D01*
X71193500Y-142223231D01*
X71116089Y-142210775D01*
X71035336Y-142199340D01*
X70956168Y-142189443D01*
X70883506Y-142181599D01*
X70822275Y-142176323D01*
X70777399Y-142174131D01*
X70753801Y-142175540D01*
X70751492Y-142176948D01*
X70758552Y-142190756D01*
X70780911Y-142222857D01*
X70815942Y-142269746D01*
X70861019Y-142327918D01*
X70913514Y-142393868D01*
X70921240Y-142403441D01*
X70988471Y-142487075D01*
X71061978Y-142579302D01*
X71135144Y-142671774D01*
X71201355Y-142756141D01*
X71237392Y-142802500D01*
X71379233Y-142985944D01*
X71395894Y-143225833D01*
X71401511Y-143310795D01*
X71406299Y-143391024D01*
X71409913Y-143460100D01*
X71412006Y-143511602D01*
X71412389Y-143532527D01*
X72018682Y-143532527D01*
X72022900Y-143445068D01*
X72027255Y-143340679D01*
X72031511Y-143225646D01*
X72035520Y-143104364D01*
X72039138Y-142981224D01*
X72042218Y-142860622D01*
X72043574Y-142796277D01*
X71708556Y-142796277D01*
X71706110Y-142838782D01*
X71699312Y-142858665D01*
X71694445Y-142858944D01*
X71680624Y-142838250D01*
X71680020Y-142833417D01*
X71671702Y-142811203D01*
X71652140Y-142781370D01*
X71652111Y-142781333D01*
X71629692Y-142748819D01*
X71628430Y-142731673D01*
X71649454Y-142725382D01*
X71666222Y-142724889D01*
X71691176Y-142726399D01*
X71703687Y-142735757D01*
X71708049Y-142760199D01*
X71708556Y-142796277D01*
X72043574Y-142796277D01*
X72044615Y-142746951D01*
X72046181Y-142644603D01*
X72046763Y-142564898D01*
X72047222Y-142327297D01*
X71994306Y-142335683D01*
X71964063Y-142339719D01*
X71911772Y-142345936D01*
X71843463Y-142353675D01*
X71765166Y-142362278D01*
X71682912Y-142371089D01*
X71602732Y-142379448D01*
X71530656Y-142386697D01*
X71496889Y-142389951D01*
X71461611Y-142393278D01*
X71445157Y-142195722D01*
X71437826Y-142112503D01*
X71429747Y-142028606D01*
X71421860Y-141953370D01*
X71415105Y-141896130D01*
X71414605Y-141892333D01*
X71407349Y-141829982D01*
X71399809Y-141752307D01*
X71393190Y-141672166D01*
X71390765Y-141637687D01*
X71381022Y-141488874D01*
X71795261Y-141528333D01*
X71886504Y-141537501D01*
X71991762Y-141548881D01*
X72107464Y-141562016D01*
X72230038Y-141576451D01*
X72355911Y-141591729D01*
X72481513Y-141607394D01*
X72603271Y-141622990D01*
X72717615Y-141638060D01*
X72820971Y-141652150D01*
X72909769Y-141664802D01*
X72980436Y-141675561D01*
X73029401Y-141683970D01*
X73050163Y-141688584D01*
X73059937Y-141698981D01*
X73071469Y-141726439D01*
X73085453Y-141773399D01*
X73102584Y-141842301D01*
X73123555Y-141935586D01*
X73133263Y-141980693D01*
X73159540Y-142104547D01*
X73180203Y-142203510D01*
X73195742Y-142280244D01*
X73206646Y-142337412D01*
X73213404Y-142377677D01*
X73216504Y-142403701D01*
X73553866Y-142403701D01*
X73552151Y-142362883D01*
X73543606Y-142294556D01*
X73528423Y-142210297D01*
X73506125Y-142105825D01*
X73488866Y-142030514D01*
X73468190Y-141941313D01*
X73447786Y-141852284D01*
X73429355Y-141770927D01*
X73414602Y-141704744D01*
X73407883Y-141673844D01*
X73376102Y-141567893D01*
X73330263Y-141485473D01*
X73268809Y-141424808D01*
X73190178Y-141384125D01*
X73140833Y-141370020D01*
X73068731Y-141355133D01*
X72975727Y-141337718D01*
X72868897Y-141318950D01*
X72755320Y-141300003D01*
X72642071Y-141282051D01*
X72536227Y-141266269D01*
X72444866Y-141253831D01*
X72428222Y-141251759D01*
X72284730Y-141234348D01*
X72166276Y-141220202D01*
X72069905Y-141209009D01*
X71992663Y-141200458D01*
X71931592Y-141194238D01*
X71883738Y-141190039D01*
X71846144Y-141187548D01*
X71815855Y-141186456D01*
X71806733Y-141186348D01*
X71748106Y-141183808D01*
X71676707Y-141177378D01*
X71598680Y-141167998D01*
X71520166Y-141156610D01*
X71447311Y-141144152D01*
X71386256Y-141131568D01*
X71343146Y-141119797D01*
X71327556Y-141112963D01*
X71272400Y-141085190D01*
X71203398Y-141065618D01*
X71117109Y-141053769D01*
X71010093Y-141049165D01*
X70883056Y-141051175D01*
X70668506Y-141058807D01*
X70482063Y-141065136D01*
X70323644Y-141070163D01*
X70193164Y-141073891D01*
X70090538Y-141076322D01*
X70015682Y-141077458D01*
X69968512Y-141077303D01*
X69958778Y-141076957D01*
X69882613Y-141080127D01*
X69801434Y-141095258D01*
X69723059Y-141119775D01*
X69655304Y-141151106D01*
X69605986Y-141186677D01*
X69597473Y-141195906D01*
X69586012Y-141201233D01*
X69566809Y-141194192D01*
X69536036Y-141172455D01*
X69489864Y-141133690D01*
X69477529Y-141122881D01*
X69426786Y-141080961D01*
X69377781Y-141045206D01*
X69338005Y-141020891D01*
X69323778Y-141014624D01*
X69290227Y-141008327D01*
X69233559Y-141002931D01*
X69158863Y-140998502D01*
X69071232Y-140995106D01*
X68975758Y-140992809D01*
X68877533Y-140991678D01*
X68781646Y-140991776D01*
X68781646Y-140991776D01*
G37*
X68781646Y-140991776D02*
X68693192Y-140993172D01*
X68617260Y-140995930D01*
X68558943Y-141000117D01*
X68529304Y-141004343D01*
X68469850Y-141022497D01*
X68409133Y-141050199D01*
X68355530Y-141082754D01*
X68317419Y-141115471D01*
X68307917Y-141128356D01*
X68285776Y-141164869D01*
X68269721Y-141179903D01*
X68252014Y-141176586D01*
X68228310Y-141160522D01*
X68183458Y-141137710D01*
X68114380Y-141117486D01*
X68020007Y-141099635D01*
X67899274Y-141083942D01*
X67799778Y-141074238D01*
X67702787Y-141067100D01*
X67597066Y-141061598D01*
X67487227Y-141057750D01*
X67377885Y-141055579D01*
X67273653Y-141055105D01*
X67179144Y-141056349D01*
X67098973Y-141059334D01*
X67037752Y-141064079D01*
X67000163Y-141070584D01*
X66949368Y-141095550D01*
X66885275Y-141143147D01*
X66837036Y-141185893D01*
X66732692Y-141283339D01*
X66689155Y-141255774D01*
X66652263Y-141235963D01*
X66608758Y-141220171D01*
X66555510Y-141208086D01*
X66489389Y-141199394D01*
X66407265Y-141193781D01*
X66306007Y-141190934D01*
X66182485Y-141190539D01*
X66052256Y-141191980D01*
X65901259Y-141195063D01*
X65775100Y-141199664D01*
X65670407Y-141206542D01*
X65583805Y-141216455D01*
X65511922Y-141230162D01*
X65451383Y-141248420D01*
X65398816Y-141271988D01*
X65350847Y-141301622D01*
X65304103Y-141338083D01*
X65270833Y-141367586D01*
X65232500Y-141402820D01*
X65179111Y-141367735D01*
X65120417Y-141335945D01*
X65054569Y-141314403D01*
X64978320Y-141303051D01*
X64888421Y-141301833D01*
X64781622Y-141310692D01*
X64654675Y-141329571D01*
X64515384Y-141356133D01*
X64428887Y-141377472D01*
X64366845Y-141401316D01*
X64335913Y-141420253D01*
X64284488Y-141470300D01*
X64235915Y-141536019D01*
X64198482Y-141605389D01*
X64186940Y-141636334D01*
X64172989Y-141678482D01*
X64159750Y-141713154D01*
X64158522Y-141715944D01*
X64150253Y-141737623D01*
X64134674Y-141781436D01*
X64113361Y-141842731D01*
X64087889Y-141916855D01*
X64059835Y-141999156D01*
X64030775Y-142084982D01*
X64002285Y-142169679D01*
X63975941Y-142248597D01*
X63953320Y-142317082D01*
X63935996Y-142370482D01*
X63926675Y-142400333D01*
X63913332Y-142444063D01*
X63894868Y-142503561D01*
X63874739Y-142567709D01*
X63869658Y-142583778D01*
X63841984Y-142673757D01*
X63809281Y-142784315D01*
X63773302Y-142909153D01*
X63735799Y-143041973D01*
X63698526Y-143176477D01*
X63663234Y-143306367D01*
X63631676Y-143425345D01*
X63605604Y-143527113D01*
X63594153Y-143573825D01*
X63578550Y-143643792D01*
X63570448Y-143695984D01*
X63569035Y-143739597D01*
X63573501Y-143783826D01*
X63574864Y-143792547D01*
X63581313Y-143845189D01*
X63579138Y-143882608D01*
X63567324Y-143916761D01*
X63563675Y-143924333D01*
X63553468Y-143952129D01*
X63537963Y-144003935D01*
X63518039Y-144076224D01*
X63494571Y-144165466D01*
X63468436Y-144268133D01*
X63440511Y-144380698D01*
X63411673Y-144499631D01*
X63382798Y-144621405D01*
X63354763Y-144742491D01*
X63328444Y-144859361D01*
X63307716Y-144954444D01*
X63267496Y-145149775D01*
X63228156Y-145354895D01*
X63190933Y-145562615D01*
X63157065Y-145765743D01*
X63127788Y-145957088D01*
X63104341Y-146129460D01*
X63101324Y-146153889D01*
X63092395Y-146224885D01*
X63082863Y-146296809D01*
X63074388Y-146357240D01*
X63072095Y-146372611D01*
X63050828Y-146527186D01*
X63035672Y-146670782D01*
X63026765Y-146800217D01*
X63024246Y-146912314D01*
X63028254Y-147003891D01*
X63038927Y-147071770D01*
X63041247Y-147080167D01*
X63073315Y-147144748D01*
X63125971Y-147204707D01*
X63191698Y-147252837D01*
X63247001Y-147277466D01*
X63316940Y-147292336D01*
X63412998Y-147301030D01*
X63533747Y-147303502D01*
X63677757Y-147299705D01*
X63771056Y-147294632D01*
X63910367Y-147284294D01*
X64024812Y-147272084D01*
X64117729Y-147257181D01*
X64192453Y-147238761D01*
X64252322Y-147216001D01*
X64300673Y-147188078D01*
X64340843Y-147154170D01*
X64340896Y-147154118D01*
X64373996Y-147116064D01*
X64400058Y-147072970D01*
X64420617Y-147020039D01*
X64437210Y-146952474D01*
X64451373Y-146865480D01*
X64462418Y-146774778D01*
X64479452Y-146622305D01*
X64494590Y-146490840D01*
X64507675Y-146381650D01*
X64518547Y-146295998D01*
X64527049Y-146235152D01*
X64533022Y-146200376D01*
X64535302Y-146192588D01*
X64548394Y-146195347D01*
X64575802Y-146213482D01*
X64608158Y-146240114D01*
X64652638Y-146275912D01*
X64697722Y-146306418D01*
X64723556Y-146320292D01*
X64775748Y-146334426D01*
X64843770Y-146341361D01*
X64916108Y-146340888D01*
X64981248Y-146332795D01*
X65008436Y-146325512D01*
X65061353Y-146297290D01*
X65116461Y-146252168D01*
X65164265Y-146198933D01*
X65190631Y-146156900D01*
X65212830Y-146111063D01*
X65230626Y-146171282D01*
X65248687Y-146222836D01*
X65270445Y-146272883D01*
X65274520Y-146280889D01*
X65289158Y-146311536D01*
X65311665Y-146362223D01*
X65339378Y-146426804D01*
X65369637Y-146499133D01*
X65381438Y-146527833D01*
X65412574Y-146601873D01*
X65443085Y-146670765D01*
X65470090Y-146728254D01*
X65490709Y-146768080D01*
X65496191Y-146777161D01*
X65556912Y-146844470D01*
X65637811Y-146892491D01*
X65719031Y-146917147D01*
X65769025Y-146925509D01*
X65811375Y-146926756D01*
X65858266Y-146920353D01*
X65909531Y-146908806D01*
X65963048Y-146895124D01*
X66007404Y-146882636D01*
X66034042Y-146873771D01*
X66035889Y-146872948D01*
X66082385Y-146852256D01*
X66135697Y-146832467D01*
X66204678Y-146810387D01*
X66232495Y-146802023D01*
X66337378Y-146770833D01*
X66366550Y-146805648D01*
X66433691Y-146864043D01*
X66521287Y-146904334D01*
X66627888Y-146926212D01*
X66752048Y-146929371D01*
X66882556Y-146915149D01*
X66930957Y-146908185D01*
X66996838Y-146900045D01*
X67069563Y-146892002D01*
X67108333Y-146888110D01*
X67210741Y-146876753D01*
X67297838Y-146864061D01*
X67366105Y-146850688D01*
X67412022Y-146837286D01*
X67428417Y-146828707D01*
X67454655Y-146824998D01*
X67477806Y-146835745D01*
X67512615Y-146853751D01*
X67554653Y-146867316D01*
X67607544Y-146876780D01*
X67674911Y-146882481D01*
X67760380Y-146884760D01*
X67867574Y-146883955D01*
X67966148Y-146881479D01*
X68099183Y-146876532D01*
X68207311Y-146870089D01*
X68293835Y-146861440D01*
X68362061Y-146849875D01*
X68415292Y-146834681D01*
X68456831Y-146815148D01*
X68489984Y-146790564D01*
X68515630Y-146763229D01*
X68526320Y-146754392D01*
X68543227Y-146751200D01*
X68571703Y-146754169D01*
X68617098Y-146763817D01*
X68677908Y-146778909D01*
X68748428Y-146797214D01*
X68818225Y-146815873D01*
X68876835Y-146832065D01*
X68900445Y-146838878D01*
X68989497Y-146864789D01*
X69057177Y-146882848D01*
X69108972Y-146893873D01*
X69150369Y-146898679D01*
X69186854Y-146898083D01*
X69223915Y-146892901D01*
X69241034Y-146889540D01*
X69334919Y-146860778D01*
X69408462Y-146816091D01*
X69464004Y-146752914D01*
X69503882Y-146668682D01*
X69527884Y-146575066D01*
X69540228Y-146509962D01*
X69552612Y-146445891D01*
X69562641Y-146395221D01*
X69563869Y-146389173D01*
X69572335Y-146339144D01*
X69577265Y-146293410D01*
X69577778Y-146279812D01*
X69580262Y-146252962D01*
X69593193Y-146241304D01*
X69624791Y-146238580D01*
X69631962Y-146238556D01*
X69686147Y-146238556D01*
X69702790Y-146333806D01*
X69713591Y-146399833D01*
X69724943Y-146475760D01*
X69733034Y-146534889D01*
X69751565Y-146648295D01*
X69774846Y-146738775D01*
X69802285Y-146804264D01*
X69816486Y-146825871D01*
X69869039Y-146879684D01*
X69932002Y-146918653D01*
X70008258Y-146943315D01*
X70100689Y-146954207D01*
X70212178Y-146951866D01*
X70345607Y-146936830D01*
X70382111Y-146931249D01*
X70404863Y-146928074D01*
X70427693Y-146926461D01*
X70453597Y-146926922D01*
X70485572Y-146929974D01*
X70526612Y-146936131D01*
X70579713Y-146945908D01*
X70647871Y-146959819D01*
X70734080Y-146978380D01*
X70841338Y-147002106D01*
X70972639Y-147031511D01*
X70995945Y-147036747D01*
X71087951Y-147055907D01*
X71160368Y-147066749D01*
X71220477Y-147069579D01*
X71275561Y-147064705D01*
X71332901Y-147052434D01*
X71337655Y-147051182D01*
X71412086Y-147023116D01*
X71473011Y-146980378D01*
X71523292Y-146919555D01*
X71565790Y-146837234D01*
X71601370Y-146736631D01*
X71622389Y-146667862D01*
X71647995Y-146584867D01*
X71676095Y-146494347D01*
X71704596Y-146403005D01*
X71731408Y-146317542D01*
X71754438Y-146244660D01*
X71771595Y-146191060D01*
X71773517Y-146185146D01*
X71785652Y-146143108D01*
X71792592Y-146109767D01*
X71793222Y-146102196D01*
X71800201Y-146102911D01*
X71818912Y-146123536D01*
X71846022Y-146160120D01*
X71862125Y-146183828D01*
X71914593Y-146255581D01*
X71965061Y-146305738D01*
X72020444Y-146339481D01*
X72087658Y-146361991D01*
X72105387Y-146366096D01*
X72196829Y-146373854D01*
X72286702Y-146359496D01*
X72368715Y-146325377D01*
X72436579Y-146273850D01*
X72472227Y-146228796D01*
X72491948Y-146199885D01*
X72505208Y-146185930D01*
X72507204Y-146185833D01*
X72513446Y-146203045D01*
X72523370Y-146243300D01*
X72536042Y-146301799D01*
X72550529Y-146373744D01*
X72565900Y-146454335D01*
X72581220Y-146538773D01*
X72595556Y-146622259D01*
X72607977Y-146699994D01*
X72610727Y-146718333D01*
X72622849Y-146797971D01*
X72635063Y-146873911D01*
X72646134Y-146938744D01*
X72654827Y-146985060D01*
X72656621Y-146993500D01*
X72687941Y-147082479D01*
X72738968Y-147152783D01*
X72811228Y-147205885D01*
X72906246Y-147243260D01*
X72918407Y-147246540D01*
X72946792Y-147253364D01*
X72973942Y-147257980D01*
X73004070Y-147260238D01*
X73041392Y-147259991D01*
X73090121Y-147257091D01*
X73154472Y-147251390D01*
X73238659Y-147242739D01*
X73340342Y-147231709D01*
X73441984Y-147220614D01*
X73540788Y-147209918D01*
X73631140Y-147200221D01*
X73707424Y-147192124D01*
X73764026Y-147186230D01*
X73782889Y-147184326D01*
X73861741Y-147175129D01*
X73920144Y-147164235D01*
X73965866Y-147149488D01*
X74006678Y-147128731D01*
X74025177Y-147117076D01*
X74085906Y-147061580D01*
X74134036Y-146986735D01*
X74165938Y-146899950D01*
X74175967Y-146823915D01*
X73832278Y-146823915D01*
X73479500Y-146861267D01*
X73380914Y-146871763D01*
X73290100Y-146881543D01*
X73211322Y-146890137D01*
X73148844Y-146897079D01*
X73106928Y-146901900D01*
X73091445Y-146903858D01*
X73054958Y-146909386D01*
X73027975Y-146911136D01*
X73008355Y-146905558D01*
X72993955Y-146889100D01*
X72982633Y-146858211D01*
X72972246Y-146809340D01*
X72960651Y-146738935D01*
X72949730Y-146668944D01*
X72932975Y-146566836D01*
X72913054Y-146452686D01*
X72892148Y-146338608D01*
X72872442Y-146236715D01*
X72867090Y-146210333D01*
X72851636Y-146138308D01*
X72832288Y-146052924D01*
X72810083Y-145958308D01*
X72786059Y-145858590D01*
X72761254Y-145757899D01*
X72736707Y-145660363D01*
X72713454Y-145570112D01*
X72692534Y-145491275D01*
X72674986Y-145427979D01*
X72661846Y-145384355D01*
X72654678Y-145365379D01*
X72646002Y-145366622D01*
X72627367Y-145385485D01*
X72597853Y-145423217D01*
X72556541Y-145481067D01*
X72502514Y-145560284D01*
X72434853Y-145662116D01*
X72421539Y-145682359D01*
X72364158Y-145769553D01*
X72311570Y-145849151D01*
X72265829Y-145918067D01*
X72228991Y-145973215D01*
X72203112Y-146011509D01*
X72190248Y-146029862D01*
X72189446Y-146030839D01*
X72177887Y-146024536D01*
X72154904Y-145998824D01*
X72124171Y-145958138D01*
X72099245Y-145921969D01*
X72060269Y-145864465D01*
X72009121Y-145790541D01*
X71950294Y-145706554D01*
X71888278Y-145618861D01*
X71827565Y-145533822D01*
X71772647Y-145457793D01*
X71737236Y-145409528D01*
X71713459Y-145380639D01*
X71695771Y-145364736D01*
X71692720Y-145363667D01*
X71685925Y-145376611D01*
X71671701Y-145413362D01*
X71651068Y-145470799D01*
X71625045Y-145545801D01*
X71594651Y-145635245D01*
X71560903Y-145736012D01*
X71524822Y-145844979D01*
X71487426Y-145959025D01*
X71449733Y-146075029D01*
X71412764Y-146189869D01*
X71377535Y-146300425D01*
X71345067Y-146403574D01*
X71316377Y-146496196D01*
X71292486Y-146575169D01*
X71274411Y-146637371D01*
X71263176Y-146679661D01*
X71252260Y-146710772D01*
X71241209Y-146726427D01*
X71221997Y-146727357D01*
X71183675Y-146722318D01*
X71134462Y-146712400D01*
X71133411Y-146712156D01*
X71089678Y-146702200D01*
X71024468Y-146687615D01*
X70943886Y-146669754D01*
X70854038Y-146649971D01*
X70761026Y-146629617D01*
X70754548Y-146628205D01*
X70470818Y-146566351D01*
X70345326Y-146585937D01*
X70279282Y-146596079D01*
X70215124Y-146605652D01*
X70164261Y-146612960D01*
X70154048Y-146614358D01*
X70088263Y-146623192D01*
X70078205Y-146540235D01*
X70072851Y-146500211D01*
X70063943Y-146438253D01*
X70052364Y-146360296D01*
X70038996Y-146272277D01*
X70024721Y-146180134D01*
X70023926Y-146175056D01*
X69979705Y-145892833D01*
X69642125Y-145889044D01*
X69547066Y-145888462D01*
X69461367Y-145888861D01*
X69389075Y-145890147D01*
X69334235Y-145892226D01*
X69300891Y-145895004D01*
X69292622Y-145897179D01*
X69286411Y-145915152D01*
X69278337Y-145955245D01*
X69269449Y-146011505D01*
X69260869Y-146077357D01*
X69251405Y-146153593D01*
X69240478Y-146235100D01*
X69228864Y-146316789D01*
X69217338Y-146393568D01*
X69206676Y-146460348D01*
X69197655Y-146512039D01*
X69191049Y-146543550D01*
X69188778Y-146550354D01*
X69174257Y-146549419D01*
X69136712Y-146541916D01*
X69080314Y-146528821D01*
X69009235Y-146511112D01*
X68927646Y-146489764D01*
X68911539Y-146485441D01*
X68817249Y-146460514D01*
X68722094Y-146436200D01*
X68633251Y-146414274D01*
X68557898Y-146396511D01*
X68507123Y-146385463D01*
X68449397Y-146372280D01*
X68402965Y-146358763D01*
X68374263Y-146346936D01*
X68368321Y-146341773D01*
X68370554Y-146321440D01*
X68382634Y-146276304D01*
X68404062Y-146207817D01*
X68434338Y-146117432D01*
X68472962Y-146006604D01*
X68519436Y-145876784D01*
X68573260Y-145729428D01*
X68633935Y-145565987D01*
X68646284Y-145533000D01*
X68685597Y-145427655D01*
X68731818Y-145303021D01*
X68782276Y-145166354D01*
X68834297Y-145024911D01*
X68885208Y-144885948D01*
X68932334Y-144756720D01*
X68937403Y-144742778D01*
X69002226Y-144564342D01*
X69058088Y-144410587D01*
X69105714Y-144279684D01*
X69145828Y-144169807D01*
X69179157Y-144079127D01*
X69206426Y-144005817D01*
X69228359Y-143948049D01*
X69229443Y-143945292D01*
X68861903Y-143945292D01*
X68853707Y-143976055D01*
X68837311Y-144029477D01*
X68836597Y-144025160D01*
X68488191Y-144025160D01*
X68487031Y-144058080D01*
X68484296Y-144102842D01*
X68479873Y-144161252D01*
X68473653Y-144235121D01*
X68465525Y-144326256D01*
X68455378Y-144436466D01*
X68443104Y-144567560D01*
X68428590Y-144721346D01*
X68411726Y-144899633D01*
X68392556Y-145102611D01*
X68377045Y-145267269D01*
X68361681Y-145430689D01*
X68346779Y-145589487D01*
X68332657Y-145740279D01*
X68319631Y-145879680D01*
X68308016Y-146004306D01*
X68298130Y-146110772D01*
X68290288Y-146195694D01*
X68285080Y-146252667D01*
X68277167Y-146335636D01*
X68269439Y-146408730D01*
X68262441Y-146467372D01*
X68256719Y-146506985D01*
X68252857Y-146522952D01*
X68236786Y-146526185D01*
X68196814Y-146529924D01*
X68137251Y-146533893D01*
X68062407Y-146537814D01*
X67976593Y-146541411D01*
X67951702Y-146542305D01*
X67659127Y-146552428D01*
X67655369Y-146167400D01*
X67651611Y-145782373D01*
X67482278Y-145742914D01*
X67414550Y-145727581D01*
X67355011Y-145714931D01*
X67310057Y-145706268D01*
X67286086Y-145702896D01*
X67285983Y-145702894D01*
X67278218Y-145703697D01*
X67272202Y-145708481D01*
X67267803Y-145720263D01*
X67264886Y-145742063D01*
X67263319Y-145776901D01*
X67262967Y-145827794D01*
X67263697Y-145897762D01*
X67265375Y-145989823D01*
X67267868Y-146106997D01*
X67267947Y-146110590D01*
X67276871Y-146518846D01*
X67203186Y-146528031D01*
X67161405Y-146533285D01*
X67099428Y-146541137D01*
X67025052Y-146550598D01*
X66946075Y-146560676D01*
X66931945Y-146562483D01*
X66855850Y-146571897D01*
X66785719Y-146579995D01*
X66728337Y-146586033D01*
X66690491Y-146589266D01*
X66685000Y-146589545D01*
X66635611Y-146591339D01*
X66636763Y-146325409D01*
X66543889Y-146325409D01*
X66530246Y-146339134D01*
X66490094Y-146357897D01*
X66424596Y-146381196D01*
X66385139Y-146393647D01*
X66312623Y-146416286D01*
X66223327Y-146444851D01*
X66127174Y-146476132D01*
X66034086Y-146506919D01*
X66007667Y-146515771D01*
X65933877Y-146539858D01*
X65869615Y-146559453D01*
X65819522Y-146573249D01*
X65788242Y-146579943D01*
X65780066Y-146579749D01*
X65770472Y-146562147D01*
X65751522Y-146520893D01*
X65724291Y-146458561D01*
X65689854Y-146377723D01*
X65649285Y-146280954D01*
X65603659Y-146170824D01*
X65554050Y-146049908D01*
X65501532Y-145920777D01*
X65447181Y-145786006D01*
X65414907Y-145705433D01*
X65365512Y-145582796D01*
X65325189Y-145485014D01*
X65293205Y-145410476D01*
X65268827Y-145357571D01*
X65251324Y-145324691D01*
X65239963Y-145310223D01*
X65235160Y-145310321D01*
X65225157Y-145327340D01*
X65204402Y-145366153D01*
X65174694Y-145423275D01*
X65137829Y-145495220D01*
X65095606Y-145578504D01*
X65049821Y-145669642D01*
X65049350Y-145670583D01*
X65004122Y-145760625D01*
X64962971Y-145841797D01*
X64927576Y-145910848D01*
X64899617Y-145964525D01*
X64880772Y-145999577D01*
X64872722Y-146012751D01*
X64872639Y-146012778D01*
X64861916Y-146002897D01*
X64834520Y-145975041D01*
X64793011Y-145931888D01*
X64739952Y-145876116D01*
X64677901Y-145810404D01*
X64609589Y-145737611D01*
X64540907Y-145664591D01*
X64478391Y-145598853D01*
X64424652Y-145543085D01*
X64382299Y-145499970D01*
X64353941Y-145472195D01*
X64342208Y-145462444D01*
X64336020Y-145475486D01*
X64325533Y-145511425D01*
X64311978Y-145565485D01*
X64296589Y-145632891D01*
X64288491Y-145670583D01*
X64263495Y-145790135D01*
X64242477Y-145893255D01*
X64224683Y-145984837D01*
X64209361Y-146069774D01*
X64195757Y-146152960D01*
X64183116Y-146239287D01*
X64170686Y-146333649D01*
X64157713Y-146440940D01*
X64143443Y-146566052D01*
X64127123Y-146713879D01*
X64125430Y-146729358D01*
X64117389Y-146796586D01*
X64109294Y-146853377D01*
X64102059Y-146893952D01*
X64096599Y-146912534D01*
X64096370Y-146912803D01*
X64077767Y-146918682D01*
X64036425Y-146924679D01*
X63976819Y-146930594D01*
X63903422Y-146936231D01*
X63820709Y-146941390D01*
X63733153Y-146945875D01*
X63645229Y-146949486D01*
X63561412Y-146952026D01*
X63486174Y-146953298D01*
X63423992Y-146953102D01*
X63379338Y-146951242D01*
X63356686Y-146947519D01*
X63354778Y-146945618D01*
X63356411Y-146920816D01*
X63360976Y-146872458D01*
X63367974Y-146804999D01*
X63376903Y-146722896D01*
X63387263Y-146630606D01*
X63398553Y-146532584D01*
X63410274Y-146433286D01*
X63421924Y-146337170D01*
X63433003Y-146248690D01*
X63433396Y-146245611D01*
X63451093Y-146114937D01*
X63472765Y-145967149D01*
X63497386Y-145808407D01*
X63523928Y-145644872D01*
X63551364Y-145482701D01*
X63578665Y-145328056D01*
X63604804Y-145187096D01*
X63628753Y-145065981D01*
X63635865Y-145032056D01*
X63660218Y-144920506D01*
X63686649Y-144804020D01*
X63714318Y-144685899D01*
X63742385Y-144569440D01*
X63770010Y-144457944D01*
X63796354Y-144354711D01*
X63820577Y-144263039D01*
X63841837Y-144186228D01*
X63859297Y-144127579D01*
X63872115Y-144090390D01*
X63878687Y-144078145D01*
X63901032Y-144072515D01*
X63943706Y-144068189D01*
X63998825Y-144065869D01*
X64019360Y-144065660D01*
X64095471Y-144064418D01*
X64181921Y-144061351D01*
X64260937Y-144057101D01*
X64266305Y-144056736D01*
X64391945Y-144048029D01*
X64465328Y-144208431D01*
X64521886Y-144331266D01*
X64573258Y-144441272D01*
X64618424Y-144536356D01*
X64656362Y-144614423D01*
X64686053Y-144673379D01*
X64706477Y-144711131D01*
X64716613Y-144725583D01*
X64717273Y-144725542D01*
X64722832Y-144710886D01*
X64735278Y-144672823D01*
X64753474Y-144615004D01*
X64776283Y-144541079D01*
X64802568Y-144454698D01*
X64827980Y-144370242D01*
X64856340Y-144275936D01*
X64882153Y-144190914D01*
X64904296Y-144118805D01*
X64921647Y-144063243D01*
X64933084Y-144027857D01*
X64937384Y-144016270D01*
X64953417Y-144012812D01*
X64992368Y-144008361D01*
X65049121Y-144003248D01*
X65118560Y-143997804D01*
X65195568Y-143992357D01*
X65275028Y-143987239D01*
X65351825Y-143982778D01*
X65420841Y-143979305D01*
X65476960Y-143977150D01*
X65515065Y-143976643D01*
X65529993Y-143978054D01*
X65537469Y-143993212D01*
X65554009Y-144031135D01*
X65578181Y-144088390D01*
X65608550Y-144161545D01*
X65643683Y-144247168D01*
X65682145Y-144341827D01*
X65687357Y-144354722D01*
X65815241Y-144666422D01*
X65948929Y-144983138D01*
X66083868Y-145294238D01*
X66215509Y-145589085D01*
X66217894Y-145594341D01*
X66253055Y-145672108D01*
X66283835Y-145740786D01*
X66308457Y-145796361D01*
X66325145Y-145834819D01*
X66332121Y-145852147D01*
X66332222Y-145852642D01*
X66337973Y-145866871D01*
X66353924Y-145902343D01*
X66378129Y-145954826D01*
X66408638Y-146020089D01*
X66438056Y-146082419D01*
X66472565Y-146156316D01*
X66502364Y-146222190D01*
X66525472Y-146275492D01*
X66539910Y-146311677D01*
X66543889Y-146325409D01*
X66636763Y-146325409D01*
X66638104Y-146016308D01*
X66639101Y-145873684D01*
X66640824Y-145724590D01*
X66643159Y-145574902D01*
X66645992Y-145430497D01*
X66649209Y-145297251D01*
X66652695Y-145181040D01*
X66655984Y-145095556D01*
X66663541Y-144931483D01*
X66671362Y-144772345D01*
X66679292Y-144620571D01*
X66687179Y-144478592D01*
X66694871Y-144348839D01*
X66702215Y-144233744D01*
X66709060Y-144135736D01*
X66715251Y-144057246D01*
X66718061Y-144027744D01*
X66372682Y-144027744D01*
X66369475Y-144064465D01*
X66369261Y-144066179D01*
X66366362Y-144098233D01*
X66362561Y-144153546D01*
X66358145Y-144227184D01*
X66353404Y-144314208D01*
X66348624Y-144409682D01*
X66346241Y-144460556D01*
X66341527Y-144559589D01*
X66336696Y-144653770D01*
X66332042Y-144737894D01*
X66327860Y-144806759D01*
X66324442Y-144855162D01*
X66323144Y-144869754D01*
X66315205Y-144947342D01*
X66281997Y-144883865D01*
X66259888Y-144838705D01*
X66232945Y-144779568D01*
X66206739Y-144718712D01*
X66205015Y-144714556D01*
X66176985Y-144646863D01*
X66144867Y-144569413D01*
X66115419Y-144498501D01*
X66114309Y-144495833D01*
X66074559Y-144398700D01*
X66026126Y-144277716D01*
X65970065Y-144135521D01*
X65955750Y-144098934D01*
X65965388Y-144089272D01*
X66002621Y-144081042D01*
X66067736Y-144074182D01*
X66073852Y-144073713D01*
X66166905Y-144064609D01*
X66247162Y-144052578D01*
X66309970Y-144038525D01*
X66350678Y-144023352D01*
X66358200Y-144018470D01*
X66369279Y-144013946D01*
X66372682Y-144027744D01*
X66718061Y-144027744D01*
X66720638Y-144000706D01*
X66725066Y-143968547D01*
X66727103Y-143962057D01*
X66745204Y-143955898D01*
X66787225Y-143947961D01*
X66848961Y-143938791D01*
X66926208Y-143928932D01*
X67014759Y-143918928D01*
X67110410Y-143909325D01*
X67187725Y-143902422D01*
X67302395Y-143892772D01*
X67308224Y-144373597D01*
X67309836Y-144487341D01*
X67311765Y-144591967D01*
X67313916Y-144684165D01*
X67316194Y-144760623D01*
X67318502Y-144818030D01*
X67320745Y-144853075D01*
X67322367Y-144862737D01*
X67338760Y-144868136D01*
X67376763Y-144876560D01*
X67430218Y-144886963D01*
X67492968Y-144898295D01*
X67558858Y-144909511D01*
X67621730Y-144919561D01*
X67675428Y-144927399D01*
X67713795Y-144931976D01*
X67730674Y-144932245D01*
X67730715Y-144932222D01*
X67733556Y-144917263D01*
X67736890Y-144878087D01*
X67740492Y-144818690D01*
X67744137Y-144743067D01*
X67747600Y-144655214D01*
X67749489Y-144598564D01*
X67753830Y-144467474D01*
X67758519Y-144340746D01*
X67763402Y-144221441D01*
X67768327Y-144112623D01*
X67773141Y-144017355D01*
X67777690Y-143938699D01*
X67781823Y-143879717D01*
X67785387Y-143843473D01*
X67787689Y-143832940D01*
X67801983Y-143834587D01*
X67839477Y-143841396D01*
X67895811Y-143852454D01*
X67966625Y-143866846D01*
X68047560Y-143883657D01*
X68134256Y-143901971D01*
X68222352Y-143920875D01*
X68307489Y-143939452D01*
X68385307Y-143956789D01*
X68451446Y-143971970D01*
X68461438Y-143974323D01*
X68468222Y-143975002D01*
X68474204Y-143974861D01*
X68479271Y-143975709D01*
X68483314Y-143979354D01*
X68486221Y-143987605D01*
X68487884Y-144002271D01*
X68488191Y-144025160D01*
X68836597Y-144025160D01*
X68828032Y-143973377D01*
X68823307Y-143936904D01*
X68822859Y-143914484D01*
X68823713Y-143912007D01*
X68839178Y-143911596D01*
X68849387Y-143914685D01*
X68861627Y-143924489D01*
X68861903Y-143945292D01*
X69229443Y-143945292D01*
X69245682Y-143903997D01*
X69259121Y-143871831D01*
X69269399Y-143849726D01*
X69277244Y-143835852D01*
X69283379Y-143828383D01*
X69288530Y-143825492D01*
X69293423Y-143825349D01*
X69298782Y-143826129D01*
X69301089Y-143826287D01*
X69328817Y-143828352D01*
X69376513Y-143833313D01*
X69438951Y-143840497D01*
X69510902Y-143849231D01*
X69587139Y-143858843D01*
X69662436Y-143868662D01*
X69731565Y-143878014D01*
X69789299Y-143886228D01*
X69830410Y-143892630D01*
X69849672Y-143896549D01*
X69850420Y-143896944D01*
X69854869Y-143904964D01*
X69865162Y-143925846D01*
X69882033Y-143961158D01*
X69906215Y-144012469D01*
X69938443Y-144081347D01*
X69979450Y-144169360D01*
X70029969Y-144278077D01*
X70090735Y-144409068D01*
X70162480Y-144563899D01*
X70173437Y-144587556D01*
X70229203Y-144709255D01*
X70288051Y-144840000D01*
X70348231Y-144975720D01*
X70407993Y-145112343D01*
X70465584Y-145245797D01*
X70519256Y-145372010D01*
X70567255Y-145486910D01*
X70607833Y-145586427D01*
X70639238Y-145666487D01*
X70651263Y-145698806D01*
X70672000Y-145754117D01*
X70689760Y-145797807D01*
X70702147Y-145824178D01*
X70706137Y-145829333D01*
X70713416Y-145816012D01*
X70726204Y-145777841D01*
X70743840Y-145717511D01*
X70765665Y-145637713D01*
X70791019Y-145541138D01*
X70819242Y-145430475D01*
X70849674Y-145308416D01*
X70881656Y-145177652D01*
X70914528Y-145040872D01*
X70947629Y-144900767D01*
X70980301Y-144760028D01*
X71011882Y-144621346D01*
X71041715Y-144487411D01*
X71069138Y-144360913D01*
X71086780Y-144277111D01*
X71106884Y-144180332D01*
X71125437Y-144091267D01*
X71141560Y-144014110D01*
X71150300Y-143972471D01*
X70805445Y-143972471D01*
X70802404Y-143993890D01*
X70794189Y-144036054D01*
X70782164Y-144092253D01*
X70771765Y-144138277D01*
X70756470Y-144206796D01*
X70742737Y-144272369D01*
X70732499Y-144325576D01*
X70728834Y-144347667D01*
X70720913Y-144393005D01*
X70708996Y-144450296D01*
X70694400Y-144514368D01*
X70678444Y-144580046D01*
X70662446Y-144642158D01*
X70647724Y-144695532D01*
X70635596Y-144734993D01*
X70627380Y-144755368D01*
X70624787Y-144756015D01*
X70616728Y-144734903D01*
X70600001Y-144694748D01*
X70577442Y-144642278D01*
X70562744Y-144608722D01*
X70529232Y-144534112D01*
X70490430Y-144449786D01*
X70453529Y-144371338D01*
X70445565Y-144354722D01*
X70411052Y-144282501D01*
X70371492Y-144198856D01*
X70333603Y-144118013D01*
X70320647Y-144090139D01*
X70256901Y-143952556D01*
X70531173Y-143952556D01*
X70627817Y-143952868D01*
X70699603Y-143953968D01*
X70749889Y-143956099D01*
X70782033Y-143959505D01*
X70799394Y-143964431D01*
X70805330Y-143971119D01*
X70805445Y-143972471D01*
X71150300Y-143972471D01*
X71154375Y-143953059D01*
X71163005Y-143912308D01*
X71166197Y-143897607D01*
X71171394Y-143880709D01*
X71181560Y-143871261D01*
X71202963Y-143867898D01*
X71241870Y-143869250D01*
X71282473Y-143872240D01*
X71342964Y-143877296D01*
X71420151Y-143884271D01*
X71502664Y-143892119D01*
X71557898Y-143897611D01*
X71724739Y-143914566D01*
X71916467Y-144296922D01*
X72108196Y-144679278D01*
X72127129Y-144608722D01*
X72136463Y-144573580D01*
X72151512Y-144516501D01*
X72170863Y-144442855D01*
X72193107Y-144358014D01*
X72216833Y-144267348D01*
X72221658Y-144248889D01*
X72297253Y-143959611D01*
X72387432Y-143963841D01*
X72452214Y-143967729D01*
X72527626Y-143973604D01*
X72608589Y-143980915D01*
X72690022Y-143989106D01*
X72766847Y-143997626D01*
X72833983Y-144005921D01*
X72886352Y-144013438D01*
X72918872Y-144019623D01*
X72926888Y-144022592D01*
X72936832Y-144039758D01*
X72955999Y-144079547D01*
X72982899Y-144138472D01*
X73016039Y-144213048D01*
X73053929Y-144299788D01*
X73095077Y-144395206D01*
X73137992Y-144495815D01*
X73181182Y-144598129D01*
X73223156Y-144698662D01*
X73262422Y-144793928D01*
X73297491Y-144880441D01*
X73326869Y-144954713D01*
X73337933Y-144983472D01*
X73464546Y-145335498D01*
X73575020Y-145684796D01*
X73673340Y-146044262D01*
X73704241Y-146169152D01*
X73725212Y-146258771D01*
X73746850Y-146356029D01*
X73768052Y-146455469D01*
X73787711Y-146551632D01*
X73804724Y-146639063D01*
X73817985Y-146712305D01*
X73826390Y-146765902D01*
X73828252Y-146781708D01*
X73832278Y-146823915D01*
X74175967Y-146823915D01*
X74177983Y-146808635D01*
X74178000Y-146805136D01*
X74174607Y-146765261D01*
X74164980Y-146701867D01*
X74149952Y-146618761D01*
X74130354Y-146519749D01*
X74107017Y-146408638D01*
X74080773Y-146289232D01*
X74052452Y-146165337D01*
X74022886Y-146040761D01*
X73992907Y-145919308D01*
X73963345Y-145804785D01*
X73943284Y-145730556D01*
X73920410Y-145650633D01*
X73892286Y-145556901D01*
X73860261Y-145453452D01*
X73825685Y-145344384D01*
X73789910Y-145233792D01*
X73754284Y-145125770D01*
X73720159Y-145024415D01*
X73688884Y-144933821D01*
X73661810Y-144858085D01*
X73640286Y-144801301D01*
X73626036Y-144768296D01*
X73609491Y-144732742D01*
X73586361Y-144679400D01*
X73560289Y-144616788D01*
X73544543Y-144577796D01*
X73486751Y-144434721D01*
X73435216Y-144311071D01*
X73391076Y-144209540D01*
X73365866Y-144154513D01*
X73347117Y-144113390D01*
X73334576Y-144083252D01*
X73331334Y-144072785D01*
X73325757Y-144056740D01*
X73311037Y-144022252D01*
X73290190Y-143976345D01*
X73287047Y-143969606D01*
X73257387Y-143895327D01*
X73242198Y-143824958D01*
X73238167Y-143776167D01*
X73233712Y-143714445D01*
X73226766Y-143653654D01*
X73220156Y-143613889D01*
X73210985Y-143567018D01*
X73199946Y-143505696D01*
X73189653Y-143444556D01*
X73179938Y-143389175D01*
X73165956Y-143315642D01*
X73149544Y-143233360D01*
X73132537Y-143151731D01*
X73131787Y-143148222D01*
X73107271Y-143034339D01*
X73088255Y-142945233D01*
X73074818Y-142877985D01*
X73067039Y-142829674D01*
X73064997Y-142797382D01*
X73068770Y-142778189D01*
X73078438Y-142769174D01*
X73094079Y-142767419D01*
X73115773Y-142770004D01*
X73141908Y-142773801D01*
X73248547Y-142775412D01*
X73342911Y-142753213D01*
X73422756Y-142708654D01*
X73485837Y-142643183D01*
X73529913Y-142558249D01*
X73542708Y-142515079D01*
X73551226Y-142468863D01*
X73554532Y-142419558D01*
X73553866Y-142403701D01*
X73216504Y-142403701D01*
X73216437Y-142418149D01*
X73214509Y-142423084D01*
X73198943Y-142424270D01*
X73159541Y-142423529D01*
X73100607Y-142421052D01*
X73026448Y-142417025D01*
X72941370Y-142411638D01*
X72920162Y-142410188D01*
X72832994Y-142404396D01*
X72755603Y-142399728D01*
X72692330Y-142396407D01*
X72647514Y-142394656D01*
X72625497Y-142394698D01*
X72624107Y-142394988D01*
X72623898Y-142409670D01*
X72629722Y-142446233D01*
X72640561Y-142499230D01*
X72655397Y-142563214D01*
X72656035Y-142565824D01*
X72677035Y-142654688D01*
X72701431Y-142762943D01*
X72728013Y-142884768D01*
X72755573Y-143014344D01*
X72782902Y-143145850D01*
X72808791Y-143273466D01*
X72832033Y-143391372D01*
X72851417Y-143493748D01*
X72865735Y-143574775D01*
X72866370Y-143578611D01*
X72877869Y-143647429D01*
X72888346Y-143708468D01*
X72896621Y-143754958D01*
X72901415Y-143779694D01*
X72902954Y-143804083D01*
X72897686Y-143811309D01*
X72880305Y-143809807D01*
X72840481Y-143805798D01*
X72783824Y-143799862D01*
X72715945Y-143792577D01*
X72703389Y-143791214D01*
X72624781Y-143783316D01*
X72527700Y-143774561D01*
X72421848Y-143765768D01*
X72316923Y-143757757D01*
X72260643Y-143753814D01*
X72001341Y-143736373D01*
X72010694Y-143650436D01*
X72014474Y-143604340D01*
X72018591Y-143534419D01*
X72018682Y-143532527D01*
X71412389Y-143532527D01*
X71412222Y-143599331D01*
X71020639Y-143603315D01*
X70891376Y-143604613D01*
X70746920Y-143606036D01*
X70597015Y-143607489D01*
X70451401Y-143608878D01*
X70319823Y-143610110D01*
X70267116Y-143610594D01*
X69905175Y-143613889D01*
X69896471Y-143441028D01*
X69888968Y-143286442D01*
X69882694Y-143145616D01*
X69877711Y-143020644D01*
X69874085Y-142913621D01*
X69871879Y-142826640D01*
X69871227Y-142768005D01*
X69840609Y-142768005D01*
X69620999Y-143025656D01*
X69533901Y-143127380D01*
X69449044Y-143225621D01*
X69368420Y-143318140D01*
X69294025Y-143402695D01*
X69227852Y-143477048D01*
X69171894Y-143538960D01*
X69128146Y-143586191D01*
X69098600Y-143616502D01*
X69085250Y-143627652D01*
X69085061Y-143627668D01*
X69070192Y-143623340D01*
X69031634Y-143611188D01*
X68972504Y-143592219D01*
X68895918Y-143567442D01*
X68804991Y-143537864D01*
X68702841Y-143504492D01*
X68611167Y-143474437D01*
X68145500Y-143321539D01*
X68121209Y-143118464D01*
X68109183Y-143012455D01*
X68095838Y-142885385D01*
X68081860Y-142744340D01*
X68067936Y-142596410D01*
X68054751Y-142448683D01*
X68044001Y-142320741D01*
X68035827Y-142219981D01*
X68184453Y-141982074D01*
X68241239Y-141890821D01*
X68303200Y-141790659D01*
X68364850Y-141690492D01*
X68420702Y-141599229D01*
X68452685Y-141546611D01*
X68515403Y-141443019D01*
X68043082Y-141443019D01*
X68034450Y-141501871D01*
X68029335Y-141541320D01*
X68022597Y-141599570D01*
X68015287Y-141667328D01*
X68011043Y-141708889D01*
X68004702Y-141770224D01*
X67995893Y-141852287D01*
X67985418Y-141947773D01*
X67974079Y-142049378D01*
X67962676Y-142149797D01*
X67962264Y-142153389D01*
X67935855Y-142386322D01*
X67912945Y-142594533D01*
X67893200Y-142781260D01*
X67876287Y-142949739D01*
X67861872Y-143103210D01*
X67849620Y-143244910D01*
X67849448Y-143247000D01*
X67842020Y-143335631D01*
X67834721Y-143419767D01*
X67828102Y-143493265D01*
X67822716Y-143549986D01*
X67819521Y-143580393D01*
X67811074Y-143652730D01*
X67543486Y-143662999D01*
X67459531Y-143665851D01*
X67385613Y-143667657D01*
X67326218Y-143668365D01*
X67285833Y-143667924D01*
X67268944Y-143666282D01*
X67268803Y-143666174D01*
X67269000Y-143650758D01*
X67273669Y-143611866D01*
X67282176Y-143553778D01*
X67293886Y-143480773D01*
X67308167Y-143397133D01*
X67311293Y-143379404D01*
X67329443Y-143274862D01*
X67342175Y-143195852D01*
X67349684Y-143140246D01*
X67352165Y-143105919D01*
X67349813Y-143090743D01*
X67342823Y-143092592D01*
X67336872Y-143100398D01*
X67325109Y-143114356D01*
X67296828Y-143146303D01*
X67254573Y-143193416D01*
X67200886Y-143252872D01*
X67138310Y-143321846D01*
X67069388Y-143397515D01*
X67062497Y-143405065D01*
X66797939Y-143694874D01*
X66555319Y-143569361D01*
X66479897Y-143530199D01*
X66413403Y-143495399D01*
X66359783Y-143467049D01*
X66322987Y-143447238D01*
X66306961Y-143438054D01*
X66306662Y-143437810D01*
X66313867Y-143426001D01*
X66337332Y-143396048D01*
X66374584Y-143350916D01*
X66423148Y-143293571D01*
X66480553Y-143226976D01*
X66524562Y-143176568D01*
X66587153Y-143104554D01*
X66643000Y-143038989D01*
X66689530Y-142983001D01*
X66724172Y-142939718D01*
X66744351Y-142912268D01*
X66748500Y-142904265D01*
X66741361Y-142886550D01*
X66721804Y-142849993D01*
X66692615Y-142799529D01*
X66656583Y-142740090D01*
X66647134Y-142724889D01*
X66545767Y-142562611D01*
X66581153Y-142329778D01*
X66594741Y-142239995D01*
X66608451Y-142148766D01*
X66621011Y-142064584D01*
X66631153Y-141995940D01*
X66634625Y-141972137D01*
X66652711Y-141847329D01*
X66884050Y-141614424D01*
X66955085Y-141542907D01*
X66509286Y-141542907D01*
X66508138Y-141557355D01*
X66502576Y-141594177D01*
X66493472Y-141648024D01*
X66481698Y-141713548D01*
X66479950Y-141723000D01*
X66454502Y-141865307D01*
X66426616Y-142030262D01*
X66397100Y-142212478D01*
X66366762Y-142406566D01*
X66336408Y-142607140D01*
X66306845Y-142808811D01*
X66278881Y-143006194D01*
X66253324Y-143193899D01*
X66230979Y-143366541D01*
X66218846Y-143465722D01*
X66209024Y-143546915D01*
X66200143Y-143617764D01*
X66192793Y-143673778D01*
X66187561Y-143710465D01*
X66185103Y-143723312D01*
X66169831Y-143725965D01*
X66131796Y-143729446D01*
X66076361Y-143733471D01*
X66008887Y-143737751D01*
X65934738Y-143742001D01*
X65859276Y-143745934D01*
X65787862Y-143749265D01*
X65725860Y-143751705D01*
X65678632Y-143752970D01*
X65651540Y-143752772D01*
X65647228Y-143752043D01*
X65647809Y-143736708D01*
X65653537Y-143698027D01*
X65663661Y-143640250D01*
X65677426Y-143567630D01*
X65694081Y-143484418D01*
X65697810Y-143466310D01*
X65715077Y-143381677D01*
X65729840Y-143307007D01*
X65741309Y-143246493D01*
X65748696Y-143204323D01*
X65751210Y-143184689D01*
X65751042Y-143183819D01*
X65740788Y-143192835D01*
X65713925Y-143220200D01*
X65672834Y-143263386D01*
X65619896Y-143319862D01*
X65557490Y-143387101D01*
X65487998Y-143462574D01*
X65464389Y-143488339D01*
X65393091Y-143566120D01*
X65328164Y-143636720D01*
X65271987Y-143697570D01*
X65226938Y-143746103D01*
X65195398Y-143779750D01*
X65179746Y-143795941D01*
X65178482Y-143797016D01*
X65165331Y-143791105D01*
X65130914Y-143774463D01*
X65079183Y-143749031D01*
X65014089Y-143716753D01*
X64939581Y-143679571D01*
X64935066Y-143677310D01*
X64860257Y-143639264D01*
X64794982Y-143604932D01*
X64743142Y-143576460D01*
X64708637Y-143555994D01*
X64695370Y-143545679D01*
X64695333Y-143545455D01*
X64704484Y-143532029D01*
X64730084Y-143501123D01*
X64769356Y-143455914D01*
X64819523Y-143399583D01*
X64877807Y-143335308D01*
X64901771Y-143309173D01*
X64964350Y-143241115D01*
X65021889Y-143178502D01*
X65071133Y-143124881D01*
X65108825Y-143083797D01*
X65131710Y-143058797D01*
X65135383Y-143054762D01*
X65146015Y-143041894D01*
X65150652Y-143029017D01*
X65147518Y-143011600D01*
X65134837Y-142985113D01*
X65110832Y-142945023D01*
X65073727Y-142886800D01*
X65063000Y-142870131D01*
X65025613Y-142810383D01*
X64994631Y-142757707D01*
X64972987Y-142717322D01*
X64963611Y-142694450D01*
X64963445Y-142692880D01*
X64966029Y-142673082D01*
X64973282Y-142629758D01*
X64984452Y-142567080D01*
X64998785Y-142489219D01*
X65015531Y-142400345D01*
X65026545Y-142342842D01*
X65051063Y-142219650D01*
X65071975Y-142123438D01*
X65089525Y-142053226D01*
X65103955Y-142008035D01*
X65114581Y-141987829D01*
X65132249Y-141970157D01*
X65167173Y-141936731D01*
X65215819Y-141890880D01*
X65274651Y-141835931D01*
X65340132Y-141775214D01*
X65356070Y-141760499D01*
X65428882Y-141693569D01*
X65484616Y-141643352D01*
X65485470Y-141642622D01*
X64972437Y-141642622D01*
X64971487Y-141657460D01*
X64965729Y-141695810D01*
X64955881Y-141753507D01*
X64942661Y-141826388D01*
X64926788Y-141910288D01*
X64921808Y-141935998D01*
X64877396Y-142172995D01*
X64834190Y-142420625D01*
X64793123Y-142672698D01*
X64755132Y-142923023D01*
X64721151Y-143165408D01*
X64692115Y-143393663D01*
X64668959Y-143601597D01*
X64666312Y-143628000D01*
X64659474Y-143692979D01*
X64652963Y-143747366D01*
X64647548Y-143785167D01*
X64644193Y-143800150D01*
X64627828Y-143804586D01*
X64593162Y-143804678D01*
X64571468Y-143802926D01*
X64536995Y-143799887D01*
X64479839Y-143795562D01*
X64405488Y-143790335D01*
X64319431Y-143784590D01*
X64227157Y-143778711D01*
X64212035Y-143777775D01*
X64123973Y-143771970D01*
X64045678Y-143766097D01*
X63981453Y-143760537D01*
X63935600Y-143755671D01*
X63912423Y-143751880D01*
X63910584Y-143751065D01*
X63910020Y-143733495D01*
X63916900Y-143691684D01*
X63930512Y-143628412D01*
X63950144Y-143546454D01*
X63975083Y-143448589D01*
X64004616Y-143337594D01*
X64038030Y-143216248D01*
X64074613Y-143087327D01*
X64113652Y-142953609D01*
X64125015Y-142915389D01*
X64146563Y-142844810D01*
X64174381Y-142756159D01*
X64207124Y-142653515D01*
X64243446Y-142540959D01*
X64282002Y-142422572D01*
X64321448Y-142302432D01*
X64360438Y-142184622D01*
X64397627Y-142073221D01*
X64431670Y-141972309D01*
X64461222Y-141885966D01*
X64484937Y-141818274D01*
X64501472Y-141773311D01*
X64501728Y-141772652D01*
X64520870Y-141726428D01*
X64537170Y-141700020D01*
X64557072Y-141686593D01*
X64587018Y-141679311D01*
X64590245Y-141678755D01*
X64632802Y-141672509D01*
X64689185Y-141665612D01*
X64753222Y-141658646D01*
X64818744Y-141652195D01*
X64879581Y-141646842D01*
X64929561Y-141643171D01*
X64962515Y-141641764D01*
X64972437Y-141642622D01*
X65485470Y-141642622D01*
X65526812Y-141607288D01*
X65559010Y-141582820D01*
X65584753Y-141567390D01*
X65607579Y-141558439D01*
X65631031Y-141553409D01*
X65645506Y-141551384D01*
X65673737Y-141549369D01*
X65723768Y-141547432D01*
X65791391Y-141545615D01*
X65872396Y-141543959D01*
X65962577Y-141542506D01*
X66057724Y-141541297D01*
X66153628Y-141540372D01*
X66246082Y-141539774D01*
X66330877Y-141539544D01*
X66403804Y-141539723D01*
X66460655Y-141540352D01*
X66497221Y-141541472D01*
X66509286Y-141542907D01*
X66955085Y-141542907D01*
X67115389Y-141381518D01*
X67320000Y-141390118D01*
X67416741Y-141394707D01*
X67523019Y-141400632D01*
X67632596Y-141407465D01*
X67739234Y-141414777D01*
X67836694Y-141422139D01*
X67918739Y-141429123D01*
X67979131Y-141435300D01*
X67981402Y-141435571D01*
X68043082Y-141443019D01*
X68515403Y-141443019D01*
X68572292Y-141349056D01*
X68704618Y-141340052D01*
X68774772Y-141336210D01*
X68860915Y-141332866D01*
X68950815Y-141330441D01*
X69014061Y-141329468D01*
X69191177Y-141327889D01*
X69317450Y-141444558D01*
X69382953Y-141504260D01*
X69459005Y-141572318D01*
X69534569Y-141638905D01*
X69580308Y-141678560D01*
X69716893Y-141795891D01*
X69726312Y-141889973D01*
X69730705Y-141929099D01*
X69738287Y-141991430D01*
X69748451Y-142072206D01*
X69760592Y-142166668D01*
X69774104Y-142270056D01*
X69788171Y-142376030D01*
X69840609Y-142768005D01*
X69871227Y-142768005D01*
X69871157Y-142761796D01*
X69871984Y-142721183D01*
X69874050Y-142707140D01*
X69891203Y-142704725D01*
X69927610Y-142708779D01*
X69973704Y-142718054D01*
X70103667Y-142748819D01*
X70208262Y-142773282D01*
X70289523Y-142791891D01*
X70349486Y-142805094D01*
X70390184Y-142813340D01*
X70413652Y-142817078D01*
X70421841Y-142816863D01*
X70417224Y-142802297D01*
X70396631Y-142767899D01*
X70361607Y-142715964D01*
X70313699Y-142648784D01*
X70255212Y-142569667D01*
X70220479Y-142522226D01*
X70174471Y-142457757D01*
X70121679Y-142382637D01*
X70066593Y-142303244D01*
X70026715Y-142245088D01*
X69877590Y-142026343D01*
X69860480Y-141732468D01*
X69855607Y-141644532D01*
X69851759Y-141566613D01*
X69849107Y-141502935D01*
X69847821Y-141457721D01*
X69848069Y-141435196D01*
X69848464Y-141433499D01*
X69863727Y-141431476D01*
X69903747Y-141428953D01*
X69965093Y-141426028D01*
X70044336Y-141422798D01*
X70138044Y-141419363D01*
X70242787Y-141415818D01*
X70355135Y-141412263D01*
X70471657Y-141408794D01*
X70588923Y-141405510D01*
X70703502Y-141402508D01*
X70811963Y-141399886D01*
X70910877Y-141397743D01*
X70996812Y-141396174D01*
X71066338Y-141395280D01*
X71116025Y-141395156D01*
X71142442Y-141395901D01*
X71145807Y-141396527D01*
X71150983Y-141412430D01*
X71160577Y-141451925D01*
X71173684Y-141510890D01*
X71189399Y-141585202D01*
X71206817Y-141670737D01*
X71214396Y-141708889D01*
X71233563Y-141805891D01*
X71252403Y-141900926D01*
X71269703Y-141987892D01*
X71284249Y-142060691D01*
X71294826Y-142113222D01*
X71296479Y-142121351D01*
X71306194Y-142173270D01*
X71312079Y-142213498D01*
X71313150Y-142234971D01*
X71312556Y-142236575D01*
X71296762Y-142237191D01*
X71260219Y-142233401D01*
X71209918Y-142225990D01*
X71193500Y-142223231D01*
X71116089Y-142210775D01*
X71035336Y-142199340D01*
X70956168Y-142189443D01*
X70883506Y-142181599D01*
X70822275Y-142176323D01*
X70777399Y-142174131D01*
X70753801Y-142175540D01*
X70751492Y-142176948D01*
X70758552Y-142190756D01*
X70780911Y-142222857D01*
X70815942Y-142269746D01*
X70861019Y-142327918D01*
X70913514Y-142393868D01*
X70921240Y-142403441D01*
X70988471Y-142487075D01*
X71061978Y-142579302D01*
X71135144Y-142671774D01*
X71201355Y-142756141D01*
X71237392Y-142802500D01*
X71379233Y-142985944D01*
X71395894Y-143225833D01*
X71401511Y-143310795D01*
X71406299Y-143391024D01*
X71409913Y-143460100D01*
X71412006Y-143511602D01*
X71412389Y-143532527D01*
X72018682Y-143532527D01*
X72022900Y-143445068D01*
X72027255Y-143340679D01*
X72031511Y-143225646D01*
X72035520Y-143104364D01*
X72039138Y-142981224D01*
X72042218Y-142860622D01*
X72043574Y-142796277D01*
X71708556Y-142796277D01*
X71706110Y-142838782D01*
X71699312Y-142858665D01*
X71694445Y-142858944D01*
X71680624Y-142838250D01*
X71680020Y-142833417D01*
X71671702Y-142811203D01*
X71652140Y-142781370D01*
X71652111Y-142781333D01*
X71629692Y-142748819D01*
X71628430Y-142731673D01*
X71649454Y-142725382D01*
X71666222Y-142724889D01*
X71691176Y-142726399D01*
X71703687Y-142735757D01*
X71708049Y-142760199D01*
X71708556Y-142796277D01*
X72043574Y-142796277D01*
X72044615Y-142746951D01*
X72046181Y-142644603D01*
X72046763Y-142564898D01*
X72047222Y-142327297D01*
X71994306Y-142335683D01*
X71964063Y-142339719D01*
X71911772Y-142345936D01*
X71843463Y-142353675D01*
X71765166Y-142362278D01*
X71682912Y-142371089D01*
X71602732Y-142379448D01*
X71530656Y-142386697D01*
X71496889Y-142389951D01*
X71461611Y-142393278D01*
X71445157Y-142195722D01*
X71437826Y-142112503D01*
X71429747Y-142028606D01*
X71421860Y-141953370D01*
X71415105Y-141896130D01*
X71414605Y-141892333D01*
X71407349Y-141829982D01*
X71399809Y-141752307D01*
X71393190Y-141672166D01*
X71390765Y-141637687D01*
X71381022Y-141488874D01*
X71795261Y-141528333D01*
X71886504Y-141537501D01*
X71991762Y-141548881D01*
X72107464Y-141562016D01*
X72230038Y-141576451D01*
X72355911Y-141591729D01*
X72481513Y-141607394D01*
X72603271Y-141622990D01*
X72717615Y-141638060D01*
X72820971Y-141652150D01*
X72909769Y-141664802D01*
X72980436Y-141675561D01*
X73029401Y-141683970D01*
X73050163Y-141688584D01*
X73059937Y-141698981D01*
X73071469Y-141726439D01*
X73085453Y-141773399D01*
X73102584Y-141842301D01*
X73123555Y-141935586D01*
X73133263Y-141980693D01*
X73159540Y-142104547D01*
X73180203Y-142203510D01*
X73195742Y-142280244D01*
X73206646Y-142337412D01*
X73213404Y-142377677D01*
X73216504Y-142403701D01*
X73553866Y-142403701D01*
X73552151Y-142362883D01*
X73543606Y-142294556D01*
X73528423Y-142210297D01*
X73506125Y-142105825D01*
X73488866Y-142030514D01*
X73468190Y-141941313D01*
X73447786Y-141852284D01*
X73429355Y-141770927D01*
X73414602Y-141704744D01*
X73407883Y-141673844D01*
X73376102Y-141567893D01*
X73330263Y-141485473D01*
X73268809Y-141424808D01*
X73190178Y-141384125D01*
X73140833Y-141370020D01*
X73068731Y-141355133D01*
X72975727Y-141337718D01*
X72868897Y-141318950D01*
X72755320Y-141300003D01*
X72642071Y-141282051D01*
X72536227Y-141266269D01*
X72444866Y-141253831D01*
X72428222Y-141251759D01*
X72284730Y-141234348D01*
X72166276Y-141220202D01*
X72069905Y-141209009D01*
X71992663Y-141200458D01*
X71931592Y-141194238D01*
X71883738Y-141190039D01*
X71846144Y-141187548D01*
X71815855Y-141186456D01*
X71806733Y-141186348D01*
X71748106Y-141183808D01*
X71676707Y-141177378D01*
X71598680Y-141167998D01*
X71520166Y-141156610D01*
X71447311Y-141144152D01*
X71386256Y-141131568D01*
X71343146Y-141119797D01*
X71327556Y-141112963D01*
X71272400Y-141085190D01*
X71203398Y-141065618D01*
X71117109Y-141053769D01*
X71010093Y-141049165D01*
X70883056Y-141051175D01*
X70668506Y-141058807D01*
X70482063Y-141065136D01*
X70323644Y-141070163D01*
X70193164Y-141073891D01*
X70090538Y-141076322D01*
X70015682Y-141077458D01*
X69968512Y-141077303D01*
X69958778Y-141076957D01*
X69882613Y-141080127D01*
X69801434Y-141095258D01*
X69723059Y-141119775D01*
X69655304Y-141151106D01*
X69605986Y-141186677D01*
X69597473Y-141195906D01*
X69586012Y-141201233D01*
X69566809Y-141194192D01*
X69536036Y-141172455D01*
X69489864Y-141133690D01*
X69477529Y-141122881D01*
X69426786Y-141080961D01*
X69377781Y-141045206D01*
X69338005Y-141020891D01*
X69323778Y-141014624D01*
X69290227Y-141008327D01*
X69233559Y-141002931D01*
X69158863Y-140998502D01*
X69071232Y-140995106D01*
X68975758Y-140992809D01*
X68877533Y-140991678D01*
X68781646Y-140991776D01*
G36*
X69431388Y-144982012D02*
G01*
X69412577Y-145049757D01*
X69396879Y-145107327D01*
X69385699Y-145149486D01*
X69380445Y-145170996D01*
X69380222Y-145172512D01*
X69393770Y-145175836D01*
X69432270Y-145177418D01*
X69492507Y-145177287D01*
X69571266Y-145175469D01*
X69665334Y-145171989D01*
X69714418Y-145169764D01*
X69815781Y-145164913D01*
X69803396Y-145126706D01*
X69794180Y-145097377D01*
X69779181Y-145048676D01*
X69760746Y-144988258D01*
X69747288Y-144943861D01*
X69703566Y-144799222D01*
X69482554Y-144799222D01*
X69431388Y-144982012D01*
X69431388Y-144982012D01*
G37*
X69431388Y-144982012D02*
X69412577Y-145049757D01*
X69396879Y-145107327D01*
X69385699Y-145149486D01*
X69380445Y-145170996D01*
X69380222Y-145172512D01*
X69393770Y-145175836D01*
X69432270Y-145177418D01*
X69492507Y-145177287D01*
X69571266Y-145175469D01*
X69665334Y-145171989D01*
X69714418Y-145169764D01*
X69815781Y-145164913D01*
X69803396Y-145126706D01*
X69794180Y-145097377D01*
X69779181Y-145048676D01*
X69760746Y-144988258D01*
X69747288Y-144943861D01*
X69703566Y-144799222D01*
X69482554Y-144799222D01*
X69431388Y-144982012D01*
G36*
X65846632Y-142154808D02*
G01*
X65817743Y-142173792D01*
X65777065Y-142202051D01*
X65729953Y-142235707D01*
X65681763Y-142270880D01*
X65637850Y-142303691D01*
X65603572Y-142330261D01*
X65584284Y-142346710D01*
X65582354Y-142348894D01*
X65583841Y-142366625D01*
X65595468Y-142403202D01*
X65615012Y-142452097D01*
X65625747Y-142476272D01*
X65656718Y-142538655D01*
X65683833Y-142577124D01*
X65711817Y-142594655D01*
X65745398Y-142594220D01*
X65788945Y-142578947D01*
X65831278Y-142560644D01*
X65846321Y-142357017D01*
X65851461Y-142284508D01*
X65855426Y-142222766D01*
X65857922Y-142176884D01*
X65858653Y-142151958D01*
X65858374Y-142148979D01*
X65846632Y-142154808D01*
X65846632Y-142154808D01*
G37*
X65846632Y-142154808D02*
X65817743Y-142173792D01*
X65777065Y-142202051D01*
X65729953Y-142235707D01*
X65681763Y-142270880D01*
X65637850Y-142303691D01*
X65603572Y-142330261D01*
X65584284Y-142346710D01*
X65582354Y-142348894D01*
X65583841Y-142366625D01*
X65595468Y-142403202D01*
X65615012Y-142452097D01*
X65625747Y-142476272D01*
X65656718Y-142538655D01*
X65683833Y-142577124D01*
X65711817Y-142594655D01*
X65745398Y-142594220D01*
X65788945Y-142578947D01*
X65831278Y-142560644D01*
X65846321Y-142357017D01*
X65851461Y-142284508D01*
X65855426Y-142222766D01*
X65857922Y-142176884D01*
X65858653Y-142151958D01*
X65858374Y-142148979D01*
X65846632Y-142154808D01*
G36*
X67412826Y-142038124D02*
G01*
X67393505Y-142049071D01*
X67359015Y-142071663D01*
X67315028Y-142101855D01*
X67267217Y-142135604D01*
X67221253Y-142168867D01*
X67182809Y-142197602D01*
X67157558Y-142217765D01*
X67150667Y-142224987D01*
X67156165Y-142239017D01*
X67170977Y-142272958D01*
X67192583Y-142321099D01*
X67209121Y-142357397D01*
X67238047Y-142418714D01*
X67260842Y-142457768D01*
X67282737Y-142478127D01*
X67308961Y-142483362D01*
X67344746Y-142477045D01*
X67372917Y-142469213D01*
X67418778Y-142455971D01*
X67418778Y-142310177D01*
X67419708Y-142240021D01*
X67422204Y-142172357D01*
X67425824Y-142117327D01*
X67428076Y-142096543D01*
X67432558Y-142056401D01*
X67430432Y-142038100D01*
X67420153Y-142035721D01*
X67412826Y-142038124D01*
X67412826Y-142038124D01*
G37*
X67412826Y-142038124D02*
X67393505Y-142049071D01*
X67359015Y-142071663D01*
X67315028Y-142101855D01*
X67267217Y-142135604D01*
X67221253Y-142168867D01*
X67182809Y-142197602D01*
X67157558Y-142217765D01*
X67150667Y-142224987D01*
X67156165Y-142239017D01*
X67170977Y-142272958D01*
X67192583Y-142321099D01*
X67209121Y-142357397D01*
X67238047Y-142418714D01*
X67260842Y-142457768D01*
X67282737Y-142478127D01*
X67308961Y-142483362D01*
X67344746Y-142477045D01*
X67372917Y-142469213D01*
X67418778Y-142455971D01*
X67418778Y-142310177D01*
X67419708Y-142240021D01*
X67422204Y-142172357D01*
X67425824Y-142117327D01*
X67428076Y-142096543D01*
X67432558Y-142056401D01*
X67430432Y-142038100D01*
X67420153Y-142035721D01*
X67412826Y-142038124D01*
G36*
X69017694Y-142148596D02*
G01*
X68981707Y-142156370D01*
X68930526Y-142169396D01*
X68888144Y-142181096D01*
X68748950Y-142220670D01*
X68740131Y-142314029D01*
X68735236Y-142379281D01*
X68731989Y-142448213D01*
X68731212Y-142488350D01*
X68731111Y-142569312D01*
X68829537Y-142618878D01*
X68877780Y-142642393D01*
X68916590Y-142659872D01*
X68938896Y-142668165D01*
X68940817Y-142668444D01*
X68956177Y-142659407D01*
X68986635Y-142635179D01*
X69026904Y-142600092D01*
X69049366Y-142579550D01*
X69145059Y-142490655D01*
X69091416Y-142322022D01*
X69070645Y-142257516D01*
X69052752Y-142203421D01*
X69039535Y-142165074D01*
X69032795Y-142147808D01*
X69032555Y-142147456D01*
X69017694Y-142148596D01*
X69017694Y-142148596D01*
G37*
X69017694Y-142148596D02*
X68981707Y-142156370D01*
X68930526Y-142169396D01*
X68888144Y-142181096D01*
X68748950Y-142220670D01*
X68740131Y-142314029D01*
X68735236Y-142379281D01*
X68731989Y-142448213D01*
X68731212Y-142488350D01*
X68731111Y-142569312D01*
X68829537Y-142618878D01*
X68877780Y-142642393D01*
X68916590Y-142659872D01*
X68938896Y-142668165D01*
X68940817Y-142668444D01*
X68956177Y-142659407D01*
X68986635Y-142635179D01*
X69026904Y-142600092D01*
X69049366Y-142579550D01*
X69145059Y-142490655D01*
X69091416Y-142322022D01*
X69070645Y-142257516D01*
X69052752Y-142203421D01*
X69039535Y-142165074D01*
X69032795Y-142147808D01*
X69032555Y-142147456D01*
X69017694Y-142148596D01*
M02*
