%TF.GenerationSoftware,KiCad,Pcbnew,(5.1.2-1)-1*%
%TF.CreationDate,2020-12-17T20:50:41+01:00*%
%TF.ProjectId,snes_rgb_bypass_amp,736e6573-5f72-4676-925f-627970617373,3.2*%
%TF.SameCoordinates,Original*%
%TF.FileFunction,Legend,Bot*%
%TF.FilePolarity,Positive*%
%FSLAX46Y46*%
G04 Gerber Fmt 4.6, Leading zero omitted, Abs format (unit mm)*
G04 Created by KiCad (PCBNEW (5.1.2-1)-1) date 2020-12-17 20:50:41*
%MOMM*%
%LPD*%
G04 APERTURE LIST*
%ADD10C,0.175000*%
%ADD11C,0.152400*%
%ADD12C,0.010000*%
G04 APERTURE END LIST*
D10*
X155352380Y-96094285D02*
X155238095Y-96137142D01*
X155047619Y-96137142D01*
X154971428Y-96094285D01*
X154933333Y-96051428D01*
X154895238Y-95965714D01*
X154895238Y-95880000D01*
X154933333Y-95794285D01*
X154971428Y-95751428D01*
X155047619Y-95708571D01*
X155200000Y-95665714D01*
X155276190Y-95622857D01*
X155314285Y-95580000D01*
X155352380Y-95494285D01*
X155352380Y-95408571D01*
X155314285Y-95322857D01*
X155276190Y-95280000D01*
X155200000Y-95237142D01*
X155009523Y-95237142D01*
X154895238Y-95280000D01*
X154552380Y-96137142D02*
X154552380Y-95237142D01*
X154095238Y-96137142D01*
X154095238Y-95237142D01*
X153714285Y-95665714D02*
X153447619Y-95665714D01*
X153333333Y-96137142D02*
X153714285Y-96137142D01*
X153714285Y-95237142D01*
X153333333Y-95237142D01*
X153028571Y-96094285D02*
X152914285Y-96137142D01*
X152723809Y-96137142D01*
X152647619Y-96094285D01*
X152609523Y-96051428D01*
X152571428Y-95965714D01*
X152571428Y-95880000D01*
X152609523Y-95794285D01*
X152647619Y-95751428D01*
X152723809Y-95708571D01*
X152876190Y-95665714D01*
X152952380Y-95622857D01*
X152990476Y-95580000D01*
X153028571Y-95494285D01*
X153028571Y-95408571D01*
X152990476Y-95322857D01*
X152952380Y-95280000D01*
X152876190Y-95237142D01*
X152685714Y-95237142D01*
X152571428Y-95280000D01*
X151161904Y-96137142D02*
X151428571Y-95708571D01*
X151619047Y-96137142D02*
X151619047Y-95237142D01*
X151314285Y-95237142D01*
X151238095Y-95280000D01*
X151200000Y-95322857D01*
X151161904Y-95408571D01*
X151161904Y-95537142D01*
X151200000Y-95622857D01*
X151238095Y-95665714D01*
X151314285Y-95708571D01*
X151619047Y-95708571D01*
X150400000Y-95280000D02*
X150476190Y-95237142D01*
X150590476Y-95237142D01*
X150704761Y-95280000D01*
X150780952Y-95365714D01*
X150819047Y-95451428D01*
X150857142Y-95622857D01*
X150857142Y-95751428D01*
X150819047Y-95922857D01*
X150780952Y-96008571D01*
X150704761Y-96094285D01*
X150590476Y-96137142D01*
X150514285Y-96137142D01*
X150400000Y-96094285D01*
X150361904Y-96051428D01*
X150361904Y-95751428D01*
X150514285Y-95751428D01*
X149752380Y-95665714D02*
X149638095Y-95708571D01*
X149600000Y-95751428D01*
X149561904Y-95837142D01*
X149561904Y-95965714D01*
X149600000Y-96051428D01*
X149638095Y-96094285D01*
X149714285Y-96137142D01*
X150019047Y-96137142D01*
X150019047Y-95237142D01*
X149752380Y-95237142D01*
X149676190Y-95280000D01*
X149638095Y-95322857D01*
X149600000Y-95408571D01*
X149600000Y-95494285D01*
X149638095Y-95580000D01*
X149676190Y-95622857D01*
X149752380Y-95665714D01*
X150019047Y-95665714D01*
X148342857Y-95665714D02*
X148228571Y-95708571D01*
X148190476Y-95751428D01*
X148152380Y-95837142D01*
X148152380Y-95965714D01*
X148190476Y-96051428D01*
X148228571Y-96094285D01*
X148304761Y-96137142D01*
X148609523Y-96137142D01*
X148609523Y-95237142D01*
X148342857Y-95237142D01*
X148266666Y-95280000D01*
X148228571Y-95322857D01*
X148190476Y-95408571D01*
X148190476Y-95494285D01*
X148228571Y-95580000D01*
X148266666Y-95622857D01*
X148342857Y-95665714D01*
X148609523Y-95665714D01*
X147657142Y-95708571D02*
X147657142Y-96137142D01*
X147923809Y-95237142D02*
X147657142Y-95708571D01*
X147390476Y-95237142D01*
X147123809Y-96137142D02*
X147123809Y-95237142D01*
X146819047Y-95237142D01*
X146742857Y-95280000D01*
X146704761Y-95322857D01*
X146666666Y-95408571D01*
X146666666Y-95537142D01*
X146704761Y-95622857D01*
X146742857Y-95665714D01*
X146819047Y-95708571D01*
X147123809Y-95708571D01*
X146361904Y-95880000D02*
X145980952Y-95880000D01*
X146438095Y-96137142D02*
X146171428Y-95237142D01*
X145904761Y-96137142D01*
X145676190Y-96094285D02*
X145561904Y-96137142D01*
X145371428Y-96137142D01*
X145295238Y-96094285D01*
X145257142Y-96051428D01*
X145219047Y-95965714D01*
X145219047Y-95880000D01*
X145257142Y-95794285D01*
X145295238Y-95751428D01*
X145371428Y-95708571D01*
X145523809Y-95665714D01*
X145600000Y-95622857D01*
X145638095Y-95580000D01*
X145676190Y-95494285D01*
X145676190Y-95408571D01*
X145638095Y-95322857D01*
X145600000Y-95280000D01*
X145523809Y-95237142D01*
X145333333Y-95237142D01*
X145219047Y-95280000D01*
X144914285Y-96094285D02*
X144800000Y-96137142D01*
X144609523Y-96137142D01*
X144533333Y-96094285D01*
X144495238Y-96051428D01*
X144457142Y-95965714D01*
X144457142Y-95880000D01*
X144495238Y-95794285D01*
X144533333Y-95751428D01*
X144609523Y-95708571D01*
X144761904Y-95665714D01*
X144838095Y-95622857D01*
X144876190Y-95580000D01*
X144914285Y-95494285D01*
X144914285Y-95408571D01*
X144876190Y-95322857D01*
X144838095Y-95280000D01*
X144761904Y-95237142D01*
X144571428Y-95237142D01*
X144457142Y-95280000D01*
X143542857Y-95880000D02*
X143161904Y-95880000D01*
X143619047Y-96137142D02*
X143352380Y-95237142D01*
X143085714Y-96137142D01*
X142819047Y-96137142D02*
X142819047Y-95237142D01*
X142552380Y-95880000D01*
X142285714Y-95237142D01*
X142285714Y-96137142D01*
X141904761Y-96137142D02*
X141904761Y-95237142D01*
X141600000Y-95237142D01*
X141523809Y-95280000D01*
X141485714Y-95322857D01*
X141447619Y-95408571D01*
X141447619Y-95537142D01*
X141485714Y-95622857D01*
X141523809Y-95665714D01*
X141600000Y-95708571D01*
X141904761Y-95708571D01*
D11*
X154233809Y-97052857D02*
X154480476Y-97052857D01*
X154480476Y-97471904D02*
X154480476Y-96671904D01*
X154128095Y-96671904D01*
X153705238Y-96671904D02*
X153564285Y-96671904D01*
X153493809Y-96710000D01*
X153423333Y-96786190D01*
X153388095Y-96938571D01*
X153388095Y-97205238D01*
X153423333Y-97357619D01*
X153493809Y-97433809D01*
X153564285Y-97471904D01*
X153705238Y-97471904D01*
X153775714Y-97433809D01*
X153846190Y-97357619D01*
X153881428Y-97205238D01*
X153881428Y-96938571D01*
X153846190Y-96786190D01*
X153775714Y-96710000D01*
X153705238Y-96671904D01*
X152648095Y-97471904D02*
X152894761Y-97090952D01*
X153070952Y-97471904D02*
X153070952Y-96671904D01*
X152789047Y-96671904D01*
X152718571Y-96710000D01*
X152683333Y-96748095D01*
X152648095Y-96824285D01*
X152648095Y-96938571D01*
X152683333Y-97014761D01*
X152718571Y-97052857D01*
X152789047Y-97090952D01*
X153070952Y-97090952D01*
X151379523Y-97471904D02*
X151802380Y-97471904D01*
X151590952Y-97471904D02*
X151590952Y-96671904D01*
X151661428Y-96786190D01*
X151731904Y-96862380D01*
X151802380Y-96900476D01*
X150639523Y-97395714D02*
X150674761Y-97433809D01*
X150780476Y-97471904D01*
X150850952Y-97471904D01*
X150956666Y-97433809D01*
X151027142Y-97357619D01*
X151062380Y-97281428D01*
X151097619Y-97129047D01*
X151097619Y-97014761D01*
X151062380Y-96862380D01*
X151027142Y-96786190D01*
X150956666Y-96710000D01*
X150850952Y-96671904D01*
X150780476Y-96671904D01*
X150674761Y-96710000D01*
X150639523Y-96748095D01*
X150322380Y-97471904D02*
X150322380Y-96671904D01*
X150322380Y-97052857D02*
X149899523Y-97052857D01*
X149899523Y-97471904D02*
X149899523Y-96671904D01*
X149547142Y-97471904D02*
X149547142Y-96671904D01*
X149194761Y-97471904D02*
X149194761Y-96671904D01*
X148912857Y-96671904D01*
X148842380Y-96710000D01*
X148807142Y-96748095D01*
X148771904Y-96824285D01*
X148771904Y-96938571D01*
X148807142Y-97014761D01*
X148842380Y-97052857D01*
X148912857Y-97090952D01*
X149194761Y-97090952D01*
X147468095Y-97395714D02*
X147503333Y-97433809D01*
X147609047Y-97471904D01*
X147679523Y-97471904D01*
X147785238Y-97433809D01*
X147855714Y-97357619D01*
X147890952Y-97281428D01*
X147926190Y-97129047D01*
X147926190Y-97014761D01*
X147890952Y-96862380D01*
X147855714Y-96786190D01*
X147785238Y-96710000D01*
X147679523Y-96671904D01*
X147609047Y-96671904D01*
X147503333Y-96710000D01*
X147468095Y-96748095D01*
X147010000Y-96671904D02*
X146869047Y-96671904D01*
X146798571Y-96710000D01*
X146728095Y-96786190D01*
X146692857Y-96938571D01*
X146692857Y-97205238D01*
X146728095Y-97357619D01*
X146798571Y-97433809D01*
X146869047Y-97471904D01*
X147010000Y-97471904D01*
X147080476Y-97433809D01*
X147150952Y-97357619D01*
X147186190Y-97205238D01*
X147186190Y-96938571D01*
X147150952Y-96786190D01*
X147080476Y-96710000D01*
X147010000Y-96671904D01*
X146375714Y-97471904D02*
X146375714Y-96671904D01*
X145952857Y-97471904D01*
X145952857Y-96671904D01*
X145635714Y-97433809D02*
X145530000Y-97471904D01*
X145353809Y-97471904D01*
X145283333Y-97433809D01*
X145248095Y-97395714D01*
X145212857Y-97319523D01*
X145212857Y-97243333D01*
X145248095Y-97167142D01*
X145283333Y-97129047D01*
X145353809Y-97090952D01*
X145494761Y-97052857D01*
X145565238Y-97014761D01*
X145600476Y-96976666D01*
X145635714Y-96900476D01*
X145635714Y-96824285D01*
X145600476Y-96748095D01*
X145565238Y-96710000D01*
X145494761Y-96671904D01*
X145318571Y-96671904D01*
X145212857Y-96710000D01*
X144754761Y-96671904D02*
X144613809Y-96671904D01*
X144543333Y-96710000D01*
X144472857Y-96786190D01*
X144437619Y-96938571D01*
X144437619Y-97205238D01*
X144472857Y-97357619D01*
X144543333Y-97433809D01*
X144613809Y-97471904D01*
X144754761Y-97471904D01*
X144825238Y-97433809D01*
X144895714Y-97357619D01*
X144930952Y-97205238D01*
X144930952Y-96938571D01*
X144895714Y-96786190D01*
X144825238Y-96710000D01*
X144754761Y-96671904D01*
X143768095Y-97471904D02*
X144120476Y-97471904D01*
X144120476Y-96671904D01*
X143521428Y-97052857D02*
X143274761Y-97052857D01*
X143169047Y-97471904D02*
X143521428Y-97471904D01*
X143521428Y-96671904D01*
X143169047Y-96671904D01*
X142887142Y-97433809D02*
X142781428Y-97471904D01*
X142605238Y-97471904D01*
X142534761Y-97433809D01*
X142499523Y-97395714D01*
X142464285Y-97319523D01*
X142464285Y-97243333D01*
X142499523Y-97167142D01*
X142534761Y-97129047D01*
X142605238Y-97090952D01*
X142746190Y-97052857D01*
X142816666Y-97014761D01*
X142851904Y-96976666D01*
X142887142Y-96900476D01*
X142887142Y-96824285D01*
X142851904Y-96748095D01*
X142816666Y-96710000D01*
X142746190Y-96671904D01*
X142570000Y-96671904D01*
X142464285Y-96710000D01*
D12*
G36*
X150057694Y-107355496D02*
G01*
X150021707Y-107363270D01*
X149970526Y-107376296D01*
X149928144Y-107387996D01*
X149788950Y-107427570D01*
X149780131Y-107520929D01*
X149775236Y-107586181D01*
X149771989Y-107655113D01*
X149771212Y-107695250D01*
X149771111Y-107776212D01*
X149869537Y-107825778D01*
X149917780Y-107849293D01*
X149956590Y-107866772D01*
X149978896Y-107875065D01*
X149980817Y-107875344D01*
X149996177Y-107866307D01*
X150026635Y-107842079D01*
X150066904Y-107806992D01*
X150089366Y-107786450D01*
X150185059Y-107697555D01*
X150131416Y-107528922D01*
X150110645Y-107464416D01*
X150092752Y-107410321D01*
X150079535Y-107371974D01*
X150072795Y-107354708D01*
X150072555Y-107354356D01*
X150057694Y-107355496D01*
X150057694Y-107355496D01*
G37*
X150057694Y-107355496D02*
X150021707Y-107363270D01*
X149970526Y-107376296D01*
X149928144Y-107387996D01*
X149788950Y-107427570D01*
X149780131Y-107520929D01*
X149775236Y-107586181D01*
X149771989Y-107655113D01*
X149771212Y-107695250D01*
X149771111Y-107776212D01*
X149869537Y-107825778D01*
X149917780Y-107849293D01*
X149956590Y-107866772D01*
X149978896Y-107875065D01*
X149980817Y-107875344D01*
X149996177Y-107866307D01*
X150026635Y-107842079D01*
X150066904Y-107806992D01*
X150089366Y-107786450D01*
X150185059Y-107697555D01*
X150131416Y-107528922D01*
X150110645Y-107464416D01*
X150092752Y-107410321D01*
X150079535Y-107371974D01*
X150072795Y-107354708D01*
X150072555Y-107354356D01*
X150057694Y-107355496D01*
G36*
X148452826Y-107245024D02*
G01*
X148433505Y-107255971D01*
X148399015Y-107278563D01*
X148355028Y-107308755D01*
X148307217Y-107342504D01*
X148261253Y-107375767D01*
X148222809Y-107404502D01*
X148197558Y-107424665D01*
X148190667Y-107431887D01*
X148196165Y-107445917D01*
X148210977Y-107479858D01*
X148232583Y-107527999D01*
X148249121Y-107564297D01*
X148278047Y-107625614D01*
X148300842Y-107664668D01*
X148322737Y-107685027D01*
X148348961Y-107690262D01*
X148384746Y-107683945D01*
X148412917Y-107676113D01*
X148458778Y-107662871D01*
X148458778Y-107517077D01*
X148459708Y-107446921D01*
X148462204Y-107379257D01*
X148465824Y-107324227D01*
X148468076Y-107303443D01*
X148472558Y-107263301D01*
X148470432Y-107245000D01*
X148460153Y-107242621D01*
X148452826Y-107245024D01*
X148452826Y-107245024D01*
G37*
X148452826Y-107245024D02*
X148433505Y-107255971D01*
X148399015Y-107278563D01*
X148355028Y-107308755D01*
X148307217Y-107342504D01*
X148261253Y-107375767D01*
X148222809Y-107404502D01*
X148197558Y-107424665D01*
X148190667Y-107431887D01*
X148196165Y-107445917D01*
X148210977Y-107479858D01*
X148232583Y-107527999D01*
X148249121Y-107564297D01*
X148278047Y-107625614D01*
X148300842Y-107664668D01*
X148322737Y-107685027D01*
X148348961Y-107690262D01*
X148384746Y-107683945D01*
X148412917Y-107676113D01*
X148458778Y-107662871D01*
X148458778Y-107517077D01*
X148459708Y-107446921D01*
X148462204Y-107379257D01*
X148465824Y-107324227D01*
X148468076Y-107303443D01*
X148472558Y-107263301D01*
X148470432Y-107245000D01*
X148460153Y-107242621D01*
X148452826Y-107245024D01*
G36*
X146886632Y-107361708D02*
G01*
X146857743Y-107380692D01*
X146817065Y-107408951D01*
X146769953Y-107442607D01*
X146721763Y-107477780D01*
X146677850Y-107510591D01*
X146643572Y-107537161D01*
X146624284Y-107553610D01*
X146622354Y-107555794D01*
X146623841Y-107573525D01*
X146635468Y-107610102D01*
X146655012Y-107658997D01*
X146665747Y-107683172D01*
X146696718Y-107745555D01*
X146723833Y-107784024D01*
X146751817Y-107801555D01*
X146785398Y-107801120D01*
X146828945Y-107785847D01*
X146871278Y-107767544D01*
X146886321Y-107563917D01*
X146891461Y-107491408D01*
X146895426Y-107429666D01*
X146897922Y-107383784D01*
X146898653Y-107358858D01*
X146898374Y-107355879D01*
X146886632Y-107361708D01*
X146886632Y-107361708D01*
G37*
X146886632Y-107361708D02*
X146857743Y-107380692D01*
X146817065Y-107408951D01*
X146769953Y-107442607D01*
X146721763Y-107477780D01*
X146677850Y-107510591D01*
X146643572Y-107537161D01*
X146624284Y-107553610D01*
X146622354Y-107555794D01*
X146623841Y-107573525D01*
X146635468Y-107610102D01*
X146655012Y-107658997D01*
X146665747Y-107683172D01*
X146696718Y-107745555D01*
X146723833Y-107784024D01*
X146751817Y-107801555D01*
X146785398Y-107801120D01*
X146828945Y-107785847D01*
X146871278Y-107767544D01*
X146886321Y-107563917D01*
X146891461Y-107491408D01*
X146895426Y-107429666D01*
X146897922Y-107383784D01*
X146898653Y-107358858D01*
X146898374Y-107355879D01*
X146886632Y-107361708D01*
G36*
X150471388Y-110188912D02*
G01*
X150452577Y-110256657D01*
X150436879Y-110314227D01*
X150425699Y-110356386D01*
X150420445Y-110377896D01*
X150420222Y-110379412D01*
X150433770Y-110382736D01*
X150472270Y-110384318D01*
X150532507Y-110384187D01*
X150611266Y-110382369D01*
X150705334Y-110378889D01*
X150754418Y-110376664D01*
X150855781Y-110371813D01*
X150843396Y-110333606D01*
X150834180Y-110304277D01*
X150819181Y-110255576D01*
X150800746Y-110195158D01*
X150787288Y-110150761D01*
X150743566Y-110006122D01*
X150522554Y-110006122D01*
X150471388Y-110188912D01*
X150471388Y-110188912D01*
G37*
X150471388Y-110188912D02*
X150452577Y-110256657D01*
X150436879Y-110314227D01*
X150425699Y-110356386D01*
X150420445Y-110377896D01*
X150420222Y-110379412D01*
X150433770Y-110382736D01*
X150472270Y-110384318D01*
X150532507Y-110384187D01*
X150611266Y-110382369D01*
X150705334Y-110378889D01*
X150754418Y-110376664D01*
X150855781Y-110371813D01*
X150843396Y-110333606D01*
X150834180Y-110304277D01*
X150819181Y-110255576D01*
X150800746Y-110195158D01*
X150787288Y-110150761D01*
X150743566Y-110006122D01*
X150522554Y-110006122D01*
X150471388Y-110188912D01*
G36*
X149821646Y-106198676D02*
G01*
X149733192Y-106200072D01*
X149657260Y-106202830D01*
X149598943Y-106207017D01*
X149569304Y-106211243D01*
X149509850Y-106229397D01*
X149449133Y-106257099D01*
X149395530Y-106289654D01*
X149357419Y-106322371D01*
X149347917Y-106335256D01*
X149325776Y-106371769D01*
X149309721Y-106386803D01*
X149292014Y-106383486D01*
X149268310Y-106367422D01*
X149223458Y-106344610D01*
X149154380Y-106324386D01*
X149060007Y-106306535D01*
X148939274Y-106290842D01*
X148839778Y-106281138D01*
X148742787Y-106274000D01*
X148637066Y-106268498D01*
X148527227Y-106264650D01*
X148417885Y-106262479D01*
X148313653Y-106262005D01*
X148219144Y-106263249D01*
X148138973Y-106266234D01*
X148077752Y-106270979D01*
X148040163Y-106277484D01*
X147989368Y-106302450D01*
X147925275Y-106350047D01*
X147877036Y-106392793D01*
X147772692Y-106490239D01*
X147729155Y-106462674D01*
X147692263Y-106442863D01*
X147648758Y-106427071D01*
X147595510Y-106414986D01*
X147529389Y-106406294D01*
X147447265Y-106400681D01*
X147346007Y-106397834D01*
X147222485Y-106397439D01*
X147092256Y-106398880D01*
X146941259Y-106401963D01*
X146815100Y-106406564D01*
X146710407Y-106413442D01*
X146623805Y-106423355D01*
X146551922Y-106437062D01*
X146491383Y-106455320D01*
X146438816Y-106478888D01*
X146390847Y-106508522D01*
X146344103Y-106544983D01*
X146310833Y-106574486D01*
X146272500Y-106609720D01*
X146219111Y-106574635D01*
X146160417Y-106542845D01*
X146094569Y-106521303D01*
X146018320Y-106509951D01*
X145928421Y-106508733D01*
X145821622Y-106517592D01*
X145694675Y-106536471D01*
X145555384Y-106563033D01*
X145468887Y-106584372D01*
X145406845Y-106608216D01*
X145375913Y-106627153D01*
X145324488Y-106677200D01*
X145275915Y-106742919D01*
X145238482Y-106812289D01*
X145226940Y-106843234D01*
X145212989Y-106885382D01*
X145199750Y-106920054D01*
X145198522Y-106922844D01*
X145190253Y-106944523D01*
X145174674Y-106988336D01*
X145153361Y-107049631D01*
X145127889Y-107123755D01*
X145099835Y-107206056D01*
X145070775Y-107291882D01*
X145042285Y-107376579D01*
X145015941Y-107455497D01*
X144993320Y-107523982D01*
X144975996Y-107577382D01*
X144966675Y-107607233D01*
X144953332Y-107650963D01*
X144934868Y-107710461D01*
X144914739Y-107774609D01*
X144909658Y-107790678D01*
X144881984Y-107880657D01*
X144849281Y-107991215D01*
X144813302Y-108116053D01*
X144775799Y-108248873D01*
X144738526Y-108383377D01*
X144703234Y-108513267D01*
X144671676Y-108632245D01*
X144645604Y-108734013D01*
X144634153Y-108780725D01*
X144618550Y-108850692D01*
X144610448Y-108902884D01*
X144609035Y-108946497D01*
X144613501Y-108990726D01*
X144614864Y-108999447D01*
X144621313Y-109052089D01*
X144619138Y-109089508D01*
X144607324Y-109123661D01*
X144603675Y-109131233D01*
X144593468Y-109159029D01*
X144577963Y-109210835D01*
X144558039Y-109283124D01*
X144534571Y-109372366D01*
X144508436Y-109475033D01*
X144480511Y-109587598D01*
X144451673Y-109706531D01*
X144422798Y-109828305D01*
X144394763Y-109949391D01*
X144368444Y-110066261D01*
X144347716Y-110161344D01*
X144307496Y-110356675D01*
X144268156Y-110561795D01*
X144230933Y-110769515D01*
X144197065Y-110972643D01*
X144167788Y-111163988D01*
X144144341Y-111336360D01*
X144141324Y-111360789D01*
X144132395Y-111431785D01*
X144122863Y-111503709D01*
X144114388Y-111564140D01*
X144112095Y-111579511D01*
X144090828Y-111734086D01*
X144075672Y-111877682D01*
X144066765Y-112007117D01*
X144064246Y-112119214D01*
X144068254Y-112210791D01*
X144078927Y-112278670D01*
X144081247Y-112287067D01*
X144113315Y-112351648D01*
X144165971Y-112411607D01*
X144231698Y-112459737D01*
X144287001Y-112484366D01*
X144356940Y-112499236D01*
X144452998Y-112507930D01*
X144573747Y-112510402D01*
X144717757Y-112506605D01*
X144811056Y-112501532D01*
X144950367Y-112491194D01*
X145064812Y-112478984D01*
X145157729Y-112464081D01*
X145232453Y-112445661D01*
X145292322Y-112422901D01*
X145340673Y-112394978D01*
X145380843Y-112361070D01*
X145380896Y-112361018D01*
X145413996Y-112322964D01*
X145440058Y-112279870D01*
X145460617Y-112226939D01*
X145477210Y-112159374D01*
X145491373Y-112072380D01*
X145502418Y-111981678D01*
X145519452Y-111829205D01*
X145534590Y-111697740D01*
X145547675Y-111588550D01*
X145558547Y-111502898D01*
X145567049Y-111442052D01*
X145573022Y-111407276D01*
X145575302Y-111399488D01*
X145588394Y-111402247D01*
X145615802Y-111420382D01*
X145648158Y-111447014D01*
X145692638Y-111482812D01*
X145737722Y-111513318D01*
X145763556Y-111527192D01*
X145815748Y-111541326D01*
X145883770Y-111548261D01*
X145956108Y-111547788D01*
X146021248Y-111539695D01*
X146048436Y-111532412D01*
X146101353Y-111504190D01*
X146156461Y-111459068D01*
X146204265Y-111405833D01*
X146230631Y-111363800D01*
X146252830Y-111317963D01*
X146270626Y-111378182D01*
X146288687Y-111429736D01*
X146310445Y-111479783D01*
X146314520Y-111487789D01*
X146329158Y-111518436D01*
X146351665Y-111569123D01*
X146379378Y-111633704D01*
X146409637Y-111706033D01*
X146421438Y-111734733D01*
X146452574Y-111808773D01*
X146483085Y-111877665D01*
X146510090Y-111935154D01*
X146530709Y-111974980D01*
X146536191Y-111984061D01*
X146596912Y-112051370D01*
X146677811Y-112099391D01*
X146759031Y-112124047D01*
X146809025Y-112132409D01*
X146851375Y-112133656D01*
X146898266Y-112127253D01*
X146949531Y-112115706D01*
X147003048Y-112102024D01*
X147047404Y-112089536D01*
X147074042Y-112080671D01*
X147075889Y-112079848D01*
X147122385Y-112059156D01*
X147175697Y-112039367D01*
X147244678Y-112017287D01*
X147272495Y-112008923D01*
X147377378Y-111977733D01*
X147406550Y-112012548D01*
X147473691Y-112070943D01*
X147561287Y-112111234D01*
X147667888Y-112133112D01*
X147792048Y-112136271D01*
X147922556Y-112122049D01*
X147970957Y-112115085D01*
X148036838Y-112106945D01*
X148109563Y-112098902D01*
X148148333Y-112095010D01*
X148250741Y-112083653D01*
X148337838Y-112070961D01*
X148406105Y-112057588D01*
X148452022Y-112044186D01*
X148468417Y-112035607D01*
X148494655Y-112031898D01*
X148517806Y-112042645D01*
X148552615Y-112060651D01*
X148594653Y-112074216D01*
X148647544Y-112083680D01*
X148714911Y-112089381D01*
X148800380Y-112091660D01*
X148907574Y-112090855D01*
X149006148Y-112088379D01*
X149139183Y-112083432D01*
X149247311Y-112076989D01*
X149333835Y-112068340D01*
X149402061Y-112056775D01*
X149455292Y-112041581D01*
X149496831Y-112022048D01*
X149529984Y-111997464D01*
X149555630Y-111970129D01*
X149566320Y-111961292D01*
X149583227Y-111958100D01*
X149611703Y-111961069D01*
X149657098Y-111970717D01*
X149717908Y-111985809D01*
X149788428Y-112004114D01*
X149858225Y-112022773D01*
X149916835Y-112038965D01*
X149940445Y-112045778D01*
X150029497Y-112071689D01*
X150097177Y-112089748D01*
X150148972Y-112100773D01*
X150190369Y-112105579D01*
X150226854Y-112104983D01*
X150263915Y-112099801D01*
X150281034Y-112096440D01*
X150374919Y-112067678D01*
X150448462Y-112022991D01*
X150504004Y-111959814D01*
X150543882Y-111875582D01*
X150567884Y-111781966D01*
X150580228Y-111716862D01*
X150592612Y-111652791D01*
X150602641Y-111602121D01*
X150603869Y-111596073D01*
X150612335Y-111546044D01*
X150617265Y-111500310D01*
X150617778Y-111486712D01*
X150620262Y-111459862D01*
X150633193Y-111448204D01*
X150664791Y-111445480D01*
X150671962Y-111445456D01*
X150726147Y-111445456D01*
X150742790Y-111540706D01*
X150753591Y-111606733D01*
X150764943Y-111682660D01*
X150773034Y-111741789D01*
X150791565Y-111855195D01*
X150814846Y-111945675D01*
X150842285Y-112011164D01*
X150856486Y-112032771D01*
X150909039Y-112086584D01*
X150972002Y-112125553D01*
X151048258Y-112150215D01*
X151140689Y-112161107D01*
X151252178Y-112158766D01*
X151385607Y-112143730D01*
X151422111Y-112138149D01*
X151444863Y-112134974D01*
X151467693Y-112133361D01*
X151493597Y-112133822D01*
X151525572Y-112136874D01*
X151566612Y-112143031D01*
X151619713Y-112152808D01*
X151687871Y-112166719D01*
X151774080Y-112185280D01*
X151881338Y-112209006D01*
X152012639Y-112238411D01*
X152035945Y-112243647D01*
X152127951Y-112262807D01*
X152200368Y-112273649D01*
X152260477Y-112276479D01*
X152315561Y-112271605D01*
X152372901Y-112259334D01*
X152377655Y-112258082D01*
X152452086Y-112230016D01*
X152513011Y-112187278D01*
X152563292Y-112126455D01*
X152605790Y-112044134D01*
X152641370Y-111943531D01*
X152662389Y-111874762D01*
X152687995Y-111791767D01*
X152716095Y-111701247D01*
X152744596Y-111609905D01*
X152771408Y-111524442D01*
X152794438Y-111451560D01*
X152811595Y-111397960D01*
X152813517Y-111392046D01*
X152825652Y-111350008D01*
X152832592Y-111316667D01*
X152833222Y-111309096D01*
X152840201Y-111309811D01*
X152858912Y-111330436D01*
X152886022Y-111367020D01*
X152902125Y-111390728D01*
X152954593Y-111462481D01*
X153005061Y-111512638D01*
X153060444Y-111546381D01*
X153127658Y-111568891D01*
X153145387Y-111572996D01*
X153236829Y-111580754D01*
X153326702Y-111566396D01*
X153408715Y-111532277D01*
X153476579Y-111480750D01*
X153512227Y-111435696D01*
X153531948Y-111406785D01*
X153545208Y-111392830D01*
X153547204Y-111392733D01*
X153553446Y-111409945D01*
X153563370Y-111450200D01*
X153576042Y-111508699D01*
X153590529Y-111580644D01*
X153605900Y-111661235D01*
X153621220Y-111745673D01*
X153635556Y-111829159D01*
X153647977Y-111906894D01*
X153650727Y-111925233D01*
X153662849Y-112004871D01*
X153675063Y-112080811D01*
X153686134Y-112145644D01*
X153694827Y-112191960D01*
X153696621Y-112200400D01*
X153727941Y-112289379D01*
X153778968Y-112359683D01*
X153851228Y-112412785D01*
X153946246Y-112450160D01*
X153958407Y-112453440D01*
X153986792Y-112460264D01*
X154013942Y-112464880D01*
X154044070Y-112467138D01*
X154081392Y-112466891D01*
X154130121Y-112463991D01*
X154194472Y-112458290D01*
X154278659Y-112449639D01*
X154380342Y-112438609D01*
X154481984Y-112427514D01*
X154580788Y-112416818D01*
X154671140Y-112407121D01*
X154747424Y-112399024D01*
X154804026Y-112393130D01*
X154822889Y-112391226D01*
X154901741Y-112382029D01*
X154960144Y-112371135D01*
X155005866Y-112356388D01*
X155046678Y-112335631D01*
X155065177Y-112323976D01*
X155125906Y-112268480D01*
X155174036Y-112193635D01*
X155205938Y-112106850D01*
X155215967Y-112030815D01*
X154872278Y-112030815D01*
X154519500Y-112068167D01*
X154420914Y-112078663D01*
X154330100Y-112088443D01*
X154251322Y-112097037D01*
X154188844Y-112103979D01*
X154146928Y-112108800D01*
X154131445Y-112110758D01*
X154094958Y-112116286D01*
X154067975Y-112118036D01*
X154048355Y-112112458D01*
X154033955Y-112096000D01*
X154022633Y-112065111D01*
X154012246Y-112016240D01*
X154000651Y-111945835D01*
X153989730Y-111875844D01*
X153972975Y-111773736D01*
X153953054Y-111659586D01*
X153932148Y-111545508D01*
X153912442Y-111443615D01*
X153907090Y-111417233D01*
X153891636Y-111345208D01*
X153872288Y-111259824D01*
X153850083Y-111165208D01*
X153826059Y-111065490D01*
X153801254Y-110964799D01*
X153776707Y-110867263D01*
X153753454Y-110777012D01*
X153732534Y-110698175D01*
X153714986Y-110634879D01*
X153701846Y-110591255D01*
X153694678Y-110572279D01*
X153686002Y-110573522D01*
X153667367Y-110592385D01*
X153637853Y-110630117D01*
X153596541Y-110687967D01*
X153542514Y-110767184D01*
X153474853Y-110869016D01*
X153461539Y-110889259D01*
X153404158Y-110976453D01*
X153351570Y-111056051D01*
X153305829Y-111124967D01*
X153268991Y-111180115D01*
X153243112Y-111218409D01*
X153230248Y-111236762D01*
X153229446Y-111237739D01*
X153217887Y-111231436D01*
X153194904Y-111205724D01*
X153164171Y-111165038D01*
X153139245Y-111128869D01*
X153100269Y-111071365D01*
X153049121Y-110997441D01*
X152990294Y-110913454D01*
X152928278Y-110825761D01*
X152867565Y-110740722D01*
X152812647Y-110664693D01*
X152777236Y-110616428D01*
X152753459Y-110587539D01*
X152735771Y-110571636D01*
X152732720Y-110570567D01*
X152725925Y-110583511D01*
X152711701Y-110620262D01*
X152691068Y-110677699D01*
X152665045Y-110752701D01*
X152634651Y-110842145D01*
X152600903Y-110942912D01*
X152564822Y-111051879D01*
X152527426Y-111165925D01*
X152489733Y-111281929D01*
X152452764Y-111396769D01*
X152417535Y-111507325D01*
X152385067Y-111610474D01*
X152356377Y-111703096D01*
X152332486Y-111782069D01*
X152314411Y-111844271D01*
X152303176Y-111886561D01*
X152292260Y-111917672D01*
X152281209Y-111933327D01*
X152261997Y-111934257D01*
X152223675Y-111929218D01*
X152174462Y-111919300D01*
X152173411Y-111919056D01*
X152129678Y-111909100D01*
X152064468Y-111894515D01*
X151983886Y-111876654D01*
X151894038Y-111856871D01*
X151801026Y-111836517D01*
X151794548Y-111835105D01*
X151510818Y-111773251D01*
X151385326Y-111792837D01*
X151319282Y-111802979D01*
X151255124Y-111812552D01*
X151204261Y-111819860D01*
X151194048Y-111821258D01*
X151128263Y-111830092D01*
X151118205Y-111747135D01*
X151112851Y-111707111D01*
X151103943Y-111645153D01*
X151092364Y-111567196D01*
X151078996Y-111479177D01*
X151064721Y-111387034D01*
X151063926Y-111381956D01*
X151019705Y-111099733D01*
X150682125Y-111095944D01*
X150587066Y-111095362D01*
X150501367Y-111095761D01*
X150429075Y-111097047D01*
X150374235Y-111099126D01*
X150340891Y-111101904D01*
X150332622Y-111104079D01*
X150326411Y-111122052D01*
X150318337Y-111162145D01*
X150309449Y-111218405D01*
X150300869Y-111284257D01*
X150291405Y-111360493D01*
X150280478Y-111442000D01*
X150268864Y-111523689D01*
X150257338Y-111600468D01*
X150246676Y-111667248D01*
X150237655Y-111718939D01*
X150231049Y-111750450D01*
X150228778Y-111757254D01*
X150214257Y-111756319D01*
X150176712Y-111748816D01*
X150120314Y-111735721D01*
X150049235Y-111718012D01*
X149967646Y-111696664D01*
X149951539Y-111692341D01*
X149857249Y-111667414D01*
X149762094Y-111643100D01*
X149673251Y-111621174D01*
X149597898Y-111603411D01*
X149547123Y-111592363D01*
X149489397Y-111579180D01*
X149442965Y-111565663D01*
X149414263Y-111553836D01*
X149408321Y-111548673D01*
X149410554Y-111528340D01*
X149422634Y-111483204D01*
X149444062Y-111414717D01*
X149474338Y-111324332D01*
X149512962Y-111213504D01*
X149559436Y-111083684D01*
X149613260Y-110936328D01*
X149673935Y-110772887D01*
X149686284Y-110739900D01*
X149725597Y-110634555D01*
X149771818Y-110509921D01*
X149822276Y-110373254D01*
X149874297Y-110231811D01*
X149925208Y-110092848D01*
X149972334Y-109963620D01*
X149977403Y-109949678D01*
X150042226Y-109771242D01*
X150098088Y-109617487D01*
X150145714Y-109486584D01*
X150185828Y-109376707D01*
X150219157Y-109286027D01*
X150246426Y-109212717D01*
X150268359Y-109154949D01*
X150269443Y-109152192D01*
X149901903Y-109152192D01*
X149893707Y-109182955D01*
X149877311Y-109236377D01*
X149876597Y-109232060D01*
X149528191Y-109232060D01*
X149527031Y-109264980D01*
X149524296Y-109309742D01*
X149519873Y-109368152D01*
X149513653Y-109442021D01*
X149505525Y-109533156D01*
X149495378Y-109643366D01*
X149483104Y-109774460D01*
X149468590Y-109928246D01*
X149451726Y-110106533D01*
X149432556Y-110309511D01*
X149417045Y-110474169D01*
X149401681Y-110637589D01*
X149386779Y-110796387D01*
X149372657Y-110947179D01*
X149359631Y-111086580D01*
X149348016Y-111211206D01*
X149338130Y-111317672D01*
X149330288Y-111402594D01*
X149325080Y-111459567D01*
X149317167Y-111542536D01*
X149309439Y-111615630D01*
X149302441Y-111674272D01*
X149296719Y-111713885D01*
X149292857Y-111729852D01*
X149276786Y-111733085D01*
X149236814Y-111736824D01*
X149177251Y-111740793D01*
X149102407Y-111744714D01*
X149016593Y-111748311D01*
X148991702Y-111749205D01*
X148699127Y-111759328D01*
X148695369Y-111374300D01*
X148691611Y-110989273D01*
X148522278Y-110949814D01*
X148454550Y-110934481D01*
X148395011Y-110921831D01*
X148350057Y-110913168D01*
X148326086Y-110909796D01*
X148325983Y-110909794D01*
X148318218Y-110910597D01*
X148312202Y-110915381D01*
X148307803Y-110927163D01*
X148304886Y-110948963D01*
X148303319Y-110983801D01*
X148302967Y-111034694D01*
X148303697Y-111104662D01*
X148305375Y-111196723D01*
X148307868Y-111313897D01*
X148307947Y-111317490D01*
X148316871Y-111725746D01*
X148243186Y-111734931D01*
X148201405Y-111740185D01*
X148139428Y-111748037D01*
X148065052Y-111757498D01*
X147986075Y-111767576D01*
X147971945Y-111769383D01*
X147895850Y-111778797D01*
X147825719Y-111786895D01*
X147768337Y-111792933D01*
X147730491Y-111796166D01*
X147725000Y-111796445D01*
X147675611Y-111798239D01*
X147676763Y-111532309D01*
X147583889Y-111532309D01*
X147570246Y-111546034D01*
X147530094Y-111564797D01*
X147464596Y-111588096D01*
X147425139Y-111600547D01*
X147352623Y-111623186D01*
X147263327Y-111651751D01*
X147167174Y-111683032D01*
X147074086Y-111713819D01*
X147047667Y-111722671D01*
X146973877Y-111746758D01*
X146909615Y-111766353D01*
X146859522Y-111780149D01*
X146828242Y-111786843D01*
X146820066Y-111786649D01*
X146810472Y-111769047D01*
X146791522Y-111727793D01*
X146764291Y-111665461D01*
X146729854Y-111584623D01*
X146689285Y-111487854D01*
X146643659Y-111377724D01*
X146594050Y-111256808D01*
X146541532Y-111127677D01*
X146487181Y-110992906D01*
X146454907Y-110912333D01*
X146405512Y-110789696D01*
X146365189Y-110691914D01*
X146333205Y-110617376D01*
X146308827Y-110564471D01*
X146291324Y-110531591D01*
X146279963Y-110517123D01*
X146275160Y-110517221D01*
X146265157Y-110534240D01*
X146244402Y-110573053D01*
X146214694Y-110630175D01*
X146177829Y-110702120D01*
X146135606Y-110785404D01*
X146089821Y-110876542D01*
X146089350Y-110877483D01*
X146044122Y-110967525D01*
X146002971Y-111048697D01*
X145967576Y-111117748D01*
X145939617Y-111171425D01*
X145920772Y-111206477D01*
X145912722Y-111219651D01*
X145912639Y-111219678D01*
X145901916Y-111209797D01*
X145874520Y-111181941D01*
X145833011Y-111138788D01*
X145779952Y-111083016D01*
X145717901Y-111017304D01*
X145649589Y-110944511D01*
X145580907Y-110871491D01*
X145518391Y-110805753D01*
X145464652Y-110749985D01*
X145422299Y-110706870D01*
X145393941Y-110679095D01*
X145382208Y-110669344D01*
X145376020Y-110682386D01*
X145365533Y-110718325D01*
X145351978Y-110772385D01*
X145336589Y-110839791D01*
X145328491Y-110877483D01*
X145303495Y-110997035D01*
X145282477Y-111100155D01*
X145264683Y-111191737D01*
X145249361Y-111276674D01*
X145235757Y-111359860D01*
X145223116Y-111446187D01*
X145210686Y-111540549D01*
X145197713Y-111647840D01*
X145183443Y-111772952D01*
X145167123Y-111920779D01*
X145165430Y-111936258D01*
X145157389Y-112003486D01*
X145149294Y-112060277D01*
X145142059Y-112100852D01*
X145136599Y-112119434D01*
X145136370Y-112119703D01*
X145117767Y-112125582D01*
X145076425Y-112131579D01*
X145016819Y-112137494D01*
X144943422Y-112143131D01*
X144860709Y-112148290D01*
X144773153Y-112152775D01*
X144685229Y-112156386D01*
X144601412Y-112158926D01*
X144526174Y-112160198D01*
X144463992Y-112160002D01*
X144419338Y-112158142D01*
X144396686Y-112154419D01*
X144394778Y-112152518D01*
X144396411Y-112127716D01*
X144400976Y-112079358D01*
X144407974Y-112011899D01*
X144416903Y-111929796D01*
X144427263Y-111837506D01*
X144438553Y-111739484D01*
X144450274Y-111640186D01*
X144461924Y-111544070D01*
X144473003Y-111455590D01*
X144473396Y-111452511D01*
X144491093Y-111321837D01*
X144512765Y-111174049D01*
X144537386Y-111015307D01*
X144563928Y-110851772D01*
X144591364Y-110689601D01*
X144618665Y-110534956D01*
X144644804Y-110393996D01*
X144668753Y-110272881D01*
X144675865Y-110238956D01*
X144700218Y-110127406D01*
X144726649Y-110010920D01*
X144754318Y-109892799D01*
X144782385Y-109776340D01*
X144810010Y-109664844D01*
X144836354Y-109561611D01*
X144860577Y-109469939D01*
X144881837Y-109393128D01*
X144899297Y-109334479D01*
X144912115Y-109297290D01*
X144918687Y-109285045D01*
X144941032Y-109279415D01*
X144983706Y-109275089D01*
X145038825Y-109272769D01*
X145059360Y-109272560D01*
X145135471Y-109271318D01*
X145221921Y-109268251D01*
X145300937Y-109264001D01*
X145306305Y-109263636D01*
X145431945Y-109254929D01*
X145505328Y-109415331D01*
X145561886Y-109538166D01*
X145613258Y-109648172D01*
X145658424Y-109743256D01*
X145696362Y-109821323D01*
X145726053Y-109880279D01*
X145746477Y-109918031D01*
X145756613Y-109932483D01*
X145757273Y-109932442D01*
X145762832Y-109917786D01*
X145775278Y-109879723D01*
X145793474Y-109821904D01*
X145816283Y-109747979D01*
X145842568Y-109661598D01*
X145867980Y-109577142D01*
X145896340Y-109482836D01*
X145922153Y-109397814D01*
X145944296Y-109325705D01*
X145961647Y-109270143D01*
X145973084Y-109234757D01*
X145977384Y-109223170D01*
X145993417Y-109219712D01*
X146032368Y-109215261D01*
X146089121Y-109210148D01*
X146158560Y-109204704D01*
X146235568Y-109199257D01*
X146315028Y-109194139D01*
X146391825Y-109189678D01*
X146460841Y-109186205D01*
X146516960Y-109184050D01*
X146555065Y-109183543D01*
X146569993Y-109184954D01*
X146577469Y-109200112D01*
X146594009Y-109238035D01*
X146618181Y-109295290D01*
X146648550Y-109368445D01*
X146683683Y-109454068D01*
X146722145Y-109548727D01*
X146727357Y-109561622D01*
X146855241Y-109873322D01*
X146988929Y-110190038D01*
X147123868Y-110501138D01*
X147255509Y-110795985D01*
X147257894Y-110801241D01*
X147293055Y-110879008D01*
X147323835Y-110947686D01*
X147348457Y-111003261D01*
X147365145Y-111041719D01*
X147372121Y-111059047D01*
X147372222Y-111059542D01*
X147377973Y-111073771D01*
X147393924Y-111109243D01*
X147418129Y-111161726D01*
X147448638Y-111226989D01*
X147478056Y-111289319D01*
X147512565Y-111363216D01*
X147542364Y-111429090D01*
X147565472Y-111482392D01*
X147579910Y-111518577D01*
X147583889Y-111532309D01*
X147676763Y-111532309D01*
X147678104Y-111223208D01*
X147679101Y-111080584D01*
X147680824Y-110931490D01*
X147683159Y-110781802D01*
X147685992Y-110637397D01*
X147689209Y-110504151D01*
X147692695Y-110387940D01*
X147695984Y-110302456D01*
X147703541Y-110138383D01*
X147711362Y-109979245D01*
X147719292Y-109827471D01*
X147727179Y-109685492D01*
X147734871Y-109555739D01*
X147742215Y-109440644D01*
X147749060Y-109342636D01*
X147755251Y-109264146D01*
X147758061Y-109234644D01*
X147412682Y-109234644D01*
X147409475Y-109271365D01*
X147409261Y-109273079D01*
X147406362Y-109305133D01*
X147402561Y-109360446D01*
X147398145Y-109434084D01*
X147393404Y-109521108D01*
X147388624Y-109616582D01*
X147386241Y-109667456D01*
X147381527Y-109766489D01*
X147376696Y-109860670D01*
X147372042Y-109944794D01*
X147367860Y-110013659D01*
X147364442Y-110062062D01*
X147363144Y-110076654D01*
X147355205Y-110154242D01*
X147321997Y-110090765D01*
X147299888Y-110045605D01*
X147272945Y-109986468D01*
X147246739Y-109925612D01*
X147245015Y-109921456D01*
X147216985Y-109853763D01*
X147184867Y-109776313D01*
X147155419Y-109705401D01*
X147154309Y-109702733D01*
X147114559Y-109605600D01*
X147066126Y-109484616D01*
X147010065Y-109342421D01*
X146995750Y-109305834D01*
X147005388Y-109296172D01*
X147042621Y-109287942D01*
X147107736Y-109281082D01*
X147113852Y-109280613D01*
X147206905Y-109271509D01*
X147287162Y-109259478D01*
X147349970Y-109245425D01*
X147390678Y-109230252D01*
X147398200Y-109225370D01*
X147409279Y-109220846D01*
X147412682Y-109234644D01*
X147758061Y-109234644D01*
X147760638Y-109207606D01*
X147765066Y-109175447D01*
X147767103Y-109168957D01*
X147785204Y-109162798D01*
X147827225Y-109154861D01*
X147888961Y-109145691D01*
X147966208Y-109135832D01*
X148054759Y-109125828D01*
X148150410Y-109116225D01*
X148227725Y-109109322D01*
X148342395Y-109099672D01*
X148348224Y-109580497D01*
X148349836Y-109694241D01*
X148351765Y-109798867D01*
X148353916Y-109891065D01*
X148356194Y-109967523D01*
X148358502Y-110024930D01*
X148360745Y-110059975D01*
X148362367Y-110069637D01*
X148378760Y-110075036D01*
X148416763Y-110083460D01*
X148470218Y-110093863D01*
X148532968Y-110105195D01*
X148598858Y-110116411D01*
X148661730Y-110126461D01*
X148715428Y-110134299D01*
X148753795Y-110138876D01*
X148770674Y-110139145D01*
X148770715Y-110139122D01*
X148773556Y-110124163D01*
X148776890Y-110084987D01*
X148780492Y-110025590D01*
X148784137Y-109949967D01*
X148787600Y-109862114D01*
X148789489Y-109805464D01*
X148793830Y-109674374D01*
X148798519Y-109547646D01*
X148803402Y-109428341D01*
X148808327Y-109319523D01*
X148813141Y-109224255D01*
X148817690Y-109145599D01*
X148821823Y-109086617D01*
X148825387Y-109050373D01*
X148827689Y-109039840D01*
X148841983Y-109041487D01*
X148879477Y-109048296D01*
X148935811Y-109059354D01*
X149006625Y-109073746D01*
X149087560Y-109090557D01*
X149174256Y-109108871D01*
X149262352Y-109127775D01*
X149347489Y-109146352D01*
X149425307Y-109163689D01*
X149491446Y-109178870D01*
X149501438Y-109181223D01*
X149508222Y-109181902D01*
X149514204Y-109181761D01*
X149519271Y-109182609D01*
X149523314Y-109186254D01*
X149526221Y-109194505D01*
X149527884Y-109209171D01*
X149528191Y-109232060D01*
X149876597Y-109232060D01*
X149868032Y-109180277D01*
X149863307Y-109143804D01*
X149862859Y-109121384D01*
X149863713Y-109118907D01*
X149879178Y-109118496D01*
X149889387Y-109121585D01*
X149901627Y-109131389D01*
X149901903Y-109152192D01*
X150269443Y-109152192D01*
X150285682Y-109110897D01*
X150299121Y-109078731D01*
X150309399Y-109056626D01*
X150317244Y-109042752D01*
X150323379Y-109035283D01*
X150328530Y-109032392D01*
X150333423Y-109032249D01*
X150338782Y-109033029D01*
X150341089Y-109033187D01*
X150368817Y-109035252D01*
X150416513Y-109040213D01*
X150478951Y-109047397D01*
X150550902Y-109056131D01*
X150627139Y-109065743D01*
X150702436Y-109075562D01*
X150771565Y-109084914D01*
X150829299Y-109093128D01*
X150870410Y-109099530D01*
X150889672Y-109103449D01*
X150890420Y-109103844D01*
X150894869Y-109111864D01*
X150905162Y-109132746D01*
X150922033Y-109168058D01*
X150946215Y-109219369D01*
X150978443Y-109288247D01*
X151019450Y-109376260D01*
X151069969Y-109484977D01*
X151130735Y-109615968D01*
X151202480Y-109770799D01*
X151213437Y-109794456D01*
X151269203Y-109916155D01*
X151328051Y-110046900D01*
X151388231Y-110182620D01*
X151447993Y-110319243D01*
X151505584Y-110452697D01*
X151559256Y-110578910D01*
X151607255Y-110693810D01*
X151647833Y-110793327D01*
X151679238Y-110873387D01*
X151691263Y-110905706D01*
X151712000Y-110961017D01*
X151729760Y-111004707D01*
X151742147Y-111031078D01*
X151746137Y-111036233D01*
X151753416Y-111022912D01*
X151766204Y-110984741D01*
X151783840Y-110924411D01*
X151805665Y-110844613D01*
X151831019Y-110748038D01*
X151859242Y-110637375D01*
X151889674Y-110515316D01*
X151921656Y-110384552D01*
X151954528Y-110247772D01*
X151987629Y-110107667D01*
X152020301Y-109966928D01*
X152051882Y-109828246D01*
X152081715Y-109694311D01*
X152109138Y-109567813D01*
X152126780Y-109484011D01*
X152146884Y-109387232D01*
X152165437Y-109298167D01*
X152181560Y-109221010D01*
X152190300Y-109179371D01*
X151845445Y-109179371D01*
X151842404Y-109200790D01*
X151834189Y-109242954D01*
X151822164Y-109299153D01*
X151811765Y-109345177D01*
X151796470Y-109413696D01*
X151782737Y-109479269D01*
X151772499Y-109532476D01*
X151768834Y-109554567D01*
X151760913Y-109599905D01*
X151748996Y-109657196D01*
X151734400Y-109721268D01*
X151718444Y-109786946D01*
X151702446Y-109849058D01*
X151687724Y-109902432D01*
X151675596Y-109941893D01*
X151667380Y-109962268D01*
X151664787Y-109962915D01*
X151656728Y-109941803D01*
X151640001Y-109901648D01*
X151617442Y-109849178D01*
X151602744Y-109815622D01*
X151569232Y-109741012D01*
X151530430Y-109656686D01*
X151493529Y-109578238D01*
X151485565Y-109561622D01*
X151451052Y-109489401D01*
X151411492Y-109405756D01*
X151373603Y-109324913D01*
X151360647Y-109297039D01*
X151296901Y-109159456D01*
X151571173Y-109159456D01*
X151667817Y-109159768D01*
X151739603Y-109160868D01*
X151789889Y-109162999D01*
X151822033Y-109166405D01*
X151839394Y-109171331D01*
X151845330Y-109178019D01*
X151845445Y-109179371D01*
X152190300Y-109179371D01*
X152194375Y-109159959D01*
X152203005Y-109119208D01*
X152206197Y-109104507D01*
X152211394Y-109087609D01*
X152221560Y-109078161D01*
X152242963Y-109074798D01*
X152281870Y-109076150D01*
X152322473Y-109079140D01*
X152382964Y-109084196D01*
X152460151Y-109091171D01*
X152542664Y-109099019D01*
X152597898Y-109104511D01*
X152764739Y-109121466D01*
X152956467Y-109503822D01*
X153148196Y-109886178D01*
X153167129Y-109815622D01*
X153176463Y-109780480D01*
X153191512Y-109723401D01*
X153210863Y-109649755D01*
X153233107Y-109564914D01*
X153256833Y-109474248D01*
X153261658Y-109455789D01*
X153337253Y-109166511D01*
X153427432Y-109170741D01*
X153492214Y-109174629D01*
X153567626Y-109180504D01*
X153648589Y-109187815D01*
X153730022Y-109196006D01*
X153806847Y-109204526D01*
X153873983Y-109212821D01*
X153926352Y-109220338D01*
X153958872Y-109226523D01*
X153966888Y-109229492D01*
X153976832Y-109246658D01*
X153995999Y-109286447D01*
X154022899Y-109345372D01*
X154056039Y-109419948D01*
X154093929Y-109506688D01*
X154135077Y-109602106D01*
X154177992Y-109702715D01*
X154221182Y-109805029D01*
X154263156Y-109905562D01*
X154302422Y-110000828D01*
X154337491Y-110087341D01*
X154366869Y-110161613D01*
X154377933Y-110190372D01*
X154504546Y-110542398D01*
X154615020Y-110891696D01*
X154713340Y-111251162D01*
X154744241Y-111376052D01*
X154765212Y-111465671D01*
X154786850Y-111562929D01*
X154808052Y-111662369D01*
X154827711Y-111758532D01*
X154844724Y-111845963D01*
X154857985Y-111919205D01*
X154866390Y-111972802D01*
X154868252Y-111988608D01*
X154872278Y-112030815D01*
X155215967Y-112030815D01*
X155217983Y-112015535D01*
X155218000Y-112012036D01*
X155214607Y-111972161D01*
X155204980Y-111908767D01*
X155189952Y-111825661D01*
X155170354Y-111726649D01*
X155147017Y-111615538D01*
X155120773Y-111496132D01*
X155092452Y-111372237D01*
X155062886Y-111247661D01*
X155032907Y-111126208D01*
X155003345Y-111011685D01*
X154983284Y-110937456D01*
X154960410Y-110857533D01*
X154932286Y-110763801D01*
X154900261Y-110660352D01*
X154865685Y-110551284D01*
X154829910Y-110440692D01*
X154794284Y-110332670D01*
X154760159Y-110231315D01*
X154728884Y-110140721D01*
X154701810Y-110064985D01*
X154680286Y-110008201D01*
X154666036Y-109975196D01*
X154649491Y-109939642D01*
X154626361Y-109886300D01*
X154600289Y-109823688D01*
X154584543Y-109784696D01*
X154526751Y-109641621D01*
X154475216Y-109517971D01*
X154431076Y-109416440D01*
X154405866Y-109361413D01*
X154387117Y-109320290D01*
X154374576Y-109290152D01*
X154371334Y-109279685D01*
X154365757Y-109263640D01*
X154351037Y-109229152D01*
X154330190Y-109183245D01*
X154327047Y-109176506D01*
X154297387Y-109102227D01*
X154282198Y-109031858D01*
X154278167Y-108983067D01*
X154273712Y-108921345D01*
X154266766Y-108860554D01*
X154260156Y-108820789D01*
X154250985Y-108773918D01*
X154239946Y-108712596D01*
X154229653Y-108651456D01*
X154219938Y-108596075D01*
X154205956Y-108522542D01*
X154189544Y-108440260D01*
X154172537Y-108358631D01*
X154171787Y-108355122D01*
X154147271Y-108241239D01*
X154128255Y-108152133D01*
X154114818Y-108084885D01*
X154107039Y-108036574D01*
X154104997Y-108004282D01*
X154108770Y-107985089D01*
X154118438Y-107976074D01*
X154134079Y-107974319D01*
X154155773Y-107976904D01*
X154181908Y-107980701D01*
X154288547Y-107982312D01*
X154382911Y-107960113D01*
X154462756Y-107915554D01*
X154525837Y-107850083D01*
X154569913Y-107765149D01*
X154582708Y-107721979D01*
X154591226Y-107675763D01*
X154594532Y-107626458D01*
X154593866Y-107610601D01*
X154256504Y-107610601D01*
X154256437Y-107625049D01*
X154254509Y-107629984D01*
X154238943Y-107631170D01*
X154199541Y-107630429D01*
X154140607Y-107627952D01*
X154066448Y-107623925D01*
X153981370Y-107618538D01*
X153960162Y-107617088D01*
X153872994Y-107611296D01*
X153795603Y-107606628D01*
X153732330Y-107603307D01*
X153687514Y-107601556D01*
X153665497Y-107601598D01*
X153664107Y-107601888D01*
X153663898Y-107616570D01*
X153669722Y-107653133D01*
X153680561Y-107706130D01*
X153695397Y-107770114D01*
X153696035Y-107772724D01*
X153717035Y-107861588D01*
X153741431Y-107969843D01*
X153768013Y-108091668D01*
X153795573Y-108221244D01*
X153822902Y-108352750D01*
X153848791Y-108480366D01*
X153872033Y-108598272D01*
X153891417Y-108700648D01*
X153905735Y-108781675D01*
X153906370Y-108785511D01*
X153917869Y-108854329D01*
X153928346Y-108915368D01*
X153936621Y-108961858D01*
X153941415Y-108986594D01*
X153942954Y-109010983D01*
X153937686Y-109018209D01*
X153920305Y-109016707D01*
X153880481Y-109012698D01*
X153823824Y-109006762D01*
X153755945Y-108999477D01*
X153743389Y-108998114D01*
X153664781Y-108990216D01*
X153567700Y-108981461D01*
X153461848Y-108972668D01*
X153356923Y-108964657D01*
X153300643Y-108960714D01*
X153041341Y-108943273D01*
X153050694Y-108857336D01*
X153054474Y-108811240D01*
X153058591Y-108741319D01*
X153058682Y-108739427D01*
X152452389Y-108739427D01*
X152452222Y-108806231D01*
X152060639Y-108810215D01*
X151931376Y-108811513D01*
X151786920Y-108812936D01*
X151637015Y-108814389D01*
X151491401Y-108815778D01*
X151359823Y-108817010D01*
X151307116Y-108817494D01*
X150945175Y-108820789D01*
X150936471Y-108647928D01*
X150928968Y-108493342D01*
X150922694Y-108352516D01*
X150917711Y-108227544D01*
X150914085Y-108120521D01*
X150911879Y-108033540D01*
X150911227Y-107974905D01*
X150880609Y-107974905D01*
X150660999Y-108232556D01*
X150573901Y-108334280D01*
X150489044Y-108432521D01*
X150408420Y-108525040D01*
X150334025Y-108609595D01*
X150267852Y-108683948D01*
X150211894Y-108745860D01*
X150168146Y-108793091D01*
X150138600Y-108823402D01*
X150125250Y-108834552D01*
X150125061Y-108834568D01*
X150110192Y-108830240D01*
X150071634Y-108818088D01*
X150012504Y-108799119D01*
X149935918Y-108774342D01*
X149844991Y-108744764D01*
X149742841Y-108711392D01*
X149651167Y-108681337D01*
X149185500Y-108528439D01*
X149161209Y-108325364D01*
X149149183Y-108219355D01*
X149135838Y-108092285D01*
X149121860Y-107951240D01*
X149107936Y-107803310D01*
X149094751Y-107655583D01*
X149084001Y-107527641D01*
X149075827Y-107426881D01*
X149224453Y-107188974D01*
X149281239Y-107097721D01*
X149343200Y-106997559D01*
X149404850Y-106897392D01*
X149460702Y-106806129D01*
X149492685Y-106753511D01*
X149555403Y-106649919D01*
X149083082Y-106649919D01*
X149074450Y-106708771D01*
X149069335Y-106748220D01*
X149062597Y-106806470D01*
X149055287Y-106874228D01*
X149051043Y-106915789D01*
X149044702Y-106977124D01*
X149035893Y-107059187D01*
X149025418Y-107154673D01*
X149014079Y-107256278D01*
X149002676Y-107356697D01*
X149002264Y-107360289D01*
X148975855Y-107593222D01*
X148952945Y-107801433D01*
X148933200Y-107988160D01*
X148916287Y-108156639D01*
X148901872Y-108310110D01*
X148889620Y-108451810D01*
X148889448Y-108453900D01*
X148882020Y-108542531D01*
X148874721Y-108626667D01*
X148868102Y-108700165D01*
X148862716Y-108756886D01*
X148859521Y-108787293D01*
X148851074Y-108859630D01*
X148583486Y-108869899D01*
X148499531Y-108872751D01*
X148425613Y-108874557D01*
X148366218Y-108875265D01*
X148325833Y-108874824D01*
X148308944Y-108873182D01*
X148308803Y-108873074D01*
X148309000Y-108857658D01*
X148313669Y-108818766D01*
X148322176Y-108760678D01*
X148333886Y-108687673D01*
X148348167Y-108604033D01*
X148351293Y-108586304D01*
X148369443Y-108481762D01*
X148382175Y-108402752D01*
X148389684Y-108347146D01*
X148392165Y-108312819D01*
X148389813Y-108297643D01*
X148382823Y-108299492D01*
X148376872Y-108307298D01*
X148365109Y-108321256D01*
X148336828Y-108353203D01*
X148294573Y-108400316D01*
X148240886Y-108459772D01*
X148178310Y-108528746D01*
X148109388Y-108604415D01*
X148102497Y-108611965D01*
X147837939Y-108901774D01*
X147595319Y-108776261D01*
X147519897Y-108737099D01*
X147453403Y-108702299D01*
X147399783Y-108673949D01*
X147362987Y-108654138D01*
X147346961Y-108644954D01*
X147346662Y-108644710D01*
X147353867Y-108632901D01*
X147377332Y-108602948D01*
X147414584Y-108557816D01*
X147463148Y-108500471D01*
X147520553Y-108433876D01*
X147564562Y-108383468D01*
X147627153Y-108311454D01*
X147683000Y-108245889D01*
X147729530Y-108189901D01*
X147764172Y-108146618D01*
X147784351Y-108119168D01*
X147788500Y-108111165D01*
X147781361Y-108093450D01*
X147761804Y-108056893D01*
X147732615Y-108006429D01*
X147696583Y-107946990D01*
X147687134Y-107931789D01*
X147585767Y-107769511D01*
X147621153Y-107536678D01*
X147634741Y-107446895D01*
X147648451Y-107355666D01*
X147661011Y-107271484D01*
X147671153Y-107202840D01*
X147674625Y-107179037D01*
X147692711Y-107054229D01*
X147924050Y-106821324D01*
X147995085Y-106749807D01*
X147549286Y-106749807D01*
X147548138Y-106764255D01*
X147542576Y-106801077D01*
X147533472Y-106854924D01*
X147521698Y-106920448D01*
X147519950Y-106929900D01*
X147494502Y-107072207D01*
X147466616Y-107237162D01*
X147437100Y-107419378D01*
X147406762Y-107613466D01*
X147376408Y-107814040D01*
X147346845Y-108015711D01*
X147318881Y-108213094D01*
X147293324Y-108400799D01*
X147270979Y-108573441D01*
X147258846Y-108672622D01*
X147249024Y-108753815D01*
X147240143Y-108824664D01*
X147232793Y-108880678D01*
X147227561Y-108917365D01*
X147225103Y-108930212D01*
X147209831Y-108932865D01*
X147171796Y-108936346D01*
X147116361Y-108940371D01*
X147048887Y-108944651D01*
X146974738Y-108948901D01*
X146899276Y-108952834D01*
X146827862Y-108956165D01*
X146765860Y-108958605D01*
X146718632Y-108959870D01*
X146691540Y-108959672D01*
X146687228Y-108958943D01*
X146687809Y-108943608D01*
X146693537Y-108904927D01*
X146703661Y-108847150D01*
X146717426Y-108774530D01*
X146734081Y-108691318D01*
X146737810Y-108673210D01*
X146755077Y-108588577D01*
X146769840Y-108513907D01*
X146781309Y-108453393D01*
X146788696Y-108411223D01*
X146791210Y-108391589D01*
X146791042Y-108390719D01*
X146780788Y-108399735D01*
X146753925Y-108427100D01*
X146712834Y-108470286D01*
X146659896Y-108526762D01*
X146597490Y-108594001D01*
X146527998Y-108669474D01*
X146504389Y-108695239D01*
X146433091Y-108773020D01*
X146368164Y-108843620D01*
X146311987Y-108904470D01*
X146266938Y-108953003D01*
X146235398Y-108986650D01*
X146219746Y-109002841D01*
X146218482Y-109003916D01*
X146205331Y-108998005D01*
X146170914Y-108981363D01*
X146119183Y-108955931D01*
X146054089Y-108923653D01*
X145979581Y-108886471D01*
X145975066Y-108884210D01*
X145900257Y-108846164D01*
X145834982Y-108811832D01*
X145783142Y-108783360D01*
X145748637Y-108762894D01*
X145735370Y-108752579D01*
X145735333Y-108752355D01*
X145744484Y-108738929D01*
X145770084Y-108708023D01*
X145809356Y-108662814D01*
X145859523Y-108606483D01*
X145917807Y-108542208D01*
X145941771Y-108516073D01*
X146004350Y-108448015D01*
X146061889Y-108385402D01*
X146111133Y-108331781D01*
X146148825Y-108290697D01*
X146171710Y-108265697D01*
X146175383Y-108261662D01*
X146186015Y-108248794D01*
X146190652Y-108235917D01*
X146187518Y-108218500D01*
X146174837Y-108192013D01*
X146150832Y-108151923D01*
X146113727Y-108093700D01*
X146103000Y-108077031D01*
X146065613Y-108017283D01*
X146034631Y-107964607D01*
X146012987Y-107924222D01*
X146003611Y-107901350D01*
X146003445Y-107899780D01*
X146006029Y-107879982D01*
X146013282Y-107836658D01*
X146024452Y-107773980D01*
X146038785Y-107696119D01*
X146055531Y-107607245D01*
X146066545Y-107549742D01*
X146091063Y-107426550D01*
X146111975Y-107330338D01*
X146129525Y-107260126D01*
X146143955Y-107214935D01*
X146154581Y-107194729D01*
X146172249Y-107177057D01*
X146207173Y-107143631D01*
X146255819Y-107097780D01*
X146314651Y-107042831D01*
X146380132Y-106982114D01*
X146396070Y-106967399D01*
X146468882Y-106900469D01*
X146524616Y-106850252D01*
X146525470Y-106849522D01*
X146012437Y-106849522D01*
X146011487Y-106864360D01*
X146005729Y-106902710D01*
X145995881Y-106960407D01*
X145982661Y-107033288D01*
X145966788Y-107117188D01*
X145961808Y-107142898D01*
X145917396Y-107379895D01*
X145874190Y-107627525D01*
X145833123Y-107879598D01*
X145795132Y-108129923D01*
X145761151Y-108372308D01*
X145732115Y-108600563D01*
X145708959Y-108808497D01*
X145706312Y-108834900D01*
X145699474Y-108899879D01*
X145692963Y-108954266D01*
X145687548Y-108992067D01*
X145684193Y-109007050D01*
X145667828Y-109011486D01*
X145633162Y-109011578D01*
X145611468Y-109009826D01*
X145576995Y-109006787D01*
X145519839Y-109002462D01*
X145445488Y-108997235D01*
X145359431Y-108991490D01*
X145267157Y-108985611D01*
X145252035Y-108984675D01*
X145163973Y-108978870D01*
X145085678Y-108972997D01*
X145021453Y-108967437D01*
X144975600Y-108962571D01*
X144952423Y-108958780D01*
X144950584Y-108957965D01*
X144950020Y-108940395D01*
X144956900Y-108898584D01*
X144970512Y-108835312D01*
X144990144Y-108753354D01*
X145015083Y-108655489D01*
X145044616Y-108544494D01*
X145078030Y-108423148D01*
X145114613Y-108294227D01*
X145153652Y-108160509D01*
X145165015Y-108122289D01*
X145186563Y-108051710D01*
X145214381Y-107963059D01*
X145247124Y-107860415D01*
X145283446Y-107747859D01*
X145322002Y-107629472D01*
X145361448Y-107509332D01*
X145400438Y-107391522D01*
X145437627Y-107280121D01*
X145471670Y-107179209D01*
X145501222Y-107092866D01*
X145524937Y-107025174D01*
X145541472Y-106980211D01*
X145541728Y-106979552D01*
X145560870Y-106933328D01*
X145577170Y-106906920D01*
X145597072Y-106893493D01*
X145627018Y-106886211D01*
X145630245Y-106885655D01*
X145672802Y-106879409D01*
X145729185Y-106872512D01*
X145793222Y-106865546D01*
X145858744Y-106859095D01*
X145919581Y-106853742D01*
X145969561Y-106850071D01*
X146002515Y-106848664D01*
X146012437Y-106849522D01*
X146525470Y-106849522D01*
X146566812Y-106814188D01*
X146599010Y-106789720D01*
X146624753Y-106774290D01*
X146647579Y-106765339D01*
X146671031Y-106760309D01*
X146685506Y-106758284D01*
X146713737Y-106756269D01*
X146763768Y-106754332D01*
X146831391Y-106752515D01*
X146912396Y-106750859D01*
X147002577Y-106749406D01*
X147097724Y-106748197D01*
X147193628Y-106747272D01*
X147286082Y-106746674D01*
X147370877Y-106746444D01*
X147443804Y-106746623D01*
X147500655Y-106747252D01*
X147537221Y-106748372D01*
X147549286Y-106749807D01*
X147995085Y-106749807D01*
X148155389Y-106588418D01*
X148360000Y-106597018D01*
X148456741Y-106601607D01*
X148563019Y-106607532D01*
X148672596Y-106614365D01*
X148779234Y-106621677D01*
X148876694Y-106629039D01*
X148958739Y-106636023D01*
X149019131Y-106642200D01*
X149021402Y-106642471D01*
X149083082Y-106649919D01*
X149555403Y-106649919D01*
X149612292Y-106555956D01*
X149744618Y-106546952D01*
X149814772Y-106543110D01*
X149900915Y-106539766D01*
X149990815Y-106537341D01*
X150054061Y-106536368D01*
X150231177Y-106534789D01*
X150357450Y-106651458D01*
X150422953Y-106711160D01*
X150499005Y-106779218D01*
X150574569Y-106845805D01*
X150620308Y-106885460D01*
X150756893Y-107002791D01*
X150766312Y-107096873D01*
X150770705Y-107135999D01*
X150778287Y-107198330D01*
X150788451Y-107279106D01*
X150800592Y-107373568D01*
X150814104Y-107476956D01*
X150828171Y-107582930D01*
X150880609Y-107974905D01*
X150911227Y-107974905D01*
X150911157Y-107968696D01*
X150911984Y-107928083D01*
X150914050Y-107914040D01*
X150931203Y-107911625D01*
X150967610Y-107915679D01*
X151013704Y-107924954D01*
X151143667Y-107955719D01*
X151248262Y-107980182D01*
X151329523Y-107998791D01*
X151389486Y-108011994D01*
X151430184Y-108020240D01*
X151453652Y-108023978D01*
X151461841Y-108023763D01*
X151457224Y-108009197D01*
X151436631Y-107974799D01*
X151401607Y-107922864D01*
X151353699Y-107855684D01*
X151295212Y-107776567D01*
X151260479Y-107729126D01*
X151214471Y-107664657D01*
X151161679Y-107589537D01*
X151106593Y-107510144D01*
X151066715Y-107451988D01*
X150917590Y-107233243D01*
X150900480Y-106939368D01*
X150895607Y-106851432D01*
X150891759Y-106773513D01*
X150889107Y-106709835D01*
X150887821Y-106664621D01*
X150888069Y-106642096D01*
X150888464Y-106640399D01*
X150903727Y-106638376D01*
X150943747Y-106635853D01*
X151005093Y-106632928D01*
X151084336Y-106629698D01*
X151178044Y-106626263D01*
X151282787Y-106622718D01*
X151395135Y-106619163D01*
X151511657Y-106615694D01*
X151628923Y-106612410D01*
X151743502Y-106609408D01*
X151851963Y-106606786D01*
X151950877Y-106604643D01*
X152036812Y-106603074D01*
X152106338Y-106602180D01*
X152156025Y-106602056D01*
X152182442Y-106602801D01*
X152185807Y-106603427D01*
X152190983Y-106619330D01*
X152200577Y-106658825D01*
X152213684Y-106717790D01*
X152229399Y-106792102D01*
X152246817Y-106877637D01*
X152254396Y-106915789D01*
X152273563Y-107012791D01*
X152292403Y-107107826D01*
X152309703Y-107194792D01*
X152324249Y-107267591D01*
X152334826Y-107320122D01*
X152336479Y-107328251D01*
X152346194Y-107380170D01*
X152352079Y-107420398D01*
X152353150Y-107441871D01*
X152352556Y-107443475D01*
X152336762Y-107444091D01*
X152300219Y-107440301D01*
X152249918Y-107432890D01*
X152233500Y-107430131D01*
X152156089Y-107417675D01*
X152075336Y-107406240D01*
X151996168Y-107396343D01*
X151923506Y-107388499D01*
X151862275Y-107383223D01*
X151817399Y-107381031D01*
X151793801Y-107382440D01*
X151791492Y-107383848D01*
X151798552Y-107397656D01*
X151820911Y-107429757D01*
X151855942Y-107476646D01*
X151901019Y-107534818D01*
X151953514Y-107600768D01*
X151961240Y-107610341D01*
X152028471Y-107693975D01*
X152101978Y-107786202D01*
X152175144Y-107878674D01*
X152241355Y-107963041D01*
X152277392Y-108009400D01*
X152419233Y-108192844D01*
X152435894Y-108432733D01*
X152441511Y-108517695D01*
X152446299Y-108597924D01*
X152449913Y-108667000D01*
X152452006Y-108718502D01*
X152452389Y-108739427D01*
X153058682Y-108739427D01*
X153062900Y-108651968D01*
X153067255Y-108547579D01*
X153071511Y-108432546D01*
X153075520Y-108311264D01*
X153079138Y-108188124D01*
X153082218Y-108067522D01*
X153083574Y-108003177D01*
X152748556Y-108003177D01*
X152746110Y-108045682D01*
X152739312Y-108065565D01*
X152734445Y-108065844D01*
X152720624Y-108045150D01*
X152720020Y-108040317D01*
X152711702Y-108018103D01*
X152692140Y-107988270D01*
X152692111Y-107988233D01*
X152669692Y-107955719D01*
X152668430Y-107938573D01*
X152689454Y-107932282D01*
X152706222Y-107931789D01*
X152731176Y-107933299D01*
X152743687Y-107942657D01*
X152748049Y-107967099D01*
X152748556Y-108003177D01*
X153083574Y-108003177D01*
X153084615Y-107953851D01*
X153086181Y-107851503D01*
X153086763Y-107771798D01*
X153087222Y-107534197D01*
X153034306Y-107542583D01*
X153004063Y-107546619D01*
X152951772Y-107552836D01*
X152883463Y-107560575D01*
X152805166Y-107569178D01*
X152722912Y-107577989D01*
X152642732Y-107586348D01*
X152570656Y-107593597D01*
X152536889Y-107596851D01*
X152501611Y-107600178D01*
X152485157Y-107402622D01*
X152477826Y-107319403D01*
X152469747Y-107235506D01*
X152461860Y-107160270D01*
X152455105Y-107103030D01*
X152454605Y-107099233D01*
X152447349Y-107036882D01*
X152439809Y-106959207D01*
X152433190Y-106879066D01*
X152430765Y-106844587D01*
X152421022Y-106695774D01*
X152835261Y-106735233D01*
X152926504Y-106744401D01*
X153031762Y-106755781D01*
X153147464Y-106768916D01*
X153270038Y-106783351D01*
X153395911Y-106798629D01*
X153521513Y-106814294D01*
X153643271Y-106829890D01*
X153757615Y-106844960D01*
X153860971Y-106859050D01*
X153949769Y-106871702D01*
X154020436Y-106882461D01*
X154069401Y-106890870D01*
X154090163Y-106895484D01*
X154099937Y-106905881D01*
X154111469Y-106933339D01*
X154125453Y-106980299D01*
X154142584Y-107049201D01*
X154163555Y-107142486D01*
X154173263Y-107187593D01*
X154199540Y-107311447D01*
X154220203Y-107410410D01*
X154235742Y-107487144D01*
X154246646Y-107544312D01*
X154253404Y-107584577D01*
X154256504Y-107610601D01*
X154593866Y-107610601D01*
X154592151Y-107569783D01*
X154583606Y-107501456D01*
X154568423Y-107417197D01*
X154546125Y-107312725D01*
X154528866Y-107237414D01*
X154508190Y-107148213D01*
X154487786Y-107059184D01*
X154469355Y-106977827D01*
X154454602Y-106911644D01*
X154447883Y-106880744D01*
X154416102Y-106774793D01*
X154370263Y-106692373D01*
X154308809Y-106631708D01*
X154230178Y-106591025D01*
X154180833Y-106576920D01*
X154108731Y-106562033D01*
X154015727Y-106544618D01*
X153908897Y-106525850D01*
X153795320Y-106506903D01*
X153682071Y-106488951D01*
X153576227Y-106473169D01*
X153484866Y-106460731D01*
X153468222Y-106458659D01*
X153324730Y-106441248D01*
X153206276Y-106427102D01*
X153109905Y-106415909D01*
X153032663Y-106407358D01*
X152971592Y-106401138D01*
X152923738Y-106396939D01*
X152886144Y-106394448D01*
X152855855Y-106393356D01*
X152846733Y-106393248D01*
X152788106Y-106390708D01*
X152716707Y-106384278D01*
X152638680Y-106374898D01*
X152560166Y-106363510D01*
X152487311Y-106351052D01*
X152426256Y-106338468D01*
X152383146Y-106326697D01*
X152367556Y-106319863D01*
X152312400Y-106292090D01*
X152243398Y-106272518D01*
X152157109Y-106260669D01*
X152050093Y-106256065D01*
X151923056Y-106258075D01*
X151708506Y-106265707D01*
X151522063Y-106272036D01*
X151363644Y-106277063D01*
X151233164Y-106280791D01*
X151130538Y-106283222D01*
X151055682Y-106284358D01*
X151008512Y-106284203D01*
X150998778Y-106283857D01*
X150922613Y-106287027D01*
X150841434Y-106302158D01*
X150763059Y-106326675D01*
X150695304Y-106358006D01*
X150645986Y-106393577D01*
X150637473Y-106402806D01*
X150626012Y-106408133D01*
X150606809Y-106401092D01*
X150576036Y-106379355D01*
X150529864Y-106340590D01*
X150517529Y-106329781D01*
X150466786Y-106287861D01*
X150417781Y-106252106D01*
X150378005Y-106227791D01*
X150363778Y-106221524D01*
X150330227Y-106215227D01*
X150273559Y-106209831D01*
X150198863Y-106205402D01*
X150111232Y-106202006D01*
X150015758Y-106199709D01*
X149917533Y-106198578D01*
X149821646Y-106198676D01*
X149821646Y-106198676D01*
G37*
X149821646Y-106198676D02*
X149733192Y-106200072D01*
X149657260Y-106202830D01*
X149598943Y-106207017D01*
X149569304Y-106211243D01*
X149509850Y-106229397D01*
X149449133Y-106257099D01*
X149395530Y-106289654D01*
X149357419Y-106322371D01*
X149347917Y-106335256D01*
X149325776Y-106371769D01*
X149309721Y-106386803D01*
X149292014Y-106383486D01*
X149268310Y-106367422D01*
X149223458Y-106344610D01*
X149154380Y-106324386D01*
X149060007Y-106306535D01*
X148939274Y-106290842D01*
X148839778Y-106281138D01*
X148742787Y-106274000D01*
X148637066Y-106268498D01*
X148527227Y-106264650D01*
X148417885Y-106262479D01*
X148313653Y-106262005D01*
X148219144Y-106263249D01*
X148138973Y-106266234D01*
X148077752Y-106270979D01*
X148040163Y-106277484D01*
X147989368Y-106302450D01*
X147925275Y-106350047D01*
X147877036Y-106392793D01*
X147772692Y-106490239D01*
X147729155Y-106462674D01*
X147692263Y-106442863D01*
X147648758Y-106427071D01*
X147595510Y-106414986D01*
X147529389Y-106406294D01*
X147447265Y-106400681D01*
X147346007Y-106397834D01*
X147222485Y-106397439D01*
X147092256Y-106398880D01*
X146941259Y-106401963D01*
X146815100Y-106406564D01*
X146710407Y-106413442D01*
X146623805Y-106423355D01*
X146551922Y-106437062D01*
X146491383Y-106455320D01*
X146438816Y-106478888D01*
X146390847Y-106508522D01*
X146344103Y-106544983D01*
X146310833Y-106574486D01*
X146272500Y-106609720D01*
X146219111Y-106574635D01*
X146160417Y-106542845D01*
X146094569Y-106521303D01*
X146018320Y-106509951D01*
X145928421Y-106508733D01*
X145821622Y-106517592D01*
X145694675Y-106536471D01*
X145555384Y-106563033D01*
X145468887Y-106584372D01*
X145406845Y-106608216D01*
X145375913Y-106627153D01*
X145324488Y-106677200D01*
X145275915Y-106742919D01*
X145238482Y-106812289D01*
X145226940Y-106843234D01*
X145212989Y-106885382D01*
X145199750Y-106920054D01*
X145198522Y-106922844D01*
X145190253Y-106944523D01*
X145174674Y-106988336D01*
X145153361Y-107049631D01*
X145127889Y-107123755D01*
X145099835Y-107206056D01*
X145070775Y-107291882D01*
X145042285Y-107376579D01*
X145015941Y-107455497D01*
X144993320Y-107523982D01*
X144975996Y-107577382D01*
X144966675Y-107607233D01*
X144953332Y-107650963D01*
X144934868Y-107710461D01*
X144914739Y-107774609D01*
X144909658Y-107790678D01*
X144881984Y-107880657D01*
X144849281Y-107991215D01*
X144813302Y-108116053D01*
X144775799Y-108248873D01*
X144738526Y-108383377D01*
X144703234Y-108513267D01*
X144671676Y-108632245D01*
X144645604Y-108734013D01*
X144634153Y-108780725D01*
X144618550Y-108850692D01*
X144610448Y-108902884D01*
X144609035Y-108946497D01*
X144613501Y-108990726D01*
X144614864Y-108999447D01*
X144621313Y-109052089D01*
X144619138Y-109089508D01*
X144607324Y-109123661D01*
X144603675Y-109131233D01*
X144593468Y-109159029D01*
X144577963Y-109210835D01*
X144558039Y-109283124D01*
X144534571Y-109372366D01*
X144508436Y-109475033D01*
X144480511Y-109587598D01*
X144451673Y-109706531D01*
X144422798Y-109828305D01*
X144394763Y-109949391D01*
X144368444Y-110066261D01*
X144347716Y-110161344D01*
X144307496Y-110356675D01*
X144268156Y-110561795D01*
X144230933Y-110769515D01*
X144197065Y-110972643D01*
X144167788Y-111163988D01*
X144144341Y-111336360D01*
X144141324Y-111360789D01*
X144132395Y-111431785D01*
X144122863Y-111503709D01*
X144114388Y-111564140D01*
X144112095Y-111579511D01*
X144090828Y-111734086D01*
X144075672Y-111877682D01*
X144066765Y-112007117D01*
X144064246Y-112119214D01*
X144068254Y-112210791D01*
X144078927Y-112278670D01*
X144081247Y-112287067D01*
X144113315Y-112351648D01*
X144165971Y-112411607D01*
X144231698Y-112459737D01*
X144287001Y-112484366D01*
X144356940Y-112499236D01*
X144452998Y-112507930D01*
X144573747Y-112510402D01*
X144717757Y-112506605D01*
X144811056Y-112501532D01*
X144950367Y-112491194D01*
X145064812Y-112478984D01*
X145157729Y-112464081D01*
X145232453Y-112445661D01*
X145292322Y-112422901D01*
X145340673Y-112394978D01*
X145380843Y-112361070D01*
X145380896Y-112361018D01*
X145413996Y-112322964D01*
X145440058Y-112279870D01*
X145460617Y-112226939D01*
X145477210Y-112159374D01*
X145491373Y-112072380D01*
X145502418Y-111981678D01*
X145519452Y-111829205D01*
X145534590Y-111697740D01*
X145547675Y-111588550D01*
X145558547Y-111502898D01*
X145567049Y-111442052D01*
X145573022Y-111407276D01*
X145575302Y-111399488D01*
X145588394Y-111402247D01*
X145615802Y-111420382D01*
X145648158Y-111447014D01*
X145692638Y-111482812D01*
X145737722Y-111513318D01*
X145763556Y-111527192D01*
X145815748Y-111541326D01*
X145883770Y-111548261D01*
X145956108Y-111547788D01*
X146021248Y-111539695D01*
X146048436Y-111532412D01*
X146101353Y-111504190D01*
X146156461Y-111459068D01*
X146204265Y-111405833D01*
X146230631Y-111363800D01*
X146252830Y-111317963D01*
X146270626Y-111378182D01*
X146288687Y-111429736D01*
X146310445Y-111479783D01*
X146314520Y-111487789D01*
X146329158Y-111518436D01*
X146351665Y-111569123D01*
X146379378Y-111633704D01*
X146409637Y-111706033D01*
X146421438Y-111734733D01*
X146452574Y-111808773D01*
X146483085Y-111877665D01*
X146510090Y-111935154D01*
X146530709Y-111974980D01*
X146536191Y-111984061D01*
X146596912Y-112051370D01*
X146677811Y-112099391D01*
X146759031Y-112124047D01*
X146809025Y-112132409D01*
X146851375Y-112133656D01*
X146898266Y-112127253D01*
X146949531Y-112115706D01*
X147003048Y-112102024D01*
X147047404Y-112089536D01*
X147074042Y-112080671D01*
X147075889Y-112079848D01*
X147122385Y-112059156D01*
X147175697Y-112039367D01*
X147244678Y-112017287D01*
X147272495Y-112008923D01*
X147377378Y-111977733D01*
X147406550Y-112012548D01*
X147473691Y-112070943D01*
X147561287Y-112111234D01*
X147667888Y-112133112D01*
X147792048Y-112136271D01*
X147922556Y-112122049D01*
X147970957Y-112115085D01*
X148036838Y-112106945D01*
X148109563Y-112098902D01*
X148148333Y-112095010D01*
X148250741Y-112083653D01*
X148337838Y-112070961D01*
X148406105Y-112057588D01*
X148452022Y-112044186D01*
X148468417Y-112035607D01*
X148494655Y-112031898D01*
X148517806Y-112042645D01*
X148552615Y-112060651D01*
X148594653Y-112074216D01*
X148647544Y-112083680D01*
X148714911Y-112089381D01*
X148800380Y-112091660D01*
X148907574Y-112090855D01*
X149006148Y-112088379D01*
X149139183Y-112083432D01*
X149247311Y-112076989D01*
X149333835Y-112068340D01*
X149402061Y-112056775D01*
X149455292Y-112041581D01*
X149496831Y-112022048D01*
X149529984Y-111997464D01*
X149555630Y-111970129D01*
X149566320Y-111961292D01*
X149583227Y-111958100D01*
X149611703Y-111961069D01*
X149657098Y-111970717D01*
X149717908Y-111985809D01*
X149788428Y-112004114D01*
X149858225Y-112022773D01*
X149916835Y-112038965D01*
X149940445Y-112045778D01*
X150029497Y-112071689D01*
X150097177Y-112089748D01*
X150148972Y-112100773D01*
X150190369Y-112105579D01*
X150226854Y-112104983D01*
X150263915Y-112099801D01*
X150281034Y-112096440D01*
X150374919Y-112067678D01*
X150448462Y-112022991D01*
X150504004Y-111959814D01*
X150543882Y-111875582D01*
X150567884Y-111781966D01*
X150580228Y-111716862D01*
X150592612Y-111652791D01*
X150602641Y-111602121D01*
X150603869Y-111596073D01*
X150612335Y-111546044D01*
X150617265Y-111500310D01*
X150617778Y-111486712D01*
X150620262Y-111459862D01*
X150633193Y-111448204D01*
X150664791Y-111445480D01*
X150671962Y-111445456D01*
X150726147Y-111445456D01*
X150742790Y-111540706D01*
X150753591Y-111606733D01*
X150764943Y-111682660D01*
X150773034Y-111741789D01*
X150791565Y-111855195D01*
X150814846Y-111945675D01*
X150842285Y-112011164D01*
X150856486Y-112032771D01*
X150909039Y-112086584D01*
X150972002Y-112125553D01*
X151048258Y-112150215D01*
X151140689Y-112161107D01*
X151252178Y-112158766D01*
X151385607Y-112143730D01*
X151422111Y-112138149D01*
X151444863Y-112134974D01*
X151467693Y-112133361D01*
X151493597Y-112133822D01*
X151525572Y-112136874D01*
X151566612Y-112143031D01*
X151619713Y-112152808D01*
X151687871Y-112166719D01*
X151774080Y-112185280D01*
X151881338Y-112209006D01*
X152012639Y-112238411D01*
X152035945Y-112243647D01*
X152127951Y-112262807D01*
X152200368Y-112273649D01*
X152260477Y-112276479D01*
X152315561Y-112271605D01*
X152372901Y-112259334D01*
X152377655Y-112258082D01*
X152452086Y-112230016D01*
X152513011Y-112187278D01*
X152563292Y-112126455D01*
X152605790Y-112044134D01*
X152641370Y-111943531D01*
X152662389Y-111874762D01*
X152687995Y-111791767D01*
X152716095Y-111701247D01*
X152744596Y-111609905D01*
X152771408Y-111524442D01*
X152794438Y-111451560D01*
X152811595Y-111397960D01*
X152813517Y-111392046D01*
X152825652Y-111350008D01*
X152832592Y-111316667D01*
X152833222Y-111309096D01*
X152840201Y-111309811D01*
X152858912Y-111330436D01*
X152886022Y-111367020D01*
X152902125Y-111390728D01*
X152954593Y-111462481D01*
X153005061Y-111512638D01*
X153060444Y-111546381D01*
X153127658Y-111568891D01*
X153145387Y-111572996D01*
X153236829Y-111580754D01*
X153326702Y-111566396D01*
X153408715Y-111532277D01*
X153476579Y-111480750D01*
X153512227Y-111435696D01*
X153531948Y-111406785D01*
X153545208Y-111392830D01*
X153547204Y-111392733D01*
X153553446Y-111409945D01*
X153563370Y-111450200D01*
X153576042Y-111508699D01*
X153590529Y-111580644D01*
X153605900Y-111661235D01*
X153621220Y-111745673D01*
X153635556Y-111829159D01*
X153647977Y-111906894D01*
X153650727Y-111925233D01*
X153662849Y-112004871D01*
X153675063Y-112080811D01*
X153686134Y-112145644D01*
X153694827Y-112191960D01*
X153696621Y-112200400D01*
X153727941Y-112289379D01*
X153778968Y-112359683D01*
X153851228Y-112412785D01*
X153946246Y-112450160D01*
X153958407Y-112453440D01*
X153986792Y-112460264D01*
X154013942Y-112464880D01*
X154044070Y-112467138D01*
X154081392Y-112466891D01*
X154130121Y-112463991D01*
X154194472Y-112458290D01*
X154278659Y-112449639D01*
X154380342Y-112438609D01*
X154481984Y-112427514D01*
X154580788Y-112416818D01*
X154671140Y-112407121D01*
X154747424Y-112399024D01*
X154804026Y-112393130D01*
X154822889Y-112391226D01*
X154901741Y-112382029D01*
X154960144Y-112371135D01*
X155005866Y-112356388D01*
X155046678Y-112335631D01*
X155065177Y-112323976D01*
X155125906Y-112268480D01*
X155174036Y-112193635D01*
X155205938Y-112106850D01*
X155215967Y-112030815D01*
X154872278Y-112030815D01*
X154519500Y-112068167D01*
X154420914Y-112078663D01*
X154330100Y-112088443D01*
X154251322Y-112097037D01*
X154188844Y-112103979D01*
X154146928Y-112108800D01*
X154131445Y-112110758D01*
X154094958Y-112116286D01*
X154067975Y-112118036D01*
X154048355Y-112112458D01*
X154033955Y-112096000D01*
X154022633Y-112065111D01*
X154012246Y-112016240D01*
X154000651Y-111945835D01*
X153989730Y-111875844D01*
X153972975Y-111773736D01*
X153953054Y-111659586D01*
X153932148Y-111545508D01*
X153912442Y-111443615D01*
X153907090Y-111417233D01*
X153891636Y-111345208D01*
X153872288Y-111259824D01*
X153850083Y-111165208D01*
X153826059Y-111065490D01*
X153801254Y-110964799D01*
X153776707Y-110867263D01*
X153753454Y-110777012D01*
X153732534Y-110698175D01*
X153714986Y-110634879D01*
X153701846Y-110591255D01*
X153694678Y-110572279D01*
X153686002Y-110573522D01*
X153667367Y-110592385D01*
X153637853Y-110630117D01*
X153596541Y-110687967D01*
X153542514Y-110767184D01*
X153474853Y-110869016D01*
X153461539Y-110889259D01*
X153404158Y-110976453D01*
X153351570Y-111056051D01*
X153305829Y-111124967D01*
X153268991Y-111180115D01*
X153243112Y-111218409D01*
X153230248Y-111236762D01*
X153229446Y-111237739D01*
X153217887Y-111231436D01*
X153194904Y-111205724D01*
X153164171Y-111165038D01*
X153139245Y-111128869D01*
X153100269Y-111071365D01*
X153049121Y-110997441D01*
X152990294Y-110913454D01*
X152928278Y-110825761D01*
X152867565Y-110740722D01*
X152812647Y-110664693D01*
X152777236Y-110616428D01*
X152753459Y-110587539D01*
X152735771Y-110571636D01*
X152732720Y-110570567D01*
X152725925Y-110583511D01*
X152711701Y-110620262D01*
X152691068Y-110677699D01*
X152665045Y-110752701D01*
X152634651Y-110842145D01*
X152600903Y-110942912D01*
X152564822Y-111051879D01*
X152527426Y-111165925D01*
X152489733Y-111281929D01*
X152452764Y-111396769D01*
X152417535Y-111507325D01*
X152385067Y-111610474D01*
X152356377Y-111703096D01*
X152332486Y-111782069D01*
X152314411Y-111844271D01*
X152303176Y-111886561D01*
X152292260Y-111917672D01*
X152281209Y-111933327D01*
X152261997Y-111934257D01*
X152223675Y-111929218D01*
X152174462Y-111919300D01*
X152173411Y-111919056D01*
X152129678Y-111909100D01*
X152064468Y-111894515D01*
X151983886Y-111876654D01*
X151894038Y-111856871D01*
X151801026Y-111836517D01*
X151794548Y-111835105D01*
X151510818Y-111773251D01*
X151385326Y-111792837D01*
X151319282Y-111802979D01*
X151255124Y-111812552D01*
X151204261Y-111819860D01*
X151194048Y-111821258D01*
X151128263Y-111830092D01*
X151118205Y-111747135D01*
X151112851Y-111707111D01*
X151103943Y-111645153D01*
X151092364Y-111567196D01*
X151078996Y-111479177D01*
X151064721Y-111387034D01*
X151063926Y-111381956D01*
X151019705Y-111099733D01*
X150682125Y-111095944D01*
X150587066Y-111095362D01*
X150501367Y-111095761D01*
X150429075Y-111097047D01*
X150374235Y-111099126D01*
X150340891Y-111101904D01*
X150332622Y-111104079D01*
X150326411Y-111122052D01*
X150318337Y-111162145D01*
X150309449Y-111218405D01*
X150300869Y-111284257D01*
X150291405Y-111360493D01*
X150280478Y-111442000D01*
X150268864Y-111523689D01*
X150257338Y-111600468D01*
X150246676Y-111667248D01*
X150237655Y-111718939D01*
X150231049Y-111750450D01*
X150228778Y-111757254D01*
X150214257Y-111756319D01*
X150176712Y-111748816D01*
X150120314Y-111735721D01*
X150049235Y-111718012D01*
X149967646Y-111696664D01*
X149951539Y-111692341D01*
X149857249Y-111667414D01*
X149762094Y-111643100D01*
X149673251Y-111621174D01*
X149597898Y-111603411D01*
X149547123Y-111592363D01*
X149489397Y-111579180D01*
X149442965Y-111565663D01*
X149414263Y-111553836D01*
X149408321Y-111548673D01*
X149410554Y-111528340D01*
X149422634Y-111483204D01*
X149444062Y-111414717D01*
X149474338Y-111324332D01*
X149512962Y-111213504D01*
X149559436Y-111083684D01*
X149613260Y-110936328D01*
X149673935Y-110772887D01*
X149686284Y-110739900D01*
X149725597Y-110634555D01*
X149771818Y-110509921D01*
X149822276Y-110373254D01*
X149874297Y-110231811D01*
X149925208Y-110092848D01*
X149972334Y-109963620D01*
X149977403Y-109949678D01*
X150042226Y-109771242D01*
X150098088Y-109617487D01*
X150145714Y-109486584D01*
X150185828Y-109376707D01*
X150219157Y-109286027D01*
X150246426Y-109212717D01*
X150268359Y-109154949D01*
X150269443Y-109152192D01*
X149901903Y-109152192D01*
X149893707Y-109182955D01*
X149877311Y-109236377D01*
X149876597Y-109232060D01*
X149528191Y-109232060D01*
X149527031Y-109264980D01*
X149524296Y-109309742D01*
X149519873Y-109368152D01*
X149513653Y-109442021D01*
X149505525Y-109533156D01*
X149495378Y-109643366D01*
X149483104Y-109774460D01*
X149468590Y-109928246D01*
X149451726Y-110106533D01*
X149432556Y-110309511D01*
X149417045Y-110474169D01*
X149401681Y-110637589D01*
X149386779Y-110796387D01*
X149372657Y-110947179D01*
X149359631Y-111086580D01*
X149348016Y-111211206D01*
X149338130Y-111317672D01*
X149330288Y-111402594D01*
X149325080Y-111459567D01*
X149317167Y-111542536D01*
X149309439Y-111615630D01*
X149302441Y-111674272D01*
X149296719Y-111713885D01*
X149292857Y-111729852D01*
X149276786Y-111733085D01*
X149236814Y-111736824D01*
X149177251Y-111740793D01*
X149102407Y-111744714D01*
X149016593Y-111748311D01*
X148991702Y-111749205D01*
X148699127Y-111759328D01*
X148695369Y-111374300D01*
X148691611Y-110989273D01*
X148522278Y-110949814D01*
X148454550Y-110934481D01*
X148395011Y-110921831D01*
X148350057Y-110913168D01*
X148326086Y-110909796D01*
X148325983Y-110909794D01*
X148318218Y-110910597D01*
X148312202Y-110915381D01*
X148307803Y-110927163D01*
X148304886Y-110948963D01*
X148303319Y-110983801D01*
X148302967Y-111034694D01*
X148303697Y-111104662D01*
X148305375Y-111196723D01*
X148307868Y-111313897D01*
X148307947Y-111317490D01*
X148316871Y-111725746D01*
X148243186Y-111734931D01*
X148201405Y-111740185D01*
X148139428Y-111748037D01*
X148065052Y-111757498D01*
X147986075Y-111767576D01*
X147971945Y-111769383D01*
X147895850Y-111778797D01*
X147825719Y-111786895D01*
X147768337Y-111792933D01*
X147730491Y-111796166D01*
X147725000Y-111796445D01*
X147675611Y-111798239D01*
X147676763Y-111532309D01*
X147583889Y-111532309D01*
X147570246Y-111546034D01*
X147530094Y-111564797D01*
X147464596Y-111588096D01*
X147425139Y-111600547D01*
X147352623Y-111623186D01*
X147263327Y-111651751D01*
X147167174Y-111683032D01*
X147074086Y-111713819D01*
X147047667Y-111722671D01*
X146973877Y-111746758D01*
X146909615Y-111766353D01*
X146859522Y-111780149D01*
X146828242Y-111786843D01*
X146820066Y-111786649D01*
X146810472Y-111769047D01*
X146791522Y-111727793D01*
X146764291Y-111665461D01*
X146729854Y-111584623D01*
X146689285Y-111487854D01*
X146643659Y-111377724D01*
X146594050Y-111256808D01*
X146541532Y-111127677D01*
X146487181Y-110992906D01*
X146454907Y-110912333D01*
X146405512Y-110789696D01*
X146365189Y-110691914D01*
X146333205Y-110617376D01*
X146308827Y-110564471D01*
X146291324Y-110531591D01*
X146279963Y-110517123D01*
X146275160Y-110517221D01*
X146265157Y-110534240D01*
X146244402Y-110573053D01*
X146214694Y-110630175D01*
X146177829Y-110702120D01*
X146135606Y-110785404D01*
X146089821Y-110876542D01*
X146089350Y-110877483D01*
X146044122Y-110967525D01*
X146002971Y-111048697D01*
X145967576Y-111117748D01*
X145939617Y-111171425D01*
X145920772Y-111206477D01*
X145912722Y-111219651D01*
X145912639Y-111219678D01*
X145901916Y-111209797D01*
X145874520Y-111181941D01*
X145833011Y-111138788D01*
X145779952Y-111083016D01*
X145717901Y-111017304D01*
X145649589Y-110944511D01*
X145580907Y-110871491D01*
X145518391Y-110805753D01*
X145464652Y-110749985D01*
X145422299Y-110706870D01*
X145393941Y-110679095D01*
X145382208Y-110669344D01*
X145376020Y-110682386D01*
X145365533Y-110718325D01*
X145351978Y-110772385D01*
X145336589Y-110839791D01*
X145328491Y-110877483D01*
X145303495Y-110997035D01*
X145282477Y-111100155D01*
X145264683Y-111191737D01*
X145249361Y-111276674D01*
X145235757Y-111359860D01*
X145223116Y-111446187D01*
X145210686Y-111540549D01*
X145197713Y-111647840D01*
X145183443Y-111772952D01*
X145167123Y-111920779D01*
X145165430Y-111936258D01*
X145157389Y-112003486D01*
X145149294Y-112060277D01*
X145142059Y-112100852D01*
X145136599Y-112119434D01*
X145136370Y-112119703D01*
X145117767Y-112125582D01*
X145076425Y-112131579D01*
X145016819Y-112137494D01*
X144943422Y-112143131D01*
X144860709Y-112148290D01*
X144773153Y-112152775D01*
X144685229Y-112156386D01*
X144601412Y-112158926D01*
X144526174Y-112160198D01*
X144463992Y-112160002D01*
X144419338Y-112158142D01*
X144396686Y-112154419D01*
X144394778Y-112152518D01*
X144396411Y-112127716D01*
X144400976Y-112079358D01*
X144407974Y-112011899D01*
X144416903Y-111929796D01*
X144427263Y-111837506D01*
X144438553Y-111739484D01*
X144450274Y-111640186D01*
X144461924Y-111544070D01*
X144473003Y-111455590D01*
X144473396Y-111452511D01*
X144491093Y-111321837D01*
X144512765Y-111174049D01*
X144537386Y-111015307D01*
X144563928Y-110851772D01*
X144591364Y-110689601D01*
X144618665Y-110534956D01*
X144644804Y-110393996D01*
X144668753Y-110272881D01*
X144675865Y-110238956D01*
X144700218Y-110127406D01*
X144726649Y-110010920D01*
X144754318Y-109892799D01*
X144782385Y-109776340D01*
X144810010Y-109664844D01*
X144836354Y-109561611D01*
X144860577Y-109469939D01*
X144881837Y-109393128D01*
X144899297Y-109334479D01*
X144912115Y-109297290D01*
X144918687Y-109285045D01*
X144941032Y-109279415D01*
X144983706Y-109275089D01*
X145038825Y-109272769D01*
X145059360Y-109272560D01*
X145135471Y-109271318D01*
X145221921Y-109268251D01*
X145300937Y-109264001D01*
X145306305Y-109263636D01*
X145431945Y-109254929D01*
X145505328Y-109415331D01*
X145561886Y-109538166D01*
X145613258Y-109648172D01*
X145658424Y-109743256D01*
X145696362Y-109821323D01*
X145726053Y-109880279D01*
X145746477Y-109918031D01*
X145756613Y-109932483D01*
X145757273Y-109932442D01*
X145762832Y-109917786D01*
X145775278Y-109879723D01*
X145793474Y-109821904D01*
X145816283Y-109747979D01*
X145842568Y-109661598D01*
X145867980Y-109577142D01*
X145896340Y-109482836D01*
X145922153Y-109397814D01*
X145944296Y-109325705D01*
X145961647Y-109270143D01*
X145973084Y-109234757D01*
X145977384Y-109223170D01*
X145993417Y-109219712D01*
X146032368Y-109215261D01*
X146089121Y-109210148D01*
X146158560Y-109204704D01*
X146235568Y-109199257D01*
X146315028Y-109194139D01*
X146391825Y-109189678D01*
X146460841Y-109186205D01*
X146516960Y-109184050D01*
X146555065Y-109183543D01*
X146569993Y-109184954D01*
X146577469Y-109200112D01*
X146594009Y-109238035D01*
X146618181Y-109295290D01*
X146648550Y-109368445D01*
X146683683Y-109454068D01*
X146722145Y-109548727D01*
X146727357Y-109561622D01*
X146855241Y-109873322D01*
X146988929Y-110190038D01*
X147123868Y-110501138D01*
X147255509Y-110795985D01*
X147257894Y-110801241D01*
X147293055Y-110879008D01*
X147323835Y-110947686D01*
X147348457Y-111003261D01*
X147365145Y-111041719D01*
X147372121Y-111059047D01*
X147372222Y-111059542D01*
X147377973Y-111073771D01*
X147393924Y-111109243D01*
X147418129Y-111161726D01*
X147448638Y-111226989D01*
X147478056Y-111289319D01*
X147512565Y-111363216D01*
X147542364Y-111429090D01*
X147565472Y-111482392D01*
X147579910Y-111518577D01*
X147583889Y-111532309D01*
X147676763Y-111532309D01*
X147678104Y-111223208D01*
X147679101Y-111080584D01*
X147680824Y-110931490D01*
X147683159Y-110781802D01*
X147685992Y-110637397D01*
X147689209Y-110504151D01*
X147692695Y-110387940D01*
X147695984Y-110302456D01*
X147703541Y-110138383D01*
X147711362Y-109979245D01*
X147719292Y-109827471D01*
X147727179Y-109685492D01*
X147734871Y-109555739D01*
X147742215Y-109440644D01*
X147749060Y-109342636D01*
X147755251Y-109264146D01*
X147758061Y-109234644D01*
X147412682Y-109234644D01*
X147409475Y-109271365D01*
X147409261Y-109273079D01*
X147406362Y-109305133D01*
X147402561Y-109360446D01*
X147398145Y-109434084D01*
X147393404Y-109521108D01*
X147388624Y-109616582D01*
X147386241Y-109667456D01*
X147381527Y-109766489D01*
X147376696Y-109860670D01*
X147372042Y-109944794D01*
X147367860Y-110013659D01*
X147364442Y-110062062D01*
X147363144Y-110076654D01*
X147355205Y-110154242D01*
X147321997Y-110090765D01*
X147299888Y-110045605D01*
X147272945Y-109986468D01*
X147246739Y-109925612D01*
X147245015Y-109921456D01*
X147216985Y-109853763D01*
X147184867Y-109776313D01*
X147155419Y-109705401D01*
X147154309Y-109702733D01*
X147114559Y-109605600D01*
X147066126Y-109484616D01*
X147010065Y-109342421D01*
X146995750Y-109305834D01*
X147005388Y-109296172D01*
X147042621Y-109287942D01*
X147107736Y-109281082D01*
X147113852Y-109280613D01*
X147206905Y-109271509D01*
X147287162Y-109259478D01*
X147349970Y-109245425D01*
X147390678Y-109230252D01*
X147398200Y-109225370D01*
X147409279Y-109220846D01*
X147412682Y-109234644D01*
X147758061Y-109234644D01*
X147760638Y-109207606D01*
X147765066Y-109175447D01*
X147767103Y-109168957D01*
X147785204Y-109162798D01*
X147827225Y-109154861D01*
X147888961Y-109145691D01*
X147966208Y-109135832D01*
X148054759Y-109125828D01*
X148150410Y-109116225D01*
X148227725Y-109109322D01*
X148342395Y-109099672D01*
X148348224Y-109580497D01*
X148349836Y-109694241D01*
X148351765Y-109798867D01*
X148353916Y-109891065D01*
X148356194Y-109967523D01*
X148358502Y-110024930D01*
X148360745Y-110059975D01*
X148362367Y-110069637D01*
X148378760Y-110075036D01*
X148416763Y-110083460D01*
X148470218Y-110093863D01*
X148532968Y-110105195D01*
X148598858Y-110116411D01*
X148661730Y-110126461D01*
X148715428Y-110134299D01*
X148753795Y-110138876D01*
X148770674Y-110139145D01*
X148770715Y-110139122D01*
X148773556Y-110124163D01*
X148776890Y-110084987D01*
X148780492Y-110025590D01*
X148784137Y-109949967D01*
X148787600Y-109862114D01*
X148789489Y-109805464D01*
X148793830Y-109674374D01*
X148798519Y-109547646D01*
X148803402Y-109428341D01*
X148808327Y-109319523D01*
X148813141Y-109224255D01*
X148817690Y-109145599D01*
X148821823Y-109086617D01*
X148825387Y-109050373D01*
X148827689Y-109039840D01*
X148841983Y-109041487D01*
X148879477Y-109048296D01*
X148935811Y-109059354D01*
X149006625Y-109073746D01*
X149087560Y-109090557D01*
X149174256Y-109108871D01*
X149262352Y-109127775D01*
X149347489Y-109146352D01*
X149425307Y-109163689D01*
X149491446Y-109178870D01*
X149501438Y-109181223D01*
X149508222Y-109181902D01*
X149514204Y-109181761D01*
X149519271Y-109182609D01*
X149523314Y-109186254D01*
X149526221Y-109194505D01*
X149527884Y-109209171D01*
X149528191Y-109232060D01*
X149876597Y-109232060D01*
X149868032Y-109180277D01*
X149863307Y-109143804D01*
X149862859Y-109121384D01*
X149863713Y-109118907D01*
X149879178Y-109118496D01*
X149889387Y-109121585D01*
X149901627Y-109131389D01*
X149901903Y-109152192D01*
X150269443Y-109152192D01*
X150285682Y-109110897D01*
X150299121Y-109078731D01*
X150309399Y-109056626D01*
X150317244Y-109042752D01*
X150323379Y-109035283D01*
X150328530Y-109032392D01*
X150333423Y-109032249D01*
X150338782Y-109033029D01*
X150341089Y-109033187D01*
X150368817Y-109035252D01*
X150416513Y-109040213D01*
X150478951Y-109047397D01*
X150550902Y-109056131D01*
X150627139Y-109065743D01*
X150702436Y-109075562D01*
X150771565Y-109084914D01*
X150829299Y-109093128D01*
X150870410Y-109099530D01*
X150889672Y-109103449D01*
X150890420Y-109103844D01*
X150894869Y-109111864D01*
X150905162Y-109132746D01*
X150922033Y-109168058D01*
X150946215Y-109219369D01*
X150978443Y-109288247D01*
X151019450Y-109376260D01*
X151069969Y-109484977D01*
X151130735Y-109615968D01*
X151202480Y-109770799D01*
X151213437Y-109794456D01*
X151269203Y-109916155D01*
X151328051Y-110046900D01*
X151388231Y-110182620D01*
X151447993Y-110319243D01*
X151505584Y-110452697D01*
X151559256Y-110578910D01*
X151607255Y-110693810D01*
X151647833Y-110793327D01*
X151679238Y-110873387D01*
X151691263Y-110905706D01*
X151712000Y-110961017D01*
X151729760Y-111004707D01*
X151742147Y-111031078D01*
X151746137Y-111036233D01*
X151753416Y-111022912D01*
X151766204Y-110984741D01*
X151783840Y-110924411D01*
X151805665Y-110844613D01*
X151831019Y-110748038D01*
X151859242Y-110637375D01*
X151889674Y-110515316D01*
X151921656Y-110384552D01*
X151954528Y-110247772D01*
X151987629Y-110107667D01*
X152020301Y-109966928D01*
X152051882Y-109828246D01*
X152081715Y-109694311D01*
X152109138Y-109567813D01*
X152126780Y-109484011D01*
X152146884Y-109387232D01*
X152165437Y-109298167D01*
X152181560Y-109221010D01*
X152190300Y-109179371D01*
X151845445Y-109179371D01*
X151842404Y-109200790D01*
X151834189Y-109242954D01*
X151822164Y-109299153D01*
X151811765Y-109345177D01*
X151796470Y-109413696D01*
X151782737Y-109479269D01*
X151772499Y-109532476D01*
X151768834Y-109554567D01*
X151760913Y-109599905D01*
X151748996Y-109657196D01*
X151734400Y-109721268D01*
X151718444Y-109786946D01*
X151702446Y-109849058D01*
X151687724Y-109902432D01*
X151675596Y-109941893D01*
X151667380Y-109962268D01*
X151664787Y-109962915D01*
X151656728Y-109941803D01*
X151640001Y-109901648D01*
X151617442Y-109849178D01*
X151602744Y-109815622D01*
X151569232Y-109741012D01*
X151530430Y-109656686D01*
X151493529Y-109578238D01*
X151485565Y-109561622D01*
X151451052Y-109489401D01*
X151411492Y-109405756D01*
X151373603Y-109324913D01*
X151360647Y-109297039D01*
X151296901Y-109159456D01*
X151571173Y-109159456D01*
X151667817Y-109159768D01*
X151739603Y-109160868D01*
X151789889Y-109162999D01*
X151822033Y-109166405D01*
X151839394Y-109171331D01*
X151845330Y-109178019D01*
X151845445Y-109179371D01*
X152190300Y-109179371D01*
X152194375Y-109159959D01*
X152203005Y-109119208D01*
X152206197Y-109104507D01*
X152211394Y-109087609D01*
X152221560Y-109078161D01*
X152242963Y-109074798D01*
X152281870Y-109076150D01*
X152322473Y-109079140D01*
X152382964Y-109084196D01*
X152460151Y-109091171D01*
X152542664Y-109099019D01*
X152597898Y-109104511D01*
X152764739Y-109121466D01*
X152956467Y-109503822D01*
X153148196Y-109886178D01*
X153167129Y-109815622D01*
X153176463Y-109780480D01*
X153191512Y-109723401D01*
X153210863Y-109649755D01*
X153233107Y-109564914D01*
X153256833Y-109474248D01*
X153261658Y-109455789D01*
X153337253Y-109166511D01*
X153427432Y-109170741D01*
X153492214Y-109174629D01*
X153567626Y-109180504D01*
X153648589Y-109187815D01*
X153730022Y-109196006D01*
X153806847Y-109204526D01*
X153873983Y-109212821D01*
X153926352Y-109220338D01*
X153958872Y-109226523D01*
X153966888Y-109229492D01*
X153976832Y-109246658D01*
X153995999Y-109286447D01*
X154022899Y-109345372D01*
X154056039Y-109419948D01*
X154093929Y-109506688D01*
X154135077Y-109602106D01*
X154177992Y-109702715D01*
X154221182Y-109805029D01*
X154263156Y-109905562D01*
X154302422Y-110000828D01*
X154337491Y-110087341D01*
X154366869Y-110161613D01*
X154377933Y-110190372D01*
X154504546Y-110542398D01*
X154615020Y-110891696D01*
X154713340Y-111251162D01*
X154744241Y-111376052D01*
X154765212Y-111465671D01*
X154786850Y-111562929D01*
X154808052Y-111662369D01*
X154827711Y-111758532D01*
X154844724Y-111845963D01*
X154857985Y-111919205D01*
X154866390Y-111972802D01*
X154868252Y-111988608D01*
X154872278Y-112030815D01*
X155215967Y-112030815D01*
X155217983Y-112015535D01*
X155218000Y-112012036D01*
X155214607Y-111972161D01*
X155204980Y-111908767D01*
X155189952Y-111825661D01*
X155170354Y-111726649D01*
X155147017Y-111615538D01*
X155120773Y-111496132D01*
X155092452Y-111372237D01*
X155062886Y-111247661D01*
X155032907Y-111126208D01*
X155003345Y-111011685D01*
X154983284Y-110937456D01*
X154960410Y-110857533D01*
X154932286Y-110763801D01*
X154900261Y-110660352D01*
X154865685Y-110551284D01*
X154829910Y-110440692D01*
X154794284Y-110332670D01*
X154760159Y-110231315D01*
X154728884Y-110140721D01*
X154701810Y-110064985D01*
X154680286Y-110008201D01*
X154666036Y-109975196D01*
X154649491Y-109939642D01*
X154626361Y-109886300D01*
X154600289Y-109823688D01*
X154584543Y-109784696D01*
X154526751Y-109641621D01*
X154475216Y-109517971D01*
X154431076Y-109416440D01*
X154405866Y-109361413D01*
X154387117Y-109320290D01*
X154374576Y-109290152D01*
X154371334Y-109279685D01*
X154365757Y-109263640D01*
X154351037Y-109229152D01*
X154330190Y-109183245D01*
X154327047Y-109176506D01*
X154297387Y-109102227D01*
X154282198Y-109031858D01*
X154278167Y-108983067D01*
X154273712Y-108921345D01*
X154266766Y-108860554D01*
X154260156Y-108820789D01*
X154250985Y-108773918D01*
X154239946Y-108712596D01*
X154229653Y-108651456D01*
X154219938Y-108596075D01*
X154205956Y-108522542D01*
X154189544Y-108440260D01*
X154172537Y-108358631D01*
X154171787Y-108355122D01*
X154147271Y-108241239D01*
X154128255Y-108152133D01*
X154114818Y-108084885D01*
X154107039Y-108036574D01*
X154104997Y-108004282D01*
X154108770Y-107985089D01*
X154118438Y-107976074D01*
X154134079Y-107974319D01*
X154155773Y-107976904D01*
X154181908Y-107980701D01*
X154288547Y-107982312D01*
X154382911Y-107960113D01*
X154462756Y-107915554D01*
X154525837Y-107850083D01*
X154569913Y-107765149D01*
X154582708Y-107721979D01*
X154591226Y-107675763D01*
X154594532Y-107626458D01*
X154593866Y-107610601D01*
X154256504Y-107610601D01*
X154256437Y-107625049D01*
X154254509Y-107629984D01*
X154238943Y-107631170D01*
X154199541Y-107630429D01*
X154140607Y-107627952D01*
X154066448Y-107623925D01*
X153981370Y-107618538D01*
X153960162Y-107617088D01*
X153872994Y-107611296D01*
X153795603Y-107606628D01*
X153732330Y-107603307D01*
X153687514Y-107601556D01*
X153665497Y-107601598D01*
X153664107Y-107601888D01*
X153663898Y-107616570D01*
X153669722Y-107653133D01*
X153680561Y-107706130D01*
X153695397Y-107770114D01*
X153696035Y-107772724D01*
X153717035Y-107861588D01*
X153741431Y-107969843D01*
X153768013Y-108091668D01*
X153795573Y-108221244D01*
X153822902Y-108352750D01*
X153848791Y-108480366D01*
X153872033Y-108598272D01*
X153891417Y-108700648D01*
X153905735Y-108781675D01*
X153906370Y-108785511D01*
X153917869Y-108854329D01*
X153928346Y-108915368D01*
X153936621Y-108961858D01*
X153941415Y-108986594D01*
X153942954Y-109010983D01*
X153937686Y-109018209D01*
X153920305Y-109016707D01*
X153880481Y-109012698D01*
X153823824Y-109006762D01*
X153755945Y-108999477D01*
X153743389Y-108998114D01*
X153664781Y-108990216D01*
X153567700Y-108981461D01*
X153461848Y-108972668D01*
X153356923Y-108964657D01*
X153300643Y-108960714D01*
X153041341Y-108943273D01*
X153050694Y-108857336D01*
X153054474Y-108811240D01*
X153058591Y-108741319D01*
X153058682Y-108739427D01*
X152452389Y-108739427D01*
X152452222Y-108806231D01*
X152060639Y-108810215D01*
X151931376Y-108811513D01*
X151786920Y-108812936D01*
X151637015Y-108814389D01*
X151491401Y-108815778D01*
X151359823Y-108817010D01*
X151307116Y-108817494D01*
X150945175Y-108820789D01*
X150936471Y-108647928D01*
X150928968Y-108493342D01*
X150922694Y-108352516D01*
X150917711Y-108227544D01*
X150914085Y-108120521D01*
X150911879Y-108033540D01*
X150911227Y-107974905D01*
X150880609Y-107974905D01*
X150660999Y-108232556D01*
X150573901Y-108334280D01*
X150489044Y-108432521D01*
X150408420Y-108525040D01*
X150334025Y-108609595D01*
X150267852Y-108683948D01*
X150211894Y-108745860D01*
X150168146Y-108793091D01*
X150138600Y-108823402D01*
X150125250Y-108834552D01*
X150125061Y-108834568D01*
X150110192Y-108830240D01*
X150071634Y-108818088D01*
X150012504Y-108799119D01*
X149935918Y-108774342D01*
X149844991Y-108744764D01*
X149742841Y-108711392D01*
X149651167Y-108681337D01*
X149185500Y-108528439D01*
X149161209Y-108325364D01*
X149149183Y-108219355D01*
X149135838Y-108092285D01*
X149121860Y-107951240D01*
X149107936Y-107803310D01*
X149094751Y-107655583D01*
X149084001Y-107527641D01*
X149075827Y-107426881D01*
X149224453Y-107188974D01*
X149281239Y-107097721D01*
X149343200Y-106997559D01*
X149404850Y-106897392D01*
X149460702Y-106806129D01*
X149492685Y-106753511D01*
X149555403Y-106649919D01*
X149083082Y-106649919D01*
X149074450Y-106708771D01*
X149069335Y-106748220D01*
X149062597Y-106806470D01*
X149055287Y-106874228D01*
X149051043Y-106915789D01*
X149044702Y-106977124D01*
X149035893Y-107059187D01*
X149025418Y-107154673D01*
X149014079Y-107256278D01*
X149002676Y-107356697D01*
X149002264Y-107360289D01*
X148975855Y-107593222D01*
X148952945Y-107801433D01*
X148933200Y-107988160D01*
X148916287Y-108156639D01*
X148901872Y-108310110D01*
X148889620Y-108451810D01*
X148889448Y-108453900D01*
X148882020Y-108542531D01*
X148874721Y-108626667D01*
X148868102Y-108700165D01*
X148862716Y-108756886D01*
X148859521Y-108787293D01*
X148851074Y-108859630D01*
X148583486Y-108869899D01*
X148499531Y-108872751D01*
X148425613Y-108874557D01*
X148366218Y-108875265D01*
X148325833Y-108874824D01*
X148308944Y-108873182D01*
X148308803Y-108873074D01*
X148309000Y-108857658D01*
X148313669Y-108818766D01*
X148322176Y-108760678D01*
X148333886Y-108687673D01*
X148348167Y-108604033D01*
X148351293Y-108586304D01*
X148369443Y-108481762D01*
X148382175Y-108402752D01*
X148389684Y-108347146D01*
X148392165Y-108312819D01*
X148389813Y-108297643D01*
X148382823Y-108299492D01*
X148376872Y-108307298D01*
X148365109Y-108321256D01*
X148336828Y-108353203D01*
X148294573Y-108400316D01*
X148240886Y-108459772D01*
X148178310Y-108528746D01*
X148109388Y-108604415D01*
X148102497Y-108611965D01*
X147837939Y-108901774D01*
X147595319Y-108776261D01*
X147519897Y-108737099D01*
X147453403Y-108702299D01*
X147399783Y-108673949D01*
X147362987Y-108654138D01*
X147346961Y-108644954D01*
X147346662Y-108644710D01*
X147353867Y-108632901D01*
X147377332Y-108602948D01*
X147414584Y-108557816D01*
X147463148Y-108500471D01*
X147520553Y-108433876D01*
X147564562Y-108383468D01*
X147627153Y-108311454D01*
X147683000Y-108245889D01*
X147729530Y-108189901D01*
X147764172Y-108146618D01*
X147784351Y-108119168D01*
X147788500Y-108111165D01*
X147781361Y-108093450D01*
X147761804Y-108056893D01*
X147732615Y-108006429D01*
X147696583Y-107946990D01*
X147687134Y-107931789D01*
X147585767Y-107769511D01*
X147621153Y-107536678D01*
X147634741Y-107446895D01*
X147648451Y-107355666D01*
X147661011Y-107271484D01*
X147671153Y-107202840D01*
X147674625Y-107179037D01*
X147692711Y-107054229D01*
X147924050Y-106821324D01*
X147995085Y-106749807D01*
X147549286Y-106749807D01*
X147548138Y-106764255D01*
X147542576Y-106801077D01*
X147533472Y-106854924D01*
X147521698Y-106920448D01*
X147519950Y-106929900D01*
X147494502Y-107072207D01*
X147466616Y-107237162D01*
X147437100Y-107419378D01*
X147406762Y-107613466D01*
X147376408Y-107814040D01*
X147346845Y-108015711D01*
X147318881Y-108213094D01*
X147293324Y-108400799D01*
X147270979Y-108573441D01*
X147258846Y-108672622D01*
X147249024Y-108753815D01*
X147240143Y-108824664D01*
X147232793Y-108880678D01*
X147227561Y-108917365D01*
X147225103Y-108930212D01*
X147209831Y-108932865D01*
X147171796Y-108936346D01*
X147116361Y-108940371D01*
X147048887Y-108944651D01*
X146974738Y-108948901D01*
X146899276Y-108952834D01*
X146827862Y-108956165D01*
X146765860Y-108958605D01*
X146718632Y-108959870D01*
X146691540Y-108959672D01*
X146687228Y-108958943D01*
X146687809Y-108943608D01*
X146693537Y-108904927D01*
X146703661Y-108847150D01*
X146717426Y-108774530D01*
X146734081Y-108691318D01*
X146737810Y-108673210D01*
X146755077Y-108588577D01*
X146769840Y-108513907D01*
X146781309Y-108453393D01*
X146788696Y-108411223D01*
X146791210Y-108391589D01*
X146791042Y-108390719D01*
X146780788Y-108399735D01*
X146753925Y-108427100D01*
X146712834Y-108470286D01*
X146659896Y-108526762D01*
X146597490Y-108594001D01*
X146527998Y-108669474D01*
X146504389Y-108695239D01*
X146433091Y-108773020D01*
X146368164Y-108843620D01*
X146311987Y-108904470D01*
X146266938Y-108953003D01*
X146235398Y-108986650D01*
X146219746Y-109002841D01*
X146218482Y-109003916D01*
X146205331Y-108998005D01*
X146170914Y-108981363D01*
X146119183Y-108955931D01*
X146054089Y-108923653D01*
X145979581Y-108886471D01*
X145975066Y-108884210D01*
X145900257Y-108846164D01*
X145834982Y-108811832D01*
X145783142Y-108783360D01*
X145748637Y-108762894D01*
X145735370Y-108752579D01*
X145735333Y-108752355D01*
X145744484Y-108738929D01*
X145770084Y-108708023D01*
X145809356Y-108662814D01*
X145859523Y-108606483D01*
X145917807Y-108542208D01*
X145941771Y-108516073D01*
X146004350Y-108448015D01*
X146061889Y-108385402D01*
X146111133Y-108331781D01*
X146148825Y-108290697D01*
X146171710Y-108265697D01*
X146175383Y-108261662D01*
X146186015Y-108248794D01*
X146190652Y-108235917D01*
X146187518Y-108218500D01*
X146174837Y-108192013D01*
X146150832Y-108151923D01*
X146113727Y-108093700D01*
X146103000Y-108077031D01*
X146065613Y-108017283D01*
X146034631Y-107964607D01*
X146012987Y-107924222D01*
X146003611Y-107901350D01*
X146003445Y-107899780D01*
X146006029Y-107879982D01*
X146013282Y-107836658D01*
X146024452Y-107773980D01*
X146038785Y-107696119D01*
X146055531Y-107607245D01*
X146066545Y-107549742D01*
X146091063Y-107426550D01*
X146111975Y-107330338D01*
X146129525Y-107260126D01*
X146143955Y-107214935D01*
X146154581Y-107194729D01*
X146172249Y-107177057D01*
X146207173Y-107143631D01*
X146255819Y-107097780D01*
X146314651Y-107042831D01*
X146380132Y-106982114D01*
X146396070Y-106967399D01*
X146468882Y-106900469D01*
X146524616Y-106850252D01*
X146525470Y-106849522D01*
X146012437Y-106849522D01*
X146011487Y-106864360D01*
X146005729Y-106902710D01*
X145995881Y-106960407D01*
X145982661Y-107033288D01*
X145966788Y-107117188D01*
X145961808Y-107142898D01*
X145917396Y-107379895D01*
X145874190Y-107627525D01*
X145833123Y-107879598D01*
X145795132Y-108129923D01*
X145761151Y-108372308D01*
X145732115Y-108600563D01*
X145708959Y-108808497D01*
X145706312Y-108834900D01*
X145699474Y-108899879D01*
X145692963Y-108954266D01*
X145687548Y-108992067D01*
X145684193Y-109007050D01*
X145667828Y-109011486D01*
X145633162Y-109011578D01*
X145611468Y-109009826D01*
X145576995Y-109006787D01*
X145519839Y-109002462D01*
X145445488Y-108997235D01*
X145359431Y-108991490D01*
X145267157Y-108985611D01*
X145252035Y-108984675D01*
X145163973Y-108978870D01*
X145085678Y-108972997D01*
X145021453Y-108967437D01*
X144975600Y-108962571D01*
X144952423Y-108958780D01*
X144950584Y-108957965D01*
X144950020Y-108940395D01*
X144956900Y-108898584D01*
X144970512Y-108835312D01*
X144990144Y-108753354D01*
X145015083Y-108655489D01*
X145044616Y-108544494D01*
X145078030Y-108423148D01*
X145114613Y-108294227D01*
X145153652Y-108160509D01*
X145165015Y-108122289D01*
X145186563Y-108051710D01*
X145214381Y-107963059D01*
X145247124Y-107860415D01*
X145283446Y-107747859D01*
X145322002Y-107629472D01*
X145361448Y-107509332D01*
X145400438Y-107391522D01*
X145437627Y-107280121D01*
X145471670Y-107179209D01*
X145501222Y-107092866D01*
X145524937Y-107025174D01*
X145541472Y-106980211D01*
X145541728Y-106979552D01*
X145560870Y-106933328D01*
X145577170Y-106906920D01*
X145597072Y-106893493D01*
X145627018Y-106886211D01*
X145630245Y-106885655D01*
X145672802Y-106879409D01*
X145729185Y-106872512D01*
X145793222Y-106865546D01*
X145858744Y-106859095D01*
X145919581Y-106853742D01*
X145969561Y-106850071D01*
X146002515Y-106848664D01*
X146012437Y-106849522D01*
X146525470Y-106849522D01*
X146566812Y-106814188D01*
X146599010Y-106789720D01*
X146624753Y-106774290D01*
X146647579Y-106765339D01*
X146671031Y-106760309D01*
X146685506Y-106758284D01*
X146713737Y-106756269D01*
X146763768Y-106754332D01*
X146831391Y-106752515D01*
X146912396Y-106750859D01*
X147002577Y-106749406D01*
X147097724Y-106748197D01*
X147193628Y-106747272D01*
X147286082Y-106746674D01*
X147370877Y-106746444D01*
X147443804Y-106746623D01*
X147500655Y-106747252D01*
X147537221Y-106748372D01*
X147549286Y-106749807D01*
X147995085Y-106749807D01*
X148155389Y-106588418D01*
X148360000Y-106597018D01*
X148456741Y-106601607D01*
X148563019Y-106607532D01*
X148672596Y-106614365D01*
X148779234Y-106621677D01*
X148876694Y-106629039D01*
X148958739Y-106636023D01*
X149019131Y-106642200D01*
X149021402Y-106642471D01*
X149083082Y-106649919D01*
X149555403Y-106649919D01*
X149612292Y-106555956D01*
X149744618Y-106546952D01*
X149814772Y-106543110D01*
X149900915Y-106539766D01*
X149990815Y-106537341D01*
X150054061Y-106536368D01*
X150231177Y-106534789D01*
X150357450Y-106651458D01*
X150422953Y-106711160D01*
X150499005Y-106779218D01*
X150574569Y-106845805D01*
X150620308Y-106885460D01*
X150756893Y-107002791D01*
X150766312Y-107096873D01*
X150770705Y-107135999D01*
X150778287Y-107198330D01*
X150788451Y-107279106D01*
X150800592Y-107373568D01*
X150814104Y-107476956D01*
X150828171Y-107582930D01*
X150880609Y-107974905D01*
X150911227Y-107974905D01*
X150911157Y-107968696D01*
X150911984Y-107928083D01*
X150914050Y-107914040D01*
X150931203Y-107911625D01*
X150967610Y-107915679D01*
X151013704Y-107924954D01*
X151143667Y-107955719D01*
X151248262Y-107980182D01*
X151329523Y-107998791D01*
X151389486Y-108011994D01*
X151430184Y-108020240D01*
X151453652Y-108023978D01*
X151461841Y-108023763D01*
X151457224Y-108009197D01*
X151436631Y-107974799D01*
X151401607Y-107922864D01*
X151353699Y-107855684D01*
X151295212Y-107776567D01*
X151260479Y-107729126D01*
X151214471Y-107664657D01*
X151161679Y-107589537D01*
X151106593Y-107510144D01*
X151066715Y-107451988D01*
X150917590Y-107233243D01*
X150900480Y-106939368D01*
X150895607Y-106851432D01*
X150891759Y-106773513D01*
X150889107Y-106709835D01*
X150887821Y-106664621D01*
X150888069Y-106642096D01*
X150888464Y-106640399D01*
X150903727Y-106638376D01*
X150943747Y-106635853D01*
X151005093Y-106632928D01*
X151084336Y-106629698D01*
X151178044Y-106626263D01*
X151282787Y-106622718D01*
X151395135Y-106619163D01*
X151511657Y-106615694D01*
X151628923Y-106612410D01*
X151743502Y-106609408D01*
X151851963Y-106606786D01*
X151950877Y-106604643D01*
X152036812Y-106603074D01*
X152106338Y-106602180D01*
X152156025Y-106602056D01*
X152182442Y-106602801D01*
X152185807Y-106603427D01*
X152190983Y-106619330D01*
X152200577Y-106658825D01*
X152213684Y-106717790D01*
X152229399Y-106792102D01*
X152246817Y-106877637D01*
X152254396Y-106915789D01*
X152273563Y-107012791D01*
X152292403Y-107107826D01*
X152309703Y-107194792D01*
X152324249Y-107267591D01*
X152334826Y-107320122D01*
X152336479Y-107328251D01*
X152346194Y-107380170D01*
X152352079Y-107420398D01*
X152353150Y-107441871D01*
X152352556Y-107443475D01*
X152336762Y-107444091D01*
X152300219Y-107440301D01*
X152249918Y-107432890D01*
X152233500Y-107430131D01*
X152156089Y-107417675D01*
X152075336Y-107406240D01*
X151996168Y-107396343D01*
X151923506Y-107388499D01*
X151862275Y-107383223D01*
X151817399Y-107381031D01*
X151793801Y-107382440D01*
X151791492Y-107383848D01*
X151798552Y-107397656D01*
X151820911Y-107429757D01*
X151855942Y-107476646D01*
X151901019Y-107534818D01*
X151953514Y-107600768D01*
X151961240Y-107610341D01*
X152028471Y-107693975D01*
X152101978Y-107786202D01*
X152175144Y-107878674D01*
X152241355Y-107963041D01*
X152277392Y-108009400D01*
X152419233Y-108192844D01*
X152435894Y-108432733D01*
X152441511Y-108517695D01*
X152446299Y-108597924D01*
X152449913Y-108667000D01*
X152452006Y-108718502D01*
X152452389Y-108739427D01*
X153058682Y-108739427D01*
X153062900Y-108651968D01*
X153067255Y-108547579D01*
X153071511Y-108432546D01*
X153075520Y-108311264D01*
X153079138Y-108188124D01*
X153082218Y-108067522D01*
X153083574Y-108003177D01*
X152748556Y-108003177D01*
X152746110Y-108045682D01*
X152739312Y-108065565D01*
X152734445Y-108065844D01*
X152720624Y-108045150D01*
X152720020Y-108040317D01*
X152711702Y-108018103D01*
X152692140Y-107988270D01*
X152692111Y-107988233D01*
X152669692Y-107955719D01*
X152668430Y-107938573D01*
X152689454Y-107932282D01*
X152706222Y-107931789D01*
X152731176Y-107933299D01*
X152743687Y-107942657D01*
X152748049Y-107967099D01*
X152748556Y-108003177D01*
X153083574Y-108003177D01*
X153084615Y-107953851D01*
X153086181Y-107851503D01*
X153086763Y-107771798D01*
X153087222Y-107534197D01*
X153034306Y-107542583D01*
X153004063Y-107546619D01*
X152951772Y-107552836D01*
X152883463Y-107560575D01*
X152805166Y-107569178D01*
X152722912Y-107577989D01*
X152642732Y-107586348D01*
X152570656Y-107593597D01*
X152536889Y-107596851D01*
X152501611Y-107600178D01*
X152485157Y-107402622D01*
X152477826Y-107319403D01*
X152469747Y-107235506D01*
X152461860Y-107160270D01*
X152455105Y-107103030D01*
X152454605Y-107099233D01*
X152447349Y-107036882D01*
X152439809Y-106959207D01*
X152433190Y-106879066D01*
X152430765Y-106844587D01*
X152421022Y-106695774D01*
X152835261Y-106735233D01*
X152926504Y-106744401D01*
X153031762Y-106755781D01*
X153147464Y-106768916D01*
X153270038Y-106783351D01*
X153395911Y-106798629D01*
X153521513Y-106814294D01*
X153643271Y-106829890D01*
X153757615Y-106844960D01*
X153860971Y-106859050D01*
X153949769Y-106871702D01*
X154020436Y-106882461D01*
X154069401Y-106890870D01*
X154090163Y-106895484D01*
X154099937Y-106905881D01*
X154111469Y-106933339D01*
X154125453Y-106980299D01*
X154142584Y-107049201D01*
X154163555Y-107142486D01*
X154173263Y-107187593D01*
X154199540Y-107311447D01*
X154220203Y-107410410D01*
X154235742Y-107487144D01*
X154246646Y-107544312D01*
X154253404Y-107584577D01*
X154256504Y-107610601D01*
X154593866Y-107610601D01*
X154592151Y-107569783D01*
X154583606Y-107501456D01*
X154568423Y-107417197D01*
X154546125Y-107312725D01*
X154528866Y-107237414D01*
X154508190Y-107148213D01*
X154487786Y-107059184D01*
X154469355Y-106977827D01*
X154454602Y-106911644D01*
X154447883Y-106880744D01*
X154416102Y-106774793D01*
X154370263Y-106692373D01*
X154308809Y-106631708D01*
X154230178Y-106591025D01*
X154180833Y-106576920D01*
X154108731Y-106562033D01*
X154015727Y-106544618D01*
X153908897Y-106525850D01*
X153795320Y-106506903D01*
X153682071Y-106488951D01*
X153576227Y-106473169D01*
X153484866Y-106460731D01*
X153468222Y-106458659D01*
X153324730Y-106441248D01*
X153206276Y-106427102D01*
X153109905Y-106415909D01*
X153032663Y-106407358D01*
X152971592Y-106401138D01*
X152923738Y-106396939D01*
X152886144Y-106394448D01*
X152855855Y-106393356D01*
X152846733Y-106393248D01*
X152788106Y-106390708D01*
X152716707Y-106384278D01*
X152638680Y-106374898D01*
X152560166Y-106363510D01*
X152487311Y-106351052D01*
X152426256Y-106338468D01*
X152383146Y-106326697D01*
X152367556Y-106319863D01*
X152312400Y-106292090D01*
X152243398Y-106272518D01*
X152157109Y-106260669D01*
X152050093Y-106256065D01*
X151923056Y-106258075D01*
X151708506Y-106265707D01*
X151522063Y-106272036D01*
X151363644Y-106277063D01*
X151233164Y-106280791D01*
X151130538Y-106283222D01*
X151055682Y-106284358D01*
X151008512Y-106284203D01*
X150998778Y-106283857D01*
X150922613Y-106287027D01*
X150841434Y-106302158D01*
X150763059Y-106326675D01*
X150695304Y-106358006D01*
X150645986Y-106393577D01*
X150637473Y-106402806D01*
X150626012Y-106408133D01*
X150606809Y-106401092D01*
X150576036Y-106379355D01*
X150529864Y-106340590D01*
X150517529Y-106329781D01*
X150466786Y-106287861D01*
X150417781Y-106252106D01*
X150378005Y-106227791D01*
X150363778Y-106221524D01*
X150330227Y-106215227D01*
X150273559Y-106209831D01*
X150198863Y-106205402D01*
X150111232Y-106202006D01*
X150015758Y-106199709D01*
X149917533Y-106198578D01*
X149821646Y-106198676D01*
M02*
