%TF.GenerationSoftware,KiCad,Pcbnew,(5.1.2-1)-1*%
%TF.CreationDate,2020-09-09T12:48:07+02:00*%
%TF.ProjectId,RGB BYPASS AMP v3.1,52474220-4259-4504-9153-5320414d5020,2.21*%
%TF.SameCoordinates,Original*%
%TF.FileFunction,Soldermask,Top*%
%TF.FilePolarity,Negative*%
%FSLAX46Y46*%
G04 Gerber Fmt 4.6, Leading zero omitted, Abs format (unit mm)*
G04 Created by KiCad (PCBNEW (5.1.2-1)-1) date 2020-09-09 12:48:07*
%MOMM*%
%LPD*%
G04 APERTURE LIST*
%ADD10C,0.150000*%
G04 APERTURE END LIST*
D10*
G36*
X74175000Y-148660000D02*
G01*
X73075000Y-148660000D01*
X73075000Y-146510000D01*
X74175000Y-146510000D01*
X74175000Y-148660000D01*
X74175000Y-148660000D01*
G37*
G36*
X72575000Y-148660000D02*
G01*
X71475000Y-148660000D01*
X71475000Y-146510000D01*
X72575000Y-146510000D01*
X72575000Y-148660000D01*
X72575000Y-148660000D01*
G37*
G36*
X70975000Y-148660000D02*
G01*
X69875000Y-148660000D01*
X69875000Y-146510000D01*
X70975000Y-146510000D01*
X70975000Y-148660000D01*
X70975000Y-148660000D01*
G37*
G36*
X69375000Y-148660000D02*
G01*
X68275000Y-148660000D01*
X68275000Y-146510000D01*
X69375000Y-146510000D01*
X69375000Y-148660000D01*
X69375000Y-148660000D01*
G37*
G36*
X67162300Y-148422700D02*
G01*
X66237300Y-148422700D01*
X66237300Y-147422700D01*
X67162300Y-147422700D01*
X67162300Y-148422700D01*
X67162300Y-148422700D01*
G37*
G36*
X65587300Y-148422700D02*
G01*
X64662300Y-148422700D01*
X64662300Y-147422700D01*
X65587300Y-147422700D01*
X65587300Y-148422700D01*
X65587300Y-148422700D01*
G37*
G36*
X63670000Y-146920000D02*
G01*
X63220000Y-146920000D01*
X63220000Y-145870000D01*
X63670000Y-145870000D01*
X63670000Y-146920000D01*
X63670000Y-146920000D01*
G37*
G36*
X67570000Y-146920000D02*
G01*
X67120000Y-146920000D01*
X67120000Y-145870000D01*
X67570000Y-145870000D01*
X67570000Y-146920000D01*
X67570000Y-146920000D01*
G37*
G36*
X66920000Y-146920000D02*
G01*
X66470000Y-146920000D01*
X66470000Y-145870000D01*
X66920000Y-145870000D01*
X66920000Y-146920000D01*
X66920000Y-146920000D01*
G37*
G36*
X66270000Y-146920000D02*
G01*
X65820000Y-146920000D01*
X65820000Y-145870000D01*
X66270000Y-145870000D01*
X66270000Y-146920000D01*
X66270000Y-146920000D01*
G37*
G36*
X65620000Y-146920000D02*
G01*
X65170000Y-146920000D01*
X65170000Y-145870000D01*
X65620000Y-145870000D01*
X65620000Y-146920000D01*
X65620000Y-146920000D01*
G37*
G36*
X64970000Y-146920000D02*
G01*
X64520000Y-146920000D01*
X64520000Y-145870000D01*
X64970000Y-145870000D01*
X64970000Y-146920000D01*
X64970000Y-146920000D01*
G37*
G36*
X64320000Y-146920000D02*
G01*
X63870000Y-146920000D01*
X63870000Y-145870000D01*
X64320000Y-145870000D01*
X64320000Y-146920000D01*
X64320000Y-146920000D01*
G37*
G36*
X74100200Y-144512300D02*
G01*
X73175200Y-144512300D01*
X73175200Y-143512300D01*
X74100200Y-143512300D01*
X74100200Y-144512300D01*
X74100200Y-144512300D01*
G37*
G36*
X72525200Y-144512300D02*
G01*
X71600200Y-144512300D01*
X71600200Y-143512300D01*
X72525200Y-143512300D01*
X72525200Y-144512300D01*
X72525200Y-144512300D01*
G37*
G36*
X71100200Y-144512300D02*
G01*
X70175200Y-144512300D01*
X70175200Y-143512300D01*
X71100200Y-143512300D01*
X71100200Y-144512300D01*
X71100200Y-144512300D01*
G37*
G36*
X69525200Y-144512300D02*
G01*
X68600200Y-144512300D01*
X68600200Y-143512300D01*
X69525200Y-143512300D01*
X69525200Y-144512300D01*
X69525200Y-144512300D01*
G37*
G36*
X74302300Y-142292300D02*
G01*
X73302300Y-142292300D01*
X73302300Y-141367300D01*
X74302300Y-141367300D01*
X74302300Y-142292300D01*
X74302300Y-142292300D01*
G37*
G36*
X72212300Y-142292300D02*
G01*
X71212300Y-142292300D01*
X71212300Y-141367300D01*
X72212300Y-141367300D01*
X72212300Y-142292300D01*
X72212300Y-142292300D01*
G37*
G36*
X70122300Y-142292300D02*
G01*
X69122300Y-142292300D01*
X69122300Y-141367300D01*
X70122300Y-141367300D01*
X70122300Y-142292300D01*
X70122300Y-142292300D01*
G37*
G36*
X60652700Y-142062300D02*
G01*
X59727700Y-142062300D01*
X59727700Y-141062300D01*
X60652700Y-141062300D01*
X60652700Y-142062300D01*
X60652700Y-142062300D01*
G37*
G36*
X62227700Y-142062300D02*
G01*
X61302700Y-142062300D01*
X61302700Y-141062300D01*
X62227700Y-141062300D01*
X62227700Y-142062300D01*
X62227700Y-142062300D01*
G37*
G36*
X67570000Y-141020000D02*
G01*
X67120000Y-141020000D01*
X67120000Y-139970000D01*
X67570000Y-139970000D01*
X67570000Y-141020000D01*
X67570000Y-141020000D01*
G37*
G36*
X66920000Y-141020000D02*
G01*
X66470000Y-141020000D01*
X66470000Y-139970000D01*
X66920000Y-139970000D01*
X66920000Y-141020000D01*
X66920000Y-141020000D01*
G37*
G36*
X66270000Y-141020000D02*
G01*
X65820000Y-141020000D01*
X65820000Y-139970000D01*
X66270000Y-139970000D01*
X66270000Y-141020000D01*
X66270000Y-141020000D01*
G37*
G36*
X65620000Y-141020000D02*
G01*
X65170000Y-141020000D01*
X65170000Y-139970000D01*
X65620000Y-139970000D01*
X65620000Y-141020000D01*
X65620000Y-141020000D01*
G37*
G36*
X64970000Y-141020000D02*
G01*
X64520000Y-141020000D01*
X64520000Y-139970000D01*
X64970000Y-139970000D01*
X64970000Y-141020000D01*
X64970000Y-141020000D01*
G37*
G36*
X63670000Y-141020000D02*
G01*
X63220000Y-141020000D01*
X63220000Y-139970000D01*
X63670000Y-139970000D01*
X63670000Y-141020000D01*
X63670000Y-141020000D01*
G37*
G36*
X64320000Y-141020000D02*
G01*
X63870000Y-141020000D01*
X63870000Y-139970000D01*
X64320000Y-139970000D01*
X64320000Y-141020000D01*
X64320000Y-141020000D01*
G37*
G36*
X70122300Y-140717300D02*
G01*
X69122300Y-140717300D01*
X69122300Y-139792300D01*
X70122300Y-139792300D01*
X70122300Y-140717300D01*
X70122300Y-140717300D01*
G37*
G36*
X74302300Y-140717300D02*
G01*
X73302300Y-140717300D01*
X73302300Y-139792300D01*
X74302300Y-139792300D01*
X74302300Y-140717300D01*
X74302300Y-140717300D01*
G37*
G36*
X72212300Y-140717300D02*
G01*
X71212300Y-140717300D01*
X71212300Y-139792300D01*
X72212300Y-139792300D01*
X72212300Y-140717300D01*
X72212300Y-140717300D01*
G37*
G36*
X61776000Y-139712500D02*
G01*
X60326000Y-139712500D01*
X60326000Y-138687500D01*
X61776000Y-138687500D01*
X61776000Y-139712500D01*
X61776000Y-139712500D01*
G37*
G36*
X68032300Y-139299800D02*
G01*
X67032300Y-139299800D01*
X67032300Y-138374800D01*
X68032300Y-138374800D01*
X68032300Y-139299800D01*
X68032300Y-139299800D01*
G37*
G36*
X65942300Y-139299800D02*
G01*
X64942300Y-139299800D01*
X64942300Y-138374800D01*
X65942300Y-138374800D01*
X65942300Y-139299800D01*
X65942300Y-139299800D01*
G37*
G36*
X70122300Y-139299800D02*
G01*
X69122300Y-139299800D01*
X69122300Y-138374800D01*
X70122300Y-138374800D01*
X70122300Y-139299800D01*
X70122300Y-139299800D01*
G37*
G36*
X63852300Y-139299800D02*
G01*
X62852300Y-139299800D01*
X62852300Y-138374800D01*
X63852300Y-138374800D01*
X63852300Y-139299800D01*
X63852300Y-139299800D01*
G37*
G36*
X72212300Y-139299800D02*
G01*
X71212300Y-139299800D01*
X71212300Y-138374800D01*
X72212300Y-138374800D01*
X72212300Y-139299800D01*
X72212300Y-139299800D01*
G37*
G36*
X74302300Y-139299800D02*
G01*
X73302300Y-139299800D01*
X73302300Y-138374800D01*
X74302300Y-138374800D01*
X74302300Y-139299800D01*
X74302300Y-139299800D01*
G37*
G36*
X61776000Y-137837500D02*
G01*
X60326000Y-137837500D01*
X60326000Y-136812500D01*
X61776000Y-136812500D01*
X61776000Y-137837500D01*
X61776000Y-137837500D01*
G37*
G36*
X74302300Y-137724800D02*
G01*
X73302300Y-137724800D01*
X73302300Y-136799800D01*
X74302300Y-136799800D01*
X74302300Y-137724800D01*
X74302300Y-137724800D01*
G37*
G36*
X68032300Y-137724800D02*
G01*
X67032300Y-137724800D01*
X67032300Y-136799800D01*
X68032300Y-136799800D01*
X68032300Y-137724800D01*
X68032300Y-137724800D01*
G37*
G36*
X63852300Y-137724800D02*
G01*
X62852300Y-137724800D01*
X62852300Y-136799800D01*
X63852300Y-136799800D01*
X63852300Y-137724800D01*
X63852300Y-137724800D01*
G37*
G36*
X65942300Y-137724800D02*
G01*
X64942300Y-137724800D01*
X64942300Y-136799800D01*
X65942300Y-136799800D01*
X65942300Y-137724800D01*
X65942300Y-137724800D01*
G37*
G36*
X70122300Y-137724800D02*
G01*
X69122300Y-137724800D01*
X69122300Y-136799800D01*
X70122300Y-136799800D01*
X70122300Y-137724800D01*
X70122300Y-137724800D01*
G37*
G36*
X72212300Y-137724800D02*
G01*
X71212300Y-137724800D01*
X71212300Y-136799800D01*
X72212300Y-136799800D01*
X72212300Y-137724800D01*
X72212300Y-137724800D01*
G37*
G36*
X73468885Y-134467500D02*
G01*
X73600231Y-134493626D01*
X73759465Y-134559583D01*
X73759468Y-134559585D01*
X73902780Y-134655343D01*
X74024657Y-134777220D01*
X74086483Y-134869749D01*
X74120417Y-134920535D01*
X74186374Y-135079769D01*
X74203023Y-135163470D01*
X74220000Y-135248820D01*
X74220000Y-135421180D01*
X74216670Y-135437919D01*
X74186374Y-135590231D01*
X74120417Y-135749465D01*
X74120415Y-135749468D01*
X74024657Y-135892780D01*
X73902780Y-136014657D01*
X73759468Y-136110415D01*
X73759465Y-136110417D01*
X73600231Y-136176374D01*
X73494836Y-136197338D01*
X73431180Y-136210000D01*
X73258820Y-136210000D01*
X73195164Y-136197338D01*
X73089769Y-136176374D01*
X72930535Y-136110417D01*
X72930532Y-136110415D01*
X72787220Y-136014657D01*
X72665343Y-135892780D01*
X72569585Y-135749468D01*
X72569583Y-135749465D01*
X72503626Y-135590231D01*
X72473330Y-135437919D01*
X72470000Y-135421180D01*
X72470000Y-135248820D01*
X72486977Y-135163470D01*
X72503626Y-135079769D01*
X72569583Y-134920535D01*
X72603517Y-134869749D01*
X72665343Y-134777220D01*
X72787220Y-134655343D01*
X72930532Y-134559585D01*
X72930535Y-134559583D01*
X73089769Y-134493626D01*
X73221115Y-134467500D01*
X73258820Y-134460000D01*
X73431180Y-134460000D01*
X73468885Y-134467500D01*
X73468885Y-134467500D01*
G37*
G36*
X70976530Y-134472661D02*
G01*
X71141468Y-134522695D01*
X71293476Y-134603944D01*
X71426712Y-134713288D01*
X71536056Y-134846524D01*
X71617305Y-134998532D01*
X71667339Y-135163470D01*
X71684233Y-135335000D01*
X71667339Y-135506530D01*
X71617305Y-135671468D01*
X71536056Y-135823476D01*
X71426712Y-135956712D01*
X71293476Y-136066056D01*
X71141468Y-136147305D01*
X70976530Y-136197339D01*
X70847979Y-136210000D01*
X70762021Y-136210000D01*
X70633470Y-136197339D01*
X70468532Y-136147305D01*
X70316524Y-136066056D01*
X70183288Y-135956712D01*
X70073944Y-135823476D01*
X69992695Y-135671468D01*
X69942661Y-135506530D01*
X69925767Y-135335000D01*
X69942661Y-135163470D01*
X69992695Y-134998532D01*
X70073944Y-134846524D01*
X70183288Y-134713288D01*
X70316524Y-134603944D01*
X70468532Y-134522695D01*
X70633470Y-134472661D01*
X70762021Y-134460000D01*
X70847979Y-134460000D01*
X70976530Y-134472661D01*
X70976530Y-134472661D01*
G37*
G36*
X68436530Y-134472661D02*
G01*
X68601468Y-134522695D01*
X68753476Y-134603944D01*
X68886712Y-134713288D01*
X68996056Y-134846524D01*
X69077305Y-134998532D01*
X69127339Y-135163470D01*
X69144233Y-135335000D01*
X69127339Y-135506530D01*
X69077305Y-135671468D01*
X68996056Y-135823476D01*
X68886712Y-135956712D01*
X68753476Y-136066056D01*
X68601468Y-136147305D01*
X68436530Y-136197339D01*
X68307979Y-136210000D01*
X68222021Y-136210000D01*
X68093470Y-136197339D01*
X67928532Y-136147305D01*
X67776524Y-136066056D01*
X67643288Y-135956712D01*
X67533944Y-135823476D01*
X67452695Y-135671468D01*
X67402661Y-135506530D01*
X67385767Y-135335000D01*
X67402661Y-135163470D01*
X67452695Y-134998532D01*
X67533944Y-134846524D01*
X67643288Y-134713288D01*
X67776524Y-134603944D01*
X67928532Y-134522695D01*
X68093470Y-134472661D01*
X68222021Y-134460000D01*
X68307979Y-134460000D01*
X68436530Y-134472661D01*
X68436530Y-134472661D01*
G37*
G36*
X65789353Y-134813798D02*
G01*
X65827919Y-134817597D01*
X65869386Y-134830176D01*
X65926881Y-134847617D01*
X66018086Y-134896367D01*
X66098027Y-134961973D01*
X66163633Y-135041914D01*
X66212383Y-135133119D01*
X66242403Y-135232082D01*
X66252540Y-135335000D01*
X66242403Y-135437918D01*
X66212383Y-135536881D01*
X66163633Y-135628086D01*
X66098027Y-135708027D01*
X66018086Y-135773633D01*
X65926881Y-135822383D01*
X65877399Y-135837393D01*
X65827919Y-135852403D01*
X65789353Y-135856202D01*
X65750788Y-135860000D01*
X65699212Y-135860000D01*
X65660647Y-135856202D01*
X65622081Y-135852403D01*
X65572601Y-135837393D01*
X65523119Y-135822383D01*
X65431914Y-135773633D01*
X65351973Y-135708027D01*
X65286367Y-135628086D01*
X65237617Y-135536881D01*
X65207597Y-135437918D01*
X65197460Y-135335000D01*
X65207597Y-135232082D01*
X65237617Y-135133119D01*
X65286367Y-135041914D01*
X65351973Y-134961973D01*
X65431914Y-134896367D01*
X65523119Y-134847617D01*
X65580614Y-134830176D01*
X65622081Y-134817597D01*
X65660647Y-134813798D01*
X65699212Y-134810000D01*
X65750788Y-134810000D01*
X65789353Y-134813798D01*
X65789353Y-134813798D01*
G37*
G36*
X63249353Y-134813798D02*
G01*
X63287919Y-134817597D01*
X63329386Y-134830176D01*
X63386881Y-134847617D01*
X63478086Y-134896367D01*
X63558027Y-134961973D01*
X63623633Y-135041914D01*
X63672383Y-135133119D01*
X63702403Y-135232082D01*
X63712540Y-135335000D01*
X63702403Y-135437918D01*
X63672383Y-135536881D01*
X63623633Y-135628086D01*
X63558027Y-135708027D01*
X63478086Y-135773633D01*
X63386881Y-135822383D01*
X63337399Y-135837393D01*
X63287919Y-135852403D01*
X63249353Y-135856202D01*
X63210788Y-135860000D01*
X63159212Y-135860000D01*
X63120647Y-135856202D01*
X63082081Y-135852403D01*
X63032601Y-135837393D01*
X62983119Y-135822383D01*
X62891914Y-135773633D01*
X62811973Y-135708027D01*
X62746367Y-135628086D01*
X62697617Y-135536881D01*
X62667597Y-135437918D01*
X62657460Y-135335000D01*
X62667597Y-135232082D01*
X62697617Y-135133119D01*
X62746367Y-135041914D01*
X62811973Y-134961973D01*
X62891914Y-134896367D01*
X62983119Y-134847617D01*
X63040614Y-134830176D01*
X63082081Y-134817597D01*
X63120647Y-134813798D01*
X63159212Y-134810000D01*
X63210788Y-134810000D01*
X63249353Y-134813798D01*
X63249353Y-134813798D01*
G37*
G36*
X62137300Y-135302300D02*
G01*
X61249999Y-135302300D01*
X61234392Y-135303837D01*
X61219385Y-135308390D01*
X61205554Y-135315782D01*
X61193431Y-135325731D01*
X61183482Y-135337854D01*
X61176090Y-135351685D01*
X61171537Y-135366692D01*
X61170000Y-135382299D01*
X61170000Y-135386707D01*
X61149824Y-135488140D01*
X61110251Y-135583677D01*
X61110249Y-135583681D01*
X61052794Y-135669668D01*
X60979668Y-135742794D01*
X60893681Y-135800249D01*
X60893678Y-135800250D01*
X60893677Y-135800251D01*
X60798140Y-135839824D01*
X60734900Y-135852403D01*
X60696708Y-135860000D01*
X60593292Y-135860000D01*
X60555100Y-135852403D01*
X60491860Y-135839824D01*
X60396323Y-135800251D01*
X60396322Y-135800250D01*
X60396319Y-135800249D01*
X60310332Y-135742794D01*
X60237206Y-135669668D01*
X60179751Y-135583681D01*
X60179749Y-135583677D01*
X60140176Y-135488140D01*
X60120000Y-135386707D01*
X60120000Y-135283293D01*
X60140176Y-135181860D01*
X60179749Y-135086323D01*
X60179750Y-135086322D01*
X60179751Y-135086319D01*
X60237206Y-135000332D01*
X60310332Y-134927206D01*
X60396319Y-134869751D01*
X60396322Y-134869750D01*
X60396323Y-134869749D01*
X60491860Y-134830176D01*
X60567935Y-134815044D01*
X60593292Y-134810000D01*
X60696708Y-134810000D01*
X60722065Y-134815044D01*
X60798140Y-134830176D01*
X60893677Y-134869749D01*
X60893678Y-134869750D01*
X60893681Y-134869751D01*
X60979668Y-134927206D01*
X61000739Y-134948277D01*
X61012856Y-134958221D01*
X61026687Y-134965613D01*
X61041694Y-134970166D01*
X61057301Y-134971703D01*
X61072908Y-134970166D01*
X61087915Y-134965613D01*
X61101746Y-134958221D01*
X61113869Y-134948272D01*
X61123818Y-134936149D01*
X61131210Y-134922318D01*
X61135763Y-134907311D01*
X61137300Y-134891704D01*
X61137300Y-134377300D01*
X62137300Y-134377300D01*
X62137300Y-135302300D01*
X62137300Y-135302300D01*
G37*
G36*
X67360000Y-134467500D02*
G01*
X66160000Y-134467500D01*
X66160000Y-133667500D01*
X67360000Y-133667500D01*
X67360000Y-134467500D01*
X67360000Y-134467500D01*
G37*
G36*
X60722065Y-132275044D02*
G01*
X60798140Y-132290176D01*
X60893677Y-132329749D01*
X60893678Y-132329750D01*
X60893681Y-132329751D01*
X60979668Y-132387206D01*
X61052794Y-132460332D01*
X61110249Y-132546319D01*
X61110250Y-132546322D01*
X61110251Y-132546323D01*
X61149824Y-132641860D01*
X61168929Y-132737908D01*
X61173482Y-132752915D01*
X61180874Y-132766746D01*
X61190823Y-132778869D01*
X61202946Y-132788818D01*
X61216777Y-132796211D01*
X61231784Y-132800763D01*
X61247391Y-132802300D01*
X62137300Y-132802300D01*
X62137300Y-133727300D01*
X61137300Y-133727300D01*
X61137300Y-133238296D01*
X61135763Y-133222689D01*
X61131210Y-133207682D01*
X61123818Y-133193851D01*
X61113869Y-133181728D01*
X61101746Y-133171779D01*
X61087915Y-133164387D01*
X61072908Y-133159834D01*
X61057301Y-133158297D01*
X61041694Y-133159834D01*
X61026687Y-133164387D01*
X61012856Y-133171779D01*
X61000739Y-133181723D01*
X60979668Y-133202794D01*
X60893681Y-133260249D01*
X60893678Y-133260250D01*
X60893677Y-133260251D01*
X60798140Y-133299824D01*
X60722065Y-133314956D01*
X60696708Y-133320000D01*
X60593292Y-133320000D01*
X60567935Y-133314956D01*
X60491860Y-133299824D01*
X60396323Y-133260251D01*
X60396322Y-133260250D01*
X60396319Y-133260249D01*
X60310332Y-133202794D01*
X60237206Y-133129668D01*
X60179751Y-133043681D01*
X60179749Y-133043677D01*
X60140176Y-132948140D01*
X60120000Y-132846707D01*
X60120000Y-132743293D01*
X60140176Y-132641860D01*
X60179749Y-132546323D01*
X60179750Y-132546322D01*
X60179751Y-132546319D01*
X60237206Y-132460332D01*
X60310332Y-132387206D01*
X60396319Y-132329751D01*
X60396322Y-132329750D01*
X60396323Y-132329749D01*
X60491860Y-132290176D01*
X60567935Y-132275044D01*
X60593292Y-132270000D01*
X60696708Y-132270000D01*
X60722065Y-132275044D01*
X60722065Y-132275044D01*
G37*
G36*
X63356530Y-131932661D02*
G01*
X63521468Y-131982695D01*
X63673476Y-132063944D01*
X63806712Y-132173288D01*
X63916056Y-132306524D01*
X63997305Y-132458532D01*
X64047339Y-132623470D01*
X64064233Y-132795000D01*
X64047339Y-132966530D01*
X63997305Y-133131468D01*
X63916056Y-133283476D01*
X63806712Y-133416712D01*
X63673476Y-133526056D01*
X63521468Y-133607305D01*
X63356530Y-133657339D01*
X63227979Y-133670000D01*
X63142021Y-133670000D01*
X63013470Y-133657339D01*
X62848532Y-133607305D01*
X62696524Y-133526056D01*
X62563288Y-133416712D01*
X62453944Y-133283476D01*
X62372695Y-133131468D01*
X62322661Y-132966530D01*
X62305767Y-132795000D01*
X62322661Y-132623470D01*
X62372695Y-132458532D01*
X62453944Y-132306524D01*
X62563288Y-132173288D01*
X62696524Y-132063944D01*
X62848532Y-131982695D01*
X63013470Y-131932661D01*
X63142021Y-131920000D01*
X63227979Y-131920000D01*
X63356530Y-131932661D01*
X63356530Y-131932661D01*
G37*
G36*
X73473442Y-131928407D02*
G01*
X73600231Y-131953626D01*
X73759465Y-132019583D01*
X73759468Y-132019585D01*
X73902780Y-132115343D01*
X74024657Y-132237220D01*
X74060041Y-132290176D01*
X74120417Y-132380535D01*
X74186374Y-132539769D01*
X74220000Y-132708821D01*
X74220000Y-132881179D01*
X74186374Y-133050231D01*
X74120417Y-133209465D01*
X74120415Y-133209468D01*
X74024657Y-133352780D01*
X73902780Y-133474657D01*
X73759468Y-133570415D01*
X73759465Y-133570417D01*
X73600231Y-133636374D01*
X73494836Y-133657338D01*
X73431180Y-133670000D01*
X73258820Y-133670000D01*
X73195164Y-133657338D01*
X73089769Y-133636374D01*
X72930535Y-133570417D01*
X72930532Y-133570415D01*
X72787220Y-133474657D01*
X72665343Y-133352780D01*
X72569585Y-133209468D01*
X72569583Y-133209465D01*
X72503626Y-133050231D01*
X72470000Y-132881179D01*
X72470000Y-132708821D01*
X72503626Y-132539769D01*
X72569583Y-132380535D01*
X72629959Y-132290176D01*
X72665343Y-132237220D01*
X72787220Y-132115343D01*
X72930532Y-132019585D01*
X72930535Y-132019583D01*
X73089769Y-131953626D01*
X73216558Y-131928407D01*
X73258820Y-131920000D01*
X73431180Y-131920000D01*
X73473442Y-131928407D01*
X73473442Y-131928407D01*
G37*
G36*
X68436530Y-131932661D02*
G01*
X68601468Y-131982695D01*
X68753476Y-132063944D01*
X68886712Y-132173288D01*
X68996056Y-132306524D01*
X69077305Y-132458532D01*
X69127339Y-132623470D01*
X69144233Y-132795000D01*
X69127339Y-132966530D01*
X69077305Y-133131468D01*
X68996056Y-133283476D01*
X68886712Y-133416712D01*
X68753476Y-133526056D01*
X68601468Y-133607305D01*
X68436530Y-133657339D01*
X68307979Y-133670000D01*
X68222021Y-133670000D01*
X68093470Y-133657339D01*
X67928532Y-133607305D01*
X67776524Y-133526056D01*
X67643288Y-133416712D01*
X67533944Y-133283476D01*
X67452695Y-133131468D01*
X67402661Y-132966530D01*
X67385767Y-132795000D01*
X67402661Y-132623470D01*
X67452695Y-132458532D01*
X67533944Y-132306524D01*
X67643288Y-132173288D01*
X67776524Y-132063944D01*
X67928532Y-131982695D01*
X68093470Y-131932661D01*
X68222021Y-131920000D01*
X68307979Y-131920000D01*
X68436530Y-131932661D01*
X68436530Y-131932661D01*
G37*
G36*
X70976530Y-131932661D02*
G01*
X71141468Y-131982695D01*
X71293476Y-132063944D01*
X71426712Y-132173288D01*
X71536056Y-132306524D01*
X71617305Y-132458532D01*
X71667339Y-132623470D01*
X71684233Y-132795000D01*
X71667339Y-132966530D01*
X71617305Y-133131468D01*
X71536056Y-133283476D01*
X71426712Y-133416712D01*
X71293476Y-133526056D01*
X71141468Y-133607305D01*
X70976530Y-133657339D01*
X70847979Y-133670000D01*
X70762021Y-133670000D01*
X70633470Y-133657339D01*
X70468532Y-133607305D01*
X70316524Y-133526056D01*
X70183288Y-133416712D01*
X70073944Y-133283476D01*
X69992695Y-133131468D01*
X69942661Y-132966530D01*
X69925767Y-132795000D01*
X69942661Y-132623470D01*
X69992695Y-132458532D01*
X70073944Y-132306524D01*
X70183288Y-132173288D01*
X70316524Y-132063944D01*
X70468532Y-131982695D01*
X70633470Y-131932661D01*
X70762021Y-131920000D01*
X70847979Y-131920000D01*
X70976530Y-131932661D01*
X70976530Y-131932661D01*
G37*
G36*
X65802065Y-132275044D02*
G01*
X65878140Y-132290176D01*
X65973677Y-132329749D01*
X65973678Y-132329750D01*
X65973681Y-132329751D01*
X66059668Y-132387206D01*
X66132794Y-132460332D01*
X66190249Y-132546319D01*
X66190250Y-132546322D01*
X66190251Y-132546323D01*
X66229824Y-132641860D01*
X66250000Y-132743293D01*
X66250000Y-132846707D01*
X66229824Y-132948140D01*
X66190251Y-133043677D01*
X66190249Y-133043681D01*
X66132794Y-133129668D01*
X66059668Y-133202794D01*
X65973681Y-133260249D01*
X65973678Y-133260250D01*
X65973677Y-133260251D01*
X65878140Y-133299824D01*
X65802065Y-133314956D01*
X65776708Y-133320000D01*
X65673292Y-133320000D01*
X65647935Y-133314956D01*
X65571860Y-133299824D01*
X65476323Y-133260251D01*
X65476322Y-133260250D01*
X65476319Y-133260249D01*
X65390332Y-133202794D01*
X65317206Y-133129668D01*
X65259751Y-133043681D01*
X65259749Y-133043677D01*
X65220176Y-132948140D01*
X65200000Y-132846707D01*
X65200000Y-132743293D01*
X65220176Y-132641860D01*
X65259749Y-132546323D01*
X65259750Y-132546322D01*
X65259751Y-132546319D01*
X65317206Y-132460332D01*
X65390332Y-132387206D01*
X65476319Y-132329751D01*
X65476322Y-132329750D01*
X65476323Y-132329749D01*
X65571860Y-132290176D01*
X65647935Y-132275044D01*
X65673292Y-132270000D01*
X65776708Y-132270000D01*
X65802065Y-132275044D01*
X65802065Y-132275044D01*
G37*
G36*
X63852300Y-131307300D02*
G01*
X62852300Y-131307300D01*
X62852300Y-130382300D01*
X63852300Y-130382300D01*
X63852300Y-131307300D01*
X63852300Y-131307300D01*
G37*
G36*
X74302300Y-131307300D02*
G01*
X73302300Y-131307300D01*
X73302300Y-130382300D01*
X74302300Y-130382300D01*
X74302300Y-131307300D01*
X74302300Y-131307300D01*
G37*
G36*
X61762300Y-131307300D02*
G01*
X60762300Y-131307300D01*
X60762300Y-130382300D01*
X61762300Y-130382300D01*
X61762300Y-131307300D01*
X61762300Y-131307300D01*
G37*
G36*
X65942300Y-131307300D02*
G01*
X64942300Y-131307300D01*
X64942300Y-130382300D01*
X65942300Y-130382300D01*
X65942300Y-131307300D01*
X65942300Y-131307300D01*
G37*
G36*
X68032300Y-131307300D02*
G01*
X67032300Y-131307300D01*
X67032300Y-130382300D01*
X68032300Y-130382300D01*
X68032300Y-131307300D01*
X68032300Y-131307300D01*
G37*
G36*
X70122300Y-131307300D02*
G01*
X69122300Y-131307300D01*
X69122300Y-130382300D01*
X70122300Y-130382300D01*
X70122300Y-131307300D01*
X70122300Y-131307300D01*
G37*
G36*
X72212300Y-131307300D02*
G01*
X71212300Y-131307300D01*
X71212300Y-130382300D01*
X72212300Y-130382300D01*
X72212300Y-131307300D01*
X72212300Y-131307300D01*
G37*
G36*
X72212300Y-129732300D02*
G01*
X71212300Y-129732300D01*
X71212300Y-128807300D01*
X72212300Y-128807300D01*
X72212300Y-129732300D01*
X72212300Y-129732300D01*
G37*
G36*
X74302300Y-129732300D02*
G01*
X73302300Y-129732300D01*
X73302300Y-128807300D01*
X74302300Y-128807300D01*
X74302300Y-129732300D01*
X74302300Y-129732300D01*
G37*
G36*
X70122300Y-129732300D02*
G01*
X69122300Y-129732300D01*
X69122300Y-128807300D01*
X70122300Y-128807300D01*
X70122300Y-129732300D01*
X70122300Y-129732300D01*
G37*
G36*
X68032300Y-129732300D02*
G01*
X67032300Y-129732300D01*
X67032300Y-128807300D01*
X68032300Y-128807300D01*
X68032300Y-129732300D01*
X68032300Y-129732300D01*
G37*
G36*
X65942300Y-129732300D02*
G01*
X64942300Y-129732300D01*
X64942300Y-128807300D01*
X65942300Y-128807300D01*
X65942300Y-129732300D01*
X65942300Y-129732300D01*
G37*
G36*
X63852300Y-129732300D02*
G01*
X62852300Y-129732300D01*
X62852300Y-128807300D01*
X63852300Y-128807300D01*
X63852300Y-129732300D01*
X63852300Y-129732300D01*
G37*
G36*
X61762300Y-129732300D02*
G01*
X60762300Y-129732300D01*
X60762300Y-128807300D01*
X61762300Y-128807300D01*
X61762300Y-129732300D01*
X61762300Y-129732300D01*
G37*
M02*
