%TF.GenerationSoftware,KiCad,Pcbnew,(5.1.2-1)-1*%
%TF.CreationDate,2020-09-09T12:48:07+02:00*%
%TF.ProjectId,RGB BYPASS AMP v3.1,52474220-4259-4504-9153-5320414d5020,2.21*%
%TF.SameCoordinates,Original*%
%TF.FileFunction,Copper,L2,Bot*%
%TF.FilePolarity,Positive*%
%FSLAX46Y46*%
G04 Gerber Fmt 4.6, Leading zero omitted, Abs format (unit mm)*
G04 Created by KiCad (PCBNEW (5.1.2-1)-1) date 2020-09-09 12:48:07*
%MOMM*%
%LPD*%
G04 APERTURE LIST*
%ADD10C,1.700000*%
%ADD11O,1.700000X1.700000*%
%ADD12C,0.500000*%
%ADD13C,0.400000*%
%ADD14C,0.152400*%
%ADD15C,0.250000*%
%ADD16C,0.100000*%
G04 APERTURE END LIST*
D10*
X73345000Y-132795000D03*
X73345000Y-135335000D03*
D11*
X70805000Y-132795000D03*
X70805000Y-135335000D03*
X68265000Y-132795000D03*
X68265000Y-135335000D03*
X63185000Y-132795000D03*
D12*
X65455000Y-138850000D03*
X71725000Y-140267500D03*
X69635000Y-140267500D03*
X71225000Y-145625000D03*
X68150000Y-145625000D03*
X63365000Y-138850000D03*
D13*
X62280000Y-135915000D03*
X63955000Y-135915000D03*
X64955000Y-135915000D03*
X64455000Y-135915000D03*
X63955000Y-134815000D03*
X64455000Y-134815000D03*
X64955000Y-134815000D03*
X69625000Y-146150000D03*
X67725000Y-147924000D03*
X59615000Y-139795000D03*
X59615000Y-136435000D03*
X70700000Y-141725000D03*
X59615000Y-131695000D03*
D12*
X67532300Y-129419800D03*
D13*
X62320000Y-128680000D03*
X64410000Y-128680000D03*
X60230000Y-128680000D03*
X64205000Y-135365000D03*
X64705000Y-135365000D03*
X65715000Y-143095000D03*
X64715000Y-143095000D03*
X65965000Y-142545000D03*
X64965000Y-142545000D03*
X64715000Y-141995000D03*
X65215000Y-141995000D03*
X65215000Y-143095000D03*
X65715000Y-141995000D03*
X63475000Y-144350000D03*
X64465000Y-142545000D03*
X65465000Y-142545000D03*
X67725000Y-148424000D03*
X67725000Y-147424000D03*
X70700000Y-141725000D03*
X66699800Y-147936700D03*
D12*
X73802300Y-130844800D03*
X65442300Y-130844800D03*
X66045000Y-144400000D03*
X71712300Y-129419800D03*
X66695000Y-143500000D03*
X69622300Y-129419800D03*
X67345000Y-142600000D03*
X67532300Y-130844800D03*
X73802300Y-129419800D03*
X65395000Y-145300000D03*
X62760000Y-134067500D03*
X64095000Y-145300000D03*
X61765200Y-141562300D03*
D14*
X65455000Y-138845000D02*
X65455000Y-138850000D01*
X63365000Y-138850000D02*
X63400000Y-138850000D01*
D15*
X68150000Y-145625000D02*
X71225000Y-145625000D01*
D14*
X63402500Y-138850000D02*
X63365000Y-138850000D01*
X69635000Y-140267500D02*
X69597500Y-140267500D01*
D15*
X68800000Y-138850000D02*
X68925000Y-138850000D01*
X68675000Y-138850000D02*
X68800000Y-138850000D01*
D14*
X69275000Y-138850000D02*
X68675000Y-138850000D01*
X68350000Y-138850000D02*
X68800000Y-138850000D01*
D15*
X68350000Y-138850000D02*
X68675000Y-138850000D01*
D14*
X69250000Y-138850000D02*
X68925000Y-138850000D01*
X71687500Y-140267500D02*
X71725000Y-140267500D01*
D15*
X70270000Y-138850000D02*
X70675000Y-139255000D01*
X67350000Y-138850000D02*
X70270000Y-138850000D01*
D14*
X70475000Y-139055000D02*
X70675000Y-139255000D01*
D15*
X70675000Y-139255000D02*
X71687500Y-140267500D01*
X65455000Y-138850000D02*
X67350000Y-138850000D01*
X67350000Y-138850000D02*
X68350000Y-138850000D01*
X64820000Y-140267500D02*
X63875000Y-139322500D01*
X69635000Y-140267500D02*
X64820000Y-140267500D01*
X63875000Y-139322500D02*
X63402500Y-138850000D01*
X64052500Y-139500000D02*
X63875000Y-139322500D01*
X69000000Y-128690000D02*
X71770000Y-128690000D01*
D14*
X73764800Y-130844800D02*
X73802300Y-130844800D01*
D15*
X73894000Y-130760000D02*
X73657033Y-130523033D01*
X73677000Y-130840000D02*
X73677000Y-130560000D01*
X73644000Y-130510000D02*
X73407033Y-130273033D01*
X73394000Y-130260000D02*
X73157033Y-130023033D01*
X73144000Y-130010000D02*
X72907033Y-129773033D01*
X72894000Y-129760000D02*
X72657033Y-129523033D01*
X72644000Y-129510000D02*
X72407033Y-129273033D01*
X72394000Y-129260000D02*
X72157033Y-129023033D01*
X72144000Y-129010000D02*
X71907033Y-128773033D01*
X71824000Y-128690000D02*
X71907033Y-128773033D01*
X71770000Y-128690000D02*
X71824000Y-128690000D01*
X69000000Y-128690000D02*
X68530000Y-128690000D01*
D14*
X67770000Y-128690000D02*
X67980000Y-128690000D01*
D15*
X67217300Y-128892700D02*
X65355000Y-130755000D01*
X65567000Y-130847400D02*
X65567000Y-130550000D01*
X67420000Y-128690000D02*
X67217300Y-128892700D01*
X68160000Y-128690000D02*
X67420000Y-128690000D01*
X68530000Y-128690000D02*
X68160000Y-128690000D01*
X68160000Y-128690000D02*
X67770000Y-128690000D01*
D14*
X68400000Y-144075000D02*
X67670000Y-144075000D01*
X71480000Y-143270000D02*
X71500000Y-143270000D01*
D15*
X68900000Y-144095000D02*
X68400000Y-144095000D01*
X69550000Y-144095000D02*
X69150000Y-144095000D01*
X69150000Y-144095000D02*
X68900000Y-144095000D01*
X70725000Y-144095000D02*
X72400000Y-142420000D01*
X68900000Y-144095000D02*
X69800000Y-144095000D01*
X72400000Y-142420000D02*
X71950000Y-142870000D01*
D14*
X69800000Y-144095000D02*
X70725000Y-144095000D01*
X70725000Y-144095000D02*
X72845000Y-141975000D01*
X70100000Y-144095000D02*
X70725000Y-144095000D01*
D15*
X72845000Y-141975000D02*
X72400000Y-142420000D01*
X69800000Y-144095000D02*
X70100000Y-144095000D01*
X70525000Y-144095000D02*
X70725000Y-144095000D01*
X70100000Y-144095000D02*
X70525000Y-144095000D01*
X70525000Y-144095000D02*
X70675000Y-144095000D01*
X66050400Y-144274980D02*
X66340000Y-144274980D01*
X66526760Y-144095000D02*
X66355270Y-144266490D01*
X66355270Y-144266490D02*
X66133020Y-144488740D01*
X66896260Y-144095000D02*
X66526760Y-144095000D01*
X66896260Y-144095000D02*
X69150000Y-144095000D01*
X73155000Y-141665000D02*
X72845000Y-141975000D01*
X72060000Y-132020000D02*
X72060000Y-133030000D01*
X72060000Y-133030000D02*
X72060000Y-133940000D01*
X72060000Y-133940000D02*
X72060000Y-134150000D01*
X73750000Y-141070000D02*
X73480000Y-141340000D01*
X73480000Y-141340000D02*
X73610000Y-141210000D01*
X73155000Y-141665000D02*
X73480000Y-141340000D01*
X73850000Y-140970000D02*
X73850000Y-139930000D01*
X73480000Y-141340000D02*
X73850000Y-140970000D01*
X73850000Y-139930000D02*
X73850000Y-140410000D01*
X73850000Y-139410000D02*
X73850000Y-139930000D01*
X72060000Y-137320000D02*
X72250000Y-137510000D01*
X72060000Y-136150000D02*
X72060000Y-137320000D01*
X72860000Y-138120000D02*
X72250000Y-137510000D01*
X72060000Y-133940000D02*
X72060000Y-136150000D01*
X72060000Y-136150000D02*
X72060000Y-136830000D01*
X73850000Y-139110000D02*
X73570000Y-138830000D01*
X73850000Y-139930000D02*
X73850000Y-139110000D01*
X73570000Y-138830000D02*
X73710000Y-138970000D01*
X72860000Y-138120000D02*
X73570000Y-138830000D01*
X71712300Y-131672300D02*
X72060000Y-132020000D01*
X71712300Y-129419800D02*
X71712300Y-131212300D01*
X71712300Y-131212300D02*
X71712300Y-131672300D01*
X69025000Y-143195000D02*
X67975000Y-143195000D01*
X70475000Y-143195000D02*
X69025000Y-143195000D01*
X69025000Y-143195000D02*
X68473280Y-143195000D01*
X67975000Y-143195000D02*
X67546260Y-143195000D01*
X66700400Y-143374980D02*
X66990000Y-143374980D01*
X67176760Y-143195000D02*
X67005270Y-143366490D01*
X67546260Y-143195000D02*
X67176760Y-143195000D01*
X67005270Y-143366490D02*
X66783020Y-143588740D01*
X67546260Y-143195000D02*
X67279560Y-143195000D01*
X70835000Y-143195000D02*
X71155000Y-142875000D01*
D14*
X71265000Y-142765000D02*
X71155000Y-142875000D01*
D15*
X71265000Y-142765000D02*
X71105000Y-142925000D01*
X69025000Y-143195000D02*
X70835000Y-143195000D01*
D14*
X72355000Y-141675000D02*
X72480000Y-141550000D01*
D15*
X71265000Y-142765000D02*
X72355000Y-141675000D01*
X72620000Y-141410000D02*
X73075000Y-140955000D01*
X73075000Y-140955000D02*
X73075000Y-140265000D01*
X72620000Y-141410000D02*
X72355000Y-141675000D01*
X73075000Y-139465000D02*
X71685000Y-138075000D01*
X73075000Y-140065000D02*
X73075000Y-139465000D01*
X73075000Y-140065000D02*
X73075000Y-140265000D01*
X71685000Y-138075000D02*
X72010000Y-138400000D01*
X69530000Y-135920000D02*
X69650000Y-136040000D01*
X69560000Y-135950000D02*
X69650000Y-136040000D01*
D14*
X69622300Y-129387700D02*
X69530000Y-129480000D01*
X69622300Y-129269800D02*
X69622300Y-129387700D01*
D15*
X69497400Y-129732000D02*
X69497400Y-129420000D01*
D14*
X69530000Y-129362100D02*
X69622300Y-129269800D01*
X69622300Y-129269800D02*
X69622300Y-129272300D01*
X69560300Y-129727700D02*
X69748000Y-129540000D01*
D15*
X69497400Y-135887400D02*
X69650000Y-136040000D01*
X69497400Y-135887400D02*
X69497400Y-135232600D01*
D14*
X69770000Y-136160000D02*
X69497400Y-135887400D01*
D15*
X69497400Y-129732000D02*
X69497400Y-135232600D01*
X69650000Y-136040000D02*
X69770000Y-136160000D01*
X69770000Y-136160000D02*
X71685000Y-138075000D01*
X71415000Y-141825000D02*
X71300000Y-141940000D01*
X70945000Y-142295000D02*
X71140000Y-142100000D01*
X69725000Y-142295000D02*
X70945000Y-142295000D01*
X71140000Y-142100000D02*
X71415000Y-141825000D01*
X70125000Y-142295000D02*
X69725000Y-142295000D01*
X70965000Y-142275000D02*
X71140000Y-142100000D01*
X69725000Y-142295000D02*
X68150000Y-142295000D01*
X67350400Y-142474980D02*
X67640000Y-142474980D01*
X67655270Y-142466490D02*
X67433020Y-142688740D01*
X68196260Y-142295000D02*
X67929560Y-142295000D01*
X67826760Y-142295000D02*
X67655270Y-142466490D01*
X68196260Y-142295000D02*
X67826760Y-142295000D01*
D14*
X71300000Y-135830000D02*
X70805000Y-135335000D01*
X70805000Y-135335000D02*
X70805000Y-135995000D01*
D15*
X66650000Y-131689600D02*
X66650000Y-136020000D01*
X67494800Y-130844800D02*
X66650000Y-131689600D01*
D14*
X67532300Y-130844800D02*
X67494800Y-130844800D01*
D15*
X72385000Y-139885000D02*
X72385000Y-140855000D01*
X72385000Y-140855000D02*
X71415000Y-141825000D01*
X69620000Y-137120000D02*
X72385000Y-139885000D01*
X66650000Y-136020000D02*
X67750000Y-137120000D01*
D14*
X69230000Y-137120000D02*
X69285830Y-137120000D01*
X69285830Y-137120000D02*
X69350000Y-137120000D01*
D15*
X68890000Y-137120000D02*
X69230000Y-137120000D01*
X68890000Y-137120000D02*
X69620000Y-137120000D01*
X67750000Y-137120000D02*
X68890000Y-137120000D01*
X73802300Y-129392300D02*
X74570000Y-130160000D01*
D14*
X68650000Y-144975000D02*
X67670000Y-144975000D01*
D15*
X69400000Y-144995000D02*
X70565000Y-144995000D01*
X69400000Y-144995000D02*
X69225000Y-144995000D01*
X70615000Y-144995000D02*
X72485000Y-143125000D01*
X72060000Y-143550000D02*
X72485000Y-143125000D01*
X69625000Y-144995000D02*
X69400000Y-144995000D01*
X70025000Y-144995000D02*
X69625000Y-144995000D01*
X70425000Y-144995000D02*
X70615000Y-144995000D01*
D14*
X69625000Y-144995000D02*
X70425000Y-144995000D01*
D15*
X65400400Y-145174980D02*
X65690000Y-145174980D01*
X65705270Y-145166490D02*
X65483020Y-145388740D01*
X65876760Y-144995000D02*
X65705270Y-145166490D01*
X66246260Y-144995000D02*
X65876760Y-144995000D01*
X66246260Y-144995000D02*
X69021060Y-144995000D01*
X69021060Y-144995000D02*
X68650000Y-144995000D01*
X69225000Y-144995000D02*
X69021060Y-144995000D01*
X72485000Y-143125000D02*
X73930000Y-141680000D01*
X74570000Y-141040000D02*
X74320000Y-141290000D01*
X74570000Y-140760000D02*
X74570000Y-141040000D01*
D14*
X74320000Y-141290000D02*
X74423601Y-141186399D01*
D15*
X73930000Y-141680000D02*
X74320000Y-141290000D01*
D14*
X74570000Y-130570000D02*
X74570000Y-130420000D01*
D15*
X74570000Y-140760000D02*
X74570000Y-130570000D01*
X74570000Y-130720000D02*
X74570000Y-130160000D01*
X64095000Y-145325000D02*
X64095000Y-144405000D01*
X64095000Y-144500000D02*
X64095000Y-145325000D01*
D14*
X61752500Y-141575000D02*
X61752500Y-141612500D01*
X61752500Y-141575000D02*
X61752500Y-141672500D01*
X61765200Y-141599800D02*
X61765200Y-141562300D01*
D15*
X64095000Y-143929600D02*
X61765200Y-141599800D01*
X64095000Y-144245000D02*
X64095000Y-143929600D01*
X64095000Y-145300000D02*
X64095000Y-144245000D01*
X64095000Y-144245000D02*
X64095000Y-144047500D01*
X61765200Y-135062300D02*
X62760000Y-134067500D01*
X61765200Y-136305200D02*
X61765200Y-135062300D01*
X61765200Y-141562300D02*
X61765200Y-136305200D01*
D14*
X61765200Y-136305200D02*
X61765200Y-135465200D01*
D16*
X60091346Y-128455000D02*
X67131742Y-128455000D01*
X59729554Y-128550000D02*
X67036742Y-128550000D01*
X59592799Y-128645000D02*
X66941742Y-128645000D01*
X59502591Y-128740000D02*
X66846742Y-128740000D01*
X59437710Y-128835000D02*
X66751742Y-128835000D01*
X59389575Y-128930000D02*
X66656742Y-128930000D01*
X59360893Y-129025000D02*
X66561742Y-129025000D01*
X59344533Y-129120000D02*
X66466742Y-129120000D01*
X67513258Y-129120000D02*
X69227289Y-129120000D01*
X59335218Y-129215000D02*
X66371742Y-129215000D01*
X67418258Y-129215000D02*
X69171348Y-129215000D01*
X59335000Y-129310000D02*
X66276742Y-129310000D01*
X67323258Y-129310000D02*
X69139444Y-129310000D01*
X59335000Y-129405000D02*
X66181742Y-129405000D01*
X67228258Y-129405000D02*
X69127300Y-129405000D01*
X59335000Y-129500000D02*
X66086742Y-129500000D01*
X67133258Y-129500000D02*
X69127400Y-129500000D01*
X59335000Y-129595000D02*
X65991742Y-129595000D01*
X67038258Y-129595000D02*
X69127400Y-129595000D01*
X59335000Y-129690000D02*
X65896742Y-129690000D01*
X66943258Y-129690000D02*
X69127400Y-129690000D01*
X59335000Y-129785000D02*
X65801742Y-129785000D01*
X66848258Y-129785000D02*
X69127400Y-129785000D01*
X59335000Y-129880000D02*
X65706742Y-129880000D01*
X66753258Y-129880000D02*
X69127400Y-129880000D01*
X59335000Y-129975000D02*
X65611742Y-129975000D01*
X66658258Y-129975000D02*
X69127400Y-129975000D01*
X59335000Y-130070000D02*
X65516742Y-130070000D01*
X66563258Y-130070000D02*
X69127400Y-130070000D01*
X59335000Y-130165000D02*
X65421742Y-130165000D01*
X66468258Y-130165000D02*
X69127400Y-130165000D01*
X59335000Y-130260000D02*
X65326742Y-130260000D01*
X66373258Y-130260000D02*
X69127400Y-130260000D01*
X59335000Y-130355000D02*
X65231742Y-130355000D01*
X66278258Y-130355000D02*
X67457406Y-130355000D01*
X67607195Y-130355000D02*
X69127400Y-130355000D01*
X59335000Y-130450000D02*
X65136742Y-130450000D01*
X66183258Y-130450000D02*
X67232184Y-130450000D01*
X67832417Y-130450000D02*
X69127400Y-130450000D01*
X59335000Y-130545000D02*
X65047289Y-130545000D01*
X66088258Y-130545000D02*
X67137289Y-130545000D01*
X67927312Y-130545000D02*
X69127400Y-130545000D01*
X59335000Y-130640000D02*
X64991348Y-130640000D01*
X65993258Y-130640000D02*
X67081348Y-130640000D01*
X67983253Y-130640000D02*
X69127400Y-130640000D01*
X59335000Y-130735000D02*
X64959444Y-130735000D01*
X65937000Y-130735000D02*
X67049444Y-130735000D01*
X68015157Y-130735000D02*
X69127400Y-130735000D01*
X59335000Y-130830000D02*
X64947300Y-130830000D01*
X65937300Y-130830000D02*
X66986342Y-130830000D01*
X68027300Y-130830000D02*
X69127400Y-130830000D01*
X59335000Y-130925000D02*
X64953555Y-130925000D01*
X65931044Y-130925000D02*
X66891342Y-130925000D01*
X68021044Y-130925000D02*
X69127400Y-130925000D01*
X59335000Y-131020000D02*
X64979086Y-131020000D01*
X65905513Y-131020000D02*
X66796342Y-131020000D01*
X67995513Y-131020000D02*
X69127400Y-131020000D01*
X59335000Y-131115000D02*
X65027510Y-131115000D01*
X65857089Y-131115000D02*
X66701342Y-131115000D01*
X67947089Y-131115000D02*
X69127400Y-131115000D01*
X59335000Y-131210000D02*
X65107464Y-131210000D01*
X65777136Y-131210000D02*
X66606342Y-131210000D01*
X67867136Y-131210000D02*
X69127400Y-131210000D01*
X59335000Y-131305000D02*
X65259824Y-131305000D01*
X65624775Y-131305000D02*
X66511342Y-131305000D01*
X67714775Y-131305000D02*
X69127400Y-131305000D01*
X59335000Y-131400000D02*
X66416342Y-131400000D01*
X67462858Y-131400000D02*
X69127400Y-131400000D01*
X59335000Y-131495000D02*
X66334479Y-131495000D01*
X67367858Y-131495000D02*
X69127400Y-131495000D01*
X59335000Y-131590000D02*
X66293566Y-131590000D01*
X67272858Y-131590000D02*
X69127400Y-131590000D01*
X59335000Y-131685000D02*
X66278665Y-131685000D01*
X67177858Y-131685000D02*
X69127400Y-131685000D01*
X59335000Y-131780000D02*
X62761048Y-131780000D01*
X63608953Y-131780000D02*
X66280000Y-131780000D01*
X67082858Y-131780000D02*
X67718706Y-131780000D01*
X68124500Y-131780000D02*
X68405500Y-131780000D01*
X68811295Y-131780000D02*
X69127400Y-131780000D01*
X59335000Y-131875000D02*
X62583316Y-131875000D01*
X63786685Y-131875000D02*
X66280000Y-131875000D01*
X67020000Y-131875000D02*
X67576185Y-131875000D01*
X68124500Y-131875000D02*
X68405500Y-131875000D01*
X68953816Y-131875000D02*
X69127400Y-131875000D01*
X59335000Y-131970000D02*
X62464208Y-131970000D01*
X63905793Y-131970000D02*
X66280000Y-131970000D01*
X67020000Y-131970000D02*
X67465266Y-131970000D01*
X68124500Y-131970000D02*
X68405500Y-131970000D01*
X69064735Y-131970000D02*
X69127400Y-131970000D01*
X59335000Y-132065000D02*
X60496214Y-132065000D01*
X60793787Y-132065000D02*
X62367557Y-132065000D01*
X64002444Y-132065000D02*
X65576214Y-132065000D01*
X65873787Y-132065000D02*
X66280000Y-132065000D01*
X67020000Y-132065000D02*
X67373146Y-132065000D01*
X68124500Y-132065000D02*
X68405500Y-132065000D01*
X59335000Y-132160000D02*
X60254380Y-132160000D01*
X61035621Y-132160000D02*
X62289592Y-132160000D01*
X64080409Y-132160000D02*
X65334380Y-132160000D01*
X66115621Y-132160000D02*
X66280000Y-132160000D01*
X67020000Y-132160000D02*
X67307970Y-132160000D01*
X68124500Y-132160000D02*
X68405500Y-132160000D01*
X59335000Y-132255000D02*
X60131411Y-132255000D01*
X61158589Y-132255000D02*
X62232029Y-132255000D01*
X64137972Y-132255000D02*
X65211411Y-132255000D01*
X66238589Y-132255000D02*
X66280000Y-132255000D01*
X67020000Y-132255000D02*
X67246586Y-132255000D01*
X68124500Y-132255000D02*
X68405500Y-132255000D01*
X59335000Y-132350000D02*
X60046336Y-132350000D01*
X61243665Y-132350000D02*
X62181251Y-132350000D01*
X64188750Y-132350000D02*
X65126336Y-132350000D01*
X67020000Y-132350000D02*
X67206007Y-132350000D01*
X68124500Y-132350000D02*
X68405500Y-132350000D01*
X59335000Y-132445000D02*
X59983592Y-132445000D01*
X61306409Y-132445000D02*
X62146900Y-132445000D01*
X64223101Y-132445000D02*
X65063592Y-132445000D01*
X67020000Y-132445000D02*
X67168359Y-132445000D01*
X68124500Y-132445000D02*
X68405500Y-132445000D01*
X59335000Y-132540000D02*
X59944242Y-132540000D01*
X61345759Y-132540000D02*
X62118082Y-132540000D01*
X64251919Y-132540000D02*
X65024242Y-132540000D01*
X67020000Y-132540000D02*
X67169820Y-132540000D01*
X68124500Y-132540000D02*
X68405500Y-132540000D01*
X59335000Y-132635000D02*
X59917231Y-132635000D01*
X61372770Y-132635000D02*
X62100461Y-132635000D01*
X64269540Y-132635000D02*
X64997231Y-132635000D01*
X67020000Y-132635000D02*
X67191191Y-132635000D01*
X68124500Y-132635000D02*
X68405500Y-132635000D01*
X59335000Y-132730000D02*
X59900000Y-132730000D01*
X61390000Y-132730000D02*
X62091104Y-132730000D01*
X64278897Y-132730000D02*
X64980000Y-132730000D01*
X67020000Y-132730000D02*
X68425500Y-132730000D01*
X59335000Y-132825000D02*
X59900000Y-132825000D01*
X61390000Y-132825000D02*
X62087656Y-132825000D01*
X64282343Y-132825000D02*
X64980000Y-132825000D01*
X67020000Y-132825000D02*
X68425500Y-132825000D01*
X59335000Y-132920000D02*
X59910268Y-132920000D01*
X61379731Y-132920000D02*
X62097013Y-132920000D01*
X64272986Y-132920000D02*
X64990268Y-132920000D01*
X67020000Y-132920000D02*
X68425500Y-132920000D01*
X59335000Y-133015000D02*
X59929744Y-133015000D01*
X61360255Y-133015000D02*
X62107464Y-133015000D01*
X64262535Y-133015000D02*
X65009744Y-133015000D01*
X67020000Y-133015000D02*
X67177695Y-133015000D01*
X68124500Y-133015000D02*
X68405500Y-133015000D01*
X59335000Y-133110000D02*
X59969094Y-133110000D01*
X61320905Y-133110000D02*
X62136282Y-133110000D01*
X64233717Y-133110000D02*
X65049094Y-133110000D01*
X67020000Y-133110000D02*
X67156324Y-133110000D01*
X68124500Y-133110000D02*
X68405500Y-133110000D01*
X59335000Y-133205000D02*
X60022949Y-133205000D01*
X61267050Y-133205000D02*
X62165100Y-133205000D01*
X64204899Y-133205000D02*
X65102949Y-133205000D01*
X67020000Y-133205000D02*
X67192136Y-133205000D01*
X68124500Y-133205000D02*
X68405500Y-133205000D01*
X59335000Y-133300000D02*
X60096411Y-133300000D01*
X61193589Y-133300000D02*
X62213320Y-133300000D01*
X64156679Y-133300000D02*
X65176411Y-133300000D01*
X66273589Y-133300000D02*
X66280000Y-133300000D01*
X67020000Y-133300000D02*
X67229783Y-133300000D01*
X68124500Y-133300000D02*
X68405500Y-133300000D01*
X59335000Y-133395000D02*
X60201998Y-133395000D01*
X61088001Y-133395000D02*
X62264099Y-133395000D01*
X64105900Y-133395000D02*
X65281998Y-133395000D01*
X66168001Y-133395000D02*
X66280000Y-133395000D01*
X67020000Y-133395000D02*
X67285354Y-133395000D01*
X68124500Y-133395000D02*
X68405500Y-133395000D01*
X59335000Y-133490000D02*
X60376098Y-133490000D01*
X60913901Y-133490000D02*
X62338832Y-133490000D01*
X64031167Y-133490000D02*
X65456098Y-133490000D01*
X65993901Y-133490000D02*
X66280000Y-133490000D01*
X67020000Y-133490000D02*
X67346737Y-133490000D01*
X68124500Y-133490000D02*
X68405500Y-133490000D01*
X59335000Y-133585000D02*
X62421559Y-133585000D01*
X63948440Y-133585000D02*
X66280000Y-133585000D01*
X67020000Y-133585000D02*
X67431326Y-133585000D01*
X68124500Y-133585000D02*
X68405500Y-133585000D01*
X69098674Y-133585000D02*
X69127401Y-133585000D01*
X59335000Y-133680000D02*
X62448958Y-133680000D01*
X63832682Y-133680000D02*
X66280000Y-133680000D01*
X67020000Y-133680000D02*
X67525509Y-133680000D01*
X68124500Y-133680000D02*
X68405500Y-133680000D01*
X69004490Y-133680000D02*
X69127401Y-133680000D01*
X59335000Y-133775000D02*
X62360111Y-133775000D01*
X63674432Y-133775000D02*
X66280000Y-133775000D01*
X67020000Y-133775000D02*
X67663055Y-133775000D01*
X68124500Y-133775000D02*
X68405500Y-133775000D01*
X68866944Y-133775000D02*
X69127401Y-133775000D01*
X59335000Y-133870000D02*
X62306024Y-133870000D01*
X63413357Y-133870000D02*
X66280000Y-133870000D01*
X67020000Y-133870000D02*
X67857477Y-133870000D01*
X68097375Y-133870000D02*
X68432624Y-133870000D01*
X68672522Y-133870000D02*
X69127401Y-133870000D01*
X59335000Y-133965000D02*
X62275692Y-133965000D01*
X63244309Y-133965000D02*
X66280000Y-133965000D01*
X67020000Y-133965000D02*
X69127401Y-133965000D01*
X59335000Y-134060000D02*
X62244242Y-134060000D01*
X63255000Y-134060000D02*
X66280000Y-134060000D01*
X67020000Y-134060000D02*
X69127401Y-134060000D01*
X59335000Y-134155000D02*
X62149242Y-134155000D01*
X63247292Y-134155000D02*
X66280000Y-134155000D01*
X67020000Y-134155000D02*
X69127401Y-134155000D01*
X59335000Y-134250000D02*
X62054242Y-134250000D01*
X63220189Y-134250000D02*
X66280000Y-134250000D01*
X67020000Y-134250000D02*
X67880607Y-134250000D01*
X68053592Y-134250000D02*
X68476409Y-134250000D01*
X68649394Y-134250000D02*
X69127401Y-134250000D01*
X59335000Y-134345000D02*
X61959242Y-134345000D01*
X63169911Y-134345000D02*
X66280000Y-134345000D01*
X67020000Y-134345000D02*
X67677535Y-134345000D01*
X68124500Y-134345000D02*
X68405500Y-134345000D01*
X68852466Y-134345000D02*
X69127401Y-134345000D01*
X59335000Y-134440000D02*
X61864242Y-134440000D01*
X63087536Y-134440000D02*
X66280000Y-134440000D01*
X67020000Y-134440000D02*
X67539989Y-134440000D01*
X68124500Y-134440000D02*
X68405500Y-134440000D01*
X68990012Y-134440000D02*
X69127401Y-134440000D01*
X59335000Y-134535000D02*
X61769242Y-134535000D01*
X62924851Y-134535000D02*
X66280000Y-134535000D01*
X67020000Y-134535000D02*
X67441024Y-134535000D01*
X68124500Y-134535000D02*
X68405500Y-134535000D01*
X69088977Y-134535000D02*
X69127401Y-134535000D01*
X59335000Y-134630000D02*
X60400242Y-134630000D01*
X60889759Y-134630000D02*
X61674242Y-134630000D01*
X62720758Y-134630000D02*
X62942630Y-134630000D01*
X63427371Y-134630000D02*
X65482630Y-134630000D01*
X65967371Y-134630000D02*
X66280000Y-134630000D01*
X67020000Y-134630000D02*
X67353200Y-134630000D01*
X68124500Y-134630000D02*
X68405500Y-134630000D01*
X59335000Y-134725000D02*
X60216965Y-134725000D01*
X61073036Y-134725000D02*
X61579242Y-134725000D01*
X62625758Y-134725000D02*
X62753939Y-134725000D01*
X63616062Y-134725000D02*
X65293939Y-134725000D01*
X66156062Y-134725000D02*
X66280000Y-134725000D01*
X67020000Y-134725000D02*
X67291816Y-134725000D01*
X68124500Y-134725000D02*
X68405500Y-134725000D01*
X59335000Y-134820000D02*
X60106411Y-134820000D01*
X61183589Y-134820000D02*
X61485404Y-134820000D01*
X62530758Y-134820000D02*
X62643887Y-134820000D01*
X63726114Y-134820000D02*
X65183887Y-134820000D01*
X66266115Y-134820000D02*
X66280000Y-134820000D01*
X67020000Y-134820000D02*
X67233747Y-134820000D01*
X68124500Y-134820000D02*
X68405500Y-134820000D01*
X59335000Y-134915000D02*
X60029631Y-134915000D01*
X61260370Y-134915000D02*
X61424396Y-134915000D01*
X62435758Y-134915000D02*
X62565923Y-134915000D01*
X63804078Y-134915000D02*
X65105923Y-134915000D01*
X67020000Y-134915000D02*
X67196100Y-134915000D01*
X68124500Y-134915000D02*
X68405500Y-134915000D01*
X59335000Y-135010000D02*
X59973237Y-135010000D01*
X61316764Y-135010000D02*
X61398563Y-135010000D01*
X62340758Y-135010000D02*
X62513971Y-135010000D01*
X63856030Y-135010000D02*
X65053971Y-135010000D01*
X67020000Y-135010000D02*
X67158452Y-135010000D01*
X68124500Y-135010000D02*
X68405500Y-135010000D01*
X59335000Y-135105000D02*
X59933887Y-135105000D01*
X61356114Y-135105000D02*
X61395201Y-135105000D01*
X62245758Y-135105000D02*
X62476248Y-135105000D01*
X63893753Y-135105000D02*
X65016248Y-135105000D01*
X67020000Y-135105000D02*
X67175444Y-135105000D01*
X68124500Y-135105000D02*
X68405500Y-135105000D01*
X59335000Y-135200000D02*
X59912258Y-135200000D01*
X61377743Y-135200000D02*
X61395201Y-135200000D01*
X62150758Y-135200000D02*
X62449693Y-135200000D01*
X63920308Y-135200000D02*
X64989693Y-135200000D01*
X67020000Y-135200000D02*
X68425500Y-135200000D01*
X59335000Y-135295000D02*
X59900000Y-135295000D01*
X61390000Y-135295000D02*
X61395201Y-135295000D01*
X62135200Y-135295000D02*
X62440336Y-135295000D01*
X63929665Y-135295000D02*
X64980336Y-135295000D01*
X67020000Y-135295000D02*
X68425500Y-135295000D01*
X59335000Y-135390000D02*
X59900000Y-135390000D01*
X61390000Y-135390000D02*
X61395201Y-135390000D01*
X62135200Y-135390000D02*
X62441812Y-135390000D01*
X63928187Y-135390000D02*
X64981812Y-135390000D01*
X67020000Y-135390000D02*
X68425500Y-135390000D01*
X59335000Y-135485000D02*
X59915241Y-135485000D01*
X61374758Y-135485000D02*
X61395201Y-135485000D01*
X62135200Y-135485000D02*
X62451979Y-135485000D01*
X63918020Y-135485000D02*
X64991979Y-135485000D01*
X67020000Y-135485000D02*
X67193441Y-135485000D01*
X68124500Y-135485000D02*
X68405500Y-135485000D01*
X59335000Y-135580000D02*
X59940099Y-135580000D01*
X61349900Y-135580000D02*
X61395201Y-135580000D01*
X62135200Y-135580000D02*
X62480797Y-135580000D01*
X63889202Y-135580000D02*
X65020797Y-135580000D01*
X67020000Y-135580000D02*
X67172071Y-135580000D01*
X68124500Y-135580000D02*
X68405500Y-135580000D01*
X59335000Y-135675000D02*
X59979449Y-135675000D01*
X61310550Y-135675000D02*
X61395201Y-135675000D01*
X62135200Y-135675000D02*
X62521988Y-135675000D01*
X63848011Y-135675000D02*
X65061988Y-135675000D01*
X67020000Y-135675000D02*
X67164395Y-135675000D01*
X68124500Y-135675000D02*
X68405500Y-135675000D01*
X59335000Y-135770000D02*
X60039653Y-135770000D01*
X61250346Y-135770000D02*
X61395201Y-135770000D01*
X62135200Y-135770000D02*
X62578232Y-135770000D01*
X63791767Y-135770000D02*
X65118232Y-135770000D01*
X67020000Y-135770000D02*
X67202043Y-135770000D01*
X68124500Y-135770000D02*
X68405500Y-135770000D01*
X59335000Y-135865000D02*
X60121411Y-135865000D01*
X61168589Y-135865000D02*
X61395201Y-135865000D01*
X62135200Y-135865000D02*
X62656457Y-135865000D01*
X63713542Y-135865000D02*
X65196457Y-135865000D01*
X66253542Y-135865000D02*
X66280001Y-135865000D01*
X67020000Y-135865000D02*
X67240124Y-135865000D01*
X68124500Y-135865000D02*
X68405500Y-135865000D01*
X59335000Y-135960000D02*
X60239413Y-135960000D01*
X61050586Y-135960000D02*
X61395201Y-135960000D01*
X62135200Y-135960000D02*
X62773885Y-135960000D01*
X63596114Y-135960000D02*
X65313885Y-135960000D01*
X66136114Y-135960000D02*
X66280001Y-135960000D01*
X67113259Y-135960000D02*
X67301507Y-135960000D01*
X68124500Y-135960000D02*
X68405500Y-135960000D01*
X59335000Y-136055000D02*
X60445940Y-136055000D01*
X60844059Y-136055000D02*
X61395201Y-136055000D01*
X62135200Y-136055000D02*
X62992078Y-136055000D01*
X63377921Y-136055000D02*
X65532078Y-136055000D01*
X65917921Y-136055000D02*
X66281658Y-136055000D01*
X67208259Y-136055000D02*
X67363448Y-136055000D01*
X68124500Y-136055000D02*
X68405500Y-136055000D01*
X69166551Y-136055000D02*
X69167446Y-136055000D01*
X59335000Y-136150000D02*
X61395201Y-136150000D01*
X62135200Y-136150000D02*
X66302786Y-136150000D01*
X67303259Y-136150000D02*
X67455568Y-136150000D01*
X68124500Y-136150000D02*
X68405500Y-136150000D01*
X69074431Y-136150000D02*
X69234262Y-136150000D01*
X59335000Y-136245000D02*
X61395201Y-136245000D01*
X62135200Y-136245000D02*
X66356005Y-136245000D01*
X67398259Y-136245000D02*
X67561705Y-136245000D01*
X68124500Y-136245000D02*
X68405500Y-136245000D01*
X68968294Y-136245000D02*
X69331742Y-136245000D01*
X59335000Y-136340000D02*
X61395201Y-136340000D01*
X62135200Y-136340000D02*
X66446741Y-136340000D01*
X67493259Y-136340000D02*
X67699252Y-136340000D01*
X68124500Y-136340000D02*
X68405500Y-136340000D01*
X68830747Y-136340000D02*
X69426742Y-136340000D01*
X59335000Y-136435000D02*
X61395201Y-136435000D01*
X62135200Y-136435000D02*
X66541741Y-136435000D01*
X67588259Y-136435000D02*
X67916257Y-136435000D01*
X67987915Y-136435000D02*
X68542084Y-136435000D01*
X68613742Y-136435000D02*
X69521742Y-136435000D01*
X59335000Y-136530000D02*
X61395201Y-136530000D01*
X62135200Y-136530000D02*
X66636741Y-136530000D01*
X67683259Y-136530000D02*
X69616742Y-136530000D01*
X59335000Y-136625000D02*
X61395201Y-136625000D01*
X62135200Y-136625000D02*
X66731741Y-136625000D01*
X67778259Y-136625000D02*
X69711742Y-136625000D01*
X59335000Y-136720000D02*
X61395201Y-136720000D01*
X62135200Y-136720000D02*
X66826741Y-136720000D01*
X67873259Y-136720000D02*
X69806742Y-136720000D01*
X59335000Y-136815000D02*
X61395201Y-136815000D01*
X62135200Y-136815000D02*
X66921741Y-136815000D01*
X59335000Y-136910000D02*
X61395201Y-136910000D01*
X62135200Y-136910000D02*
X67016741Y-136910000D01*
X59335000Y-137005000D02*
X61395201Y-137005000D01*
X62135200Y-137005000D02*
X67111741Y-137005000D01*
X59335000Y-137100000D02*
X61395201Y-137100000D01*
X62135200Y-137100000D02*
X67206741Y-137100000D01*
X59335000Y-137195000D02*
X61395201Y-137195000D01*
X62135200Y-137195000D02*
X67301741Y-137195000D01*
X59335000Y-137290000D02*
X61395201Y-137290000D01*
X62135200Y-137290000D02*
X67396741Y-137290000D01*
X59335000Y-137385000D02*
X61395201Y-137385000D01*
X62135200Y-137385000D02*
X67489669Y-137385000D01*
X59335000Y-137480000D02*
X61395201Y-137480000D01*
X62135200Y-137480000D02*
X67662151Y-137480000D01*
X59335000Y-137575000D02*
X61395201Y-137575000D01*
X62135200Y-137575000D02*
X69551742Y-137575000D01*
X59335000Y-137670000D02*
X61395201Y-137670000D01*
X62135200Y-137670000D02*
X69646742Y-137670000D01*
X59335000Y-137765000D02*
X61395201Y-137765000D01*
X62135200Y-137765000D02*
X69741742Y-137765000D01*
X59335000Y-137860000D02*
X61395201Y-137860000D01*
X62135200Y-137860000D02*
X69836742Y-137860000D01*
X59335000Y-137955000D02*
X61395201Y-137955000D01*
X62135200Y-137955000D02*
X69931742Y-137955000D01*
X59335000Y-138050000D02*
X61395201Y-138050000D01*
X62135200Y-138050000D02*
X70026742Y-138050000D01*
X59335000Y-138145000D02*
X61395201Y-138145000D01*
X62135200Y-138145000D02*
X70121742Y-138145000D01*
X59335000Y-138240000D02*
X61395201Y-138240000D01*
X62135200Y-138240000D02*
X70216742Y-138240000D01*
X59335000Y-138335000D02*
X61395201Y-138335000D01*
X62135200Y-138335000D02*
X70311742Y-138335000D01*
X59335000Y-138430000D02*
X61395201Y-138430000D01*
X62135200Y-138430000D02*
X63102599Y-138430000D01*
X63627402Y-138430000D02*
X65192599Y-138430000D01*
X65717402Y-138430000D02*
X70406742Y-138430000D01*
X59335000Y-138525000D02*
X61395201Y-138525000D01*
X62135200Y-138525000D02*
X62989964Y-138525000D01*
X63740036Y-138525000D02*
X65079964Y-138525000D01*
X59335000Y-138620000D02*
X61395201Y-138620000D01*
X62135200Y-138620000D02*
X62924486Y-138620000D01*
X63805515Y-138620000D02*
X65014486Y-138620000D01*
X59335000Y-138715000D02*
X61395201Y-138715000D01*
X62135200Y-138715000D02*
X62887156Y-138715000D01*
X63842844Y-138715000D02*
X64977156Y-138715000D01*
X59335000Y-138810000D02*
X61395201Y-138810000D01*
X62135200Y-138810000D02*
X62870000Y-138810000D01*
X63885759Y-138810000D02*
X64960000Y-138810000D01*
X59335000Y-138905000D02*
X61395201Y-138905000D01*
X62135200Y-138905000D02*
X62871242Y-138905000D01*
X63980759Y-138905000D02*
X64961242Y-138905000D01*
X59335000Y-139000000D02*
X61395201Y-139000000D01*
X62135200Y-139000000D02*
X62891348Y-139000000D01*
X64075759Y-139000000D02*
X64981348Y-139000000D01*
X59335000Y-139095000D02*
X61395201Y-139095000D01*
X62135200Y-139095000D02*
X62933372Y-139095000D01*
X64170759Y-139095000D02*
X65023372Y-139095000D01*
X59335000Y-139190000D02*
X61395201Y-139190000D01*
X62135200Y-139190000D02*
X63004964Y-139190000D01*
X64265759Y-139190000D02*
X65094964Y-139190000D01*
X59335000Y-139285000D02*
X61395201Y-139285000D01*
X62135200Y-139285000D02*
X63125047Y-139285000D01*
X64360759Y-139285000D02*
X65215047Y-139285000D01*
X65694952Y-139285000D02*
X70181741Y-139285000D01*
X59335000Y-139380000D02*
X61395201Y-139380000D01*
X62135200Y-139380000D02*
X63409241Y-139380000D01*
X64455759Y-139380000D02*
X70276741Y-139380000D01*
X59335000Y-139475000D02*
X61395201Y-139475000D01*
X62135200Y-139475000D02*
X63504241Y-139475000D01*
X64550759Y-139475000D02*
X70371741Y-139475000D01*
X59335000Y-139570000D02*
X61395201Y-139570000D01*
X62135200Y-139570000D02*
X63599241Y-139570000D01*
X64645759Y-139570000D02*
X70466741Y-139570000D01*
X59335000Y-139665000D02*
X61395201Y-139665000D01*
X62135200Y-139665000D02*
X63694241Y-139665000D01*
X64740759Y-139665000D02*
X70561741Y-139665000D01*
X59335000Y-139760000D02*
X61395201Y-139760000D01*
X62135200Y-139760000D02*
X63789241Y-139760000D01*
X64835759Y-139760000D02*
X70656741Y-139760000D01*
X59335000Y-139855000D02*
X61395201Y-139855000D01*
X62135200Y-139855000D02*
X63884241Y-139855000D01*
X64930759Y-139855000D02*
X69361374Y-139855000D01*
X69908627Y-139855000D02*
X70751741Y-139855000D01*
X59335000Y-139950000D02*
X61395201Y-139950000D01*
X62135200Y-139950000D02*
X63979241Y-139950000D01*
X70017536Y-139950000D02*
X70846741Y-139950000D01*
X59335000Y-140045000D02*
X61395201Y-140045000D01*
X62135200Y-140045000D02*
X64074241Y-140045000D01*
X70078622Y-140045000D02*
X70941741Y-140045000D01*
X59335000Y-140140000D02*
X61395201Y-140140000D01*
X62135200Y-140140000D02*
X64169241Y-140140000D01*
X70114336Y-140140000D02*
X71036741Y-140140000D01*
X59335000Y-140235000D02*
X61395201Y-140235000D01*
X62135200Y-140235000D02*
X64264241Y-140235000D01*
X70130000Y-140235000D02*
X71131741Y-140235000D01*
X59335000Y-140330000D02*
X61395201Y-140330000D01*
X62135200Y-140330000D02*
X64359241Y-140330000D01*
X70127265Y-140330000D02*
X71226741Y-140330000D01*
X59335000Y-140425000D02*
X61395201Y-140425000D01*
X62135200Y-140425000D02*
X64454241Y-140425000D01*
X70105545Y-140425000D02*
X71254454Y-140425000D01*
X59335000Y-140520000D02*
X61395201Y-140520000D01*
X62135200Y-140520000D02*
X64548574Y-140520000D01*
X70061615Y-140520000D02*
X71298384Y-140520000D01*
X59335000Y-140615000D02*
X61395201Y-140615000D01*
X62135200Y-140615000D02*
X64690944Y-140615000D01*
X69987536Y-140615000D02*
X71372464Y-140615000D01*
X59335000Y-140710000D02*
X61395201Y-140710000D01*
X62135200Y-140710000D02*
X69409793Y-140710000D01*
X69860206Y-140710000D02*
X71499793Y-140710000D01*
X71950206Y-140710000D02*
X72006742Y-140710000D01*
X59335000Y-140805000D02*
X61395201Y-140805000D01*
X62135200Y-140805000D02*
X71911742Y-140805000D01*
X59335000Y-140900000D02*
X61395201Y-140900000D01*
X62135200Y-140900000D02*
X71816742Y-140900000D01*
X59335000Y-140995000D02*
X61395201Y-140995000D01*
X62135200Y-140995000D02*
X71721742Y-140995000D01*
X59335000Y-141090000D02*
X61395201Y-141090000D01*
X62135200Y-141090000D02*
X71626742Y-141090000D01*
X59335000Y-141185000D02*
X61395201Y-141185000D01*
X62135200Y-141185000D02*
X71531742Y-141185000D01*
X59335000Y-141280000D02*
X61358496Y-141280000D01*
X62171905Y-141280000D02*
X71436742Y-141280000D01*
X59335000Y-141375000D02*
X61306999Y-141375000D01*
X62223402Y-141375000D02*
X71341742Y-141375000D01*
X59335000Y-141470000D02*
X61278863Y-141470000D01*
X62251538Y-141470000D02*
X71246742Y-141470000D01*
X74663258Y-141470000D02*
X74690000Y-141470000D01*
X59335000Y-141565000D02*
X61270200Y-141565000D01*
X62260200Y-141565000D02*
X71151742Y-141565000D01*
X74568258Y-141565000D02*
X74690000Y-141565000D01*
X59335000Y-141660000D02*
X61279936Y-141660000D01*
X62348659Y-141660000D02*
X71056742Y-141660000D01*
X74473258Y-141660000D02*
X74690000Y-141660000D01*
X59336719Y-141755000D02*
X61309235Y-141755000D01*
X62443659Y-141755000D02*
X70961742Y-141755000D01*
X74378258Y-141755000D02*
X74690000Y-141755000D01*
X59346704Y-141850000D02*
X61362103Y-141850000D01*
X62538659Y-141850000D02*
X70866742Y-141850000D01*
X74283258Y-141850000D02*
X74690000Y-141850000D01*
X59366796Y-141945000D02*
X61447864Y-141945000D01*
X62633659Y-141945000D02*
X67705946Y-141945000D01*
X74188258Y-141945000D02*
X74690000Y-141945000D01*
X59397318Y-142040000D02*
X61629476Y-142040000D01*
X62728659Y-142040000D02*
X67557386Y-142040000D01*
X74093258Y-142040000D02*
X74690000Y-142040000D01*
X59448685Y-142135000D02*
X61777141Y-142135000D01*
X62823659Y-142135000D02*
X67174114Y-142135000D01*
X73998258Y-142135000D02*
X74690000Y-142135000D01*
X59519044Y-142230000D02*
X61872141Y-142230000D01*
X62918659Y-142230000D02*
X67014964Y-142230000D01*
X73903258Y-142230000D02*
X74690000Y-142230000D01*
X59617047Y-142325000D02*
X61967141Y-142325000D01*
X63013659Y-142325000D02*
X66933418Y-142325000D01*
X73808258Y-142325000D02*
X74690000Y-142325000D01*
X59767116Y-142420000D02*
X62062141Y-142420000D01*
X63108659Y-142420000D02*
X66883775Y-142420000D01*
X73713258Y-142420000D02*
X74690000Y-142420000D01*
X61031206Y-142515000D02*
X62157141Y-142515000D01*
X63203659Y-142515000D02*
X66857211Y-142515000D01*
X73618258Y-142515000D02*
X74690000Y-142515000D01*
X61429549Y-142610000D02*
X62252141Y-142610000D01*
X63298659Y-142610000D02*
X66850000Y-142610000D01*
X73523258Y-142610000D02*
X74690000Y-142610000D01*
X61631029Y-142705000D02*
X62347141Y-142705000D01*
X63393659Y-142705000D02*
X66861188Y-142705000D01*
X73428258Y-142705000D02*
X74690000Y-142705000D01*
X61800262Y-142800000D02*
X62442141Y-142800000D01*
X63488659Y-142800000D02*
X66892059Y-142800000D01*
X73333258Y-142800000D02*
X74690000Y-142800000D01*
X61917269Y-142895000D02*
X62537141Y-142895000D01*
X63583659Y-142895000D02*
X66946780Y-142895000D01*
X73238258Y-142895000D02*
X74690000Y-142895000D01*
X62033498Y-142990000D02*
X62632141Y-142990000D01*
X63678659Y-142990000D02*
X66858502Y-142990000D01*
X73143258Y-142990000D02*
X74690000Y-142990000D01*
X62117287Y-143085000D02*
X62727141Y-143085000D01*
X63773659Y-143085000D02*
X66425116Y-143085000D01*
X73048258Y-143085000D02*
X74690000Y-143085000D01*
X62195878Y-143180000D02*
X62822141Y-143180000D01*
X63868659Y-143180000D02*
X66314964Y-143180000D01*
X72953258Y-143180000D02*
X74690000Y-143180000D01*
X62270169Y-143275000D02*
X62917141Y-143275000D01*
X63963659Y-143275000D02*
X66252415Y-143275000D01*
X72858258Y-143275000D02*
X74690000Y-143275000D01*
X62323182Y-143370000D02*
X63012141Y-143370000D01*
X64058659Y-143370000D02*
X66216162Y-143370000D01*
X72763258Y-143370000D02*
X74690000Y-143370000D01*
X62374548Y-143465000D02*
X63107141Y-143465000D01*
X64153659Y-143465000D02*
X66200000Y-143465000D01*
X72668258Y-143465000D02*
X74690000Y-143465000D01*
X62424234Y-143560000D02*
X63202141Y-143560000D01*
X64248659Y-143560000D02*
X66202237Y-143560000D01*
X72573258Y-143560000D02*
X74690000Y-143560000D01*
X62456798Y-143655000D02*
X63297141Y-143655000D01*
X64343659Y-143655000D02*
X66223419Y-143655000D01*
X72478258Y-143655000D02*
X74690000Y-143655000D01*
X62486206Y-143750000D02*
X63392141Y-143750000D01*
X64418540Y-143750000D02*
X66266713Y-143750000D01*
X72383258Y-143750000D02*
X74690000Y-143750000D01*
X62515613Y-143845000D02*
X63487141Y-143845000D01*
X64455986Y-143845000D02*
X66253283Y-143845000D01*
X72288258Y-143845000D02*
X74690000Y-143845000D01*
X62535385Y-143940000D02*
X63582141Y-143940000D01*
X64465764Y-143940000D02*
X65862043Y-143940000D01*
X72193258Y-143940000D02*
X74690000Y-143940000D01*
X62545370Y-144035000D02*
X63677141Y-144035000D01*
X64465000Y-144035000D02*
X65709964Y-144035000D01*
X72098258Y-144035000D02*
X74690000Y-144035000D01*
X62555355Y-144130000D02*
X63725000Y-144130000D01*
X64465000Y-144130000D02*
X65630077Y-144130000D01*
X72003258Y-144130000D02*
X74690000Y-144130000D01*
X62564239Y-144225000D02*
X63725000Y-144225000D01*
X64465000Y-144225000D02*
X65581704Y-144225000D01*
X71908258Y-144225000D02*
X74690000Y-144225000D01*
X62565000Y-144320000D02*
X63725001Y-144320000D01*
X64465000Y-144320000D02*
X65556216Y-144320000D01*
X71813258Y-144320000D02*
X74690000Y-144320000D01*
X62565000Y-144415000D02*
X63725001Y-144415000D01*
X64465000Y-144415000D02*
X65550000Y-144415000D01*
X71718258Y-144415000D02*
X74690000Y-144415000D01*
X62565000Y-144510000D02*
X63725000Y-144510000D01*
X64465000Y-144510000D02*
X65562183Y-144510000D01*
X71623258Y-144510000D02*
X74690000Y-144510000D01*
X62565000Y-144605000D02*
X63725000Y-144605000D01*
X64465000Y-144605000D02*
X65594130Y-144605000D01*
X71528258Y-144605000D02*
X74690000Y-144605000D01*
X62565000Y-144700000D02*
X63725000Y-144700000D01*
X64465000Y-144700000D02*
X65650121Y-144700000D01*
X71433258Y-144700000D02*
X74690000Y-144700000D01*
X62565000Y-144795000D02*
X63725000Y-144795000D01*
X64465000Y-144795000D02*
X65553502Y-144795000D01*
X71338258Y-144795000D02*
X74690000Y-144795000D01*
X62565000Y-144890000D02*
X63725000Y-144890000D01*
X64465000Y-144890000D02*
X65117633Y-144890000D01*
X71243258Y-144890000D02*
X74690000Y-144890000D01*
X62565000Y-144985000D02*
X63710145Y-144985000D01*
X64479856Y-144985000D02*
X65010145Y-144985000D01*
X71148258Y-144985000D02*
X74690000Y-144985000D01*
X62565000Y-145080000D02*
X63650344Y-145080000D01*
X64539657Y-145080000D02*
X64950344Y-145080000D01*
X71053258Y-145080000D02*
X74690000Y-145080000D01*
X62565000Y-145175000D02*
X63615167Y-145175000D01*
X64574834Y-145175000D02*
X64915167Y-145175000D01*
X70958258Y-145175000D02*
X71017900Y-145175000D01*
X71432101Y-145175000D02*
X74690000Y-145175000D01*
X62565000Y-145270000D02*
X63600000Y-145270000D01*
X64590000Y-145270000D02*
X64900000Y-145270000D01*
X71570036Y-145270000D02*
X74690000Y-145270000D01*
X62565000Y-145365000D02*
X63603231Y-145365000D01*
X64586768Y-145365000D02*
X64903231Y-145365000D01*
X66030018Y-145365000D02*
X67728395Y-145365000D01*
X71646605Y-145365000D02*
X74690000Y-145365000D01*
X62565000Y-145460000D02*
X63625490Y-145460000D01*
X64564509Y-145460000D02*
X64925490Y-145460000D01*
X65935018Y-145460000D02*
X67682562Y-145460000D01*
X71692439Y-145460000D02*
X74690000Y-145460000D01*
X62565000Y-145555000D02*
X63670054Y-145555000D01*
X64519945Y-145555000D02*
X64970054Y-145555000D01*
X65840018Y-145555000D02*
X67659227Y-145555000D01*
X71715774Y-145555000D02*
X74690000Y-145555000D01*
X62565000Y-145650000D02*
X63744964Y-145650000D01*
X64445036Y-145650000D02*
X65044964Y-145650000D01*
X65745036Y-145650000D02*
X67655000Y-145650000D01*
X71720000Y-145650000D02*
X74690000Y-145650000D01*
X62565000Y-145745000D02*
X63875828Y-145745000D01*
X64314171Y-145745000D02*
X65175828Y-145745000D01*
X65614171Y-145745000D02*
X67669172Y-145745000D01*
X71705827Y-145745000D02*
X74690000Y-145745000D01*
X62565000Y-145840000D02*
X67703272Y-145840000D01*
X71671727Y-145840000D02*
X74690000Y-145840000D01*
X62565000Y-145935000D02*
X67761803Y-145935000D01*
X71613196Y-145935000D02*
X74690000Y-145935000D01*
X62565000Y-146030000D02*
X67865148Y-146030000D01*
X68434851Y-146030000D02*
X70940148Y-146030000D01*
X71509851Y-146030000D02*
X74690000Y-146030000D01*
X62565000Y-146125000D02*
X74690000Y-146125000D01*
X62565000Y-146220000D02*
X74690000Y-146220000D01*
X62565000Y-146315000D02*
X74690000Y-146315000D01*
X62565000Y-146410000D02*
X74690000Y-146410000D01*
X62565000Y-146505000D02*
X74690000Y-146505000D01*
X62565000Y-146600000D02*
X74690000Y-146600000D01*
X62565000Y-146695000D02*
X74690000Y-146695000D01*
X62565000Y-146790000D02*
X74690000Y-146790000D01*
X62565000Y-146885000D02*
X74690000Y-146885000D01*
X62565000Y-146980000D02*
X74690000Y-146980000D01*
X62565000Y-147075000D02*
X74690000Y-147075000D01*
X62565000Y-147170000D02*
X74690000Y-147170000D01*
X62565000Y-147265000D02*
X74690000Y-147265000D01*
X62565000Y-147360000D02*
X74690000Y-147360000D01*
X62565000Y-147455000D02*
X74690000Y-147455000D01*
X62565000Y-147550000D02*
X74690000Y-147550000D01*
X62565000Y-147645000D02*
X74690000Y-147645000D01*
X62565000Y-147740000D02*
X74690000Y-147740000D01*
X62565000Y-147835000D02*
X74690000Y-147835000D01*
X62565000Y-147930000D02*
X74690000Y-147930000D01*
X62573025Y-148025000D02*
X74681938Y-148025000D01*
X62585961Y-148120000D02*
X74668636Y-148120000D01*
X62615369Y-148215000D02*
X74639954Y-148215000D01*
X62659760Y-148310000D02*
X74595266Y-148310000D01*
X62720089Y-148405000D02*
X74534643Y-148405000D01*
X62804133Y-148500000D02*
X74450333Y-148500000D01*
X62931290Y-148595000D02*
X74323187Y-148595000D01*
X63174249Y-148690000D02*
X74076368Y-148690000D01*
X74690000Y-141443258D02*
X74690000Y-147942771D01*
X74595000Y-141538258D02*
X74595000Y-148310499D01*
X74500000Y-141633259D02*
X74500000Y-148447476D01*
X74405000Y-141728259D02*
X74405000Y-148537502D01*
X74310000Y-141823259D02*
X74310000Y-148602129D01*
X74215000Y-141918259D02*
X74215000Y-148649988D01*
X74120000Y-142013259D02*
X74120000Y-148679395D01*
X74025000Y-142108259D02*
X74025000Y-148695399D01*
X73930000Y-142203259D02*
X73930000Y-148705000D01*
X73835000Y-142298259D02*
X73835000Y-148705000D01*
X73740000Y-142393259D02*
X73740000Y-148705000D01*
X73645000Y-142488259D02*
X73645000Y-148705000D01*
X73550000Y-142583259D02*
X73550000Y-148705000D01*
X73455000Y-142678259D02*
X73455000Y-148705000D01*
X73360000Y-142773259D02*
X73360000Y-148705000D01*
X73265000Y-142868259D02*
X73265000Y-148705000D01*
X73170000Y-142963259D02*
X73170000Y-148705000D01*
X73075000Y-143058259D02*
X73075000Y-148705000D01*
X72980000Y-143153259D02*
X72980000Y-148705000D01*
X72885000Y-143248259D02*
X72885000Y-148705000D01*
X72790000Y-143343259D02*
X72790000Y-148705000D01*
X72695000Y-143438259D02*
X72695000Y-148705000D01*
X72600000Y-143533259D02*
X72600000Y-148705000D01*
X72505000Y-143628259D02*
X72505000Y-148705000D01*
X72410000Y-143723259D02*
X72410000Y-148705000D01*
X72315000Y-143818259D02*
X72315000Y-148705000D01*
X72220000Y-143913259D02*
X72220000Y-148705000D01*
X72125000Y-144008259D02*
X72125000Y-148705000D01*
X72030000Y-144103259D02*
X72030000Y-148705000D01*
X71935000Y-140716299D02*
X71935000Y-140781741D01*
X71935000Y-144198259D02*
X71935000Y-148705000D01*
X71840000Y-140749323D02*
X71840000Y-140876741D01*
X71840000Y-144293259D02*
X71840000Y-148705000D01*
X71745000Y-140762500D02*
X71745000Y-140971741D01*
X71745000Y-144388259D02*
X71745000Y-148705000D01*
X71650000Y-140757279D02*
X71650000Y-141066741D01*
X71650000Y-144483259D02*
X71650000Y-145370082D01*
X71650000Y-145879919D02*
X71650000Y-148705000D01*
X71555000Y-140732867D02*
X71555000Y-141161741D01*
X71555000Y-144578259D02*
X71555000Y-145254964D01*
X71555000Y-145995036D02*
X71555000Y-148705000D01*
X71460000Y-140685763D02*
X71460000Y-141256741D01*
X71460000Y-144673259D02*
X71460000Y-145186692D01*
X71460000Y-146063309D02*
X71460000Y-148705000D01*
X71365000Y-140607536D02*
X71365000Y-141351741D01*
X71365000Y-144768259D02*
X71365000Y-145148151D01*
X71365000Y-146101850D02*
X71365000Y-148705000D01*
X71270000Y-140462528D02*
X71270000Y-141446741D01*
X71270000Y-144863259D02*
X71270000Y-145130000D01*
X71270000Y-146120000D02*
X71270000Y-148705000D01*
X71175000Y-140278258D02*
X71175000Y-141541741D01*
X71175000Y-144958259D02*
X71175000Y-145130248D01*
X71175000Y-146119751D02*
X71175000Y-148705000D01*
X71080000Y-140183258D02*
X71080000Y-141636741D01*
X71080000Y-145053259D02*
X71080000Y-145149277D01*
X71080000Y-146100722D02*
X71080000Y-148705000D01*
X70985000Y-140088258D02*
X70985000Y-141731741D01*
X70985000Y-145148259D02*
X70985000Y-145190031D01*
X70985000Y-146059968D02*
X70985000Y-148705000D01*
X70890000Y-139993258D02*
X70890000Y-141826742D01*
X70890000Y-145243259D02*
X70890000Y-145255000D01*
X70890000Y-145995000D02*
X70890000Y-148705000D01*
X70795000Y-139898258D02*
X70795000Y-141921742D01*
X70795000Y-145995000D02*
X70795000Y-148705000D01*
X70700000Y-139803258D02*
X70700000Y-141925000D01*
X70700000Y-145995000D02*
X70700000Y-148705000D01*
X70605000Y-139708258D02*
X70605000Y-141925000D01*
X70605000Y-145995000D02*
X70605000Y-148705000D01*
X70510000Y-139613258D02*
X70510000Y-141925000D01*
X70510000Y-145995000D02*
X70510000Y-148705000D01*
X70415000Y-138438258D02*
X70415000Y-138500000D01*
X70415000Y-139518258D02*
X70415000Y-141925000D01*
X70415000Y-145995000D02*
X70415000Y-148705000D01*
X70320000Y-138343258D02*
X70320000Y-138483135D01*
X70320000Y-139423258D02*
X70320000Y-141925000D01*
X70320000Y-145995000D02*
X70320000Y-148705000D01*
X70225000Y-138248258D02*
X70225000Y-138480000D01*
X70225000Y-139328258D02*
X70225000Y-141925000D01*
X70225000Y-145995000D02*
X70225000Y-148705000D01*
X70130000Y-138153258D02*
X70130000Y-138480000D01*
X70130000Y-139233258D02*
X70130000Y-140218747D01*
X70130000Y-140316253D02*
X70130000Y-141925000D01*
X70130000Y-145995000D02*
X70130000Y-148705000D01*
X70035000Y-138058258D02*
X70035000Y-138480000D01*
X70035000Y-139220000D02*
X70035000Y-139975166D01*
X70035000Y-140559835D02*
X70035000Y-141925000D01*
X70035000Y-145995000D02*
X70035000Y-148705000D01*
X69940000Y-137963258D02*
X69940000Y-138480000D01*
X69940000Y-139220000D02*
X69940000Y-139875963D01*
X69940000Y-140659038D02*
X69940000Y-141925000D01*
X69940000Y-145995000D02*
X69940000Y-148705000D01*
X69845000Y-137868258D02*
X69845000Y-138480000D01*
X69845000Y-139220000D02*
X69845000Y-139818702D01*
X69845000Y-140716299D02*
X69845000Y-141925000D01*
X69845000Y-145995000D02*
X69845000Y-148705000D01*
X69750000Y-136663258D02*
X69750000Y-136750000D01*
X69750000Y-137773258D02*
X69750000Y-138480000D01*
X69750000Y-139220000D02*
X69750000Y-139785678D01*
X69750000Y-140749323D02*
X69750000Y-141925000D01*
X69750000Y-145995000D02*
X69750000Y-148705000D01*
X69655000Y-136568258D02*
X69655000Y-136750000D01*
X69655000Y-137678258D02*
X69655000Y-138480000D01*
X69655000Y-139220000D02*
X69655000Y-139772500D01*
X69655000Y-140762500D02*
X69655000Y-141925000D01*
X69655000Y-145995000D02*
X69655000Y-148705000D01*
X69560000Y-136473258D02*
X69560000Y-136750000D01*
X69560000Y-137583258D02*
X69560000Y-138480000D01*
X69560000Y-139220000D02*
X69560000Y-139777720D01*
X69560000Y-140757279D02*
X69560000Y-141925000D01*
X69560000Y-145995000D02*
X69560000Y-148705000D01*
X69465000Y-136378258D02*
X69465000Y-136750000D01*
X69465000Y-137490000D02*
X69465000Y-138480000D01*
X69465000Y-139220000D02*
X69465000Y-139802132D01*
X69465000Y-140732867D02*
X69465000Y-141925000D01*
X69465000Y-145995000D02*
X69465000Y-148705000D01*
X69370000Y-136283258D02*
X69370000Y-136750000D01*
X69370000Y-137490000D02*
X69370000Y-138480000D01*
X69370000Y-139220000D02*
X69370000Y-139849236D01*
X69370000Y-140685763D02*
X69370000Y-141925000D01*
X69370000Y-145995000D02*
X69370000Y-148705000D01*
X69275000Y-129060000D02*
X69275000Y-129067064D01*
X69275000Y-136188258D02*
X69275000Y-136750000D01*
X69275000Y-137490000D02*
X69275000Y-138480000D01*
X69275000Y-139220000D02*
X69275000Y-139897500D01*
X69275000Y-140637500D02*
X69275000Y-141925000D01*
X69275000Y-145995000D02*
X69275000Y-148705000D01*
X69180000Y-129060000D02*
X69180000Y-129194110D01*
X69180000Y-136078486D02*
X69180000Y-136750000D01*
X69180000Y-137490000D02*
X69180000Y-138480000D01*
X69180000Y-139220000D02*
X69180000Y-139897500D01*
X69180000Y-140637500D02*
X69180000Y-141925000D01*
X69180000Y-145995000D02*
X69180000Y-148705000D01*
X69085000Y-129060000D02*
X69085000Y-131990900D01*
X69085000Y-133599102D02*
X69085000Y-134530900D01*
X69085000Y-136139101D02*
X69085000Y-136750000D01*
X69085000Y-137490000D02*
X69085000Y-138480000D01*
X69085000Y-139220000D02*
X69085000Y-139897500D01*
X69085000Y-140637500D02*
X69085000Y-141925000D01*
X69085000Y-145995000D02*
X69085000Y-148705000D01*
X68990000Y-129060000D02*
X68990000Y-131899992D01*
X68990000Y-133690009D02*
X68990000Y-134439992D01*
X68990000Y-136230009D02*
X68990000Y-136750000D01*
X68990000Y-137490000D02*
X68990000Y-138480000D01*
X68990000Y-139220000D02*
X68990000Y-139897500D01*
X68990000Y-140637500D02*
X68990000Y-141925000D01*
X68990000Y-145995000D02*
X68990000Y-148705000D01*
X68895000Y-129060000D02*
X68895000Y-131834378D01*
X68895000Y-133755623D02*
X68895000Y-134374378D01*
X68895000Y-136295623D02*
X68895000Y-136750000D01*
X68895000Y-137490000D02*
X68895000Y-138480000D01*
X68895000Y-139220000D02*
X68895000Y-139897500D01*
X68895000Y-140637500D02*
X68895000Y-141925000D01*
X68895000Y-145995000D02*
X68895000Y-148705000D01*
X68800000Y-129060000D02*
X68800000Y-131775117D01*
X68800000Y-133814884D02*
X68800000Y-134315117D01*
X68800000Y-136354884D02*
X68800000Y-136750000D01*
X68800000Y-137490000D02*
X68800000Y-138480000D01*
X68800000Y-139220000D02*
X68800000Y-139897500D01*
X68800000Y-140637500D02*
X68800000Y-141925000D01*
X68800000Y-145995000D02*
X68800000Y-148705000D01*
X68705000Y-129060000D02*
X68705000Y-131734043D01*
X68705000Y-133855958D02*
X68705000Y-134274043D01*
X68705000Y-136395958D02*
X68705000Y-136750000D01*
X68705000Y-137490000D02*
X68705000Y-138480000D01*
X68705000Y-139220000D02*
X68705000Y-139897500D01*
X68705000Y-140637500D02*
X68705000Y-141925000D01*
X68705000Y-145995000D02*
X68705000Y-148705000D01*
X68610000Y-129060000D02*
X68610000Y-131693866D01*
X68610000Y-133896135D02*
X68610000Y-134233866D01*
X68610000Y-136436135D02*
X68610000Y-136750000D01*
X68610000Y-137490000D02*
X68610000Y-138480000D01*
X68610000Y-139220000D02*
X68610000Y-139897500D01*
X68610000Y-140637500D02*
X68610000Y-141925000D01*
X68610000Y-145995000D02*
X68610000Y-148705000D01*
X68515000Y-129060000D02*
X68515000Y-131701185D01*
X68515000Y-133888814D02*
X68515000Y-134241185D01*
X68515000Y-136428814D02*
X68515000Y-136750000D01*
X68515000Y-137490000D02*
X68515000Y-138480000D01*
X68515000Y-139220000D02*
X68515000Y-139897500D01*
X68515000Y-140637500D02*
X68515000Y-141925000D01*
X68515000Y-145995000D02*
X68515000Y-148705000D01*
X68420000Y-129060000D02*
X68420000Y-131722883D01*
X68420000Y-132654500D02*
X68420000Y-132935500D01*
X68420000Y-133867116D02*
X68420000Y-134262883D01*
X68420000Y-135194500D02*
X68420000Y-135475500D01*
X68420000Y-136407116D02*
X68420000Y-136750000D01*
X68420000Y-137490000D02*
X68420000Y-138480000D01*
X68420000Y-139220000D02*
X68420000Y-139897500D01*
X68420000Y-140637500D02*
X68420000Y-141925000D01*
X68420000Y-146039924D02*
X68420000Y-148705000D01*
X68325000Y-129060000D02*
X68325000Y-136750000D01*
X68325000Y-137490000D02*
X68325000Y-138480000D01*
X68325000Y-139220000D02*
X68325000Y-139897500D01*
X68325000Y-140637500D02*
X68325000Y-141925000D01*
X68325000Y-146088297D02*
X68325000Y-148705000D01*
X68230000Y-129060000D02*
X68230000Y-136750000D01*
X68230000Y-137490000D02*
X68230000Y-138480000D01*
X68230000Y-139220000D02*
X68230000Y-139897500D01*
X68230000Y-140637500D02*
X68230000Y-141925000D01*
X68230000Y-146113785D02*
X68230000Y-148705000D01*
X68135000Y-129060000D02*
X68135000Y-136750000D01*
X68135000Y-137490000D02*
X68135000Y-138480000D01*
X68135000Y-139220000D02*
X68135000Y-139897500D01*
X68135000Y-140637500D02*
X68135000Y-141925000D01*
X68135000Y-146120000D02*
X68135000Y-148705000D01*
X68040000Y-129060000D02*
X68040000Y-131706896D01*
X68040000Y-132654500D02*
X68040000Y-132935500D01*
X68040000Y-133883105D02*
X68040000Y-134246896D01*
X68040000Y-135194500D02*
X68040000Y-135475500D01*
X68040000Y-136423105D02*
X68040000Y-136750000D01*
X68040000Y-137490000D02*
X68040000Y-138480000D01*
X68040000Y-139220000D02*
X68040000Y-139897500D01*
X68040000Y-140637500D02*
X68040000Y-141925000D01*
X68040000Y-146107816D02*
X68040000Y-148705000D01*
X67945000Y-129060000D02*
X67945000Y-130571473D01*
X67945000Y-131118128D02*
X67945000Y-131686286D01*
X67945000Y-132654500D02*
X67945000Y-132935500D01*
X67945000Y-133903713D02*
X67945000Y-134226286D01*
X67945000Y-135194500D02*
X67945000Y-135475500D01*
X67945000Y-136443713D02*
X67945000Y-136750000D01*
X67945000Y-137490000D02*
X67945000Y-138480000D01*
X67945000Y-139220000D02*
X67945000Y-139897500D01*
X67945000Y-140637500D02*
X67945000Y-141925000D01*
X67945000Y-146075869D02*
X67945000Y-148705000D01*
X67850000Y-129060000D02*
X67850000Y-130462464D01*
X67850000Y-131227136D02*
X67850000Y-131723232D01*
X67850000Y-132654500D02*
X67850000Y-132935500D01*
X67850000Y-133866767D02*
X67850000Y-134263232D01*
X67850000Y-135194500D02*
X67850000Y-135475500D01*
X67850000Y-136406767D02*
X67850000Y-136696742D01*
X67850000Y-137490000D02*
X67850000Y-138480000D01*
X67850000Y-139220000D02*
X67850000Y-139897500D01*
X67850000Y-140637500D02*
X67850000Y-141925000D01*
X67850000Y-146019877D02*
X67850000Y-148705000D01*
X67755000Y-129060000D02*
X67755000Y-130401262D01*
X67755000Y-131288339D02*
X67755000Y-131764307D01*
X67755000Y-132654500D02*
X67755000Y-132935500D01*
X67755000Y-133825692D02*
X67755000Y-134304307D01*
X67755000Y-135194500D02*
X67755000Y-135475500D01*
X67755000Y-136365692D02*
X67755000Y-136601742D01*
X67755000Y-137491297D02*
X67755000Y-138480000D01*
X67755000Y-139220000D02*
X67755000Y-139897500D01*
X67755000Y-140637500D02*
X67755000Y-141930277D01*
X67755000Y-145924817D02*
X67755000Y-148705000D01*
X67660000Y-129060000D02*
X67660000Y-130365504D01*
X67660000Y-131324097D02*
X67660000Y-131817110D01*
X67660000Y-132654500D02*
X67660000Y-132935500D01*
X67660000Y-133772889D02*
X67660000Y-134357110D01*
X67660000Y-135194500D02*
X67660000Y-135475500D01*
X67660000Y-136312889D02*
X67660000Y-136506742D01*
X67660000Y-137479347D02*
X67660000Y-138480000D01*
X67660000Y-139220000D02*
X67660000Y-139897500D01*
X67660000Y-140637500D02*
X67660000Y-141964596D01*
X67660000Y-145365000D02*
X67660000Y-145551110D01*
X67660000Y-145698889D02*
X67660000Y-148705000D01*
X67565000Y-129068258D02*
X67565000Y-130349800D01*
X67565000Y-131339800D02*
X67565000Y-131882724D01*
X67565000Y-132654500D02*
X67565000Y-132935500D01*
X67565000Y-133707275D02*
X67565000Y-134422724D01*
X67565000Y-135194500D02*
X67565000Y-135475500D01*
X67565000Y-136247275D02*
X67565000Y-136411742D01*
X67565000Y-137440653D02*
X67565000Y-138480000D01*
X67565000Y-139220000D02*
X67565000Y-139897500D01*
X67565000Y-140637500D02*
X67565000Y-142031173D01*
X67565000Y-145365000D02*
X67565000Y-148705000D01*
X67470000Y-129163259D02*
X67470000Y-130352494D01*
X67470000Y-131392859D02*
X67470000Y-131965117D01*
X67470000Y-132654500D02*
X67470000Y-132935500D01*
X67470000Y-133624882D02*
X67470000Y-134505117D01*
X67470000Y-135194500D02*
X67470000Y-135475500D01*
X67470000Y-136164882D02*
X67470000Y-136316742D01*
X67470000Y-137363258D02*
X67470000Y-138480000D01*
X67470000Y-139220000D02*
X67470000Y-139897500D01*
X67470000Y-140637500D02*
X67470000Y-142104980D01*
X67470000Y-145365000D02*
X67470000Y-148705000D01*
X67375000Y-129258259D02*
X67375000Y-130374172D01*
X67375000Y-131487859D02*
X67375000Y-132063087D01*
X67375000Y-132654500D02*
X67375000Y-132935500D01*
X67375000Y-133526912D02*
X67375000Y-134603087D01*
X67375000Y-135194500D02*
X67375000Y-135475500D01*
X67375000Y-136066912D02*
X67375000Y-136221742D01*
X67375000Y-137268258D02*
X67375000Y-138480000D01*
X67375000Y-139220000D02*
X67375000Y-139897500D01*
X67375000Y-140637500D02*
X67375000Y-142104980D01*
X67375000Y-145365000D02*
X67375000Y-148705000D01*
X67280000Y-129353259D02*
X67280000Y-130418050D01*
X67280000Y-131582859D02*
X67280000Y-132203286D01*
X67280000Y-132654500D02*
X67280000Y-132935500D01*
X67280000Y-133386713D02*
X67280000Y-134743286D01*
X67280000Y-135194500D02*
X67280000Y-135475500D01*
X67280000Y-135926713D02*
X67280000Y-136126742D01*
X67280000Y-137173258D02*
X67280000Y-138480000D01*
X67280000Y-139220000D02*
X67280000Y-139897500D01*
X67280000Y-140637500D02*
X67280000Y-142108231D01*
X67280000Y-145365000D02*
X67280000Y-148705000D01*
X67185000Y-129448259D02*
X67185000Y-130492064D01*
X67185000Y-131677859D02*
X67185000Y-132403007D01*
X67185000Y-132607477D02*
X67185000Y-132982522D01*
X67185000Y-133186992D02*
X67185000Y-134943007D01*
X67185000Y-135147477D02*
X67185000Y-135522522D01*
X67185000Y-135726992D02*
X67185000Y-136031742D01*
X67185000Y-137078258D02*
X67185000Y-138480000D01*
X67185000Y-139220000D02*
X67185000Y-139897500D01*
X67185000Y-140637500D02*
X67185000Y-142130490D01*
X67185000Y-145365000D02*
X67185000Y-148705000D01*
X67090000Y-128455000D02*
X67090000Y-128496742D01*
X67090000Y-129543259D02*
X67090000Y-130619110D01*
X67090000Y-131772859D02*
X67090000Y-132477046D01*
X67090000Y-132477046D02*
X67090000Y-133112954D01*
X67090000Y-133112954D02*
X67090000Y-135017046D01*
X67090000Y-135017046D02*
X67090000Y-135652954D01*
X67090000Y-135652954D02*
X67090000Y-135936742D01*
X67090000Y-136983258D02*
X67090000Y-138480000D01*
X67090000Y-139220000D02*
X67090000Y-139897500D01*
X67090000Y-140637500D02*
X67090000Y-142175054D01*
X67090000Y-145365000D02*
X67090000Y-148705000D01*
X66995000Y-128455000D02*
X66995000Y-128591742D01*
X66995000Y-129638259D02*
X66995000Y-130821342D01*
X66995000Y-136888258D02*
X66995000Y-138480000D01*
X66995000Y-139220000D02*
X66995000Y-139897500D01*
X66995000Y-140637500D02*
X66995000Y-142249964D01*
X66995000Y-145365000D02*
X66995000Y-148705000D01*
X66900000Y-128455000D02*
X66900000Y-128686741D01*
X66900000Y-129733259D02*
X66900000Y-130916342D01*
X66900000Y-136793258D02*
X66900000Y-138480000D01*
X66900000Y-139220000D02*
X66900000Y-139897500D01*
X66900000Y-140637500D02*
X66900000Y-142380828D01*
X66900000Y-142819171D02*
X66900000Y-142948502D01*
X66900000Y-145365000D02*
X66900000Y-148705000D01*
X66805000Y-128455000D02*
X66805000Y-128781741D01*
X66805000Y-129828259D02*
X66805000Y-131011342D01*
X66805000Y-136698258D02*
X66805000Y-138480000D01*
X66805000Y-139220000D02*
X66805000Y-139897500D01*
X66805000Y-140637500D02*
X66805000Y-143004980D01*
X66805000Y-145365000D02*
X66805000Y-148705000D01*
X66710000Y-128455000D02*
X66710000Y-128876741D01*
X66710000Y-129923259D02*
X66710000Y-131106342D01*
X66710000Y-136603258D02*
X66710000Y-138480000D01*
X66710000Y-139220000D02*
X66710000Y-139897500D01*
X66710000Y-140637500D02*
X66710000Y-143004980D01*
X66710000Y-145365000D02*
X66710000Y-148705000D01*
X66615000Y-128455000D02*
X66615000Y-128971741D01*
X66615000Y-130018259D02*
X66615000Y-131201342D01*
X66615000Y-136508258D02*
X66615000Y-138480000D01*
X66615000Y-139220000D02*
X66615000Y-139897500D01*
X66615000Y-140637500D02*
X66615000Y-143011215D01*
X66615000Y-145365000D02*
X66615000Y-148705000D01*
X66520000Y-128455000D02*
X66520000Y-129066741D01*
X66520000Y-130113259D02*
X66520000Y-131296342D01*
X66520000Y-136413258D02*
X66520000Y-138480000D01*
X66520000Y-139220000D02*
X66520000Y-139897500D01*
X66520000Y-140637500D02*
X66520000Y-143036703D01*
X66520000Y-145365000D02*
X66520000Y-148705000D01*
X66425000Y-128455000D02*
X66425000Y-129161741D01*
X66425000Y-130208259D02*
X66425000Y-131391342D01*
X66425000Y-136318258D02*
X66425000Y-138480000D01*
X66425000Y-139220000D02*
X66425000Y-139897500D01*
X66425000Y-140637500D02*
X66425000Y-143085076D01*
X66425000Y-145365000D02*
X66425000Y-148705000D01*
X66330000Y-128455000D02*
X66330000Y-129256741D01*
X66330000Y-130303259D02*
X66330000Y-131503377D01*
X66330000Y-136206222D02*
X66330000Y-138480000D01*
X66330000Y-139220000D02*
X66330000Y-139897500D01*
X66330000Y-140637500D02*
X66330000Y-143164964D01*
X66330000Y-145365000D02*
X66330000Y-148705000D01*
X66235000Y-128455000D02*
X66235000Y-129351741D01*
X66235000Y-130398259D02*
X66235000Y-132251411D01*
X66235000Y-133338589D02*
X66235000Y-134789783D01*
X66235000Y-135880218D02*
X66235000Y-138480000D01*
X66235000Y-139220000D02*
X66235000Y-139897500D01*
X66235000Y-140637500D02*
X66235000Y-143317042D01*
X66235000Y-143682957D02*
X66235000Y-143863502D01*
X66235000Y-145365000D02*
X66235000Y-148705000D01*
X66140000Y-128455000D02*
X66140000Y-129446741D01*
X66140000Y-130493259D02*
X66140000Y-132176291D01*
X66140000Y-133413710D02*
X66140000Y-134712077D01*
X66140000Y-135957924D02*
X66140000Y-138480000D01*
X66140000Y-139220000D02*
X66140000Y-139897500D01*
X66140000Y-140637500D02*
X66140000Y-143904980D01*
X66140000Y-145365000D02*
X66140000Y-148705000D01*
X66045000Y-128455000D02*
X66045000Y-129541741D01*
X66045000Y-130588259D02*
X66045000Y-132121166D01*
X66045000Y-133468835D02*
X66045000Y-134661298D01*
X66045000Y-136008703D02*
X66045000Y-138480000D01*
X66045000Y-139220000D02*
X66045000Y-139897500D01*
X66045000Y-140637500D02*
X66045000Y-143904980D01*
X66045000Y-145365000D02*
X66045000Y-148705000D01*
X65950000Y-128455000D02*
X65950000Y-129636741D01*
X65950000Y-130683259D02*
X65950000Y-132081816D01*
X65950000Y-133508185D02*
X65950000Y-134624731D01*
X65950000Y-136045270D02*
X65950000Y-138480000D01*
X65950000Y-139220000D02*
X65950000Y-139897500D01*
X65950000Y-140637500D02*
X65950000Y-143914199D01*
X65950000Y-145445018D02*
X65950000Y-148705000D01*
X65855000Y-128455000D02*
X65855000Y-129731741D01*
X65855000Y-131118128D02*
X65855000Y-132061264D01*
X65855000Y-133528737D02*
X65855000Y-134599200D01*
X65855000Y-136070801D02*
X65855000Y-138480000D01*
X65855000Y-139220000D02*
X65855000Y-139897500D01*
X65855000Y-140637500D02*
X65855000Y-143942916D01*
X65855000Y-145540018D02*
X65855000Y-148705000D01*
X65760000Y-128455000D02*
X65760000Y-129826741D01*
X65760000Y-131227136D02*
X65760000Y-132050000D01*
X65760000Y-133540000D02*
X65760000Y-134590000D01*
X65760000Y-136080000D02*
X65760000Y-138458463D01*
X65760000Y-139241538D02*
X65760000Y-139897500D01*
X65760000Y-140637500D02*
X65760000Y-143995099D01*
X65760000Y-145635036D02*
X65760000Y-148705000D01*
X65665000Y-128455000D02*
X65665000Y-129921741D01*
X65665000Y-131288339D02*
X65665000Y-132050000D01*
X65665000Y-133540000D02*
X65665000Y-134592305D01*
X65665000Y-136077694D02*
X65665000Y-138401202D01*
X65665000Y-139298799D02*
X65665000Y-139897500D01*
X65665000Y-140637500D02*
X65665000Y-144079964D01*
X65665000Y-145714924D02*
X65665000Y-148705000D01*
X65570000Y-128455000D02*
X65570000Y-130016741D01*
X65570000Y-131324097D02*
X65570000Y-132066235D01*
X65570000Y-133523764D02*
X65570000Y-134603496D01*
X65570000Y-136066503D02*
X65570000Y-138368178D01*
X65570000Y-139331823D02*
X65570000Y-139897500D01*
X65570000Y-140637500D02*
X65570000Y-144253255D01*
X65570000Y-144546744D02*
X65570000Y-144778502D01*
X65570000Y-145763297D02*
X65570000Y-148705000D01*
X65475000Y-128455000D02*
X65475000Y-130111741D01*
X65475000Y-131339800D02*
X65475000Y-132092170D01*
X65475000Y-133497829D02*
X65475000Y-134632314D01*
X65475000Y-136037685D02*
X65475000Y-138355000D01*
X65475000Y-139345000D02*
X65475000Y-139897500D01*
X65475000Y-140637500D02*
X65475000Y-144804980D01*
X65475000Y-145788785D02*
X65475000Y-148705000D01*
X65380000Y-128455000D02*
X65380000Y-130206741D01*
X65380000Y-131337105D02*
X65380000Y-132131520D01*
X65380000Y-133458479D02*
X65380000Y-134674660D01*
X65380000Y-135995339D02*
X65380000Y-138360220D01*
X65380000Y-139339779D02*
X65380000Y-139897500D01*
X65380000Y-140637500D02*
X65380000Y-144805000D01*
X65380000Y-145795000D02*
X65380000Y-148705000D01*
X65285000Y-128455000D02*
X65285000Y-130301741D01*
X65285000Y-131315427D02*
X65285000Y-132192994D01*
X65285000Y-133397005D02*
X65285000Y-134732335D01*
X65285000Y-135937664D02*
X65285000Y-138384632D01*
X65285000Y-139315367D02*
X65285000Y-139897500D01*
X65285000Y-140637500D02*
X65285000Y-144817183D01*
X65285000Y-145782816D02*
X65285000Y-148705000D01*
X65190000Y-128455000D02*
X65190000Y-130396741D01*
X65190000Y-131271549D02*
X65190000Y-132276411D01*
X65190000Y-133313589D02*
X65190000Y-134812550D01*
X65190000Y-135857449D02*
X65190000Y-138431736D01*
X65190000Y-139268263D02*
X65190000Y-139897500D01*
X65190000Y-140637500D02*
X65190000Y-144849130D01*
X65190000Y-145750869D02*
X65190000Y-148705000D01*
X65095000Y-128455000D02*
X65095000Y-130491741D01*
X65095000Y-131197536D02*
X65095000Y-132396896D01*
X65095000Y-133193103D02*
X65095000Y-134933239D01*
X65095000Y-135736760D02*
X65095000Y-138509964D01*
X65095000Y-139190036D02*
X65095000Y-139897500D01*
X65095000Y-140637500D02*
X65095000Y-144905122D01*
X65095000Y-145694877D02*
X65095000Y-148705000D01*
X65000000Y-128455000D02*
X65000000Y-130619110D01*
X65000000Y-131070489D02*
X65000000Y-132621077D01*
X65000000Y-132968922D02*
X65000000Y-135158560D01*
X65000000Y-135511439D02*
X65000000Y-138654971D01*
X65000000Y-139045028D02*
X65000000Y-139897500D01*
X65000000Y-140637500D02*
X65000000Y-145000182D01*
X65000000Y-145599817D02*
X65000000Y-148705000D01*
X64905000Y-128455000D02*
X64905000Y-139829242D01*
X64905000Y-140637500D02*
X64905000Y-145226110D01*
X64905000Y-145373889D02*
X64905000Y-148705000D01*
X64810000Y-128455000D02*
X64810000Y-139734242D01*
X64810000Y-140638304D02*
X64810000Y-148705000D01*
X64715000Y-128455000D02*
X64715000Y-139639242D01*
X64715000Y-140622297D02*
X64715000Y-148705000D01*
X64620000Y-128455000D02*
X64620000Y-139544242D01*
X64620000Y-140580135D02*
X64620000Y-148705000D01*
X64525000Y-128455000D02*
X64525000Y-139449242D01*
X64525000Y-140495758D02*
X64525000Y-145052565D01*
X64525000Y-145547436D02*
X64525000Y-148705000D01*
X64430000Y-128455000D02*
X64430000Y-139354242D01*
X64430000Y-140400758D02*
X64430000Y-143771441D01*
X64430000Y-145665036D02*
X64430000Y-148705000D01*
X64335000Y-128455000D02*
X64335000Y-139259242D01*
X64335000Y-140305758D02*
X64335000Y-143646342D01*
X64335000Y-145734969D02*
X64335000Y-148705000D01*
X64240000Y-128455000D02*
X64240000Y-132500711D01*
X64240000Y-133089290D02*
X64240000Y-139164242D01*
X64240000Y-140210758D02*
X64240000Y-143551342D01*
X64240000Y-145775723D02*
X64240000Y-148705000D01*
X64145000Y-128455000D02*
X64145000Y-132268151D01*
X64145000Y-133321850D02*
X64145000Y-139069242D01*
X64145000Y-140115758D02*
X64145000Y-143456342D01*
X64145000Y-145794752D02*
X64145000Y-148705000D01*
X64050000Y-128455000D02*
X64050000Y-132122948D01*
X64050000Y-133467053D02*
X64050000Y-138974242D01*
X64050000Y-140020758D02*
X64050000Y-143361342D01*
X64050000Y-145795000D02*
X64050000Y-148705000D01*
X63955000Y-128455000D02*
X63955000Y-132010384D01*
X63955000Y-133579617D02*
X63955000Y-138879242D01*
X63955000Y-139925758D02*
X63955000Y-143266342D01*
X63955000Y-145776849D02*
X63955000Y-148705000D01*
X63860000Y-128455000D02*
X63860000Y-131932420D01*
X63860000Y-133657581D02*
X63860000Y-135017429D01*
X63860000Y-135652572D02*
X63860000Y-138784242D01*
X63860000Y-139830758D02*
X63860000Y-143171342D01*
X63860000Y-145738308D02*
X63860000Y-148705000D01*
X63765000Y-128455000D02*
X63765000Y-131863410D01*
X63765000Y-133726591D02*
X63765000Y-134867384D01*
X63765000Y-135802617D02*
X63765000Y-138557666D01*
X63765000Y-139735758D02*
X63765000Y-143076342D01*
X63765000Y-145670036D02*
X63765000Y-148705000D01*
X63670000Y-128455000D02*
X63670000Y-131812631D01*
X63670000Y-133777370D02*
X63670000Y-134769266D01*
X63670000Y-135900735D02*
X63670000Y-138458463D01*
X63670000Y-139640758D02*
X63670000Y-142981342D01*
X63670000Y-144027858D02*
X63670000Y-145045081D01*
X63670000Y-145554918D02*
X63670000Y-148705000D01*
X63575000Y-128455000D02*
X63575000Y-131769034D01*
X63575000Y-133820967D02*
X63575000Y-134698715D01*
X63575000Y-135971286D02*
X63575000Y-138401202D01*
X63575000Y-139545758D02*
X63575000Y-142886342D01*
X63575000Y-143932858D02*
X63575000Y-148705000D01*
X63480000Y-128455000D02*
X63480000Y-131740216D01*
X63480000Y-133849785D02*
X63480000Y-134647936D01*
X63480000Y-136022065D02*
X63480000Y-138368178D01*
X63480000Y-139450758D02*
X63480000Y-142791342D01*
X63480000Y-143837858D02*
X63480000Y-148705000D01*
X63385000Y-128455000D02*
X63385000Y-131714401D01*
X63385000Y-133875600D02*
X63385000Y-134617148D01*
X63385000Y-136052853D02*
X63385000Y-138355000D01*
X63385000Y-139355758D02*
X63385000Y-142696342D01*
X63385000Y-143742858D02*
X63385000Y-148705000D01*
X63290000Y-128455000D02*
X63290000Y-131705044D01*
X63290000Y-133884957D02*
X63290000Y-134596738D01*
X63290000Y-136073263D02*
X63290000Y-138360220D01*
X63290000Y-139339779D02*
X63290000Y-142601342D01*
X63290000Y-143647858D02*
X63290000Y-148701350D01*
X63195000Y-128455000D02*
X63195000Y-131700000D01*
X63195000Y-134307453D02*
X63195000Y-134590000D01*
X63195000Y-136080000D02*
X63195000Y-138384632D01*
X63195000Y-139315367D02*
X63195000Y-142506342D01*
X63195000Y-143552858D02*
X63195000Y-148692035D01*
X63100000Y-128455000D02*
X63100000Y-131703073D01*
X63100000Y-134427536D02*
X63100000Y-134594767D01*
X63100000Y-136075232D02*
X63100000Y-138431736D01*
X63100000Y-139268263D02*
X63100000Y-142411342D01*
X63100000Y-143457858D02*
X63100000Y-148668540D01*
X63005000Y-128455000D02*
X63005000Y-131712430D01*
X63005000Y-134499128D02*
X63005000Y-134611080D01*
X63005000Y-136058919D02*
X63005000Y-138509964D01*
X63005000Y-139190036D02*
X63005000Y-142316342D01*
X63005000Y-143362858D02*
X63005000Y-148634193D01*
X62910000Y-128455000D02*
X62910000Y-131734148D01*
X62910000Y-134541152D02*
X62910000Y-134639898D01*
X62910000Y-136030101D02*
X62910000Y-138654971D01*
X62910000Y-139045028D02*
X62910000Y-142221342D01*
X62910000Y-143267858D02*
X62910000Y-148583681D01*
X62815000Y-128455000D02*
X62815000Y-131762966D01*
X62815000Y-134561258D02*
X62815000Y-134688023D01*
X62815000Y-135981976D02*
X62815000Y-138801247D01*
X62815000Y-138801247D02*
X62815000Y-142126342D01*
X62815000Y-143172858D02*
X62815000Y-148508864D01*
X62720000Y-128455000D02*
X62720000Y-131801940D01*
X62720000Y-134630759D02*
X62720000Y-134752852D01*
X62720000Y-135917147D02*
X62720000Y-138801247D01*
X62720000Y-138801247D02*
X62720000Y-142031342D01*
X62720000Y-143077858D02*
X62720000Y-148404893D01*
X62625000Y-128455000D02*
X62625000Y-131852719D01*
X62625000Y-134725759D02*
X62625000Y-134843012D01*
X62625000Y-135826987D02*
X62625000Y-138801247D01*
X62625000Y-138801247D02*
X62625000Y-141936342D01*
X62625000Y-142982858D02*
X62625000Y-148245714D01*
X62530000Y-128455000D02*
X62530000Y-131916005D01*
X62530000Y-134820759D02*
X62530000Y-134980011D01*
X62530000Y-135689988D02*
X62530000Y-138801247D01*
X62530000Y-138801247D02*
X62530000Y-141841342D01*
X62530000Y-142887858D02*
X62530000Y-143902665D01*
X62435000Y-128455000D02*
X62435000Y-131993969D01*
X62435000Y-133596030D02*
X62435000Y-133692464D01*
X62435000Y-134915759D02*
X62435000Y-135335000D01*
X62435000Y-135335000D02*
X62435000Y-138801247D01*
X62435000Y-138801247D02*
X62435000Y-141746342D01*
X62435000Y-142792858D02*
X62435000Y-143585959D01*
X62340000Y-128455000D02*
X62340000Y-132098577D01*
X62340000Y-133491422D02*
X62340000Y-133805098D01*
X62340000Y-135010759D02*
X62340000Y-135335000D01*
X62340000Y-135335000D02*
X62340000Y-138801247D01*
X62340000Y-138801247D02*
X62340000Y-141651342D01*
X62340000Y-142697858D02*
X62340000Y-143401106D01*
X62245000Y-128455000D02*
X62245000Y-132230732D01*
X62245000Y-133359267D02*
X62245000Y-134059241D01*
X62245000Y-135105759D02*
X62245000Y-135335000D01*
X62245000Y-135335000D02*
X62245000Y-138801247D01*
X62245000Y-138801247D02*
X62245000Y-141437134D01*
X62245000Y-142602858D02*
X62245000Y-143239379D01*
X62150000Y-128455000D02*
X62150000Y-132434779D01*
X62150000Y-133155220D02*
X62150000Y-134154241D01*
X62150000Y-135200759D02*
X62150000Y-135335000D01*
X62150000Y-135335000D02*
X62150000Y-138801247D01*
X62150000Y-138801247D02*
X62150000Y-141247217D01*
X62150000Y-142507858D02*
X62150000Y-143124544D01*
X62055000Y-128455000D02*
X62055000Y-134249241D01*
X62055000Y-142412858D02*
X62055000Y-143011776D01*
X61960000Y-128455000D02*
X61960000Y-134344241D01*
X61960000Y-142317858D02*
X61960000Y-142929852D01*
X61865000Y-128455000D02*
X61865000Y-134439241D01*
X61865000Y-142222858D02*
X61865000Y-142852372D01*
X61770000Y-128455000D02*
X61770000Y-134534241D01*
X61770000Y-142127858D02*
X61770000Y-142779605D01*
X61675000Y-128455000D02*
X61675000Y-134629241D01*
X61675000Y-142049055D02*
X61675000Y-142728381D01*
X61580000Y-128455000D02*
X61580000Y-134724241D01*
X61580000Y-142021371D02*
X61580000Y-142677868D01*
X61485000Y-128455000D02*
X61485000Y-134820491D01*
X61485000Y-141970407D02*
X61485000Y-142629624D01*
X61390000Y-128455000D02*
X61390000Y-132721624D01*
X61390000Y-132868376D02*
X61390000Y-135261624D01*
X61390000Y-135408376D02*
X61390000Y-141237464D01*
X61390000Y-141887136D02*
X61390000Y-142598060D01*
X61295000Y-128455000D02*
X61295000Y-132426829D01*
X61295000Y-133163172D02*
X61295000Y-134966829D01*
X61295000Y-135703172D02*
X61295000Y-141403967D01*
X61295000Y-141720632D02*
X61295000Y-142569378D01*
X61200000Y-128455000D02*
X61200000Y-132296411D01*
X61200000Y-133293589D02*
X61200000Y-134836411D01*
X61200000Y-135833589D02*
X61200000Y-141513547D01*
X61200000Y-141513547D02*
X61200000Y-142540696D01*
X61105000Y-128455000D02*
X61105000Y-132206359D01*
X61105000Y-133383642D02*
X61105000Y-134746359D01*
X61105000Y-135923642D02*
X61105000Y-141513547D01*
X61105000Y-141513547D02*
X61105000Y-142522236D01*
X61010000Y-128455000D02*
X61010000Y-132142881D01*
X61010000Y-133447120D02*
X61010000Y-134682881D01*
X61010000Y-135987120D02*
X61010000Y-141513547D01*
X61010000Y-141513547D02*
X61010000Y-142512921D01*
X60915000Y-128455000D02*
X60915000Y-132100456D01*
X60915000Y-133489545D02*
X60915000Y-134640456D01*
X60915000Y-136029545D02*
X60915000Y-141513547D01*
X60915000Y-141513547D02*
X60915000Y-142503607D01*
X60820000Y-128455000D02*
X60820000Y-132070215D01*
X60820000Y-133519786D02*
X60820000Y-134610215D01*
X60820000Y-136059786D02*
X60820000Y-141513547D01*
X60820000Y-141513547D02*
X60820000Y-142495000D01*
X60725000Y-128455000D02*
X60725000Y-132051318D01*
X60725000Y-133538683D02*
X60725000Y-134591318D01*
X60725000Y-136078683D02*
X60725000Y-141513547D01*
X60725000Y-141513547D02*
X60725000Y-142495000D01*
X60630000Y-128455000D02*
X60630000Y-132050000D01*
X60630000Y-133540000D02*
X60630000Y-134590000D01*
X60630000Y-136080000D02*
X60630000Y-141513547D01*
X60630000Y-141513547D02*
X60630000Y-142495000D01*
X60535000Y-128455000D02*
X60535000Y-132057284D01*
X60535000Y-133532715D02*
X60535000Y-134597284D01*
X60535000Y-136072715D02*
X60535000Y-141513547D01*
X60535000Y-141513547D02*
X60535000Y-142495000D01*
X60440000Y-128455000D02*
X60440000Y-132076181D01*
X60440000Y-133513818D02*
X60440000Y-134616181D01*
X60440000Y-136053818D02*
X60440000Y-141513547D01*
X60440000Y-141513547D02*
X60440000Y-142495000D01*
X60345000Y-128455000D02*
X60345000Y-132112881D01*
X60345000Y-133477118D02*
X60345000Y-134652881D01*
X60345000Y-136017118D02*
X60345000Y-141513547D01*
X60345000Y-141513547D02*
X60345000Y-142495000D01*
X60250000Y-128455000D02*
X60250000Y-132162926D01*
X60250000Y-133427073D02*
X60250000Y-134702926D01*
X60250000Y-135967073D02*
X60250000Y-141513547D01*
X60250000Y-141513547D02*
X60250000Y-142495000D01*
X60155000Y-128455000D02*
X60155000Y-132231411D01*
X60155000Y-133358589D02*
X60155000Y-134771411D01*
X60155000Y-135898589D02*
X60155000Y-141513547D01*
X60155000Y-141513547D02*
X60155000Y-142495000D01*
X60060000Y-128458295D02*
X60060000Y-132329549D01*
X60060000Y-133260450D02*
X60060000Y-134869549D01*
X60060000Y-135800450D02*
X60060000Y-141513547D01*
X60060000Y-141513547D02*
X60060000Y-142491350D01*
X59965000Y-128468280D02*
X59965000Y-132489885D01*
X59965000Y-133100114D02*
X59965000Y-135029885D01*
X59965000Y-135640114D02*
X59965000Y-141513547D01*
X59965000Y-141513547D02*
X59965000Y-142482035D01*
X59870000Y-128491439D02*
X59870000Y-132721624D01*
X59870000Y-132721624D02*
X59870000Y-135261624D01*
X59870000Y-135261624D02*
X59870000Y-141513547D01*
X59870000Y-141513547D02*
X59870000Y-142458540D01*
X59775000Y-128525429D02*
X59775000Y-132721624D01*
X59775000Y-132721624D02*
X59775000Y-135261624D01*
X59775000Y-135261624D02*
X59775000Y-141513547D01*
X59775000Y-141513547D02*
X59775000Y-142424193D01*
X59680000Y-128576794D02*
X59680000Y-132721624D01*
X59680000Y-132721624D02*
X59680000Y-135261624D01*
X59680000Y-135261624D02*
X59680000Y-141513547D01*
X59680000Y-141513547D02*
X59680000Y-142373681D01*
X59585000Y-128651453D02*
X59585000Y-132721624D01*
X59585000Y-132721624D02*
X59585000Y-135261624D01*
X59585000Y-135261624D02*
X59585000Y-141513547D01*
X59585000Y-141513547D02*
X59585000Y-142298864D01*
X59490000Y-128755439D02*
X59490000Y-132721624D01*
X59490000Y-132721624D02*
X59490000Y-135261624D01*
X59490000Y-135261624D02*
X59490000Y-141513547D01*
X59490000Y-141513547D02*
X59490000Y-142194893D01*
X59395000Y-128915327D02*
X59395000Y-132721624D01*
X59395000Y-132721624D02*
X59395000Y-135261624D01*
X59395000Y-135261624D02*
X59395000Y-141513547D01*
X59395000Y-141513547D02*
X59395000Y-142035714D01*
X66968527Y-128618215D02*
X66968521Y-128618220D01*
X65080520Y-130506222D01*
X65079046Y-130508018D01*
X65057808Y-130529256D01*
X65003637Y-130610330D01*
X64966323Y-130700414D01*
X64947300Y-130796047D01*
X64947300Y-130893553D01*
X64966323Y-130989186D01*
X65003637Y-131079270D01*
X65057808Y-131160344D01*
X65126756Y-131229292D01*
X65207830Y-131283463D01*
X65297914Y-131320777D01*
X65393547Y-131339800D01*
X65491053Y-131339800D01*
X65586686Y-131320777D01*
X65676770Y-131283463D01*
X65757844Y-131229292D01*
X65826792Y-131160344D01*
X65880963Y-131079270D01*
X65918277Y-130989186D01*
X65937300Y-130893553D01*
X65937300Y-130796047D01*
X65937000Y-130794539D01*
X65937000Y-130696258D01*
X67491780Y-129141479D01*
X67491785Y-129141473D01*
X67573258Y-129060000D01*
X69282064Y-129060000D01*
X69237808Y-129104256D01*
X69183637Y-129185330D01*
X69146323Y-129275414D01*
X69127300Y-129371047D01*
X69127300Y-129468553D01*
X69127400Y-129469056D01*
X69127400Y-132034625D01*
X69010738Y-131914315D01*
X68824596Y-131785751D01*
X68616949Y-131695972D01*
X68582953Y-131685666D01*
X68405500Y-131726195D01*
X68405500Y-132654500D01*
X68425500Y-132654500D01*
X68425500Y-132935500D01*
X68405500Y-132935500D01*
X68405500Y-133863805D01*
X68582953Y-133904334D01*
X68616949Y-133894028D01*
X68824596Y-133804249D01*
X69010738Y-133675685D01*
X69127401Y-133555375D01*
X69127401Y-134574626D01*
X69010738Y-134454315D01*
X68824596Y-134325751D01*
X68616949Y-134235972D01*
X68582953Y-134225666D01*
X68405500Y-134266195D01*
X68405500Y-135194500D01*
X68425500Y-135194500D01*
X68425500Y-135475500D01*
X68405500Y-135475500D01*
X68405500Y-136403805D01*
X68582953Y-136444334D01*
X68616949Y-136434028D01*
X68824596Y-136344249D01*
X69010738Y-136215685D01*
X69167128Y-136054405D01*
X69188268Y-136093955D01*
X69195992Y-136103366D01*
X69234505Y-136150295D01*
X69248625Y-136161883D01*
X69836742Y-136750000D01*
X69638163Y-136750000D01*
X69620000Y-136748211D01*
X69601837Y-136750000D01*
X67903259Y-136750000D01*
X67020000Y-135866742D01*
X67020000Y-135652954D01*
X67155659Y-135652954D01*
X67239004Y-135863266D01*
X67361778Y-136053277D01*
X67519262Y-136215685D01*
X67705404Y-136344249D01*
X67913051Y-136434028D01*
X67947047Y-136444334D01*
X68124500Y-136403805D01*
X68124500Y-135475500D01*
X67195578Y-135475500D01*
X67155659Y-135652954D01*
X67020000Y-135652954D01*
X67020000Y-135017046D01*
X67155659Y-135017046D01*
X67195578Y-135194500D01*
X68124500Y-135194500D01*
X68124500Y-134266195D01*
X67947047Y-134225666D01*
X67913051Y-134235972D01*
X67705404Y-134325751D01*
X67519262Y-134454315D01*
X67361778Y-134616723D01*
X67239004Y-134806734D01*
X67155659Y-135017046D01*
X67020000Y-135017046D01*
X67020000Y-133112954D01*
X67155659Y-133112954D01*
X67239004Y-133323266D01*
X67361778Y-133513277D01*
X67519262Y-133675685D01*
X67705404Y-133804249D01*
X67913051Y-133894028D01*
X67947047Y-133904334D01*
X68124500Y-133863805D01*
X68124500Y-132935500D01*
X67195578Y-132935500D01*
X67155659Y-133112954D01*
X67020000Y-133112954D01*
X67020000Y-132477046D01*
X67155659Y-132477046D01*
X67195578Y-132654500D01*
X68124500Y-132654500D01*
X68124500Y-131726195D01*
X67947047Y-131685666D01*
X67913051Y-131695972D01*
X67705404Y-131785751D01*
X67519262Y-131914315D01*
X67361778Y-132076723D01*
X67239004Y-132266734D01*
X67155659Y-132477046D01*
X67020000Y-132477046D01*
X67020000Y-131842858D01*
X67523059Y-131339800D01*
X67581053Y-131339800D01*
X67676686Y-131320777D01*
X67766770Y-131283463D01*
X67847844Y-131229292D01*
X67916792Y-131160344D01*
X67970963Y-131079270D01*
X68008277Y-130989186D01*
X68027300Y-130893553D01*
X68027300Y-130796047D01*
X68008277Y-130700414D01*
X67970963Y-130610330D01*
X67916792Y-130529256D01*
X67847844Y-130460308D01*
X67766770Y-130406137D01*
X67676686Y-130368823D01*
X67581053Y-130349800D01*
X67483547Y-130349800D01*
X67387914Y-130368823D01*
X67297830Y-130406137D01*
X67216756Y-130460308D01*
X67147808Y-130529256D01*
X67093637Y-130610330D01*
X67056323Y-130700414D01*
X67041523Y-130774819D01*
X66401225Y-131415117D01*
X66387105Y-131426705D01*
X66375520Y-131440822D01*
X66340868Y-131483045D01*
X66320350Y-131521432D01*
X66306511Y-131547323D01*
X66285354Y-131617068D01*
X66280000Y-131671427D01*
X66280000Y-131671437D01*
X66278211Y-131689600D01*
X66280000Y-131707764D01*
X66280000Y-132296411D01*
X66199910Y-132216321D01*
X66077890Y-132134789D01*
X65942309Y-132078630D01*
X65798376Y-132050000D01*
X65651624Y-132050000D01*
X65507691Y-132078630D01*
X65372110Y-132134789D01*
X65250090Y-132216321D01*
X65146321Y-132320090D01*
X65064789Y-132442110D01*
X65008630Y-132577691D01*
X64980000Y-132721624D01*
X64980000Y-132868376D01*
X65008630Y-133012309D01*
X65064789Y-133147890D01*
X65146321Y-133269910D01*
X65250090Y-133373679D01*
X65372110Y-133455211D01*
X65507691Y-133511370D01*
X65651624Y-133540000D01*
X65798376Y-133540000D01*
X65942309Y-133511370D01*
X66077890Y-133455211D01*
X66199910Y-133373679D01*
X66280000Y-133293589D01*
X66280001Y-134836921D01*
X66254343Y-134805657D01*
X66140902Y-134712559D01*
X66011478Y-134643380D01*
X65871045Y-134600780D01*
X65761592Y-134590000D01*
X65688408Y-134590000D01*
X65578955Y-134600780D01*
X65438522Y-134643380D01*
X65309098Y-134712559D01*
X65195657Y-134805657D01*
X65102559Y-134919098D01*
X65033380Y-135048522D01*
X64990780Y-135188955D01*
X64976396Y-135335000D01*
X64990780Y-135481045D01*
X65033380Y-135621478D01*
X65102559Y-135750902D01*
X65195657Y-135864343D01*
X65309098Y-135957441D01*
X65438522Y-136026620D01*
X65578955Y-136069220D01*
X65688408Y-136080000D01*
X65761592Y-136080000D01*
X65871045Y-136069220D01*
X66011478Y-136026620D01*
X66140902Y-135957441D01*
X66254343Y-135864343D01*
X66280001Y-135833078D01*
X66280001Y-136001826D01*
X66278211Y-136020000D01*
X66280001Y-136038174D01*
X66285355Y-136092533D01*
X66287209Y-136098645D01*
X66306511Y-136162277D01*
X66340868Y-136226555D01*
X66371074Y-136263360D01*
X66387106Y-136282895D01*
X66401220Y-136294478D01*
X67475519Y-137368778D01*
X67487105Y-137382895D01*
X67501219Y-137394478D01*
X67501221Y-137394480D01*
X67543444Y-137429132D01*
X67605456Y-137462278D01*
X67607722Y-137463489D01*
X67677467Y-137484646D01*
X67731826Y-137490000D01*
X67731836Y-137490000D01*
X67750000Y-137491789D01*
X67768163Y-137490000D01*
X69466742Y-137490000D01*
X70476742Y-138500000D01*
X70390814Y-138500000D01*
X70342533Y-138485354D01*
X70288174Y-138480000D01*
X70288163Y-138480000D01*
X70270000Y-138478211D01*
X70251837Y-138480000D01*
X65785036Y-138480000D01*
X65770544Y-138465508D01*
X65689470Y-138411337D01*
X65599386Y-138374023D01*
X65503753Y-138355000D01*
X65406247Y-138355000D01*
X65310614Y-138374023D01*
X65220530Y-138411337D01*
X65139456Y-138465508D01*
X65070508Y-138534456D01*
X65016337Y-138615530D01*
X64979023Y-138705614D01*
X64960000Y-138801247D01*
X64960000Y-138898753D01*
X64979023Y-138994386D01*
X65016337Y-139084470D01*
X65070508Y-139165544D01*
X65139456Y-139234492D01*
X65220530Y-139288663D01*
X65310614Y-139325977D01*
X65406247Y-139345000D01*
X65503753Y-139345000D01*
X65599386Y-139325977D01*
X65689470Y-139288663D01*
X65770544Y-139234492D01*
X65785036Y-139220000D01*
X70116742Y-139220000D01*
X70426221Y-139529480D01*
X70426226Y-139529484D01*
X71234223Y-140337482D01*
X71249023Y-140411886D01*
X71286337Y-140501970D01*
X71340508Y-140583044D01*
X71409456Y-140651992D01*
X71490530Y-140706163D01*
X71580614Y-140743477D01*
X71676247Y-140762500D01*
X71773753Y-140762500D01*
X71869386Y-140743477D01*
X71959470Y-140706163D01*
X72015001Y-140669059D01*
X72015001Y-140701740D01*
X71166226Y-141550516D01*
X71166221Y-141550520D01*
X70891222Y-141825520D01*
X70791742Y-141925000D01*
X67844923Y-141925000D01*
X67826759Y-141923211D01*
X67808595Y-141925000D01*
X67808586Y-141925000D01*
X67754227Y-141930354D01*
X67684482Y-141951511D01*
X67620205Y-141985868D01*
X67563865Y-142032105D01*
X67552277Y-142046225D01*
X67493522Y-142104980D01*
X67332226Y-142104980D01*
X67332023Y-142105000D01*
X67296247Y-142105000D01*
X67200614Y-142124023D01*
X67110530Y-142161337D01*
X67029456Y-142215508D01*
X66960508Y-142284456D01*
X66906337Y-142365530D01*
X66869023Y-142455614D01*
X66850000Y-142551247D01*
X66850000Y-142648753D01*
X66869023Y-142744386D01*
X66906337Y-142834470D01*
X66951136Y-142901518D01*
X66913865Y-142932105D01*
X66902277Y-142946225D01*
X66843522Y-143004980D01*
X66682226Y-143004980D01*
X66682023Y-143005000D01*
X66646247Y-143005000D01*
X66550614Y-143024023D01*
X66460530Y-143061337D01*
X66379456Y-143115508D01*
X66310508Y-143184456D01*
X66256337Y-143265530D01*
X66219023Y-143355614D01*
X66200000Y-143451247D01*
X66200000Y-143548753D01*
X66219023Y-143644386D01*
X66256337Y-143734470D01*
X66301136Y-143801518D01*
X66263865Y-143832105D01*
X66252277Y-143846225D01*
X66193522Y-143904980D01*
X66032226Y-143904980D01*
X66032023Y-143905000D01*
X65996247Y-143905000D01*
X65900614Y-143924023D01*
X65810530Y-143961337D01*
X65729456Y-144015508D01*
X65660508Y-144084456D01*
X65606337Y-144165530D01*
X65569023Y-144255614D01*
X65550000Y-144351247D01*
X65550000Y-144448753D01*
X65569023Y-144544386D01*
X65606337Y-144634470D01*
X65651136Y-144701518D01*
X65613865Y-144732105D01*
X65602277Y-144746225D01*
X65543522Y-144804980D01*
X65382226Y-144804980D01*
X65382023Y-144805000D01*
X65346247Y-144805000D01*
X65250614Y-144824023D01*
X65160530Y-144861337D01*
X65079456Y-144915508D01*
X65010508Y-144984456D01*
X64956337Y-145065530D01*
X64919023Y-145155614D01*
X64900000Y-145251247D01*
X64900000Y-145348753D01*
X64919023Y-145444386D01*
X64956337Y-145534470D01*
X65010508Y-145615544D01*
X65079456Y-145684492D01*
X65160530Y-145738663D01*
X65250614Y-145775977D01*
X65346247Y-145795000D01*
X65443753Y-145795000D01*
X65539386Y-145775977D01*
X65629470Y-145738663D01*
X65710544Y-145684492D01*
X65779492Y-145615544D01*
X65779528Y-145615490D01*
X66030018Y-145365000D01*
X67728395Y-145365000D01*
X67711337Y-145390530D01*
X67674023Y-145480614D01*
X67655000Y-145576247D01*
X67655000Y-145673753D01*
X67674023Y-145769386D01*
X67711337Y-145859470D01*
X67765508Y-145940544D01*
X67834456Y-146009492D01*
X67915530Y-146063663D01*
X68005614Y-146100977D01*
X68101247Y-146120000D01*
X68198753Y-146120000D01*
X68294386Y-146100977D01*
X68384470Y-146063663D01*
X68465544Y-146009492D01*
X68480036Y-145995000D01*
X70894964Y-145995000D01*
X70909456Y-146009492D01*
X70990530Y-146063663D01*
X71080614Y-146100977D01*
X71176247Y-146120000D01*
X71273753Y-146120000D01*
X71369386Y-146100977D01*
X71459470Y-146063663D01*
X71540544Y-146009492D01*
X71609492Y-145940544D01*
X71663663Y-145859470D01*
X71700977Y-145769386D01*
X71720000Y-145673753D01*
X71720000Y-145576247D01*
X71700977Y-145480614D01*
X71663663Y-145390530D01*
X71609492Y-145309456D01*
X71540544Y-145240508D01*
X71459470Y-145186337D01*
X71369386Y-145149023D01*
X71273753Y-145130000D01*
X71176247Y-145130000D01*
X71080614Y-145149023D01*
X70990530Y-145186337D01*
X70909456Y-145240508D01*
X70894964Y-145255000D01*
X70880271Y-145255000D01*
X70889483Y-145243775D01*
X72759480Y-143373779D01*
X72759484Y-143373774D01*
X74204480Y-141928779D01*
X74204484Y-141928774D01*
X74594480Y-141538779D01*
X74594484Y-141538774D01*
X74690000Y-141443258D01*
X74690000Y-147942771D01*
X74674540Y-148100443D01*
X74632301Y-148240346D01*
X74563691Y-148369383D01*
X74471330Y-148482629D01*
X74358724Y-148575785D01*
X74230175Y-148645291D01*
X74090563Y-148688508D01*
X73933654Y-148705000D01*
X63327229Y-148705000D01*
X63169557Y-148689540D01*
X63029654Y-148647301D01*
X62900617Y-148578691D01*
X62787371Y-148486330D01*
X62694215Y-148373724D01*
X62624709Y-148245175D01*
X62581492Y-148105563D01*
X62565000Y-147948654D01*
X62565000Y-144232725D01*
X62563869Y-144221247D01*
X62563935Y-144211871D01*
X62563594Y-144208397D01*
X62532994Y-143917251D01*
X62528434Y-143895035D01*
X62524192Y-143872798D01*
X62523183Y-143869456D01*
X62436615Y-143589800D01*
X62427824Y-143568888D01*
X62419346Y-143547903D01*
X62417707Y-143544821D01*
X62417707Y-143544820D01*
X62417704Y-143544816D01*
X62278468Y-143287305D01*
X62265806Y-143268533D01*
X62253391Y-143249560D01*
X62251185Y-143246855D01*
X62064579Y-143021288D01*
X62048543Y-143005364D01*
X62032649Y-142989133D01*
X62029959Y-142986908D01*
X61803094Y-142801882D01*
X61784245Y-142789358D01*
X61765526Y-142776541D01*
X61762455Y-142774881D01*
X61503974Y-142637444D01*
X61483064Y-142628826D01*
X61462200Y-142619883D01*
X61458864Y-142618851D01*
X61178610Y-142534237D01*
X61156378Y-142529835D01*
X61134219Y-142525125D01*
X61130749Y-142524760D01*
X61130747Y-142524760D01*
X60839395Y-142496193D01*
X60839387Y-142496193D01*
X60827275Y-142495000D01*
X60097229Y-142495000D01*
X59939557Y-142479540D01*
X59799654Y-142437301D01*
X59670617Y-142368691D01*
X59557371Y-142276330D01*
X59464215Y-142163724D01*
X59394709Y-142035175D01*
X59351492Y-141895563D01*
X59335000Y-141738654D01*
X59335000Y-141513547D01*
X61270200Y-141513547D01*
X61270200Y-141611053D01*
X61289223Y-141706686D01*
X61326537Y-141796770D01*
X61380708Y-141877844D01*
X61449656Y-141946792D01*
X61530730Y-142000963D01*
X61620814Y-142038277D01*
X61695219Y-142053077D01*
X63725000Y-144082859D01*
X63725000Y-144263173D01*
X63725001Y-144263183D01*
X63725001Y-144481819D01*
X63725000Y-144481827D01*
X63725000Y-144969964D01*
X63710508Y-144984456D01*
X63656337Y-145065530D01*
X63619023Y-145155614D01*
X63600000Y-145251247D01*
X63600000Y-145348753D01*
X63619023Y-145444386D01*
X63656337Y-145534470D01*
X63710508Y-145615544D01*
X63779456Y-145684492D01*
X63860530Y-145738663D01*
X63950614Y-145775977D01*
X64046247Y-145795000D01*
X64143753Y-145795000D01*
X64239386Y-145775977D01*
X64329470Y-145738663D01*
X64410544Y-145684492D01*
X64479492Y-145615544D01*
X64533663Y-145534470D01*
X64570977Y-145444386D01*
X64590000Y-145348753D01*
X64590000Y-145251247D01*
X64570977Y-145155614D01*
X64533663Y-145065530D01*
X64479492Y-144984456D01*
X64465000Y-144969964D01*
X64465000Y-143947764D01*
X64466789Y-143929600D01*
X64465000Y-143911436D01*
X64465000Y-143911426D01*
X64459646Y-143857067D01*
X64438489Y-143787322D01*
X64404132Y-143723045D01*
X64380768Y-143694576D01*
X64369480Y-143680821D01*
X64369478Y-143680819D01*
X64357895Y-143666705D01*
X64343781Y-143655122D01*
X62260200Y-141571542D01*
X62260200Y-141513547D01*
X62241177Y-141417914D01*
X62203863Y-141327830D01*
X62149692Y-141246756D01*
X62135200Y-141232264D01*
X62135200Y-138801247D01*
X62870000Y-138801247D01*
X62870000Y-138898753D01*
X62889023Y-138994386D01*
X62926337Y-139084470D01*
X62980508Y-139165544D01*
X63049456Y-139234492D01*
X63130530Y-139288663D01*
X63220614Y-139325977D01*
X63316247Y-139345000D01*
X63374242Y-139345000D01*
X63626221Y-139596980D01*
X63626226Y-139596984D01*
X64545522Y-140516281D01*
X64557105Y-140530395D01*
X64571219Y-140541978D01*
X64571221Y-140541980D01*
X64600107Y-140565686D01*
X64613445Y-140576632D01*
X64677722Y-140610989D01*
X64747467Y-140632146D01*
X64801826Y-140637500D01*
X64801836Y-140637500D01*
X64820000Y-140639289D01*
X64838164Y-140637500D01*
X69304964Y-140637500D01*
X69319456Y-140651992D01*
X69400530Y-140706163D01*
X69490614Y-140743477D01*
X69586247Y-140762500D01*
X69683753Y-140762500D01*
X69779386Y-140743477D01*
X69869470Y-140706163D01*
X69950544Y-140651992D01*
X70019492Y-140583044D01*
X70073663Y-140501970D01*
X70110977Y-140411886D01*
X70130000Y-140316253D01*
X70130000Y-140218747D01*
X70110977Y-140123114D01*
X70073663Y-140033030D01*
X70019492Y-139951956D01*
X69950544Y-139883008D01*
X69869470Y-139828837D01*
X69779386Y-139791523D01*
X69683753Y-139772500D01*
X69586247Y-139772500D01*
X69490614Y-139791523D01*
X69400530Y-139828837D01*
X69319456Y-139883008D01*
X69304964Y-139897500D01*
X64973259Y-139897500D01*
X64149484Y-139073726D01*
X64149480Y-139073721D01*
X63855777Y-138780019D01*
X63840977Y-138705614D01*
X63803663Y-138615530D01*
X63749492Y-138534456D01*
X63680544Y-138465508D01*
X63599470Y-138411337D01*
X63509386Y-138374023D01*
X63413753Y-138355000D01*
X63316247Y-138355000D01*
X63220614Y-138374023D01*
X63130530Y-138411337D01*
X63049456Y-138465508D01*
X62980508Y-138534456D01*
X62926337Y-138615530D01*
X62889023Y-138705614D01*
X62870000Y-138801247D01*
X62135200Y-138801247D01*
X62135200Y-135335000D01*
X62436396Y-135335000D01*
X62450780Y-135481045D01*
X62493380Y-135621478D01*
X62562559Y-135750902D01*
X62655657Y-135864343D01*
X62769098Y-135957441D01*
X62898522Y-136026620D01*
X63038955Y-136069220D01*
X63148408Y-136080000D01*
X63221592Y-136080000D01*
X63331045Y-136069220D01*
X63471478Y-136026620D01*
X63600902Y-135957441D01*
X63714343Y-135864343D01*
X63807441Y-135750902D01*
X63876620Y-135621478D01*
X63919220Y-135481045D01*
X63933604Y-135335000D01*
X63919220Y-135188955D01*
X63876620Y-135048522D01*
X63807441Y-134919098D01*
X63714343Y-134805657D01*
X63600902Y-134712559D01*
X63471478Y-134643380D01*
X63331045Y-134600780D01*
X63221592Y-134590000D01*
X63148408Y-134590000D01*
X63038955Y-134600780D01*
X62898522Y-134643380D01*
X62769098Y-134712559D01*
X62655657Y-134805657D01*
X62562559Y-134919098D01*
X62493380Y-135048522D01*
X62450780Y-135188955D01*
X62436396Y-135335000D01*
X62135200Y-135335000D01*
X62135200Y-135215558D01*
X62788259Y-134562500D01*
X62808753Y-134562500D01*
X62904386Y-134543477D01*
X62994470Y-134506163D01*
X63075544Y-134451992D01*
X63144492Y-134383044D01*
X63198663Y-134301970D01*
X63235977Y-134211886D01*
X63255000Y-134116253D01*
X63255000Y-134018747D01*
X63235977Y-133923114D01*
X63222261Y-133890000D01*
X63238791Y-133890000D01*
X63399657Y-133874156D01*
X63606066Y-133811543D01*
X63796293Y-133709864D01*
X63963028Y-133573028D01*
X64099864Y-133406293D01*
X64201543Y-133216066D01*
X64264156Y-133009657D01*
X64285298Y-132795000D01*
X64264156Y-132580343D01*
X64201543Y-132373934D01*
X64099864Y-132183707D01*
X63963028Y-132016972D01*
X63796293Y-131880136D01*
X63606066Y-131778457D01*
X63399657Y-131715844D01*
X63238791Y-131700000D01*
X63131209Y-131700000D01*
X62970343Y-131715844D01*
X62763934Y-131778457D01*
X62573707Y-131880136D01*
X62406972Y-132016972D01*
X62270136Y-132183707D01*
X62168457Y-132373934D01*
X62105844Y-132580343D01*
X62084702Y-132795000D01*
X62105844Y-133009657D01*
X62168457Y-133216066D01*
X62270136Y-133406293D01*
X62406972Y-133573028D01*
X62497663Y-133647457D01*
X62444456Y-133683008D01*
X62375508Y-133751956D01*
X62321337Y-133833030D01*
X62284023Y-133923114D01*
X62265000Y-134018747D01*
X62265000Y-134039241D01*
X61516420Y-134787822D01*
X61502306Y-134799405D01*
X61490723Y-134813519D01*
X61490720Y-134813522D01*
X61456068Y-134855745D01*
X61421711Y-134920023D01*
X61400555Y-134989768D01*
X61393411Y-135062300D01*
X61395201Y-135080473D01*
X61395200Y-136323373D01*
X61395201Y-136323383D01*
X61395200Y-141232264D01*
X61380708Y-141246756D01*
X61326537Y-141327830D01*
X61289223Y-141417914D01*
X61270200Y-141513547D01*
X59335000Y-141513547D01*
X59335000Y-135261624D01*
X59900000Y-135261624D01*
X59900000Y-135408376D01*
X59928630Y-135552309D01*
X59984789Y-135687890D01*
X60066321Y-135809910D01*
X60170090Y-135913679D01*
X60292110Y-135995211D01*
X60427691Y-136051370D01*
X60571624Y-136080000D01*
X60718376Y-136080000D01*
X60862309Y-136051370D01*
X60997890Y-135995211D01*
X61119910Y-135913679D01*
X61223679Y-135809910D01*
X61305211Y-135687890D01*
X61361370Y-135552309D01*
X61390000Y-135408376D01*
X61390000Y-135261624D01*
X61361370Y-135117691D01*
X61305211Y-134982110D01*
X61223679Y-134860090D01*
X61119910Y-134756321D01*
X60997890Y-134674789D01*
X60862309Y-134618630D01*
X60718376Y-134590000D01*
X60571624Y-134590000D01*
X60427691Y-134618630D01*
X60292110Y-134674789D01*
X60170090Y-134756321D01*
X60066321Y-134860090D01*
X59984789Y-134982110D01*
X59928630Y-135117691D01*
X59900000Y-135261624D01*
X59335000Y-135261624D01*
X59335000Y-132721624D01*
X59900000Y-132721624D01*
X59900000Y-132868376D01*
X59928630Y-133012309D01*
X59984789Y-133147890D01*
X60066321Y-133269910D01*
X60170090Y-133373679D01*
X60292110Y-133455211D01*
X60427691Y-133511370D01*
X60571624Y-133540000D01*
X60718376Y-133540000D01*
X60862309Y-133511370D01*
X60997890Y-133455211D01*
X61119910Y-133373679D01*
X61223679Y-133269910D01*
X61305211Y-133147890D01*
X61361370Y-133012309D01*
X61390000Y-132868376D01*
X61390000Y-132721624D01*
X61361370Y-132577691D01*
X61305211Y-132442110D01*
X61223679Y-132320090D01*
X61119910Y-132216321D01*
X60997890Y-132134789D01*
X60862309Y-132078630D01*
X60718376Y-132050000D01*
X60571624Y-132050000D01*
X60427691Y-132078630D01*
X60292110Y-132134789D01*
X60170090Y-132216321D01*
X60066321Y-132320090D01*
X59984789Y-132442110D01*
X59928630Y-132577691D01*
X59900000Y-132721624D01*
X59335000Y-132721624D01*
X59335000Y-129217229D01*
X59350460Y-129059557D01*
X59392699Y-128919654D01*
X59461308Y-128790619D01*
X59553672Y-128677369D01*
X59666275Y-128584215D01*
X59794823Y-128514710D01*
X59934437Y-128471492D01*
X60091346Y-128455000D01*
X67131742Y-128455000D01*
X66968527Y-128618215D01*
M02*
