M48
; DRILL file {KiCad (5.1.2-1)-1} date Donnerstag, 17. Dezember 2020 um 20:50:45
; FORMAT={-:-/ absolute / metric / decimal}
; #@! TF.CreationDate,2020-12-17T20:50:45+01:00
; #@! TF.GenerationSoftware,Kicad,Pcbnew,(5.1.2-1)-1
FMAT,2
METRIC
T1C0.300
T2C1.000
T3C1.000
%
G90
G05
T1
X141.105Y-98.115
X141.105Y-102.855
X141.105Y-106.215
X141.72Y-95.1
X143.155Y-107.982
X143.81Y-95.1
X144.25Y-100.487
X144.855Y-105.27
X145.585Y-111.72
X145.645Y-101.455
X145.645Y-102.055
X145.703Y-108.736
X145.9Y-95.1
X146.003Y-108.136
X146.003Y-109.336
X146.245Y-101.455
X146.245Y-102.055
X146.303Y-108.736
X146.603Y-108.136
X146.603Y-109.336
X146.885Y-110.87
X146.903Y-108.736
X146.932Y-97.265
X146.945Y-105.27
X147.203Y-108.136
X147.203Y-109.336
X147.503Y-108.736
X147.535Y-110.22
X148.185Y-109.57
X148.835Y-108.92
X149.022Y-95.84
X149.022Y-97.265
X149.23Y-113.943
X149.23Y-114.743
X149.54Y-111.945
X151.025Y-95.84
X151.115Y-112.534
X151.125Y-106.688
X152.19Y-108.145
X152.715Y-111.945
X153.202Y-95.84
X153.215Y-106.688
X155.292Y-95.84
X155.292Y-97.265
T2
X144.675Y-99.215
X149.755Y-99.215
X149.755Y-101.755
X152.295Y-99.215
X152.295Y-101.755
X154.835Y-99.215
X154.835Y-101.755
T3
X142.135Y-99.215
X142.135Y-101.755
X144.675Y-101.755
X147.215Y-99.215
X147.215Y-101.755
T0
M30
