M48
; DRILL file {KiCad (5.1.2-1)-1} date Mittwoch, 09. September 2020 um 12:48:15
; FORMAT={-:-/ absolute / inch / decimal}
; #@! TF.CreationDate,2020-09-09T12:48:15+02:00
; #@! TF.GenerationSoftware,Kicad,Pcbnew,(5.1.2-1)-1
FMAT,2
INCH
T1C0.0098
T2C0.0118
T3C0.0394
T4C0.0394
%
G90
G05
T1
X2.347Y-5.1848
X2.347Y-5.3715
X2.347Y-5.5037
X2.3713Y-5.0661
X2.452Y-5.351
X2.4535Y-5.0661
X2.499Y-5.6831
X2.5179Y-5.3077
X2.5179Y-5.351
X2.5278Y-5.3293
X2.5358Y-5.0661
X2.5376Y-5.3077
X2.5376Y-5.351
X2.538Y-5.612
X2.5474Y-5.3293
X2.5478Y-5.5904
X2.5478Y-5.6337
X2.5573Y-5.3077
X2.5573Y-5.351
X2.5577Y-5.612
X2.5675Y-5.5904
X2.5675Y-5.6337
X2.5774Y-5.612
X2.5872Y-5.5904
X2.5872Y-5.6337
X2.597Y-5.612
X2.626Y-5.8243
X2.6663Y-5.8041
X2.6663Y-5.8238
X2.6663Y-5.8435
X2.7411Y-5.7539
X2.7835Y-5.5797
X2.7835Y-5.5797
T2
X2.4317Y-5.5733
X2.4709Y-5.2782
X2.4947Y-5.4665
X2.5234Y-5.7205
X2.5746Y-5.7205
X2.5765Y-5.1514
X2.577Y-5.4665
X2.6002Y-5.685
X2.6258Y-5.6496
X2.6514Y-5.6142
X2.6588Y-5.0953
X2.6588Y-5.1514
X2.6831Y-5.7333
X2.741Y-5.0953
X2.7415Y-5.5223
X2.8041Y-5.7333
X2.8233Y-5.0953
X2.8238Y-5.5223
X2.9056Y-5.0953
X2.9056Y-5.1514
T3
X2.4876Y-5.2281
X2.6876Y-5.2281
X2.6876Y-5.3281
X2.7876Y-5.2281
X2.7876Y-5.3281
X2.8876Y-5.2281
X2.8876Y-5.3281
T4
X2.3876Y-5.2281
X2.3876Y-5.3281
X2.4876Y-5.3281
X2.5876Y-5.2281
X2.5876Y-5.3281
T0
M30
