%TF.GenerationSoftware,KiCad,Pcbnew,(5.1.2-1)-1*%
%TF.CreationDate,2020-09-09T12:48:07+02:00*%
%TF.ProjectId,RGB BYPASS AMP v3.1,52474220-4259-4504-9153-5320414d5020,2.21*%
%TF.SameCoordinates,Original*%
%TF.FileFunction,Legend,Top*%
%TF.FilePolarity,Positive*%
%FSLAX46Y46*%
G04 Gerber Fmt 4.6, Leading zero omitted, Abs format (unit mm)*
G04 Created by KiCad (PCBNEW (5.1.2-1)-1) date 2020-09-09 12:48:07*
%MOMM*%
%LPD*%
G04 APERTURE LIST*
%ADD10C,0.150000*%
%ADD11C,0.152500*%
%ADD12C,0.203200*%
%ADD13C,0.152400*%
%ADD14C,0.160000*%
G04 APERTURE END LIST*
D10*
X67490000Y-134600000D02*
X67490000Y-133540000D01*
X66030000Y-134600000D02*
X66030000Y-133540000D01*
X66030000Y-133540000D02*
X67490000Y-133540000D01*
X66030000Y-134600000D02*
X67490000Y-134600000D01*
D11*
X60452000Y-138038840D02*
X61650880Y-138038840D01*
X60451000Y-137887500D02*
X61651000Y-137887500D01*
D12*
X72097571Y-145552428D02*
X72242714Y-145600809D01*
X72291095Y-145649190D01*
X72339476Y-145745952D01*
X72339476Y-145891095D01*
X72291095Y-145987857D01*
X72242714Y-146036238D01*
X72145952Y-146084619D01*
X71758904Y-146084619D01*
X71758904Y-145068619D01*
X72097571Y-145068619D01*
X72194333Y-145117000D01*
X72242714Y-145165380D01*
X72291095Y-145262142D01*
X72291095Y-145358904D01*
X72242714Y-145455666D01*
X72194333Y-145504047D01*
X72097571Y-145552428D01*
X71758904Y-145552428D01*
X70691095Y-145117000D02*
X70594333Y-145068619D01*
X70449190Y-145068619D01*
X70304047Y-145117000D01*
X70207285Y-145213761D01*
X70158904Y-145310523D01*
X70110523Y-145504047D01*
X70110523Y-145649190D01*
X70158904Y-145842714D01*
X70207285Y-145939476D01*
X70304047Y-146036238D01*
X70449190Y-146084619D01*
X70545952Y-146084619D01*
X70691095Y-146036238D01*
X70739476Y-145987857D01*
X70739476Y-145649190D01*
X70545952Y-145649190D01*
X73854576Y-145953075D02*
X73872285Y-146019165D01*
X73841613Y-146169053D01*
X73793232Y-146252851D01*
X73678761Y-146354358D01*
X73546582Y-146389775D01*
X73438593Y-146383293D01*
X73246806Y-146328430D01*
X73121109Y-146255859D01*
X72977703Y-146117198D01*
X72918095Y-146026918D01*
X72882678Y-145894739D01*
X72913350Y-145744851D01*
X72961731Y-145661053D01*
X73076201Y-145559546D01*
X73142291Y-145541837D01*
X74089999Y-145642072D02*
X74204470Y-145540566D01*
X74325422Y-145331070D01*
X74331904Y-145223081D01*
X74314195Y-145156991D01*
X74254588Y-145066711D01*
X74170789Y-145018330D01*
X74062801Y-145011849D01*
X73996711Y-145029557D01*
X73906431Y-145089165D01*
X73767770Y-145232571D01*
X73677490Y-145292179D01*
X73611400Y-145309888D01*
X73503411Y-145303406D01*
X73419613Y-145255025D01*
X73360005Y-145164745D01*
X73342297Y-145098655D01*
X73348779Y-144990666D01*
X73469731Y-144781171D01*
X73584201Y-144679664D01*
D10*
X63780000Y-133684214D02*
X63780000Y-134228500D01*
X63750333Y-134337357D01*
X63691000Y-134409928D01*
X63602000Y-134446214D01*
X63542666Y-134446214D01*
X64076666Y-134373642D02*
X64106333Y-134409928D01*
X64076666Y-134446214D01*
X64047000Y-134409928D01*
X64076666Y-134373642D01*
X64076666Y-134446214D01*
X64076666Y-133974500D02*
X64106333Y-134010785D01*
X64076666Y-134047071D01*
X64047000Y-134010785D01*
X64076666Y-133974500D01*
X64076666Y-134047071D01*
X64670000Y-134446214D02*
X64373333Y-134446214D01*
X64373333Y-133684214D01*
X64877666Y-134446214D02*
X64877666Y-133684214D01*
X65115000Y-133684214D01*
X65174333Y-133720500D01*
X65204000Y-133756785D01*
X65233666Y-133829357D01*
X65233666Y-133938214D01*
X65204000Y-134010785D01*
X65174333Y-134047071D01*
X65115000Y-134083357D01*
X64877666Y-134083357D01*
X65708333Y-134047071D02*
X65500666Y-134047071D01*
X65500666Y-134446214D02*
X65500666Y-133684214D01*
X65797333Y-133684214D01*
X59616428Y-137367857D02*
X60073571Y-137367857D01*
X59845000Y-137596428D02*
X59845000Y-137139285D01*
D12*
X69139476Y-146084619D02*
X68800809Y-145600809D01*
X68558904Y-146084619D02*
X68558904Y-145068619D01*
X68945952Y-145068619D01*
X69042714Y-145117000D01*
X69091095Y-145165380D01*
X69139476Y-145262142D01*
X69139476Y-145407285D01*
X69091095Y-145504047D01*
X69042714Y-145552428D01*
X68945952Y-145600809D01*
X68558904Y-145600809D01*
D13*
X62952300Y-129787300D02*
X62952300Y-130327300D01*
X63752300Y-129787300D02*
X63752300Y-130327300D01*
X65042300Y-129787300D02*
X65042300Y-130327300D01*
X65842300Y-129787300D02*
X65842300Y-130327300D01*
X61662300Y-129787300D02*
X61662300Y-130327300D01*
X60862300Y-129787300D02*
X60862300Y-130327300D01*
X67932300Y-129787300D02*
X67932300Y-130327300D01*
X67132300Y-129787300D02*
X67132300Y-130327300D01*
D10*
X67675000Y-141985000D02*
G75*
G03X67675000Y-141985000I-305857J0D01*
G01*
D13*
X67985000Y-145495000D02*
X62805000Y-145495000D01*
X67985000Y-141395000D02*
X62805000Y-141395000D01*
X67985000Y-141395000D02*
X67985000Y-145495000D01*
X62805000Y-141395000D02*
X62805000Y-145495000D01*
X61237300Y-133782300D02*
X61237300Y-134322300D01*
X62037300Y-133782300D02*
X62037300Y-134322300D01*
X71312300Y-137779800D02*
X71312300Y-138319800D01*
X72112300Y-137779800D02*
X72112300Y-138319800D01*
X61247700Y-141162300D02*
X60707700Y-141162300D01*
X61247700Y-141962300D02*
X60707700Y-141962300D01*
X71312300Y-129787300D02*
X71312300Y-130327300D01*
X72112300Y-129787300D02*
X72112300Y-130327300D01*
X69222300Y-129787300D02*
X69222300Y-130327300D01*
X70022300Y-129787300D02*
X70022300Y-130327300D01*
X67132300Y-137779800D02*
X67132300Y-138319800D01*
X67932300Y-137779800D02*
X67932300Y-138319800D01*
X65642300Y-148322700D02*
X66182300Y-148322700D01*
X65642300Y-147522700D02*
X66182300Y-147522700D01*
X73402300Y-137779800D02*
X73402300Y-138319800D01*
X74202300Y-137779800D02*
X74202300Y-138319800D01*
X71312300Y-140772300D02*
X71312300Y-141312300D01*
X72112300Y-140772300D02*
X72112300Y-141312300D01*
X62952300Y-137779800D02*
X62952300Y-138319800D01*
X63752300Y-137779800D02*
X63752300Y-138319800D01*
X65042300Y-137779800D02*
X65042300Y-138319800D01*
X65842300Y-137779800D02*
X65842300Y-138319800D01*
X73402300Y-140772300D02*
X73402300Y-141312300D01*
X74202300Y-140772300D02*
X74202300Y-141312300D01*
X73402300Y-129787300D02*
X73402300Y-130327300D01*
X74202300Y-129787300D02*
X74202300Y-130327300D01*
X69222300Y-140772300D02*
X69222300Y-141312300D01*
X70022300Y-140772300D02*
X70022300Y-141312300D01*
X73120200Y-143612300D02*
X72580200Y-143612300D01*
X73120200Y-144412300D02*
X72580200Y-144412300D01*
X70120200Y-143612300D02*
X69580200Y-143612300D01*
X70120200Y-144412300D02*
X69580200Y-144412300D01*
X69222300Y-137779800D02*
X69222300Y-138319800D01*
X70022300Y-137779800D02*
X70022300Y-138319800D01*
X61651000Y-137887500D02*
X61651000Y-138637500D01*
X60451000Y-137887500D02*
X60451000Y-138637500D01*
X59529000Y-134827000D02*
X59529000Y-135335000D01*
D10*
X72506800Y-136451000D02*
G75*
G02X72229000Y-136173200I0J277800D01*
G01*
X74183200Y-134219000D02*
G75*
G02X74461000Y-134496800I0J-277800D01*
G01*
D13*
X74461000Y-136173200D02*
G75*
G02X74183200Y-136451000I-277800J0D01*
G01*
D10*
X72229000Y-134496800D02*
G75*
G02X72506800Y-134219000I277800J0D01*
G01*
D13*
X73345000Y-131679000D02*
G75*
G02X74461000Y-132795000I0J-1116000D01*
G01*
D10*
X74461000Y-132795000D02*
X74461000Y-136173200D01*
D13*
X59529000Y-132795000D02*
G75*
G02X60645000Y-131679000I1116000J0D01*
G01*
X60645000Y-131679000D02*
X73345000Y-131679000D01*
X60645000Y-136451000D02*
G75*
G02X59529000Y-135335000I0J1116000D01*
G01*
X59529000Y-132795000D02*
X59529000Y-133303000D01*
X60645000Y-136451000D02*
X74183200Y-136451000D01*
D10*
X72229000Y-136173200D02*
X72229000Y-134496800D01*
X72506800Y-134219000D02*
X74208600Y-134219000D01*
D14*
X74275000Y-135335000D02*
G75*
G03X74275000Y-135335000I-930000J0D01*
G01*
X74431002Y-135335000D02*
G75*
G03X74431002Y-135335000I-1086002J0D01*
G01*
D10*
G36*
X73675000Y-134245000D02*
G01*
X73795000Y-134225000D01*
X74315000Y-134985000D01*
X74425000Y-134865000D01*
X74425000Y-134275000D01*
X74395000Y-134275000D01*
X73675000Y-134245000D01*
G37*
X73675000Y-134245000D02*
X73795000Y-134225000D01*
X74315000Y-134985000D01*
X74425000Y-134865000D01*
X74425000Y-134275000D01*
X74395000Y-134275000D01*
X73675000Y-134245000D01*
G36*
X74415000Y-135775000D02*
G01*
X74405000Y-136215000D01*
X74315000Y-136385000D01*
X74155000Y-136425000D01*
X73815000Y-136395000D01*
X74415000Y-135775000D01*
G37*
X74415000Y-135775000D02*
X74405000Y-136215000D01*
X74315000Y-136385000D01*
X74155000Y-136425000D01*
X73815000Y-136395000D01*
X74415000Y-135775000D01*
G36*
X72295000Y-135835000D02*
G01*
X72285000Y-135975000D01*
X72285000Y-136165000D01*
X72305000Y-136285000D01*
X72345000Y-136335000D01*
X72405000Y-136375000D01*
X72495000Y-136395000D01*
X72845000Y-136385000D01*
X72295000Y-135835000D01*
G37*
X72295000Y-135835000D02*
X72285000Y-135975000D01*
X72285000Y-136165000D01*
X72305000Y-136285000D01*
X72345000Y-136335000D01*
X72405000Y-136375000D01*
X72495000Y-136395000D01*
X72845000Y-136385000D01*
X72295000Y-135835000D01*
G36*
X72865000Y-134295000D02*
G01*
X72735000Y-134355000D01*
X72645000Y-134405000D01*
X72575000Y-134505000D01*
X72445000Y-134645000D01*
X72385000Y-134745000D01*
X72345000Y-134825000D01*
X72285000Y-134835000D01*
X72285000Y-134695000D01*
X72265000Y-134565000D01*
X72295000Y-134405000D01*
X72335000Y-134295000D01*
X72405000Y-134245000D01*
X72825000Y-134265000D01*
X72865000Y-134295000D01*
G37*
X72865000Y-134295000D02*
X72735000Y-134355000D01*
X72645000Y-134405000D01*
X72575000Y-134505000D01*
X72445000Y-134645000D01*
X72385000Y-134745000D01*
X72345000Y-134825000D01*
X72285000Y-134835000D01*
X72285000Y-134695000D01*
X72265000Y-134565000D01*
X72295000Y-134405000D01*
X72335000Y-134295000D01*
X72405000Y-134245000D01*
X72825000Y-134265000D01*
X72865000Y-134295000D01*
D13*
X62637142Y-130559857D02*
X62673428Y-130596142D01*
X62709714Y-130705000D01*
X62709714Y-130777571D01*
X62673428Y-130886428D01*
X62600857Y-130959000D01*
X62528285Y-130995285D01*
X62383142Y-131031571D01*
X62274285Y-131031571D01*
X62129142Y-130995285D01*
X62056571Y-130959000D01*
X61984000Y-130886428D01*
X61947714Y-130777571D01*
X61947714Y-130705000D01*
X61984000Y-130596142D01*
X62020285Y-130559857D01*
X61947714Y-130305857D02*
X61947714Y-129834142D01*
X62238000Y-130088142D01*
X62238000Y-129979285D01*
X62274285Y-129906714D01*
X62310571Y-129870428D01*
X62383142Y-129834142D01*
X62564571Y-129834142D01*
X62637142Y-129870428D01*
X62673428Y-129906714D01*
X62709714Y-129979285D01*
X62709714Y-130197000D01*
X62673428Y-130269571D01*
X62637142Y-130305857D01*
X62020285Y-129543857D02*
X61984000Y-129507571D01*
X61947714Y-129435000D01*
X61947714Y-129253571D01*
X61984000Y-129181000D01*
X62020285Y-129144714D01*
X62092857Y-129108428D01*
X62165428Y-129108428D01*
X62274285Y-129144714D01*
X62709714Y-129580142D01*
X62709714Y-129108428D01*
X64727142Y-130559857D02*
X64763428Y-130596142D01*
X64799714Y-130705000D01*
X64799714Y-130777571D01*
X64763428Y-130886428D01*
X64690857Y-130959000D01*
X64618285Y-130995285D01*
X64473142Y-131031571D01*
X64364285Y-131031571D01*
X64219142Y-130995285D01*
X64146571Y-130959000D01*
X64074000Y-130886428D01*
X64037714Y-130777571D01*
X64037714Y-130705000D01*
X64074000Y-130596142D01*
X64110285Y-130559857D01*
X64110285Y-130269571D02*
X64074000Y-130233285D01*
X64037714Y-130160714D01*
X64037714Y-129979285D01*
X64074000Y-129906714D01*
X64110285Y-129870428D01*
X64182857Y-129834142D01*
X64255428Y-129834142D01*
X64364285Y-129870428D01*
X64799714Y-130305857D01*
X64799714Y-129834142D01*
X64110285Y-129543857D02*
X64074000Y-129507571D01*
X64037714Y-129435000D01*
X64037714Y-129253571D01*
X64074000Y-129181000D01*
X64110285Y-129144714D01*
X64182857Y-129108428D01*
X64255428Y-129108428D01*
X64364285Y-129144714D01*
X64799714Y-129580142D01*
X64799714Y-129108428D01*
X60547142Y-130559857D02*
X60583428Y-130596142D01*
X60619714Y-130705000D01*
X60619714Y-130777571D01*
X60583428Y-130886428D01*
X60510857Y-130959000D01*
X60438285Y-130995285D01*
X60293142Y-131031571D01*
X60184285Y-131031571D01*
X60039142Y-130995285D01*
X59966571Y-130959000D01*
X59894000Y-130886428D01*
X59857714Y-130777571D01*
X59857714Y-130705000D01*
X59894000Y-130596142D01*
X59930285Y-130559857D01*
X60111714Y-129906714D02*
X60619714Y-129906714D01*
X59821428Y-130088142D02*
X60365714Y-130269571D01*
X60365714Y-129797857D01*
X59930285Y-129543857D02*
X59894000Y-129507571D01*
X59857714Y-129435000D01*
X59857714Y-129253571D01*
X59894000Y-129181000D01*
X59930285Y-129144714D01*
X60002857Y-129108428D01*
X60075428Y-129108428D01*
X60184285Y-129144714D01*
X60619714Y-129580142D01*
X60619714Y-129108428D01*
X66817142Y-130559857D02*
X66853428Y-130596142D01*
X66889714Y-130705000D01*
X66889714Y-130777571D01*
X66853428Y-130886428D01*
X66780857Y-130959000D01*
X66708285Y-130995285D01*
X66563142Y-131031571D01*
X66454285Y-131031571D01*
X66309142Y-130995285D01*
X66236571Y-130959000D01*
X66164000Y-130886428D01*
X66127714Y-130777571D01*
X66127714Y-130705000D01*
X66164000Y-130596142D01*
X66200285Y-130559857D01*
X66127714Y-129870428D02*
X66127714Y-130233285D01*
X66490571Y-130269571D01*
X66454285Y-130233285D01*
X66418000Y-130160714D01*
X66418000Y-129979285D01*
X66454285Y-129906714D01*
X66490571Y-129870428D01*
X66563142Y-129834142D01*
X66744571Y-129834142D01*
X66817142Y-129870428D01*
X66853428Y-129906714D01*
X66889714Y-129979285D01*
X66889714Y-130160714D01*
X66853428Y-130233285D01*
X66817142Y-130269571D01*
X66889714Y-129108428D02*
X66889714Y-129543857D01*
X66889714Y-129326142D02*
X66127714Y-129326142D01*
X66236571Y-129398714D01*
X66309142Y-129471285D01*
X66345428Y-129543857D01*
X61894428Y-140032714D02*
X61894428Y-140649571D01*
X61930714Y-140722142D01*
X61967000Y-140758428D01*
X62039571Y-140794714D01*
X62184714Y-140794714D01*
X62257285Y-140758428D01*
X62293571Y-140722142D01*
X62329857Y-140649571D01*
X62329857Y-140032714D01*
X63091857Y-140794714D02*
X62656428Y-140794714D01*
X62874142Y-140794714D02*
X62874142Y-140032714D01*
X62801571Y-140141571D01*
X62729000Y-140214142D01*
X62656428Y-140250428D01*
D10*
X59737800Y-134047071D02*
X59527800Y-134047071D01*
X59527800Y-134446214D02*
X59527800Y-133684214D01*
X59827800Y-133684214D01*
X60277800Y-134047071D02*
X60367800Y-134083357D01*
X60397800Y-134119642D01*
X60427800Y-134192214D01*
X60427800Y-134301071D01*
X60397800Y-134373642D01*
X60367800Y-134409928D01*
X60307800Y-134446214D01*
X60067800Y-134446214D01*
X60067800Y-133684214D01*
X60277800Y-133684214D01*
X60337800Y-133720500D01*
X60367800Y-133756785D01*
X60397800Y-133829357D01*
X60397800Y-133901928D01*
X60367800Y-133974500D01*
X60337800Y-134010785D01*
X60277800Y-134047071D01*
X60067800Y-134047071D01*
X61027800Y-134446214D02*
X60667800Y-134446214D01*
X60847800Y-134446214D02*
X60847800Y-133684214D01*
X60787800Y-133793071D01*
X60727800Y-133865642D01*
X60667800Y-133901928D01*
D13*
X71069714Y-138552357D02*
X70706857Y-138806357D01*
X71069714Y-138987785D02*
X70307714Y-138987785D01*
X70307714Y-138697500D01*
X70344000Y-138624928D01*
X70380285Y-138588642D01*
X70452857Y-138552357D01*
X70561714Y-138552357D01*
X70634285Y-138588642D01*
X70670571Y-138624928D01*
X70706857Y-138697500D01*
X70706857Y-138987785D01*
X70307714Y-138298357D02*
X70307714Y-137826642D01*
X70598000Y-138080642D01*
X70598000Y-137971785D01*
X70634285Y-137899214D01*
X70670571Y-137862928D01*
X70743142Y-137826642D01*
X70924571Y-137826642D01*
X70997142Y-137862928D01*
X71033428Y-137899214D01*
X71069714Y-137971785D01*
X71069714Y-138189500D01*
X71033428Y-138262071D01*
X70997142Y-138298357D01*
X71069714Y-137100928D02*
X71069714Y-137536357D01*
X71069714Y-137318642D02*
X70307714Y-137318642D01*
X70416571Y-137391214D01*
X70489142Y-137463785D01*
X70525428Y-137536357D01*
X60248000Y-140919714D02*
X59994000Y-140556857D01*
X59812571Y-140919714D02*
X59812571Y-140157714D01*
X60102857Y-140157714D01*
X60175428Y-140194000D01*
X60211714Y-140230285D01*
X60248000Y-140302857D01*
X60248000Y-140411714D01*
X60211714Y-140484285D01*
X60175428Y-140520571D01*
X60102857Y-140556857D01*
X59812571Y-140556857D01*
X60973714Y-140919714D02*
X60538285Y-140919714D01*
X60756000Y-140919714D02*
X60756000Y-140157714D01*
X60683428Y-140266571D01*
X60610857Y-140339142D01*
X60538285Y-140375428D01*
X71069714Y-130559857D02*
X70706857Y-130813857D01*
X71069714Y-130995285D02*
X70307714Y-130995285D01*
X70307714Y-130705000D01*
X70344000Y-130632428D01*
X70380285Y-130596142D01*
X70452857Y-130559857D01*
X70561714Y-130559857D01*
X70634285Y-130596142D01*
X70670571Y-130632428D01*
X70706857Y-130705000D01*
X70706857Y-130995285D01*
X70307714Y-130305857D02*
X70307714Y-129834142D01*
X70598000Y-130088142D01*
X70598000Y-129979285D01*
X70634285Y-129906714D01*
X70670571Y-129870428D01*
X70743142Y-129834142D01*
X70924571Y-129834142D01*
X70997142Y-129870428D01*
X71033428Y-129906714D01*
X71069714Y-129979285D01*
X71069714Y-130197000D01*
X71033428Y-130269571D01*
X70997142Y-130305857D01*
X70307714Y-129580142D02*
X70307714Y-129108428D01*
X70598000Y-129362428D01*
X70598000Y-129253571D01*
X70634285Y-129181000D01*
X70670571Y-129144714D01*
X70743142Y-129108428D01*
X70924571Y-129108428D01*
X70997142Y-129144714D01*
X71033428Y-129181000D01*
X71069714Y-129253571D01*
X71069714Y-129471285D01*
X71033428Y-129543857D01*
X70997142Y-129580142D01*
X68979714Y-130559857D02*
X68616857Y-130813857D01*
X68979714Y-130995285D02*
X68217714Y-130995285D01*
X68217714Y-130705000D01*
X68254000Y-130632428D01*
X68290285Y-130596142D01*
X68362857Y-130559857D01*
X68471714Y-130559857D01*
X68544285Y-130596142D01*
X68580571Y-130632428D01*
X68616857Y-130705000D01*
X68616857Y-130995285D01*
X68471714Y-129906714D02*
X68979714Y-129906714D01*
X68181428Y-130088142D02*
X68725714Y-130269571D01*
X68725714Y-129797857D01*
X68217714Y-129580142D02*
X68217714Y-129108428D01*
X68508000Y-129362428D01*
X68508000Y-129253571D01*
X68544285Y-129181000D01*
X68580571Y-129144714D01*
X68653142Y-129108428D01*
X68834571Y-129108428D01*
X68907142Y-129144714D01*
X68943428Y-129181000D01*
X68979714Y-129253571D01*
X68979714Y-129471285D01*
X68943428Y-129543857D01*
X68907142Y-129580142D01*
X66889714Y-138552357D02*
X66526857Y-138806357D01*
X66889714Y-138987785D02*
X66127714Y-138987785D01*
X66127714Y-138697500D01*
X66164000Y-138624928D01*
X66200285Y-138588642D01*
X66272857Y-138552357D01*
X66381714Y-138552357D01*
X66454285Y-138588642D01*
X66490571Y-138624928D01*
X66526857Y-138697500D01*
X66526857Y-138987785D01*
X66381714Y-137899214D02*
X66889714Y-137899214D01*
X66091428Y-138080642D02*
X66635714Y-138262071D01*
X66635714Y-137790357D01*
X66200285Y-137536357D02*
X66164000Y-137500071D01*
X66127714Y-137427500D01*
X66127714Y-137246071D01*
X66164000Y-137173500D01*
X66200285Y-137137214D01*
X66272857Y-137100928D01*
X66345428Y-137100928D01*
X66454285Y-137137214D01*
X66889714Y-137572642D01*
X66889714Y-137100928D01*
X63200000Y-148182142D02*
X63166666Y-148218428D01*
X63066666Y-148254714D01*
X63000000Y-148254714D01*
X62900000Y-148218428D01*
X62833333Y-148145857D01*
X62800000Y-148073285D01*
X62766666Y-147928142D01*
X62766666Y-147819285D01*
X62800000Y-147674142D01*
X62833333Y-147601571D01*
X62900000Y-147529000D01*
X63000000Y-147492714D01*
X63066666Y-147492714D01*
X63166666Y-147529000D01*
X63200000Y-147565285D01*
X63866666Y-148254714D02*
X63466666Y-148254714D01*
X63666666Y-148254714D02*
X63666666Y-147492714D01*
X63600000Y-147601571D01*
X63533333Y-147674142D01*
X63466666Y-147710428D01*
X64533333Y-148254714D02*
X64133333Y-148254714D01*
X64333333Y-148254714D02*
X64333333Y-147492714D01*
X64266666Y-147601571D01*
X64200000Y-147674142D01*
X64133333Y-147710428D01*
X73159714Y-138552357D02*
X72796857Y-138806357D01*
X73159714Y-138987785D02*
X72397714Y-138987785D01*
X72397714Y-138697500D01*
X72434000Y-138624928D01*
X72470285Y-138588642D01*
X72542857Y-138552357D01*
X72651714Y-138552357D01*
X72724285Y-138588642D01*
X72760571Y-138624928D01*
X72796857Y-138697500D01*
X72796857Y-138987785D01*
X72651714Y-137899214D02*
X73159714Y-137899214D01*
X72361428Y-138080642D02*
X72905714Y-138262071D01*
X72905714Y-137790357D01*
X73159714Y-137100928D02*
X73159714Y-137536357D01*
X73159714Y-137318642D02*
X72397714Y-137318642D01*
X72506571Y-137391214D01*
X72579142Y-137463785D01*
X72615428Y-137536357D01*
X70997142Y-141544857D02*
X71033428Y-141581142D01*
X71069714Y-141690000D01*
X71069714Y-141762571D01*
X71033428Y-141871428D01*
X70960857Y-141944000D01*
X70888285Y-141980285D01*
X70743142Y-142016571D01*
X70634285Y-142016571D01*
X70489142Y-141980285D01*
X70416571Y-141944000D01*
X70344000Y-141871428D01*
X70307714Y-141762571D01*
X70307714Y-141690000D01*
X70344000Y-141581142D01*
X70380285Y-141544857D01*
X70307714Y-141290857D02*
X70307714Y-140819142D01*
X70598000Y-141073142D01*
X70598000Y-140964285D01*
X70634285Y-140891714D01*
X70670571Y-140855428D01*
X70743142Y-140819142D01*
X70924571Y-140819142D01*
X70997142Y-140855428D01*
X71033428Y-140891714D01*
X71069714Y-140964285D01*
X71069714Y-141182000D01*
X71033428Y-141254571D01*
X70997142Y-141290857D01*
X71069714Y-140093428D02*
X71069714Y-140528857D01*
X71069714Y-140311142D02*
X70307714Y-140311142D01*
X70416571Y-140383714D01*
X70489142Y-140456285D01*
X70525428Y-140528857D01*
X62709714Y-138552357D02*
X62346857Y-138806357D01*
X62709714Y-138987785D02*
X61947714Y-138987785D01*
X61947714Y-138697500D01*
X61984000Y-138624928D01*
X62020285Y-138588642D01*
X62092857Y-138552357D01*
X62201714Y-138552357D01*
X62274285Y-138588642D01*
X62310571Y-138624928D01*
X62346857Y-138697500D01*
X62346857Y-138987785D01*
X62020285Y-138262071D02*
X61984000Y-138225785D01*
X61947714Y-138153214D01*
X61947714Y-137971785D01*
X61984000Y-137899214D01*
X62020285Y-137862928D01*
X62092857Y-137826642D01*
X62165428Y-137826642D01*
X62274285Y-137862928D01*
X62709714Y-138298357D01*
X62709714Y-137826642D01*
X62020285Y-137536357D02*
X61984000Y-137500071D01*
X61947714Y-137427500D01*
X61947714Y-137246071D01*
X61984000Y-137173500D01*
X62020285Y-137137214D01*
X62092857Y-137100928D01*
X62165428Y-137100928D01*
X62274285Y-137137214D01*
X62709714Y-137572642D01*
X62709714Y-137100928D01*
X64799714Y-138552357D02*
X64436857Y-138806357D01*
X64799714Y-138987785D02*
X64037714Y-138987785D01*
X64037714Y-138697500D01*
X64074000Y-138624928D01*
X64110285Y-138588642D01*
X64182857Y-138552357D01*
X64291714Y-138552357D01*
X64364285Y-138588642D01*
X64400571Y-138624928D01*
X64436857Y-138697500D01*
X64436857Y-138987785D01*
X64037714Y-138298357D02*
X64037714Y-137826642D01*
X64328000Y-138080642D01*
X64328000Y-137971785D01*
X64364285Y-137899214D01*
X64400571Y-137862928D01*
X64473142Y-137826642D01*
X64654571Y-137826642D01*
X64727142Y-137862928D01*
X64763428Y-137899214D01*
X64799714Y-137971785D01*
X64799714Y-138189500D01*
X64763428Y-138262071D01*
X64727142Y-138298357D01*
X64110285Y-137536357D02*
X64074000Y-137500071D01*
X64037714Y-137427500D01*
X64037714Y-137246071D01*
X64074000Y-137173500D01*
X64110285Y-137137214D01*
X64182857Y-137100928D01*
X64255428Y-137100928D01*
X64364285Y-137137214D01*
X64799714Y-137572642D01*
X64799714Y-137100928D01*
X73087142Y-141544857D02*
X73123428Y-141581142D01*
X73159714Y-141690000D01*
X73159714Y-141762571D01*
X73123428Y-141871428D01*
X73050857Y-141944000D01*
X72978285Y-141980285D01*
X72833142Y-142016571D01*
X72724285Y-142016571D01*
X72579142Y-141980285D01*
X72506571Y-141944000D01*
X72434000Y-141871428D01*
X72397714Y-141762571D01*
X72397714Y-141690000D01*
X72434000Y-141581142D01*
X72470285Y-141544857D01*
X72651714Y-140891714D02*
X73159714Y-140891714D01*
X72361428Y-141073142D02*
X72905714Y-141254571D01*
X72905714Y-140782857D01*
X73159714Y-140093428D02*
X73159714Y-140528857D01*
X73159714Y-140311142D02*
X72397714Y-140311142D01*
X72506571Y-140383714D01*
X72579142Y-140456285D01*
X72615428Y-140528857D01*
X73159714Y-130559857D02*
X72796857Y-130813857D01*
X73159714Y-130995285D02*
X72397714Y-130995285D01*
X72397714Y-130705000D01*
X72434000Y-130632428D01*
X72470285Y-130596142D01*
X72542857Y-130559857D01*
X72651714Y-130559857D01*
X72724285Y-130596142D01*
X72760571Y-130632428D01*
X72796857Y-130705000D01*
X72796857Y-130995285D01*
X72470285Y-130269571D02*
X72434000Y-130233285D01*
X72397714Y-130160714D01*
X72397714Y-129979285D01*
X72434000Y-129906714D01*
X72470285Y-129870428D01*
X72542857Y-129834142D01*
X72615428Y-129834142D01*
X72724285Y-129870428D01*
X73159714Y-130305857D01*
X73159714Y-129834142D01*
X72397714Y-129580142D02*
X72397714Y-129108428D01*
X72688000Y-129362428D01*
X72688000Y-129253571D01*
X72724285Y-129181000D01*
X72760571Y-129144714D01*
X72833142Y-129108428D01*
X73014571Y-129108428D01*
X73087142Y-129144714D01*
X73123428Y-129181000D01*
X73159714Y-129253571D01*
X73159714Y-129471285D01*
X73123428Y-129543857D01*
X73087142Y-129580142D01*
X68907142Y-141544857D02*
X68943428Y-141581142D01*
X68979714Y-141690000D01*
X68979714Y-141762571D01*
X68943428Y-141871428D01*
X68870857Y-141944000D01*
X68798285Y-141980285D01*
X68653142Y-142016571D01*
X68544285Y-142016571D01*
X68399142Y-141980285D01*
X68326571Y-141944000D01*
X68254000Y-141871428D01*
X68217714Y-141762571D01*
X68217714Y-141690000D01*
X68254000Y-141581142D01*
X68290285Y-141544857D01*
X68290285Y-141254571D02*
X68254000Y-141218285D01*
X68217714Y-141145714D01*
X68217714Y-140964285D01*
X68254000Y-140891714D01*
X68290285Y-140855428D01*
X68362857Y-140819142D01*
X68435428Y-140819142D01*
X68544285Y-140855428D01*
X68979714Y-141290857D01*
X68979714Y-140819142D01*
X68979714Y-140093428D02*
X68979714Y-140528857D01*
X68979714Y-140311142D02*
X68217714Y-140311142D01*
X68326571Y-140383714D01*
X68399142Y-140456285D01*
X68435428Y-140528857D01*
X72347642Y-143319714D02*
X72093642Y-142956857D01*
X71912214Y-143319714D02*
X71912214Y-142557714D01*
X72202500Y-142557714D01*
X72275071Y-142594000D01*
X72311357Y-142630285D01*
X72347642Y-142702857D01*
X72347642Y-142811714D01*
X72311357Y-142884285D01*
X72275071Y-142920571D01*
X72202500Y-142956857D01*
X71912214Y-142956857D01*
X73037071Y-142557714D02*
X72674214Y-142557714D01*
X72637928Y-142920571D01*
X72674214Y-142884285D01*
X72746785Y-142848000D01*
X72928214Y-142848000D01*
X73000785Y-142884285D01*
X73037071Y-142920571D01*
X73073357Y-142993142D01*
X73073357Y-143174571D01*
X73037071Y-143247142D01*
X73000785Y-143283428D01*
X72928214Y-143319714D01*
X72746785Y-143319714D01*
X72674214Y-143283428D01*
X72637928Y-143247142D01*
X73799071Y-143319714D02*
X73363642Y-143319714D01*
X73581357Y-143319714D02*
X73581357Y-142557714D01*
X73508785Y-142666571D01*
X73436214Y-142739142D01*
X73363642Y-142775428D01*
X69347642Y-143319714D02*
X69093642Y-142956857D01*
X68912214Y-143319714D02*
X68912214Y-142557714D01*
X69202500Y-142557714D01*
X69275071Y-142594000D01*
X69311357Y-142630285D01*
X69347642Y-142702857D01*
X69347642Y-142811714D01*
X69311357Y-142884285D01*
X69275071Y-142920571D01*
X69202500Y-142956857D01*
X68912214Y-142956857D01*
X70037071Y-142557714D02*
X69674214Y-142557714D01*
X69637928Y-142920571D01*
X69674214Y-142884285D01*
X69746785Y-142848000D01*
X69928214Y-142848000D01*
X70000785Y-142884285D01*
X70037071Y-142920571D01*
X70073357Y-142993142D01*
X70073357Y-143174571D01*
X70037071Y-143247142D01*
X70000785Y-143283428D01*
X69928214Y-143319714D01*
X69746785Y-143319714D01*
X69674214Y-143283428D01*
X69637928Y-143247142D01*
X70363642Y-142630285D02*
X70399928Y-142594000D01*
X70472500Y-142557714D01*
X70653928Y-142557714D01*
X70726500Y-142594000D01*
X70762785Y-142630285D01*
X70799071Y-142702857D01*
X70799071Y-142775428D01*
X70762785Y-142884285D01*
X70327357Y-143319714D01*
X70799071Y-143319714D01*
X68979714Y-138552357D02*
X68616857Y-138806357D01*
X68979714Y-138987785D02*
X68217714Y-138987785D01*
X68217714Y-138697500D01*
X68254000Y-138624928D01*
X68290285Y-138588642D01*
X68362857Y-138552357D01*
X68471714Y-138552357D01*
X68544285Y-138588642D01*
X68580571Y-138624928D01*
X68616857Y-138697500D01*
X68616857Y-138987785D01*
X68290285Y-138262071D02*
X68254000Y-138225785D01*
X68217714Y-138153214D01*
X68217714Y-137971785D01*
X68254000Y-137899214D01*
X68290285Y-137862928D01*
X68362857Y-137826642D01*
X68435428Y-137826642D01*
X68544285Y-137862928D01*
X68979714Y-138298357D01*
X68979714Y-137826642D01*
X68979714Y-137100928D02*
X68979714Y-137536357D01*
X68979714Y-137318642D02*
X68217714Y-137318642D01*
X68326571Y-137391214D01*
X68399142Y-137463785D01*
X68435428Y-137536357D01*
X60117142Y-138789500D02*
X60153428Y-138825785D01*
X60189714Y-138934642D01*
X60189714Y-139007214D01*
X60153428Y-139116071D01*
X60080857Y-139188642D01*
X60008285Y-139224928D01*
X59863142Y-139261214D01*
X59754285Y-139261214D01*
X59609142Y-139224928D01*
X59536571Y-139188642D01*
X59464000Y-139116071D01*
X59427714Y-139007214D01*
X59427714Y-138934642D01*
X59464000Y-138825785D01*
X59500285Y-138789500D01*
X60189714Y-138063785D02*
X60189714Y-138499214D01*
X60189714Y-138281500D02*
X59427714Y-138281500D01*
X59536571Y-138354071D01*
X59609142Y-138426642D01*
X59645428Y-138499214D01*
M02*
